<svg width="542" height="398" fill="none" xmlns="http://www.w3.org/2000/svg"><path fill="#fff" d="M0 0h542v398H0z"/><g clip-path="url(#clip0)"><path d="M225 328V33" stroke="#EFF0F3"/><path d="M219.08 342.923v-.955h-3.844v.955h3.844zm1.799-3.146h1.019c0-1.002.674-1.664 1.688-1.664.996 0 1.6.668 1.6 1.564 0 .744-.317 1.184-1.395 2.35l-2.859 3.094v.726h5.472v-.949h-4.008v-.094l1.922-1.986c1.524-1.576 1.946-2.279 1.946-3.252 0-1.371-1.131-2.373-2.608-2.373-1.617 0-2.777 1.078-2.777 2.584zm10.119 6.269c1.729 0 2.906-1.195 2.906-2.935 0-1.676-1.172-2.789-2.59-2.789-.843 0-1.47.258-1.88.767h-.094l.264-2.754h3.867v-.943h-4.694l-.486 4.834h.99c.334-.627.967-.996 1.77-.996 1.066 0 1.799.768 1.799 1.91 0 1.184-.733 1.981-1.84 1.981-.996 0-1.723-.604-1.817-1.506h-1.037c.094 1.447 1.242 2.431 2.842 2.431z" fill="#7D8893"/><path d="M256 328V33" stroke="#EFF0F3"/><path d="M250.016 342.923v-.955h-3.844v.955h3.844zm1.798-3.146h1.02c0-1.002.674-1.664 1.687-1.664.997 0 1.6.668 1.6 1.564 0 .744-.316 1.184-1.394 2.35l-2.86 3.094v.726h5.473v-.949h-4.008v-.094l1.922-1.986c1.523-1.576 1.945-2.279 1.945-3.252 0-1.371-1.131-2.373-2.607-2.373-1.617 0-2.778 1.078-2.778 2.584zm10.149 6.269c1.898 0 2.988-1.605 2.988-4.412 0-2.801-1.107-4.441-2.988-4.441-1.893 0-3 1.635-3 4.424 0 2.812 1.096 4.429 3 4.429zm0-.92c-1.248 0-1.94-1.248-1.94-3.509 0-2.233.704-3.498 1.94-3.498s1.928 1.254 1.928 3.498c0 2.267-.68 3.509-1.928 3.509z" fill="#7D8893"/><path d="M287 328V33" stroke="#EFF0F3"/><path d="M281.906 342.923v-.955h-3.844v.955h3.844zm3.873 2.924h1.055v-8.455h-1.049l-2.25 1.617v1.114l2.151-1.559h.093v7.283zm6.393.199c1.728 0 2.906-1.195 2.906-2.935 0-1.676-1.172-2.789-2.59-2.789-.843 0-1.47.258-1.881.767h-.093l.263-2.754h3.868v-.943h-4.694l-.486 4.834h.99c.334-.627.967-.996 1.77-.996 1.066 0 1.798.768 1.798 1.91 0 1.184-.732 1.981-1.839 1.981-.996 0-1.723-.604-1.817-1.506h-1.037c.094 1.447 1.242 2.431 2.842 2.431z" fill="#7D8893"/><path d="M318 328V33" stroke="#EFF0F3"/><path d="M312.842 342.923v-.955h-3.844v.955h3.844zm3.873 2.924h1.055v-8.455h-1.049l-2.25 1.617v1.114l2.15-1.559h.094v7.283zm6.422.199c1.898 0 2.988-1.605 2.988-4.412 0-2.801-1.107-4.441-2.988-4.441-1.893 0-3 1.635-3 4.424 0 2.812 1.095 4.429 3 4.429zm0-.92c-1.248 0-1.94-1.248-1.94-3.509 0-2.233.703-3.498 1.94-3.498 1.236 0 1.927 1.254 1.927 3.498 0 2.267-.679 3.509-1.927 3.509z" fill="#7D8893"/><path d="M349 328V33" stroke="#EFF0F3"/><path d="M346.707 342.923v-.955h-3.844v.955h3.844zm4.664 3.123c1.729 0 2.906-1.195 2.906-2.935 0-1.676-1.172-2.789-2.589-2.789-.844 0-1.471.258-1.881.767h-.094l.264-2.754h3.867v-.943h-4.694l-.486 4.834h.99c.334-.627.967-.996 1.77-.996 1.066 0 1.799.768 1.799 1.91 0 1.184-.733 1.981-1.84 1.981-.996 0-1.723-.604-1.817-1.506h-1.037c.094 1.447 1.242 2.431 2.842 2.431z" fill="#7D8893"/><path d="M380 328V33" stroke="#EFF0F3"/><path d="M379.506 346.046c1.898 0 2.988-1.605 2.988-4.412 0-2.801-1.107-4.441-2.988-4.441-1.893 0-3 1.635-3 4.424 0 2.812 1.096 4.429 3 4.429zm0-.92c-1.248 0-1.94-1.248-1.94-3.509 0-2.233.704-3.498 1.94-3.498s1.928 1.254 1.928 3.498c0 2.267-.68 3.509-1.928 3.509z" fill="#7D8893"/><path d="M411 328V33" stroke="#EFF0F3"/><path d="M410.541 346.046c1.729 0 2.906-1.195 2.906-2.935 0-1.676-1.172-2.789-2.59-2.789-.843 0-1.47.258-1.88.767h-.094l.263-2.754h3.868v-.943h-4.694l-.486 4.834h.99c.334-.627.967-.996 1.77-.996 1.066 0 1.799.768 1.799 1.91 0 1.184-.733 1.981-1.84 1.981-.996 0-1.723-.604-1.817-1.506h-1.037c.094 1.447 1.242 2.431 2.842 2.431z" fill="#7D8893"/><path d="M442 328V33" stroke="#EFF0F3"/><path d="M437.885 345.847h1.054v-8.455h-1.048l-2.25 1.617v1.114l2.15-1.559h.094v7.283zm6.422.199c1.898 0 2.988-1.605 2.988-4.412 0-2.801-1.107-4.441-2.988-4.441-1.893 0-3 1.635-3 4.424 0 2.812 1.095 4.429 3 4.429zm0-.92c-1.248 0-1.94-1.248-1.94-3.509 0-2.233.703-3.498 1.94-3.498 1.236 0 1.927 1.254 1.927 3.498 0 2.267-.679 3.509-1.927 3.509z" fill="#7D8893"/><path d="M473 328V33" stroke="#EFF0F3"/><path d="M468.949 345.847h1.055v-8.455h-1.049l-2.25 1.617v1.114l2.15-1.559h.094v7.283zm6.393.199c1.728 0 2.906-1.195 2.906-2.935 0-1.676-1.172-2.789-2.59-2.789-.844 0-1.47.258-1.881.767h-.093l.263-2.754h3.867v-.943h-4.693l-.486 4.834h.99c.334-.627.967-.996 1.77-.996 1.066 0 1.798.768 1.798 1.91 0 1.184-.732 1.981-1.839 1.981-.997 0-1.723-.604-1.817-1.506H472.5c.094 1.447 1.242 2.431 2.842 2.431z" fill="#7D8893"/><path d="M504 328V33" stroke="#EFF0F3"/><path d="M496.984 339.777h1.02c0-1.002.674-1.664 1.687-1.664.997 0 1.6.668 1.6 1.564 0 .744-.316 1.184-1.395 2.35l-2.859 3.094v.726h5.473v-.949h-4.008v-.094l1.922-1.986c1.523-1.576 1.945-2.279 1.945-3.252 0-1.371-1.131-2.373-2.607-2.373-1.617 0-2.778 1.078-2.778 2.584zm10.149 6.269c1.898 0 2.988-1.605 2.988-4.412 0-2.801-1.107-4.441-2.988-4.441-1.893 0-3 1.635-3 4.424 0 2.812 1.096 4.429 3 4.429zm0-.92c-1.248 0-1.94-1.248-1.94-3.509 0-2.233.703-3.498 1.94-3.498 1.236 0 1.928 1.254 1.928 3.498 0 2.267-.68 3.509-1.928 3.509z" fill="#7D8893"/></g><path d="M55.026 49.15h.089L57.083 56h1.339l2.476-9.16h-1.48l-1.675 7.122h-.09l-1.922-7.122h-1.32l-1.912 7.122h-.088l-1.683-7.122H49.25L51.72 56h1.346l1.96-6.85zm9.667 6.983c2.019 0 3.257-1.352 3.257-3.58 0-2.228-1.244-3.58-3.257-3.58-2.018 0-3.262 1.358-3.262 3.58 0 2.228 1.238 3.58 3.262 3.58zm0-1.161c-1.187 0-1.853-.883-1.853-2.419s.666-2.425 1.853-2.425c1.181 0 1.854.89 1.854 2.425 0 1.53-.673 2.419-1.854 2.419zm4.9 1.028h1.365v-4.234c0-.901.629-1.606 1.46-1.606.813 0 1.333.489 1.333 1.276V56h1.34v-4.36c0-.832.578-1.48 1.46-1.48.895 0 1.34.464 1.34 1.416V56h1.364v-4.754c0-1.435-.813-2.273-2.21-2.273-.958 0-1.751.489-2.1 1.232h-.108c-.305-.743-.959-1.232-1.904-1.232-.92 0-1.619.457-1.924 1.232h-.101v-1.099h-1.314V56zm13.49.114c.907 0 1.663-.393 2.075-1.091h.108V56h1.314v-4.716c0-1.448-.977-2.31-2.71-2.31-1.568 0-2.685.755-2.825 1.916h1.32c.153-.501.68-.787 1.441-.787.933 0 1.416.425 1.416 1.18v.604L83.349 52c-1.644.102-2.57.819-2.57 2.057 0 1.257.97 2.056 2.303 2.056zm.349-1.098c-.743 0-1.283-.374-1.283-1.015 0-.629.432-.965 1.384-1.029l1.689-.114v.597c0 .888-.762 1.561-1.79 1.561zm5.09.984h1.365v-4.044c0-1.11.641-1.796 1.65-1.796 1.01 0 1.492.559 1.492 1.701V56h1.365v-4.462c0-1.644-.85-2.565-2.393-2.565-1.041 0-1.727.464-2.063 1.225h-.102v-1.092h-1.314V56zm9.103-5.586V46.84H96.4v3.574h1.225zm1.91.622c0 1.022.61 1.606 1.924 1.91l1.206.286c.692.166 1.016.445 1.016.876 0 .565-.603.959-1.454.959-.825 0-1.333-.337-1.504-.876h-1.365c.12 1.2 1.193 1.942 2.837 1.942 1.651 0 2.863-.87 2.863-2.152 0-1.003-.616-1.567-1.93-1.872l-1.149-.267c-.749-.177-1.098-.444-1.098-.87 0-.558.578-.932 1.34-.932.774 0 1.269.336 1.396.85h1.308c-.133-1.193-1.149-1.917-2.704-1.917-1.562 0-2.685.863-2.685 2.063zM116.345 56h1.511l-3.307-9.16h-1.53L109.711 56h1.46l.844-2.476h3.491l.838 2.476zm-2.634-7.541h.108l1.327 3.923h-2.768l1.333-3.923zm5.687-1.092v1.759h-1.098v1.091h1.098v3.968c0 1.326.603 1.86 2.121 1.86.266 0 .52-.032.742-.07v-1.086c-.19.02-.311.032-.52.032-.679 0-.978-.324-.978-1.066v-3.638h1.498v-1.091h-1.498v-1.759h-1.365zm4.977 0v1.759h-1.098v1.091h1.098v3.968c0 1.326.603 1.86 2.12 1.86.267 0 .521-.032.743-.07v-1.086c-.191.02-.311.032-.521.032-.679 0-.977-.324-.977-1.066v-3.638h1.498v-1.091h-1.498v-1.759h-1.365zM128.843 56h1.365v-4.12c0-.97.73-1.637 1.764-1.637.241 0 .648.044.762.076v-1.282a3.418 3.418 0 00-.609-.051c-.902 0-1.67.489-1.867 1.168h-.101v-1.048h-1.314V56zm7.065.114c.907 0 1.663-.393 2.075-1.091h.108V56h1.314v-4.716c0-1.448-.977-2.31-2.71-2.31-1.568 0-2.685.755-2.825 1.916h1.32c.153-.501.68-.787 1.441-.787.933 0 1.416.425 1.416 1.18v.604l-1.873.114c-1.644.102-2.57.819-2.57 2.057 0 1.257.971 2.056 2.304 2.056zm.349-1.098c-.743 0-1.282-.374-1.282-1.015 0-.629.431-.965 1.383-1.029l1.689-.114v.597c0 .888-.762 1.561-1.79 1.561zm10.943-3.694c-.178-1.34-1.225-2.349-2.958-2.349-2.012 0-3.237 1.365-3.237 3.555 0 2.234 1.231 3.605 3.244 3.605 1.707 0 2.773-.958 2.951-2.317h-1.326c-.178.75-.769 1.156-1.632 1.156-1.136 0-1.841-.92-1.841-2.444 0-1.492.699-2.393 1.841-2.393.914 0 1.473.514 1.632 1.187h1.326zm2.146-3.955v1.759h-1.098v1.091h1.098v3.968c0 1.326.603 1.86 2.12 1.86.266 0 .52-.032.742-.07v-1.086c-.19.02-.311.032-.52.032-.679 0-.978-.324-.978-1.066v-3.638h1.498v-1.091h-1.498v-1.759h-1.364zm5.173.508a.863.863 0 00.863-.857.864.864 0 00-1.726 0c0 .47.387.857.863.857zM153.84 56h1.358v-6.894h-1.358V56zm9.217-6.894h-1.448l-1.713 5.497h-.108l-1.721-5.497h-1.46L159.102 56h1.466l2.489-6.894zm5.649 5.047c-.254.558-.819.863-1.644.863-1.092 0-1.796-.787-1.841-2.038v-.063h4.882v-.47c0-2.158-1.162-3.472-3.085-3.472-1.949 0-3.187 1.403-3.187 3.593 0 2.203 1.212 3.567 3.193 3.567 1.58 0 2.698-.761 2.996-1.98h-1.314zm-1.695-4.069c1.01 0 1.67.73 1.701 1.847h-3.491c.076-1.11.781-1.847 1.79-1.847zM171.74 56h1.365v-4.044c0-1.11.641-1.796 1.65-1.796 1.01 0 1.492.559 1.492 1.701V56h1.365v-4.462c0-1.644-.851-2.565-2.393-2.565-1.041 0-1.727.464-2.063 1.225h-.102v-1.092h-1.314V56zm12.327-1.847c-.254.558-.818.863-1.644.863-1.091 0-1.796-.787-1.84-2.038v-.063h4.881v-.47c0-2.158-1.162-3.472-3.085-3.472-1.949 0-3.187 1.403-3.187 3.593 0 2.203 1.213 3.567 3.193 3.567 1.581 0 2.698-.761 2.996-1.98h-1.314zm-1.694-4.069c1.009 0 1.669.73 1.701 1.847h-3.491c.076-1.11.78-1.847 1.79-1.847zm4.57.952c0 1.022.609 1.606 1.923 1.91l1.206.286c.692.166 1.016.445 1.016.876 0 .565-.603.959-1.454.959-.825 0-1.333-.337-1.504-.876h-1.365c.121 1.2 1.193 1.942 2.838 1.942 1.65 0 2.862-.87 2.862-2.152 0-1.003-.615-1.567-1.929-1.872l-1.149-.267c-.749-.177-1.098-.444-1.098-.87 0-.558.577-.932 1.339-.932.774 0 1.269.336 1.396.85h1.308c-.133-1.193-1.149-1.917-2.704-1.917-1.562 0-2.685.863-2.685 2.063zm6.881 0c0 1.022.609 1.606 1.923 1.91l1.206.286c.692.166 1.016.445 1.016.876 0 .565-.603.959-1.454.959-.825 0-1.333-.337-1.504-.876h-1.365c.121 1.2 1.193 1.942 2.837 1.942 1.651 0 2.863-.87 2.863-2.152 0-1.003-.616-1.567-1.929-1.872l-1.149-.267c-.749-.177-1.099-.444-1.099-.87 0-.558.578-.932 1.34-.932.774 0 1.269.336 1.396.85h1.308c-.133-1.193-1.149-1.917-2.704-1.917-1.562 0-2.685.863-2.685 2.063z" fill="#677380"/><path fill="#007013" d="M380 41h112v20H380z"/><path d="M79.033 86v-9.16H77.37l-2.92 7.167h-.108l-2.914-7.167h-1.663V86h1.32v-6.71h.09l2.684 6.545h1.08l2.685-6.544h.088V86h1.32zm4.05.114c.907 0 1.663-.393 2.075-1.092h.108V86h1.314v-4.716c0-1.448-.977-2.31-2.71-2.31-1.568 0-2.685.754-2.825 1.916h1.32c.153-.501.68-.787 1.441-.787.933 0 1.416.425 1.416 1.18v.604L83.349 82c-1.644.102-2.57.819-2.57 2.057 0 1.256.97 2.056 2.303 2.056zm.349-1.098c-.743 0-1.283-.374-1.283-1.016 0-.628.432-.964 1.384-1.028l1.689-.114v.597c0 .888-.762 1.561-1.79 1.561zm5.09.984h1.365v-4.043c0-1.111.641-1.797 1.65-1.797 1.01 0 1.492.559 1.492 1.701V86h1.365v-4.462c0-1.644-.85-2.565-2.393-2.565-1.041 0-1.727.463-2.063 1.225h-.102v-1.092h-1.314V86zm9.103-5.586V76.84H96.4v3.574h1.225zm1.91.622c0 1.022.61 1.606 1.924 1.91l1.206.286c.692.165 1.016.445 1.016.876 0 .565-.603.959-1.454.959-.825 0-1.333-.336-1.504-.876h-1.365c.12 1.2 1.193 1.942 2.837 1.942 1.651 0 2.863-.87 2.863-2.152 0-1.002-.616-1.567-1.93-1.872l-1.149-.267c-.749-.177-1.098-.444-1.098-.87 0-.558.578-.932 1.34-.932.774 0 1.269.336 1.396.85h1.308c-.133-1.193-1.149-1.917-2.704-1.917-1.562 0-2.685.863-2.685 2.063zM116.345 86h1.511l-3.307-9.16h-1.53L109.711 86h1.46l.844-2.476h3.491l.838 2.476zm-2.634-7.541h.108l1.327 3.923h-2.768l1.333-3.923zm5.687-1.092v1.758h-1.098v1.092h1.098v3.968c0 1.326.603 1.86 2.121 1.86.266 0 .52-.032.742-.07v-1.086c-.19.02-.311.032-.52.032-.679 0-.978-.324-.978-1.067v-3.637h1.498v-1.091h-1.498v-1.759h-1.365zm4.977 0v1.758h-1.098v1.092h1.098v3.968c0 1.326.603 1.86 2.12 1.86.267 0 .521-.032.743-.07v-1.086c-.191.02-.311.032-.521.032-.679 0-.977-.324-.977-1.067v-3.637h1.498v-1.091h-1.498v-1.759h-1.365zM128.843 86h1.365v-4.12c0-.97.73-1.637 1.764-1.637.241 0 .648.044.762.076v-1.282a3.418 3.418 0 00-.609-.051c-.902 0-1.67.489-1.867 1.168h-.101v-1.048h-1.314V86zm7.065.114c.907 0 1.663-.393 2.075-1.092h.108V86h1.314v-4.716c0-1.448-.977-2.31-2.71-2.31-1.568 0-2.685.754-2.825 1.916h1.32c.153-.501.68-.787 1.441-.787.933 0 1.416.425 1.416 1.18v.604l-1.873.114c-1.644.102-2.57.819-2.57 2.057 0 1.256.971 2.056 2.304 2.056zm.349-1.098c-.743 0-1.282-.374-1.282-1.016 0-.628.431-.964 1.383-1.028l1.689-.114v.597c0 .888-.762 1.561-1.79 1.561zm10.943-3.694c-.178-1.34-1.225-2.349-2.958-2.349-2.012 0-3.237 1.365-3.237 3.555 0 2.234 1.231 3.605 3.244 3.605 1.707 0 2.773-.958 2.951-2.317h-1.326c-.178.75-.769 1.156-1.632 1.156-1.136 0-1.841-.92-1.841-2.444 0-1.492.699-2.393 1.841-2.393.914 0 1.473.514 1.632 1.187h1.326zm2.146-3.955v1.758h-1.098v1.092h1.098v3.968c0 1.326.603 1.86 2.12 1.86.266 0 .52-.032.742-.07v-1.086c-.19.02-.311.032-.52.032-.679 0-.978-.324-.978-1.067v-3.637h1.498v-1.091h-1.498v-1.759h-1.364zm5.173.508a.863.863 0 00.863-.857.864.864 0 00-1.726 0c0 .47.387.857.863.857zM153.84 86h1.358v-6.894h-1.358V86zm9.217-6.894h-1.448l-1.713 5.498h-.108l-1.721-5.498h-1.46L159.102 86h1.466l2.489-6.894zm5.649 5.047c-.254.558-.819.863-1.644.863-1.092 0-1.796-.787-1.841-2.038v-.063h4.882v-.47c0-2.158-1.162-3.472-3.085-3.472-1.949 0-3.187 1.403-3.187 3.593 0 2.203 1.212 3.567 3.193 3.567 1.58 0 2.698-.761 2.996-1.98h-1.314zm-1.695-4.069c1.01 0 1.67.73 1.701 1.847h-3.491c.076-1.11.781-1.847 1.79-1.847zM171.74 86h1.365v-4.043c0-1.111.641-1.797 1.65-1.797 1.01 0 1.492.559 1.492 1.701V86h1.365v-4.462c0-1.644-.851-2.565-2.393-2.565-1.041 0-1.727.463-2.063 1.225h-.102v-1.092h-1.314V86zm12.327-1.847c-.254.558-.818.863-1.644.863-1.091 0-1.796-.787-1.84-2.038v-.063h4.881v-.47c0-2.158-1.162-3.472-3.085-3.472-1.949 0-3.187 1.403-3.187 3.593 0 2.203 1.213 3.567 3.193 3.567 1.581 0 2.698-.761 2.996-1.98h-1.314zm-1.694-4.069c1.009 0 1.669.73 1.701 1.847h-3.491c.076-1.11.78-1.847 1.79-1.847zm4.57.952c0 1.022.609 1.606 1.923 1.91l1.206.286c.692.165 1.016.445 1.016.876 0 .565-.603.959-1.454.959-.825 0-1.333-.336-1.504-.876h-1.365c.121 1.2 1.193 1.942 2.838 1.942 1.65 0 2.862-.87 2.862-2.152 0-1.002-.615-1.567-1.929-1.872l-1.149-.267c-.749-.177-1.098-.444-1.098-.87 0-.558.577-.932 1.339-.932.774 0 1.269.336 1.396.85h1.308c-.133-1.193-1.149-1.917-2.704-1.917-1.562 0-2.685.863-2.685 2.063zm6.881 0c0 1.022.609 1.606 1.923 1.91l1.206.286c.692.165 1.016.445 1.016.876 0 .565-.603.959-1.454.959-.825 0-1.333-.336-1.504-.876h-1.365c.121 1.2 1.193 1.942 2.837 1.942 1.651 0 2.863-.87 2.863-2.152 0-1.002-.616-1.567-1.929-1.872l-1.149-.267c-.749-.177-1.099-.444-1.099-.87 0-.558.578-.932 1.34-.932.774 0 1.269.336 1.396.85h1.308c-.133-1.193-1.149-1.917-2.704-1.917-1.562 0-2.685.863-2.685 2.063z" fill="#677380"/><path fill="#00B125" d="M380 71h83v20h-83z"/><path d="M75.313 116v-9.16H73.65l-2.92 7.167h-.108l-2.913-7.167h-1.664V116h1.32v-6.709h.09l2.685 6.544h1.079l2.685-6.544h.089V116h1.32zm4.05.114c.907 0 1.663-.393 2.076-1.092h.107V116h1.314v-4.716c0-1.448-.977-2.311-2.71-2.311-1.568 0-2.685.756-2.825 1.917h1.32c.153-.501.68-.787 1.441-.787.933 0 1.416.425 1.416 1.181v.603l-1.873.114c-1.644.102-2.57.819-2.57 2.057 0 1.256.97 2.056 2.304 2.056zm.349-1.098c-.743 0-1.282-.374-1.282-1.016 0-.628.431-.964 1.383-1.028l1.689-.114v.597c0 .888-.762 1.561-1.79 1.561zm5.09.984h1.365v-4.043c0-1.111.642-1.797 1.65-1.797 1.01 0 1.493.559 1.493 1.701V116h1.364v-4.462c0-1.644-.85-2.565-2.393-2.565-1.04 0-1.726.464-2.063 1.225h-.101v-1.092h-1.314V116zm8.64-5.586l1.174-3.574H93.17l-.698 3.574h.97zm2.095.622c0 1.022.609 1.606 1.923 1.911l1.206.285c.692.165 1.016.445 1.016.876 0 .565-.603.959-1.454.959-.825 0-1.333-.337-1.504-.876h-1.365c.12 1.2 1.193 1.942 2.837 1.942 1.65 0 2.863-.869 2.863-2.152 0-1.002-.616-1.567-1.93-1.872l-1.148-.267c-.75-.177-1.099-.444-1.099-.869 0-.559.578-.933 1.34-.933.774 0 1.27.336 1.396.85h1.308c-.134-1.193-1.15-1.917-2.704-1.917-1.562 0-2.685.863-2.685 2.063zm10.562 0c0 1.022.609 1.606 1.923 1.911l1.207.285c.691.165 1.015.445 1.015.876 0 .565-.603.959-1.453.959-.826 0-1.333-.337-1.505-.876h-1.365c.121 1.2 1.194 1.942 2.838 1.942 1.65 0 2.863-.869 2.863-2.152 0-1.002-.616-1.567-1.93-1.872l-1.149-.267c-.749-.177-1.098-.444-1.098-.869 0-.559.577-.933 1.339-.933.775 0 1.27.336 1.397.85h1.307c-.133-1.193-1.149-1.917-2.704-1.917-1.561 0-2.685.863-2.685 2.063zm7.23 4.964h1.365v-4.037c0-1.079.622-1.796 1.739-1.796.965 0 1.479.564 1.479 1.701V116h1.365v-4.456c0-1.631-.908-2.565-2.381-2.565-1.041 0-1.771.458-2.107 1.226h-.108v-3.803h-1.352V116zm9.782.114c.908 0 1.663-.393 2.076-1.092h.107V116h1.314v-4.716c0-1.448-.977-2.311-2.71-2.311-1.568 0-2.685.756-2.825 1.917h1.321c.152-.501.679-.787 1.44-.787.934 0 1.416.425 1.416 1.181v.603l-1.873.114c-1.644.102-2.57.819-2.57 2.057 0 1.256.971 2.056 2.304 2.056zm.349-1.098c-.743 0-1.282-.374-1.282-1.016 0-.628.431-.964 1.384-1.028l1.688-.114v.597c0 .888-.762 1.561-1.79 1.561zm5.091.984h1.365v-4.12c0-.971.73-1.637 1.764-1.637.241 0 .648.044.762.076v-1.282a3.39 3.39 0 00-.609-.051c-.902 0-1.67.489-1.867 1.168h-.101v-1.048h-1.314V116zm9.559-1.847c-.254.558-.818.863-1.644.863-1.091 0-1.796-.787-1.841-2.037v-.064h4.882v-.47c0-2.158-1.162-3.472-3.085-3.472-1.949 0-3.187 1.403-3.187 3.593 0 2.203 1.213 3.567 3.193 3.567 1.581 0 2.698-.761 2.996-1.98h-1.314zm-1.694-4.069c1.009 0 1.669.73 1.701 1.847h-3.492c.077-1.111.781-1.847 1.791-1.847zm7.255 6.03c.952 0 1.758-.45 2.171-1.206h.108V116h1.307v-9.598h-1.364v3.796h-.102c-.374-.755-1.174-1.212-2.12-1.212-1.746 0-2.869 1.39-2.869 3.561 0 2.183 1.111 3.567 2.869 3.567zm.387-5.96c1.143 0 1.86.927 1.86 2.399 0 1.486-.711 2.393-1.86 2.393-1.155 0-1.847-.895-1.847-2.393 0-1.491.698-2.399 1.847-2.399zm9.509-2.279a.863.863 0 00.863-.857.864.864 0 00-1.726 0c0 .47.387.857.863.857zm-.679 8.125h1.358v-6.894h-1.358V116zm3.364 0h1.365v-4.043c0-1.111.641-1.797 1.65-1.797s1.492.559 1.492 1.701V116h1.365v-4.462c0-1.644-.851-2.565-2.394-2.565-1.041 0-1.726.464-2.063 1.225h-.101v-1.092h-1.314V116zm8.277-8.633v1.758h-1.098v1.092h1.098v3.968c0 1.326.603 1.859 2.12 1.859.267 0 .521-.031.743-.069v-1.086c-.19.019-.311.032-.52.032-.68 0-.978-.324-.978-1.067v-3.637h1.498v-1.092h-1.498v-1.758h-1.365zm8.925 6.786c-.254.558-.819.863-1.644.863-1.092 0-1.796-.787-1.841-2.037v-.064h4.882v-.47c0-2.158-1.162-3.472-3.085-3.472-1.949 0-3.187 1.403-3.187 3.593 0 2.203 1.213 3.567 3.193 3.567 1.581 0 2.698-.761 2.996-1.98h-1.314zm-1.695-4.069c1.01 0 1.67.73 1.701 1.847h-3.491c.076-1.111.781-1.847 1.79-1.847zm4.729 5.916h1.365v-4.12c0-.971.73-1.637 1.765-1.637.241 0 .647.044.761.076v-1.282a3.39 3.39 0 00-.609-.051c-.901 0-1.669.489-1.866 1.168h-.102v-1.048h-1.314V116zm9.56-1.847c-.254.558-.819.863-1.644.863-1.092 0-1.797-.787-1.841-2.037v-.064h4.881v-.47c0-2.158-1.161-3.472-3.085-3.472-1.948 0-3.186 1.403-3.186 3.593 0 2.203 1.212 3.567 3.193 3.567 1.58 0 2.697-.761 2.996-1.98h-1.314zm-1.695-4.069c1.009 0 1.669.73 1.701 1.847h-3.491c.076-1.111.781-1.847 1.79-1.847zm4.57.952c0 1.022.61 1.606 1.924 1.911l1.206.285c.692.165 1.015.445 1.015.876 0 .565-.603.959-1.453.959-.825 0-1.333-.337-1.505-.876h-1.364c.12 1.2 1.193 1.942 2.837 1.942 1.65 0 2.863-.869 2.863-2.152 0-1.002-.616-1.567-1.93-1.872l-1.149-.267c-.749-.177-1.098-.444-1.098-.869 0-.559.578-.933 1.339-.933.775 0 1.27.336 1.397.85h1.307c-.133-1.193-1.148-1.917-2.704-1.917-1.561 0-2.685.863-2.685 2.063zm7.598-3.669v1.758h-1.098v1.092h1.098v3.968c0 1.326.604 1.859 2.121 1.859.266 0 .52-.031.742-.069v-1.086c-.19.019-.311.032-.52.032-.679 0-.978-.324-.978-1.067v-3.637h1.498v-1.092h-1.498v-1.758h-1.365z" fill="#677380"/><path fill="#53D948" d="M380 101h51v20h-51z"/><path d="M146.876 146v-9.16h-1.663l-2.92 7.167h-.107l-2.914-7.167h-1.663V146h1.32v-6.709h.089l2.685 6.544h1.079l2.685-6.544h.089V146h1.32zm4.05.114c.908 0 1.663-.393 2.076-1.092h.108V146h1.314v-4.716c0-1.448-.978-2.311-2.711-2.311-1.567 0-2.685.756-2.824 1.917h1.32c.152-.501.679-.787 1.441-.787.933 0 1.415.425 1.415 1.181v.603l-1.872.114c-1.644.102-2.571.819-2.571 2.057 0 1.256.971 2.056 2.304 2.056zm.349-1.098c-.742 0-1.282-.374-1.282-1.016 0-.628.432-.964 1.384-1.028l1.688-.114v.597c0 .888-.761 1.561-1.79 1.561zm5.091.984h1.365v-4.043c0-1.111.641-1.797 1.65-1.797 1.01 0 1.492.559 1.492 1.701V146h1.365v-4.462c0-1.644-.851-2.565-2.393-2.565-1.041 0-1.727.464-2.063 1.225h-.102v-1.092h-1.314V146zm8.639-5.586l1.175-3.574h-1.448l-.698 3.574h.971zm2.095.622c0 1.022.609 1.606 1.923 1.911l1.206.285c.692.165 1.016.445 1.016.876 0 .565-.603.959-1.453.959-.826 0-1.334-.337-1.505-.876h-1.365c.121 1.2 1.194 1.942 2.838 1.942 1.65 0 2.863-.869 2.863-2.152 0-1.002-.616-1.567-1.93-1.872l-1.149-.267c-.749-.177-1.098-.444-1.098-.869 0-.559.577-.933 1.339-.933.775 0 1.27.336 1.397.85h1.307c-.133-1.193-1.149-1.917-2.704-1.917-1.561 0-2.685.863-2.685 2.063zM179.402 146v-3.834h3.935v-1.2h-3.935v-2.901h4.297v-1.225h-5.719V146h1.422zm11.813-6.894h-1.365v4.044c0 1.111-.603 1.784-1.707 1.784-1.003 0-1.454-.546-1.454-1.689v-4.139h-1.365v4.476c0 1.618.851 2.551 2.381 2.551 1.047 0 1.752-.444 2.088-1.225h.108V146h1.314v-6.894zm1.98 6.894h1.365v-4.043c0-1.111.641-1.797 1.65-1.797 1.01 0 1.492.559 1.492 1.701V146h1.365v-4.462c0-1.644-.851-2.565-2.393-2.565-1.041 0-1.727.464-2.063 1.225h-.102v-1.092h-1.314V146z" fill="#677380"/><path fill="#7DFA5F" d="M380 131h46v20h-46z"/><path d="M145.734 176v-9.16h-1.663l-2.92 7.167h-.108l-2.914-7.167h-1.663V176h1.321v-6.709h.088l2.686 6.544h1.079l2.685-6.544h.089V176h1.32zm4.05.114c.907 0 1.663-.393 2.075-1.092h.108V176h1.314v-4.716c0-1.448-.977-2.311-2.71-2.311-1.568 0-2.685.756-2.825 1.917h1.32c.153-.501.68-.787 1.441-.787.933 0 1.416.425 1.416 1.181v.603l-1.873.114c-1.644.102-2.571.819-2.571 2.057 0 1.256.972 2.056 2.305 2.056zm.349-1.098c-.743 0-1.282-.374-1.282-1.016 0-.628.431-.964 1.383-1.028l1.689-.114v.597c0 .888-.762 1.561-1.79 1.561zm5.091.984h1.364v-4.043c0-1.111.641-1.797 1.651-1.797 1.009 0 1.491.559 1.491 1.701V176h1.365v-4.462c0-1.644-.85-2.565-2.393-2.565-1.041 0-1.726.464-2.063 1.225h-.101v-1.092h-1.314V176zm8.639-5.586l1.174-3.574h-1.447l-.698 3.574h.971zm2.095.622c0 1.022.609 1.606 1.923 1.911l1.206.285c.692.165 1.016.445 1.016.876 0 .565-.603.959-1.454.959-.825 0-1.333-.337-1.504-.876h-1.365c.12 1.2 1.193 1.942 2.837 1.942 1.651 0 2.863-.869 2.863-2.152 0-1.002-.616-1.567-1.93-1.872l-1.149-.267c-.749-.177-1.098-.444-1.098-.869 0-.559.578-.933 1.34-.933.774 0 1.269.336 1.396.85h1.308c-.134-1.193-1.149-1.917-2.704-1.917-1.562 0-2.685.863-2.685 2.063zM182.766 176h1.511l-3.307-9.16h-1.53l-3.307 9.16h1.46l.844-2.476h3.491l.838 2.476zm-2.634-7.541h.108l1.326 3.923h-2.767l1.333-3.923zm8.118 10.175c1.956 0 3.193-.996 3.193-2.564v-6.964h-1.307v1.099h-.108c-.387-.749-1.219-1.219-2.171-1.219-1.765 0-2.869 1.39-2.869 3.478 0 2.07 1.092 3.434 2.856 3.434.952 0 1.714-.412 2.133-1.161h.102v1.326c0 .934-.673 1.492-1.809 1.492-.921 0-1.499-.33-1.613-.85h-1.396c.146 1.161 1.263 1.929 2.989 1.929zm-.019-3.865c-1.174 0-1.834-.895-1.834-2.305 0-1.409.66-2.31 1.834-2.31 1.162 0 1.873.901 1.873 2.31 0 1.41-.705 2.305-1.873 2.305zm9.725-.616c-.254.558-.819.863-1.644.863-1.092 0-1.796-.787-1.841-2.037v-.064h4.882v-.47c0-2.158-1.162-3.472-3.085-3.472-1.949 0-3.187 1.403-3.187 3.593 0 2.203 1.212 3.567 3.193 3.567 1.58 0 2.698-.761 2.996-1.98h-1.314zm-1.695-4.069c1.01 0 1.67.73 1.701 1.847h-3.491c.076-1.111.781-1.847 1.79-1.847z" fill="#677380"/><path fill="#BDFDA7" d="M380 161h16v20h-16z"/><path d="M96.616 206v-9.16h-1.663l-2.92 7.167h-.108l-2.914-7.167h-1.663V206h1.32v-6.709h.09l2.684 6.544h1.08l2.684-6.544h.09V206h1.32zm4.05.114c.907 0 1.663-.393 2.075-1.092h.108V206h1.314v-4.716c0-1.448-.977-2.311-2.71-2.311-1.568 0-2.685.756-2.825 1.917h1.32c.153-.501.679-.787 1.441-.787.933 0 1.416.425 1.416 1.181v.603l-1.873.114c-1.644.102-2.57.819-2.57 2.057 0 1.256.97 2.056 2.304 2.056zm.349-1.098c-.743 0-1.283-.374-1.283-1.016 0-.628.432-.964 1.384-1.028l1.689-.114v.597c0 .888-.762 1.561-1.79 1.561zm5.09.984h1.365v-4.043c0-1.111.641-1.797 1.651-1.797 1.009 0 1.491.559 1.491 1.701V206h1.365v-4.462c0-1.644-.851-2.565-2.393-2.565-1.041 0-1.727.464-2.063 1.225h-.102v-1.092h-1.314V206zm8.64-5.586l1.174-3.574h-1.447l-.699 3.574h.972zm2.094.622c0 1.022.61 1.606 1.924 1.911l1.206.285c.692.165 1.015.445 1.015.876 0 .565-.603.959-1.453.959-.825 0-1.333-.337-1.505-.876h-1.364c.12 1.2 1.193 1.942 2.837 1.942 1.65 0 2.863-.869 2.863-2.152 0-1.002-.616-1.567-1.93-1.872l-1.149-.267c-.749-.177-1.098-.444-1.098-.869 0-.559.578-.933 1.339-.933.775 0 1.27.336 1.397.85h1.308c-.134-1.193-1.149-1.917-2.705-1.917-1.561 0-2.685.863-2.685 2.063zM129.141 206v-9.16h-1.422V206h1.422zm2.139 0h1.365v-4.043c0-1.111.641-1.797 1.65-1.797 1.01 0 1.492.559 1.492 1.701V206h1.365v-4.462c0-1.644-.851-2.565-2.393-2.565-1.041 0-1.727.464-2.063 1.225h-.102v-1.092h-1.314V206zm8.278-8.633v1.758h-1.099v1.092h1.099v3.968c0 1.326.603 1.859 2.12 1.859.266 0 .52-.031.742-.069v-1.086c-.19.019-.311.032-.52.032-.679 0-.978-.324-.978-1.067v-3.637h1.498v-1.092h-1.498v-1.758h-1.364zm8.924 6.786c-.253.558-.818.863-1.644.863-1.091 0-1.796-.787-1.84-2.037v-.064h4.881v-.47c0-2.158-1.162-3.472-3.085-3.472-1.949 0-3.187 1.403-3.187 3.593 0 2.203 1.213 3.567 3.193 3.567 1.581 0 2.698-.761 2.996-1.98h-1.314zm-1.694-4.069c1.009 0 1.669.73 1.701 1.847h-3.491c.076-1.111.78-1.847 1.79-1.847zM151.58 206h1.365v-9.598h-1.365V206zm7.947-1.847c-.254.558-.819.863-1.644.863-1.091 0-1.796-.787-1.841-2.037v-.064h4.882v-.47c0-2.158-1.162-3.472-3.085-3.472-1.949 0-3.187 1.403-3.187 3.593 0 2.203 1.213 3.567 3.193 3.567 1.581 0 2.698-.761 2.996-1.98h-1.314zm-1.694-4.069c1.009 0 1.669.73 1.701 1.847h-3.492c.077-1.111.781-1.847 1.791-1.847zm7.642 8.55c1.955 0 3.193-.996 3.193-2.564v-6.964h-1.308v1.099h-.108c-.387-.749-1.218-1.219-2.17-1.219-1.765 0-2.87 1.39-2.87 3.478 0 2.07 1.092 3.434 2.857 3.434.952 0 1.714-.412 2.133-1.161h.101v1.326c0 .934-.673 1.492-1.809 1.492-.92 0-1.498-.33-1.612-.85h-1.397c.146 1.161 1.264 1.929 2.99 1.929zm-.019-3.865c-1.174 0-1.834-.895-1.834-2.305 0-1.409.66-2.31 1.834-2.31 1.162 0 1.873.901 1.873 2.31 0 1.41-.705 2.305-1.873 2.305zm9.725-.616c-.254.558-.819.863-1.644.863-1.092 0-1.797-.787-1.841-2.037v-.064h4.881v-.47c0-2.158-1.161-3.472-3.085-3.472-1.949 0-3.186 1.403-3.186 3.593 0 2.203 1.212 3.567 3.193 3.567 1.58 0 2.697-.761 2.996-1.98h-1.314zm-1.695-4.069c1.009 0 1.669.73 1.701 1.847h-3.491c.076-1.111.781-1.847 1.79-1.847zm4.729 5.916h1.365v-4.043c0-1.111.641-1.797 1.65-1.797s1.492.559 1.492 1.701V206h1.364v-4.462c0-1.644-.85-2.565-2.393-2.565-1.041 0-1.726.464-2.063 1.225h-.101v-1.092h-1.314V206zm13.647-4.678c-.177-1.34-1.225-2.349-2.958-2.349-2.012 0-3.237 1.365-3.237 3.555 0 2.234 1.231 3.605 3.244 3.605 1.707 0 2.774-.958 2.951-2.317h-1.326c-.178.749-.768 1.156-1.632 1.156-1.136 0-1.841-.921-1.841-2.444 0-1.492.699-2.393 1.841-2.393.914 0 1.473.514 1.632 1.187h1.326zm6.094 2.831c-.254.558-.819.863-1.644.863-1.092 0-1.796-.787-1.841-2.037v-.064h4.882v-.47c0-2.158-1.162-3.472-3.085-3.472-1.949 0-3.187 1.403-3.187 3.593 0 2.203 1.212 3.567 3.193 3.567 1.58 0 2.698-.761 2.996-1.98h-1.314zm-1.695-4.069c1.01 0 1.67.73 1.701 1.847h-3.491c.076-1.111.781-1.847 1.79-1.847z" fill="#677380"/><path fill="#FFC4C2" d="M363 191h17v20h-17z"/><path d="M113.919 236v-9.16h-1.663l-2.92 7.167h-.107l-2.914-7.167h-1.663V236h1.32v-6.709h.089l2.685 6.544h1.079l2.685-6.544h.089V236h1.32zm4.05.114c.908 0 1.663-.393 2.076-1.092h.108V236h1.314v-4.716c0-1.448-.978-2.311-2.711-2.311-1.568 0-2.685.756-2.824 1.917h1.32c.152-.501.679-.787 1.441-.787.933 0 1.415.425 1.415 1.181v.603l-1.872.114c-1.644.102-2.571.819-2.571 2.057 0 1.256.971 2.056 2.304 2.056zm.349-1.098c-.742 0-1.282-.374-1.282-1.016 0-.628.432-.964 1.384-1.028l1.688-.114v.597c0 .888-.761 1.561-1.79 1.561zm5.091.984h1.365v-4.043c0-1.111.641-1.797 1.65-1.797 1.01 0 1.492.559 1.492 1.701V236h1.365v-4.462c0-1.644-.851-2.565-2.393-2.565-1.041 0-1.727.464-2.063 1.225h-.102v-1.092h-1.314V236zm8.639-5.586l1.175-3.574h-1.448l-.698 3.574h.971zm2.095.622c0 1.022.609 1.606 1.923 1.911l1.206.285c.692.165 1.016.445 1.016.876 0 .565-.603.959-1.454.959-.825 0-1.333-.337-1.504-.876h-1.365c.121 1.2 1.194 1.942 2.838 1.942 1.65 0 2.863-.869 2.863-2.152 0-1.002-.616-1.567-1.93-1.872l-1.149-.267c-.749-.177-1.098-.444-1.098-.869 0-.559.577-.933 1.339-.933.775 0 1.27.336 1.397.85h1.307c-.133-1.193-1.149-1.917-2.704-1.917-1.561 0-2.685.863-2.685 2.063zM150.952 236h1.51l-3.307-9.16h-1.53l-3.307 9.16h1.46l.845-2.476h3.491l.838 2.476zm-2.635-7.541h.108l1.327 3.923h-2.768l1.333-3.923zm5.586 7.541h1.365v-4.234c0-.901.628-1.606 1.46-1.606.813 0 1.333.489 1.333 1.276V236h1.339v-4.361c0-.831.578-1.479 1.46-1.479.895 0 1.34.464 1.34 1.416V236h1.364v-4.754c0-1.435-.812-2.273-2.209-2.273-.958 0-1.751.489-2.101 1.232h-.108c-.304-.743-.958-1.232-1.904-1.232-.92 0-1.618.457-1.923 1.232h-.102v-1.099h-1.314V236zm15.241.114c1.746 0 2.856-1.39 2.856-3.561 0-2.19-1.104-3.567-2.856-3.567-.946 0-1.758.463-2.126 1.212h-.108v-3.796h-1.365V236h1.314v-1.092h.101c.413.762 1.219 1.206 2.184 1.206zm-.394-5.96c1.156 0 1.848.908 1.848 2.399 0 1.492-.692 2.393-1.848 2.393-1.148 0-1.859-.914-1.866-2.393.007-1.479.724-2.399 1.866-2.399zm5.599-2.279a.863.863 0 00.863-.857.864.864 0 00-1.726 0c0 .47.387.857.863.857zM173.67 236h1.358v-6.894h-1.358V236zm3.847-8.633v1.758h-1.099v1.092h1.099v3.968c0 1.326.603 1.859 2.12 1.859.266 0 .52-.031.742-.069v-1.086c-.19.019-.311.032-.52.032-.679 0-.978-.324-.978-1.067v-3.637h1.498v-1.092h-1.498v-1.758h-1.364zm5.173.508a.863.863 0 00.863-.857.864.864 0 00-1.726 0c0 .47.387.857.863.857zm-.679 8.125h1.358v-6.894h-1.358V236zm6.284.133c2.018 0 3.256-1.352 3.256-3.58 0-2.228-1.244-3.58-3.256-3.58-2.019 0-3.263 1.359-3.263 3.58 0 2.228 1.238 3.58 3.263 3.58zm0-1.161c-1.187 0-1.854-.883-1.854-2.419s.667-2.425 1.854-2.425c1.181 0 1.853.889 1.853 2.425 0 1.53-.672 2.419-1.853 2.419zm4.9 1.028h1.365v-4.043c0-1.111.641-1.797 1.65-1.797 1.01 0 1.492.559 1.492 1.701V236h1.365v-4.462c0-1.644-.851-2.565-2.393-2.565-1.041 0-1.727.464-2.063 1.225h-.102v-1.092h-1.314V236z" fill="#677380"/><path fill="#FF6454" d="M363 221h17v20h-17z"/><path d="M88.148 266v-9.16h-1.422V266h1.422zm2.14 0h1.364v-4.043c0-1.111.641-1.797 1.65-1.797 1.01 0 1.492.559 1.492 1.701V266h1.365v-4.462c0-1.644-.85-2.565-2.393-2.565-1.041 0-1.727.464-2.063 1.225H91.6v-1.092h-1.314V266zm8.276-8.633v1.758h-1.098v1.092h1.099v3.968c0 1.326.603 1.859 2.12 1.859.266 0 .52-.031.742-.069v-1.086c-.19.019-.311.032-.52.032-.679 0-.978-.324-.978-1.067v-3.637h1.498v-1.092h-1.498v-1.758h-1.365zm8.925 6.786c-.254.558-.819.863-1.644.863-1.092 0-1.796-.787-1.841-2.037v-.064h4.882v-.47c0-2.158-1.162-3.472-3.085-3.472-1.949 0-3.187 1.403-3.187 3.593 0 2.203 1.213 3.567 3.193 3.567 1.581 0 2.698-.761 2.996-1.98h-1.314zm-1.695-4.069c1.01 0 1.67.73 1.702 1.847h-3.492c.077-1.111.781-1.847 1.79-1.847zm4.729 5.916h1.365v-4.12c0-.971.73-1.637 1.765-1.637.241 0 .647.044.762.076v-1.282a3.401 3.401 0 00-.61-.051c-.901 0-1.669.489-1.866 1.168h-.102v-1.048h-1.314V266zm4.907-4.964c0 1.022.61 1.606 1.924 1.911l1.206.285c.691.165 1.015.445 1.015.876 0 .565-.603.959-1.453.959-.826 0-1.333-.337-1.505-.876h-1.365c.121 1.2 1.194 1.942 2.838 1.942 1.65 0 2.863-.869 2.863-2.152 0-1.002-.616-1.567-1.93-1.872l-1.149-.267c-.749-.177-1.098-.444-1.098-.869 0-.559.578-.933 1.339-.933.775 0 1.27.336 1.397.85h1.307c-.133-1.193-1.149-1.917-2.704-1.917-1.561 0-2.685.863-2.685 2.063zm7.598-3.669v1.758h-1.098v1.092h1.098v3.968c0 1.326.603 1.859 2.12 1.859.267 0 .521-.031.743-.069v-1.086c-.19.019-.311.032-.52.032-.68 0-.978-.324-.978-1.067v-3.637h1.498v-1.092h-1.498v-1.758h-1.365zm11.94 8.855c2.044 0 3.549-1.174 3.803-2.958h-1.416c-.254 1.041-1.174 1.695-2.387 1.695-1.65 0-2.678-1.358-2.678-3.536 0-2.177 1.028-3.542 2.672-3.542 1.206 0 2.126.724 2.393 1.86h1.416c-.229-1.834-1.791-3.123-3.809-3.123-2.545 0-4.126 1.841-4.126 4.805 0 2.958 1.587 4.799 4.132 4.799zm8.436-.089c2.019 0 3.257-1.352 3.257-3.58 0-2.228-1.244-3.58-3.257-3.58-2.018 0-3.262 1.359-3.262 3.58 0 2.228 1.237 3.58 3.262 3.58zm0-1.161c-1.187 0-1.853-.883-1.853-2.419s.666-2.425 1.853-2.425c1.181 0 1.854.889 1.854 2.425 0 1.53-.673 2.419-1.854 2.419zm4.901 1.028h1.364v-4.12c0-.971.73-1.637 1.765-1.637.241 0 .648.044.762.076v-1.282a3.393 3.393 0 00-.61-.051c-.901 0-1.669.489-1.866 1.168h-.101v-1.048h-1.314V266zm5.306 0h1.365v-4.12c0-.971.73-1.637 1.765-1.637.241 0 .647.044.761.076v-1.282a3.39 3.39 0 00-.609-.051c-.901 0-1.669.489-1.866 1.168h-.102v-1.048h-1.314V266zm9.56-1.847c-.254.558-.819.863-1.644.863-1.092 0-1.797-.787-1.841-2.037v-.064h4.881v-.47c0-2.158-1.161-3.472-3.085-3.472-1.948 0-3.186 1.403-3.186 3.593 0 2.203 1.212 3.567 3.193 3.567 1.58 0 2.698-.761 2.996-1.98h-1.314zm-1.695-4.069c1.009 0 1.67.73 1.701 1.847h-3.491c.076-1.111.781-1.847 1.79-1.847zm4.793 5.916h1.364v-9.598h-1.364V266zm5.325.114c.908 0 1.663-.393 2.076-1.092h.108V266h1.314v-4.716c0-1.448-.978-2.311-2.711-2.311-1.568 0-2.685.756-2.824 1.917h1.32c.152-.501.679-.787 1.441-.787.933 0 1.415.425 1.415 1.181v.603l-1.872.114c-1.644.102-2.571.819-2.571 2.057 0 1.256.971 2.056 2.304 2.056zm.349-1.098c-.742 0-1.282-.374-1.282-1.016 0-.628.432-.964 1.384-1.028l1.688-.114v.597c0 .888-.761 1.561-1.79 1.561zm5.574-7.649v1.758h-1.099v1.092h1.099v3.968c0 1.326.603 1.859 2.12 1.859.266 0 .52-.031.742-.069v-1.086c-.19.019-.311.032-.52.032-.679 0-.978-.324-.978-1.067v-3.637h1.498v-1.092h-1.498v-1.758h-1.364zm5.173.508a.863.863 0 00.863-.857.864.864 0 00-1.726 0c0 .47.387.857.863.857zm-.679 8.125h1.358v-6.894h-1.358V266zm6.284.133c2.018 0 3.256-1.352 3.256-3.58 0-2.228-1.244-3.58-3.256-3.58-2.019 0-3.263 1.359-3.263 3.58 0 2.228 1.238 3.58 3.263 3.58zm0-1.161c-1.187 0-1.854-.883-1.854-2.419s.667-2.425 1.854-2.425c1.181 0 1.853.889 1.853 2.425 0 1.53-.672 2.419-1.853 2.419zm4.9 1.028h1.365v-4.043c0-1.111.641-1.797 1.65-1.797 1.01 0 1.492.559 1.492 1.701V266h1.365v-4.462c0-1.644-.851-2.565-2.393-2.565-1.041 0-1.727.464-2.063 1.225h-.102v-1.092h-1.314V266z" fill="#677380"/><path fill="#FF6454" d="M363 251h17v20h-17z"/><path d="M76.1 289.151h.089L78.157 296h1.34l2.475-9.16h-1.48l-1.675 7.122h-.089l-1.923-7.122h-1.32l-1.911 7.122h-.09l-1.681-7.122h-1.48l2.47 9.16h1.346l1.961-6.849zm9.668 6.982c2.018 0 3.256-1.352 3.256-3.58 0-2.228-1.244-3.58-3.256-3.58-2.019 0-3.263 1.359-3.263 3.58 0 2.228 1.238 3.58 3.263 3.58zm0-1.161c-1.187 0-1.854-.883-1.854-2.419s.667-2.425 1.854-2.425c1.18 0 1.853.889 1.853 2.425 0 1.53-.673 2.419-1.853 2.419zm4.9 1.028h1.365v-4.234c0-.901.628-1.606 1.46-1.606.812 0 1.333.489 1.333 1.276V296h1.339v-4.361c0-.831.578-1.479 1.46-1.479.895 0 1.34.464 1.34 1.416V296h1.364v-4.754c0-1.435-.812-2.273-2.209-2.273-.958 0-1.752.489-2.101 1.232h-.108c-.305-.743-.958-1.232-1.904-1.232-.92 0-1.619.457-1.924 1.232h-.101v-1.099h-1.314V296zm13.489.114c.907 0 1.663-.393 2.075-1.092h.108V296h1.314v-4.716c0-1.448-.977-2.311-2.71-2.311-1.568 0-2.685.756-2.825 1.917h1.32c.153-.501.68-.787 1.441-.787.933 0 1.416.425 1.416 1.181v.603l-1.873.114c-1.644.102-2.57.819-2.57 2.057 0 1.256.971 2.056 2.304 2.056zm.349-1.098c-.743 0-1.282-.374-1.282-1.016 0-.628.431-.964 1.383-1.028l1.689-.114v.597c0 .888-.762 1.561-1.79 1.561zm5.091.984h1.364v-4.043c0-1.111.642-1.797 1.651-1.797s1.492.559 1.492 1.701V296h1.364v-4.462c0-1.644-.85-2.565-2.393-2.565-1.041 0-1.726.464-2.063 1.225h-.101v-1.092h-1.314V296zm8.639-5.586l1.174-3.574h-1.447l-.698 3.574h.971zm2.095.622c0 1.022.609 1.606 1.923 1.911l1.206.285c.692.165 1.016.445 1.016.876 0 .565-.603.959-1.454.959-.825 0-1.333-.337-1.504-.876h-1.365c.12 1.2 1.193 1.942 2.837 1.942 1.651 0 2.863-.869 2.863-2.152 0-1.002-.616-1.567-1.93-1.872l-1.149-.267c-.749-.177-1.098-.444-1.098-.869 0-.559.578-.933 1.34-.933.774 0 1.269.336 1.396.85h1.308c-.134-1.193-1.149-1.917-2.704-1.917-1.562 0-2.685.863-2.685 2.063zm14.637 5.186c2.044 0 3.549-1.174 3.803-2.958h-1.416c-.254 1.041-1.174 1.695-2.387 1.695-1.65 0-2.678-1.358-2.678-3.536 0-2.177 1.028-3.542 2.672-3.542 1.206 0 2.126.724 2.393 1.86h1.416c-.229-1.834-1.791-3.123-3.809-3.123-2.545 0-4.126 1.841-4.126 4.805 0 2.958 1.587 4.799 4.132 4.799zm8.436-.089c2.019 0 3.257-1.352 3.257-3.58 0-2.228-1.244-3.58-3.257-3.58-2.018 0-3.262 1.359-3.262 3.58 0 2.228 1.237 3.58 3.262 3.58zm0-1.161c-1.187 0-1.853-.883-1.853-2.419s.666-2.425 1.853-2.425c1.181 0 1.854.889 1.854 2.425 0 1.53-.673 2.419-1.854 2.419zm4.901 1.028h1.364v-4.12c0-.971.73-1.637 1.765-1.637.241 0 .648.044.762.076v-1.282a3.393 3.393 0 00-.61-.051c-.901 0-1.669.489-1.866 1.168h-.101v-1.048h-1.314V296zm5.306 0h1.365v-4.12c0-.971.73-1.637 1.765-1.637.241 0 .647.044.761.076v-1.282a3.39 3.39 0 00-.609-.051c-.901 0-1.669.489-1.866 1.168h-.102v-1.048h-1.314V296zm9.56-1.847c-.254.558-.819.863-1.644.863-1.092 0-1.797-.787-1.841-2.037v-.064h4.881v-.47c0-2.158-1.161-3.472-3.085-3.472-1.948 0-3.186 1.403-3.186 3.593 0 2.203 1.212 3.567 3.193 3.567 1.58 0 2.698-.761 2.996-1.98h-1.314zm-1.695-4.069c1.009 0 1.67.73 1.701 1.847h-3.491c.076-1.111.781-1.847 1.79-1.847zm4.793 5.916h1.364v-9.598h-1.364V296zm5.325.114c.908 0 1.663-.393 2.076-1.092h.108V296h1.314v-4.716c0-1.448-.978-2.311-2.711-2.311-1.568 0-2.685.756-2.824 1.917h1.32c.152-.501.679-.787 1.441-.787.933 0 1.415.425 1.415 1.181v.603l-1.872.114c-1.644.102-2.571.819-2.571 2.057 0 1.256.971 2.056 2.304 2.056zm.349-1.098c-.742 0-1.282-.374-1.282-1.016 0-.628.432-.964 1.384-1.028l1.688-.114v.597c0 .888-.761 1.561-1.79 1.561zm5.574-7.649v1.758h-1.099v1.092h1.099v3.968c0 1.326.603 1.859 2.12 1.859.266 0 .52-.031.742-.069v-1.086c-.19.019-.311.032-.52.032-.679 0-.978-.324-.978-1.067v-3.637h1.498v-1.092h-1.498v-1.758h-1.364zm5.173.508a.863.863 0 00.863-.857.864.864 0 00-1.726 0c0 .47.387.857.863.857zm-.679 8.125h1.358v-6.894h-1.358V296zm6.284.133c2.018 0 3.256-1.352 3.256-3.58 0-2.228-1.244-3.58-3.256-3.58-2.019 0-3.263 1.359-3.263 3.58 0 2.228 1.238 3.58 3.263 3.58zm0-1.161c-1.187 0-1.854-.883-1.854-2.419s.667-2.425 1.854-2.425c1.181 0 1.853.889 1.853 2.425 0 1.53-.672 2.419-1.853 2.419zm4.9 1.028h1.365v-4.043c0-1.111.641-1.797 1.65-1.797 1.01 0 1.492.559 1.492 1.701V296h1.365v-4.462c0-1.644-.851-2.565-2.393-2.565-1.041 0-1.727.464-2.063 1.225h-.102v-1.092h-1.314V296z" fill="#677380"/><path fill="#F22421" d="M352 281h28v20h-28z"/><path d="M79.312 326v-9.16h-1.663l-2.92 7.167h-.108l-2.913-7.167h-1.664V326h1.32v-6.709h.09l2.685 6.544h1.079l2.685-6.544h.089V326h1.32zm4.05.114c.907 0 1.663-.393 2.076-1.092h.107V326h1.314v-4.716c0-1.448-.977-2.311-2.71-2.311-1.568 0-2.685.756-2.825 1.917h1.32c.153-.501.68-.787 1.441-.787.934 0 1.416.425 1.416 1.181v.603l-1.873.114c-1.644.102-2.57.819-2.57 2.057 0 1.256.97 2.056 2.304 2.056zm.349-1.098c-.743 0-1.282-.374-1.282-1.016 0-.628.431-.964 1.383-1.028l1.689-.114v.597c0 .888-.762 1.561-1.79 1.561zm5.09.984h1.365v-4.043c0-1.111.642-1.797 1.65-1.797 1.01 0 1.493.559 1.493 1.701V326h1.364v-4.462c0-1.644-.85-2.565-2.393-2.565-1.04 0-1.726.464-2.063 1.225h-.101v-1.092h-1.314V326zm8.64-5.586l1.174-3.574h-1.447l-.698 3.574h.97zm2.095.622c0 1.022.609 1.606 1.923 1.911l1.206.285c.692.165 1.016.445 1.016.876 0 .565-.603.959-1.454.959-.825 0-1.333-.337-1.504-.876h-1.365c.12 1.2 1.193 1.942 2.837 1.942 1.651 0 2.863-.869 2.863-2.152 0-1.002-.616-1.567-1.93-1.872l-1.149-.267c-.749-.177-1.098-.444-1.098-.869 0-.559.578-.933 1.34-.933.774 0 1.269.336 1.396.85h1.308c-.133-1.193-1.149-1.917-2.704-1.917-1.562 0-2.685.863-2.685 2.063zM116.344 326h1.511l-3.307-9.16h-1.53l-3.307 9.16h1.46l.844-2.476h3.491l.838 2.476zm-2.634-7.541h.108l1.327 3.923h-2.768l1.333-3.923zm5.687-1.092v1.758h-1.098v1.092h1.098v3.968c0 1.326.603 1.859 2.121 1.859.266 0 .52-.031.742-.069v-1.086c-.19.019-.311.032-.52.032-.679 0-.978-.324-.978-1.067v-3.637h1.498v-1.092h-1.498v-1.758h-1.365zm4.977 0v1.758h-1.098v1.092h1.098v3.968c0 1.326.603 1.859 2.12 1.859.267 0 .521-.031.743-.069v-1.086c-.191.019-.311.032-.521.032-.679 0-.977-.324-.977-1.067v-3.637h1.498v-1.092h-1.498v-1.758h-1.365zm4.469 8.633h1.365v-4.12c0-.971.73-1.637 1.764-1.637.241 0 .648.044.762.076v-1.282a3.39 3.39 0 00-.609-.051c-.902 0-1.67.489-1.867 1.168h-.101v-1.048h-1.314V326zm7.065.114c.907 0 1.663-.393 2.075-1.092h.108V326h1.314v-4.716c0-1.448-.977-2.311-2.71-2.311-1.568 0-2.685.756-2.825 1.917h1.32c.153-.501.68-.787 1.441-.787.933 0 1.416.425 1.416 1.181v.603l-1.873.114c-1.644.102-2.57.819-2.57 2.057 0 1.256.971 2.056 2.304 2.056zm.349-1.098c-.743 0-1.282-.374-1.282-1.016 0-.628.431-.964 1.383-1.028l1.689-.114v.597c0 .888-.762 1.561-1.79 1.561zm10.943-3.694c-.178-1.34-1.225-2.349-2.958-2.349-2.012 0-3.237 1.365-3.237 3.555 0 2.234 1.231 3.605 3.244 3.605 1.707 0 2.773-.958 2.951-2.317h-1.326c-.178.749-.769 1.156-1.632 1.156-1.136 0-1.841-.921-1.841-2.444 0-1.492.699-2.393 1.841-2.393.914 0 1.473.514 1.632 1.187h1.326zm2.146-3.955v1.758h-1.098v1.092h1.098v3.968c0 1.326.603 1.859 2.12 1.859.266 0 .52-.031.742-.069v-1.086c-.19.019-.311.032-.52.032-.679 0-.978-.324-.978-1.067v-3.637h1.498v-1.092h-1.498v-1.758h-1.364zm5.173.508a.863.863 0 00.863-.857.864.864 0 00-1.726 0c0 .47.387.857.863.857zM153.84 326h1.358v-6.894h-1.358V326zm9.217-6.894h-1.448l-1.713 5.498h-.108l-1.721-5.498h-1.46l2.495 6.894h1.466l2.489-6.894zm5.649 5.047c-.254.558-.819.863-1.644.863-1.092 0-1.796-.787-1.841-2.037v-.064h4.882v-.47c0-2.158-1.162-3.472-3.085-3.472-1.949 0-3.187 1.403-3.187 3.593 0 2.203 1.212 3.567 3.193 3.567 1.58 0 2.698-.761 2.996-1.98h-1.314zm-1.695-4.069c1.01 0 1.67.73 1.701 1.847h-3.491c.076-1.111.781-1.847 1.79-1.847zM171.74 326h1.365v-4.043c0-1.111.641-1.797 1.65-1.797 1.01 0 1.492.559 1.492 1.701V326h1.365v-4.462c0-1.644-.851-2.565-2.393-2.565-1.041 0-1.727.464-2.063 1.225h-.102v-1.092h-1.314V326zm12.327-1.847c-.254.558-.818.863-1.644.863-1.091 0-1.796-.787-1.84-2.037v-.064h4.881v-.47c0-2.158-1.162-3.472-3.085-3.472-1.949 0-3.187 1.403-3.187 3.593 0 2.203 1.213 3.567 3.193 3.567 1.581 0 2.698-.761 2.996-1.98h-1.314zm-1.694-4.069c1.009 0 1.669.73 1.701 1.847h-3.491c.076-1.111.78-1.847 1.79-1.847zm4.57.952c0 1.022.609 1.606 1.923 1.911l1.206.285c.692.165 1.016.445 1.016.876 0 .565-.603.959-1.454.959-.825 0-1.333-.337-1.504-.876h-1.365c.121 1.2 1.193 1.942 2.838 1.942 1.65 0 2.862-.869 2.862-2.152 0-1.002-.615-1.567-1.929-1.872l-1.149-.267c-.749-.177-1.098-.444-1.098-.869 0-.559.577-.933 1.339-.933.774 0 1.269.336 1.396.85h1.308c-.133-1.193-1.149-1.917-2.704-1.917-1.562 0-2.685.863-2.685 2.063zm6.881 0c0 1.022.609 1.606 1.923 1.911l1.206.285c.692.165 1.016.445 1.016.876 0 .565-.603.959-1.454.959-.825 0-1.333-.337-1.504-.876h-1.365c.121 1.2 1.193 1.942 2.837 1.942 1.651 0 2.863-.869 2.863-2.152 0-1.002-.616-1.567-1.929-1.872l-1.149-.267c-.749-.177-1.099-.444-1.099-.869 0-.559.578-.933 1.34-.933.774 0 1.269.336 1.396.85h1.308c-.133-1.193-1.149-1.917-2.704-1.917-1.562 0-2.685.863-2.685 2.063z" fill="#677380"/><path fill="#B91913" d="M249 311h131v20H249zM310.303 367v-8.455h-1.307v3.574h-4.342v-3.574h-1.312V367h1.312v-3.744h4.342V367h1.307zm7.353-6.363h-1.26v3.732c0 1.026-.556 1.647-1.576 1.647-.925 0-1.341-.504-1.341-1.559v-3.82h-1.26v4.131c0 1.494.785 2.355 2.197 2.355.967 0 1.617-.41 1.928-1.131h.099V367h1.213v-6.363zm1.828 6.363h1.26v-3.803c0-.896.674-1.511 1.629-1.511.223 0 .598.041.703.07v-1.184a3.183 3.183 0 00-.562-.047c-.832 0-1.541.452-1.723 1.079h-.094v-.967h-1.213V367zm5.578-7.969v1.623h-1.013v1.008h1.013v3.662c0 1.225.557 1.717 1.958 1.717.246 0 .48-.029.685-.064v-1.002c-.176.017-.287.029-.48.029-.627 0-.903-.299-.903-.984v-3.358h1.383v-1.008h-1.383v-1.623h-1.26zm12.809 3.651c-.164-1.237-1.131-2.168-2.73-2.168-1.858 0-2.989 1.259-2.989 3.281 0 2.062 1.137 3.328 2.994 3.328 1.577 0 2.561-.885 2.725-2.139h-1.225c-.164.692-.708 1.067-1.505 1.067-1.049 0-1.7-.85-1.7-2.256 0-1.377.645-2.209 1.7-2.209.843 0 1.359.475 1.505 1.096h1.225zm1.5 4.318h1.26v-3.727c0-.996.574-1.658 1.605-1.658.891 0 1.366.522 1.366 1.571V367h1.259v-4.113c0-1.506-.838-2.367-2.197-2.367-.961 0-1.635.421-1.945 1.13h-.1v-3.509h-1.248V367zm9.029.105c.838 0 1.536-.363 1.916-1.007h.1V367h1.213v-4.354c0-1.335-.902-2.132-2.502-2.132-1.447 0-2.479.697-2.607 1.769h1.218c.141-.463.627-.726 1.33-.726.862 0 1.307.392 1.307 1.089v.557l-1.729.106c-1.517.093-2.373.755-2.373 1.898 0 1.16.897 1.898 2.127 1.898zm.323-1.013c-.686 0-1.184-.346-1.184-.938 0-.58.399-.89 1.277-.949l1.559-.105v.55c0 .821-.703 1.442-1.652 1.442zm4.699.908h1.26v-3.732c0-1.026.591-1.659 1.523-1.659.932 0 1.377.516 1.377 1.571V367h1.26v-4.119c0-1.518-.785-2.367-2.209-2.367-.961 0-1.594.427-1.904 1.131h-.094v-1.008h-1.213V367zm12.598-4.318c-.165-1.237-1.131-2.168-2.731-2.168-1.857 0-2.988 1.259-2.988 3.281 0 2.062 1.137 3.328 2.994 3.328 1.576 0 2.56-.885 2.725-2.139h-1.225c-.164.692-.709 1.067-1.506 1.067-1.049 0-1.699-.85-1.699-2.256 0-1.377.644-2.209 1.699-2.209.844 0 1.359.475 1.506 1.096h1.225zm5.625 2.613c-.235.516-.756.797-1.518.797-1.008 0-1.658-.727-1.699-1.881v-.059h4.506v-.433c0-1.992-1.073-3.205-2.848-3.205-1.799 0-2.941 1.295-2.941 3.316 0 2.033 1.119 3.293 2.947 3.293 1.459 0 2.49-.703 2.765-1.828h-1.212zm-1.565-3.756c.932 0 1.541.674 1.57 1.705h-3.222c.07-1.025.72-1.705 1.652-1.705zm4.219.879c0 .943.562 1.482 1.775 1.764l1.114.263c.638.153.937.41.937.809 0 .521-.557.885-1.342.885-.762 0-1.23-.311-1.388-.809h-1.26c.111 1.108 1.101 1.793 2.619 1.793 1.523 0 2.642-.803 2.642-1.986 0-.926-.568-1.448-1.781-1.729l-1.06-.246c-.692-.164-1.014-.41-1.014-.803 0-.515.533-.861 1.236-.861.715 0 1.172.311 1.289.785h1.207c-.123-1.101-1.06-1.769-2.496-1.769-1.441 0-2.478.797-2.478 1.904z"/><path d="M384.496 30v-8.455h-1.312V30h1.312zm1.975 0h1.259v-3.908c0-.832.581-1.483 1.348-1.483.75 0 1.231.451 1.231 1.178V30h1.236v-4.025c0-.768.533-1.366 1.348-1.366.826 0 1.236.428 1.236 1.307V30h1.26v-4.389c0-1.324-.75-2.097-2.039-2.097-.885 0-1.618.45-1.94 1.136h-.099c-.282-.685-.885-1.136-1.758-1.136-.85 0-1.494.422-1.776 1.136h-.093v-1.013h-1.213V30zm13.998-6.475c-.867 0-1.617.44-2.004 1.166h-.094v-1.054h-1.213v8.484h1.26V29.04h.1c.334.674 1.054 1.066 1.962 1.066 1.612 0 2.637-1.277 2.637-3.287 0-2.021-1.025-3.293-2.648-3.293zm-.358 5.502c-1.054 0-1.716-.85-1.716-2.209 0-1.365.662-2.215 1.722-2.215 1.067 0 1.705.832 1.705 2.215s-.638 2.21-1.711 2.21zm4.524.973h1.26v-3.803c0-.896.673-1.511 1.628-1.511.223 0 .598.04.704.07v-1.184a3.159 3.159 0 00-.563-.047c-.832 0-1.541.452-1.723 1.079h-.093v-.967h-1.213V30zm7.336.123c1.863 0 3.006-1.248 3.006-3.305 0-2.056-1.149-3.304-3.006-3.304-1.864 0-3.012 1.254-3.012 3.304 0 2.057 1.143 3.305 3.012 3.305zm0-1.072c-1.096 0-1.711-.815-1.711-2.233 0-1.418.615-2.238 1.711-2.238 1.09 0 1.711.82 1.711 2.238 0 1.412-.621 2.233-1.711 2.233zm9.679-5.414h-1.336l-1.582 5.074h-.099l-1.588-5.074h-1.348L418 30h1.354l2.296-6.363zm5.215 4.658c-.234.515-.756.797-1.517.797-1.008 0-1.659-.727-1.7-1.881v-.059h4.506v-.433c0-1.992-1.072-3.205-2.847-3.205-1.799 0-2.942 1.295-2.942 3.316 0 2.033 1.119 3.293 2.947 3.293 1.459 0 2.491-.703 2.766-1.828h-1.213zm-1.564-3.756c.931 0 1.541.674 1.57 1.705h-3.223c.071-1.025.721-1.705 1.653-1.705zm6.697 5.566c.879 0 1.623-.416 2.004-1.113h.1V30h1.207v-8.86h-1.26v3.505h-.094c-.346-.698-1.084-1.12-1.957-1.12-1.611 0-2.648 1.284-2.648 3.288 0 2.015 1.025 3.293 2.648 3.293zm.357-5.502c1.055 0 1.717.856 1.717 2.215 0 1.371-.656 2.21-1.717 2.21-1.066 0-1.705-.827-1.705-2.21 0-1.377.645-2.215 1.705-2.215zm11.743 5.602c1.886 0 3.275-1.084 3.509-2.73h-1.306c-.235.96-1.084 1.564-2.203 1.564-1.524 0-2.473-1.254-2.473-3.264s.949-3.27 2.467-3.27c1.113 0 1.963.669 2.209 1.718h1.306c-.211-1.694-1.652-2.883-3.515-2.883-2.35 0-3.809 1.7-3.809 4.435 0 2.73 1.465 4.43 3.815 4.43zm5.15-.205h1.26v-3.727c0-.996.574-1.658 1.605-1.658.891 0 1.366.522 1.366 1.57V30h1.259v-4.113c0-1.506-.838-2.367-2.197-2.367-.961 0-1.635.421-1.945 1.13h-.1v-3.51h-1.248V30zm9.029.105c.838 0 1.535-.363 1.916-1.007h.1V30h1.213v-4.354c0-1.335-.902-2.132-2.502-2.132-1.447 0-2.479.697-2.608 1.77h1.219c.141-.464.627-.727 1.33-.727.862 0 1.307.392 1.307 1.09v.556l-1.729.106c-1.517.093-2.373.755-2.373 1.898 0 1.16.897 1.898 2.127 1.898zm.323-1.013c-.686 0-1.184-.346-1.184-.938 0-.58.398-.89 1.277-.949l1.559-.105v.55c0 .82-.703 1.442-1.652 1.442zm4.699.908h1.26v-3.732c0-1.026.591-1.659 1.523-1.659.932 0 1.377.516 1.377 1.57V30h1.26v-4.12c0-1.517-.785-2.366-2.209-2.366-.961 0-1.594.427-1.905 1.13h-.093v-1.007h-1.213V30zm12.597-4.318c-.164-1.237-1.13-2.168-2.73-2.168-1.857 0-2.988 1.26-2.988 3.28 0 2.063 1.136 3.329 2.994 3.329 1.576 0 2.56-.885 2.724-2.139h-1.224c-.164.692-.709 1.067-1.506 1.067-1.049 0-1.699-.85-1.699-2.256 0-1.377.644-2.21 1.699-2.21.844 0 1.359.476 1.506 1.097h1.224zm5.625 2.613c-.234.515-.755.797-1.517.797-1.008 0-1.658-.727-1.699-1.881v-.059h4.506v-.433c0-1.992-1.073-3.205-2.848-3.205-1.799 0-2.942 1.295-2.942 3.316 0 2.033 1.12 3.293 2.948 3.293 1.459 0 2.49-.703 2.765-1.828h-1.213zm-1.564-3.756c.932 0 1.541.674 1.57 1.705h-3.222c.07-1.025.72-1.705 1.652-1.705zm4.219.879c0 .943.562 1.482 1.775 1.764l1.113.263c.639.153.938.41.938.809 0 .521-.557.885-1.342.885-.762 0-1.23-.31-1.389-.809h-1.259c.111 1.108 1.101 1.793 2.619 1.793 1.523 0 2.642-.803 2.642-1.986 0-.926-.568-1.448-1.781-1.729l-1.06-.246c-.692-.164-1.014-.41-1.014-.803 0-.515.533-.861 1.236-.861.715 0 1.172.31 1.289.785h1.207c-.123-1.101-1.06-1.77-2.496-1.77-1.441 0-2.478.797-2.478 1.905z" fill="#007013"/><defs><clipPath id="clip0"><path fill="#fff" transform="translate(215 42)" d="M0 0h300v306H0z"/></clipPath></defs></svg>