<svg width="48" height="48" fill="none" xmlns="http://www.w3.org/2000/svg"><path d="M31.341 34.295l.072.29.29.072 7.662 1.916a10.726 10.726 0 018.137 10.423c0 .28-.227.506-.502.506H1A.503.503 0 01.498 47c0-4.944 3.344-9.229 8.135-10.427 0 0 0 0 0 0l7.662-1.916.29-.073.072-.29.442-1.765.13-.523-.531-.089c-5.245-.876-7.881-2.442-7.958-2.488a.502.502 0 01-.04-.831h0l.003-.003c.171-.132 3.795-3.243 3.795-13.595C12.498 4.087 20.48.498 24 .498c1.417 0 2.339.15 3.067.443.723.291 1.297.74 1.997 1.417l.145.14H30c.898 0 1.667.244 2.325.723.663.482 1.24 1.222 1.716 2.253.957 2.073 1.461 5.236 1.461 9.526 0 10.27 3.566 13.412 3.797 13.597a.519.519 0 01.197.432.504.504 0 01-.24.401h0c-.09.053-2.753 1.607-7.957 2.483l-.53.09.13.522.442 1.77z" fill="#FFBC58" fill-opacity=".5" stroke="#FBA21C" stroke-width=".995"/></svg>