<svg version="1.1" id="Layer_1" xmlns="http://www.w3.org/2000/svg" xmlns:xlink="http://www.w3.org/1999/xlink" x="0" y="0" viewBox="0 0 652 721" xml:space="preserve"><style>.st0{fill:#fff}.st1{fill:none}.st2{fill:#6e7cfb;fill-opacity:.5}.st4{fill:#505962}.st7{fill:#7d8893}.st29{fill:#a7b0ba}.st35{fill:#fba21c}.st46{fill:#fafafc}.st50,.st64{fill:none;stroke:#c2cbd3}.st64{stroke:#7d8893}</style><path class="st0" d="M10 .5h632c5.2 0 9.5 4.2 9.5 9.5v701c0 5.2-4.2 9.5-9.5 9.5H10c-5.2 0-9.5-4.2-9.5-9.5V10C.5 4.7 4.7.5 10 .5z"/><path class="st0" d="M0 0h652v404H0z"/><path class="st1" d="M30 30h248v341H30z"/><path class="st0" d="M30 35c0-2.8 2.2-5 5-5h238c2.8 0 5 2.2 5 5v87c0 2.8-2.2 5-5 5H35c-2.8 0-5-2.2-5-5V35z"/><path class="st2" d="M70.9 81.8l-.1.1v2.7c0 1 .5 1.8 1.4 2.2l15.7 7.6c.3.2.5.4.7.7.4.5.8 1.3.8 2.4v4.5c0 .1-.1.3-.1.4-.1.1-.2.3-.3.4-.1.1-.3.2-.6.2H41.6c-.3 0-.5-.1-.6-.2-.1-.1-.2-.2-.3-.4-.1-.2-.1-.4-.2-.6v-4.2c0-1.1.4-1.9.8-2.4.2-.3.5-.5.7-.7l15.7-7.6c.4-.2.8-.5 1-.9.2-.4.4-.9.4-1.3V81.9l-2.9-6-.1-.1-.1-.2-.3-.3c-.3-.3-.6-.6-.8-1-.5-.9-1.1-2.4-1-4.7.1-.1.3-.3.4-.5.2-.5.4-1.3.1-2.6-.4-2.5-.8-4.9.9-6.7.2-.1.4-.3.6-.4.6-.3 1.2-.5 1.8-.7h.1l.1-.1c.1 0 .1-.1.2-.2s.3-.2.5-.4c.4-.3.8-.8 1.1-1.3.2-.3.6-.7 1.3-1.1.6-.3 1.4-.6 2.2-.6h3.5c.8 0 1.6.2 2.3.6.7.4 1.1.8 1.3 1.1.3.5.7 1 1.1 1.3.2.2.4.4.7.6l.3-.4-.3.4.1.1h.1c.8.2 1.4.5 1.8.7.2.1.4.2.6.4 1.7 1.9 1.4 4.2.9 6.7-.2 1.3-.1 2.1.1 2.6.1.2.2.4.4.5.1 2.3-.5 3.8-1 4.7-.2.4-.5.7-.8 1l-.3.3-.1.1-.1.1-2.9 6z"/><path d="M57.9 58.6h0l-.2.1c-.6.2-1.2.4-1.8.7-.2.1-.4.2-.6.4h0c-1.7 1.9-1.4 4.2-.9 6.7.2 1.3.1 2.1-.1 2.6-.1.2-.2.4-.4.5-.1 2.3.5 3.8 1 4.7.2.4.5.7.8 1l.3.3h0l.1.1.1.1 2.9 6V84.6c0 .5-.1.9-.4 1.3-.2.4-.6.7-1 .9L42 94.4h0c-.3.2-.5.4-.7.7-.4.5-.8 1.3-.8 2.4v4.2c0 .2.1.4.2.6.1.1.2.3.3.4.1.1.3.2.6.2h46.8c.3 0 .5-.1.6-.2.1-.1.2-.2.3-.4.1-.1.1-.3.1-.4v-4.5c0-1.1-.4-1.9-.8-2.4-.2-.3-.5-.5-.7-.7h0l-15.7-7.6c-.9-.4-1.4-1.3-1.4-2.2v-2.7l.1-.1 2.9-6 .1-.1.1-.1h0l.3-.3c.3-.3.6-.6.8-1 .5-.9 1.1-2.4 1-4.7-.1-.1-.3-.3-.4-.5-.2-.5-.4-1.3-.1-2.6.4-2.5.8-4.9-.9-6.7h0c-.2-.1-.4-.3-.6-.4-.4-.2-1-.5-1.8-.7h-.1l-.1-.1.3-.4-.3.4h0c-.2-.2-.4-.4-.7-.6-.4-.3-.8-.8-1.1-1.3h0c-.2-.3-.6-.7-1.3-1.1-.7-.3-1.5-.6-2.3-.6h-3.5c-.8 0-1.6.2-2.2.6-.7.4-1.1.8-1.3 1.1-.3.5-.7 1-1.1 1.3-.2.2-.3.3-.5.4 0 .2-.1.2-.2.3h0zm0 0l-.3-.4" fill="none" stroke="#6e7cfb" stroke-width=".991"/><path class="st2" d="M98.5 30.5h179v96h-179z"/><path class="st4" d="M119.6 53v-9.8h-2.4l-2.7 6.8h-.1l-2.7-6.8h-2.4V53h1.9v-6.6h.1l2.5 6.2h1.4l2.5-6.2h.1V53h1.8zm4.2.1c1 0 1.8-.4 2.2-1.1h.1v1h1.9v-5.1c0-1.6-1.1-2.5-3.1-2.5-1.9 0-3.2.9-3.3 2.2h1.8c.2-.5.6-.7 1.4-.7.8 0 1.3.4 1.3 1v.6l-1.8.1c-1.9.1-2.9.9-2.9 2.3 0 1.3 1 2.2 2.4 2.2zm.7-1.4c-.7 0-1.2-.3-1.2-.9 0-.6.4-.9 1.3-.9l1.5-.1v.6c0 .7-.7 1.3-1.6 1.3zm5.6 1.3h2V42.6h-2V53zm8.9-2.1c-.2.5-.7.8-1.5.8-1 0-1.7-.7-1.7-1.9v-.1h5.2v-.6c0-2.4-1.3-3.8-3.5-3.8s-3.6 1.5-3.6 3.9 1.3 3.9 3.6 3.9c1.8 0 3.1-.9 3.4-2.3H139zm-1.7-4.1c.9 0 1.5.6 1.6 1.7h-3.2c.1-1 .7-1.7 1.6-1.7zM109 73h1.2c0-1.2.8-1.9 2-1.9s1.9.8 1.9 1.8c0 .9-.4 1.4-1.6 2.7l-3.3 3.6v.8h6.4v-1.1h-4.7v-.1l2.2-2.3c1.8-1.8 2.3-2.6 2.3-3.8 0-1.6-1.3-2.8-3-2.8-2 0-3.4 1.3-3.4 3.1zm10.9 7h1.2v-9.8h-1.2l-2.6 1.9v1.3l2.5-1.8h.1V80zm8.7 2.7c1.3 0 1.9-.5 2.5-2.2l2.9-7.8h-1.2l-2 6h-.1l-2-6h-1.3L130 80l-.1.4c-.3.9-.7 1.2-1.3 1.2h-.5v1c.1 0 .3.1.5.1zm11.5-4.6c-.3.6-.9 1-1.9 1-1.2 0-2.1-.9-2.1-2.4v-.1h5.3v-.4c0-2.3-1.2-3.7-3.2-3.7s-3.3 1.5-3.3 3.8 1.3 3.8 3.3 3.8c1.6 0 2.7-.8 3.1-2h-1.2zm-1.9-4.5c1.2 0 1.9.9 2 2.2h-4c0-1.4.8-2.2 2-2.2zm7.1 6.5c1 0 1.8-.4 2.3-1.2h.1V80h1.1v-5c0-1.5-1-2.4-2.8-2.4-1.6 0-2.7.8-2.9 2h1.2c.2-.6.8-.9 1.7-.9 1.1 0 1.7.5 1.7 1.4v.7l-2.1.1c-1.7.1-2.7.9-2.7 2.2-.1 1.2.9 2 2.4 2zm.2-1c-.9 0-1.5-.4-1.5-1.2 0-.7.5-1.1 1.6-1.2l2-.1v.7c0 1-.9 1.8-2.1 1.8zm5.4.9h1.2v-4.5c0-1 .8-1.8 1.9-1.8.2 0 .7 0 .7.1v-1.2h-.6c-1 0-1.8.5-2 1.2h-.1v-1.1h-1.1V80zm5-5.3c0 1.1.6 1.7 2 2l1.3.3c.8.2 1.2.5 1.2 1 0 .7-.7 1.1-1.7 1.1-.9 0-1.5-.4-1.7-1h-1.2c.1 1.2 1.3 2 2.9 2 1.7 0 2.9-.9 2.9-2.2 0-1.1-.7-1.7-2-2l-1.1-.3c-.9-.2-1.3-.5-1.3-1 0-.7.7-1.1 1.6-1.1.9 0 1.5.4 1.6 1h1.2c-.2-1.2-1.2-2-2.8-2-1.7 0-2.9 1-2.9 2.2zm8.2 7.8l1.1-3.9h-1.3l-.6 3.9h.8zm-48.8 13.4h-4.9v-3.4h4.6v-1.1h-4.6v-3.2h4.9v-1.1h-6.1V97h6.1v-1.1zm8-6.2h-1.2V94c0 1.3-.7 2.1-2 2.1-1.2 0-1.7-.6-1.7-1.9v-4.5h-1.2v4.7c0 1.7.9 2.7 2.5 2.7 1.1 0 1.9-.5 2.3-1.3h.1V97h1.1v-7.3zm2.2 7.3h1.2v-4.5c0-1 .8-1.8 1.9-1.8.2 0 .7 0 .7.1v-1.2h-.6c-1 0-1.8.5-2 1.2h-.1v-1.1h-1.1V97zm8.2.1c2.1 0 3.4-1.4 3.4-3.8s-1.3-3.8-3.4-3.8c-2.1 0-3.4 1.4-3.4 3.8s1.3 3.8 3.4 3.8zm0-1c-1.4 0-2.2-1-2.2-2.7 0-1.7.8-2.7 2.2-2.7s2.2 1 2.2 2.7c-.1 1.7-.9 2.7-2.2 2.7zm8.8-6.6c-1 0-1.9.5-2.3 1.4h-.2v-1.2h-1.1v9.8h1.2v-3.6h.1c.4.8 1.2 1.2 2.3 1.2 1.9 0 3.1-1.5 3.1-3.8-.1-2.3-1.3-3.8-3.1-3.8zm-.3 6.6c-1.3 0-2.2-1.1-2.2-2.7 0-1.7.8-2.7 2.2-2.7 1.3 0 2.1 1 2.1 2.7s-.8 2.7-2.1 2.7zm10-1c-.3.6-.9 1-1.9 1-1.2 0-2.1-.9-2.1-2.4v-.1h5.3v-.4c0-2.3-1.2-3.7-3.2-3.7S147 91 147 93.3s1.3 3.8 3.3 3.8c1.6 0 2.7-.8 3.1-2h-1.2zm-1.9-4.5c1.2 0 1.9.9 2 2.2h-4c0-1.4.8-2.2 2-2.2zm7.1 6.5c1 0 1.8-.4 2.3-1.2h.1V97h1.1v-5c0-1.5-1-2.4-2.8-2.4-1.6 0-2.7.8-2.9 2h1.2c.2-.6.8-.9 1.7-.9 1.1 0 1.7.5 1.7 1.4v.7l-2.1.1c-1.7.1-2.7.9-2.7 2.2-.1 1.2 1 2 2.4 2zm.2-1c-.9 0-1.5-.4-1.5-1.2 0-.7.5-1.1 1.6-1.2l2-.1v.7c0 1-.9 1.8-2.1 1.8zm5.4.9h1.2v-4.3c0-1.3.8-2.1 1.9-2.1 1.2 0 1.7.6 1.7 1.9V97h1.2v-4.7c0-1.7-.9-2.7-2.6-2.7-1.1 0-1.8.5-2.2 1.3h-.1v-1.2H163V97zm8.1 2.1l3.5-12.3h-1l-3.5 12.3h1zm8.8-1.9c2.1 0 3.6-1.2 4-3h-1.2c-.3 1.1-1.4 1.8-2.7 1.8-1.9 0-3.1-1.5-3.1-4s1.2-4 3.1-4c1.4 0 2.4.8 2.7 2.1h1.2c-.3-1.9-1.9-3.2-4-3.2-2.7 0-4.3 2-4.3 5.1 0 3.3 1.6 5.2 4.3 5.2zm7.9-.1c1 0 1.8-.4 2.3-1.2h.1V97h1.1v-5c0-1.5-1-2.4-2.8-2.4-1.6 0-2.7.8-2.9 2h1.2c.2-.6.8-.9 1.7-.9 1.1 0 1.7.5 1.7 1.4v.7l-2.1.1c-1.7.1-2.7.9-2.7 2.2-.1 1.2 1 2 2.4 2zm.2-1c-.9 0-1.5-.4-1.5-1.2 0-.7.5-1.1 1.6-1.2l2-.1v.7c0 1-.9 1.8-2.1 1.8zm7.5 1c1 0 1.8-.4 2.3-1.2h.1V97h1.1v-5c0-1.5-1-2.4-2.8-2.4-1.6 0-2.7.8-2.9 2h1.2c.2-.6.8-.9 1.7-.9 1.1 0 1.7.5 1.7 1.4v.7l-2.1.1c-1.7.1-2.7.9-2.7 2.2-.1 1.2 1 2 2.4 2zm.2-1c-.9 0-1.5-.4-1.5-1.2 0-.7.5-1.1 1.6-1.2l2-.1v.7c0 1-.9 1.8-2.1 1.8zm11.4-6.4h-1.2V94c0 1.3-.7 2.1-2 2.1-1.2 0-1.7-.6-1.7-1.9v-4.5H201v4.7c0 1.7.9 2.7 2.5 2.7 1.1 0 1.9-.5 2.3-1.3h.1V97h1.1v-7.3zm8.3 2.2c-.2-1.3-1.3-2.4-3.1-2.4-2.1 0-3.4 1.5-3.4 3.8s1.3 3.8 3.4 3.8c1.8 0 2.9-1 3.1-2.3h-1.2c-.2.8-.9 1.3-1.9 1.3-1.3 0-2.2-1.1-2.2-2.8 0-1.7.8-2.7 2.2-2.7 1.1 0 1.7.6 1.9 1.3h1.2zm3.7 5.2c1 0 1.8-.4 2.3-1.2h.1V97h1.1v-5c0-1.5-1-2.4-2.8-2.4-1.6 0-2.7.8-2.9 2h1.2c.2-.6.8-.9 1.7-.9 1.1 0 1.7.5 1.7 1.4v.7l-2.1.1c-1.7.1-2.7.9-2.7 2.2 0 1.2 1 2 2.4 2zm.3-1c-.9 0-1.5-.4-1.5-1.2 0-.7.5-1.1 1.6-1.2l2-.1v.7c-.1 1-.9 1.8-2.1 1.8zm5.2-4.4c0 1.1.6 1.7 2 2l1.3.3c.8.2 1.2.5 1.2 1 0 .7-.7 1.1-1.7 1.1-.9 0-1.5-.4-1.7-1h-1.2c.1 1.2 1.3 2 2.9 2 1.7 0 2.9-.9 2.9-2.2 0-1.1-.7-1.7-2-2l-1.1-.3c-.9-.2-1.3-.5-1.3-1 0-.7.7-1.1 1.6-1.1.9 0 1.5.4 1.6 1h1.2c-.2-1.2-1.2-2-2.8-2-1.7 0-2.9 1-2.9 2.2zm8.1-3.5c.4 0 .8-.4.8-.8s-.4-.8-.8-.8-.8.4-.8.8c0 .5.3.8.8.8zm-.6 8.8h1.2v-7.3h-1.2V97zm5.4.1c1 0 1.8-.4 2.3-1.2h.1V97h1.1v-5c0-1.5-1-2.4-2.8-2.4-1.6 0-2.7.8-2.9 2h1.2c.2-.6.8-.9 1.7-.9 1.1 0 1.7.5 1.7 1.4v.7l-2.1.1c-1.7.1-2.7.9-2.7 2.2 0 1.2 1 2 2.4 2zm.3-1c-.9 0-1.5-.4-1.5-1.2 0-.7.5-1.1 1.6-1.2l2-.1v.7c0 1-.9 1.8-2.1 1.8zm5.4.9h1.2v-4.3c0-1.3.8-2.1 1.9-2.1 1.2 0 1.7.6 1.7 1.9V97h1.2v-4.7c0-1.7-.9-2.7-2.6-2.7-1.1 0-1.8.5-2.2 1.3h-.1v-1.2h-1.1V97zm12.6-3.4v-1.1h-4.5v1.1h4.5zM115.6 114h1.3l-3.6-9.8h-1.2l-3.6 9.8h1.3l1-2.8h3.9l.9 2.8zm-3-8.2h.1l1.5 4.4H111l1.6-4.4zm5.9 8.2h1.2v-4.5c0-1 .7-1.9 1.7-1.9.9 0 1.5.6 1.5 1.4v5h1.2v-4.7c0-.9.7-1.7 1.7-1.7s1.5.5 1.5 1.6v4.8h1.2v-5.1c0-1.5-.8-2.4-2.3-2.4-1 0-1.9.5-2.2 1.3h-.1c-.3-.8-1-1.3-2-1.3s-1.7.5-2 1.3h-.1v-1.2h-1.1v7.4zm17-1.9c-.3.6-.9 1-1.9 1-1.2 0-2.1-.9-2.1-2.4v-.1h5.3v-.4c0-2.3-1.2-3.7-3.2-3.7s-3.3 1.5-3.3 3.8 1.3 3.8 3.3 3.8c1.6 0 2.7-.8 3.1-2h-1.2zm-2-4.5c1.2 0 1.9.9 2 2.2h-4c.1-1.4.9-2.2 2-2.2zm5.1 6.4h1.2v-4.5c0-1 .8-1.8 1.9-1.8.2 0 .7 0 .7.1v-1.2h-.6c-1 0-1.8.5-2 1.2h-.1v-1.1h-1.1v7.3zm5.9-8.8c.4 0 .8-.4.8-.8s-.4-.8-.8-.8-.8.4-.8.8c0 .5.4.8.8.8zm-.6 8.8h1.2v-7.3h-1.2v7.3zm9.5-5.1c-.2-1.3-1.3-2.4-3.1-2.4-2.1 0-3.4 1.5-3.4 3.8s1.3 3.8 3.4 3.8c1.8 0 2.9-1 3.1-2.3h-1.2c-.2.8-.9 1.3-1.9 1.3-1.3 0-2.1-1.1-2.1-2.8 0-1.7.8-2.7 2.1-2.7 1.1 0 1.7.6 1.9 1.3h1.2zm3.8 5.2c1 0 1.8-.4 2.3-1.2h.1v1.1h1.1v-5c0-1.5-1-2.4-2.8-2.4-1.6 0-2.7.8-2.9 2h1.2c.2-.6.8-.9 1.7-.9 1.1 0 1.7.5 1.7 1.4v.7l-2.1.1c-1.7.1-2.7.9-2.7 2.2-.1 1.2.9 2 2.4 2zm.2-1c-.9 0-1.5-.4-1.5-1.2 0-.7.5-1.1 1.6-1.2l2-.1v.7c0 1-.9 1.8-2.1 1.8zm5.4.9h1.2v-4.3c0-1.3.8-2.1 1.9-2.1 1.2 0 1.7.6 1.7 1.9v4.5h1.2v-4.8c0-1.7-.9-2.7-2.6-2.7-1.1 0-1.8.5-2.2 1.3h-.1v-1.2h-1.1v7.4z"/><path fill="none" stroke="#6e7cfb" stroke-width=".995" d="M98.5 30.5h179v96h-179z"/><path d="M35 31h238v-2H35v2zm242 4v87h2V35h-2zm-4 91H35v2h238v-2zm-242-4V35h-2v87h2zm4 4c-2.2 0-4-1.8-4-4h-2c0 3.3 2.7 6 6 6v-2zm242-4c0 2.2-1.8 4-4 4v2c3.3 0 6-2.7 6-6h-2zm-4-91c2.2 0 4 1.8 4 4h2c0-3.3-2.7-6-6-6v2zM35 29c-3.3 0-6 2.7-6 6h2c0-2.2 1.8-4 4-4v-2z" fill="#6e7cfb"/><path class="st7" d="M33.9 153.6h2l2.2 4.4H41l-2.5-4.7c1.4-.5 2.2-1.9 2.2-3.4 0-2.4-1.6-3.8-4.2-3.8h-5V158H34v-4.4zm0-5.6h2.2c1.2 0 2 .7 2 1.9s-.7 1.9-2 1.9h-2.2V148zm11.5 10.1c1.2 0 2.2-.5 2.6-1.3h.1v1.2h2.3v-6.2c0-1.9-1.4-3.1-3.8-3.1-2.3 0-3.8 1-4 2.7H45c.2-.6.8-.9 1.6-.9 1 0 1.5.5 1.5 1.2v.8l-2.2.1c-2.3.1-3.5 1.1-3.5 2.7 0 1.7 1.3 2.8 3 2.8zm.8-1.8c-.8 0-1.4-.4-1.4-1.1 0-.7.5-1.1 1.5-1.1l1.8-.1v.7c.1.9-.8 1.6-1.9 1.6zm7.4-9.6v2.3h-1.4v1.8h1.4v4.7c0 1.8.9 2.5 3.1 2.5.5 0 .9-.1 1.2-.1v-1.8h-.7c-.8 0-1.2-.4-1.2-1.2v-4.2h1.9v-1.8H56v-2.3h-2.4zm7.5.7c.7 0 1.4-.6 1.4-1.3 0-.8-.6-1.3-1.4-1.3-.7 0-1.4.6-1.4 1.3 0 .7.7 1.3 1.4 1.3zm-1.2 10.5h2.4v-9.1h-2.4v9.1zm4.8 0h2.4v-5.3c0-1.2.7-2 1.8-2s1.7.7 1.7 1.9v5.3H73V152c0-2.2-1.1-3.4-3.1-3.4-1.3 0-2.3.6-2.7 1.7h-.1v-1.5h-2.3v9.1zm14.7 3.5c2.8 0 4.5-1.3 4.5-3.5v-9.1h-2.3v1.5h-.1c-.5-1-1.5-1.6-2.8-1.6-2.3 0-3.7 1.8-3.7 4.6 0 2.7 1.4 4.5 3.7 4.5 1.3 0 2.2-.5 2.7-1.5h.1v1.7c0 1-.8 1.7-2 1.7-1 0-1.7-.4-1.8-.9h-2.4c.1 1.5 1.7 2.6 4.1 2.6zm0-5.4c-1.3 0-2-1-2-2.7s.8-2.7 2-2.7c1.3 0 2.1 1 2.1 2.7s-.8 2.7-2.1 2.7zm6.7-4.5c0 1.4.9 2.2 2.6 2.6l1.7.4c.8.2 1.1.5 1.1.9 0 .6-.6 1-1.6 1s-1.5-.4-1.7-1h-2.3c.2 1.7 1.6 2.7 4 2.7s4-1.2 4-3c0-1.4-.8-2.1-2.6-2.5l-1.7-.4c-.8-.2-1.2-.5-1.2-.9 0-.6.6-1 1.5-1s1.4.4 1.6 1h2.2c-.1-1.7-1.5-2.7-3.8-2.7s-3.8 1.2-3.8 2.9z"/><defs><path id="SVGID_1_" d="M30 176.9h245v19.9H30z"/></defs><clipPath id="SVGID_2_"><use xlink:href="#SVGID_1_" overflow="visible"/></clipPath><path d="M39.3 192.8h1.6l-4.4-12H35l-4.4 12h1.6l1.2-3.4h4.8l1.1 3.4zm-3.6-10h.1l1.9 5.3h-3.9l1.9-5.3zm7.2-1.2v2.3h-1.4v1.2h1.4v5.4c0 1.7.7 2.4 2.6 2.4.3 0 .6 0 .8-.1v-1.2h-.7c-.9 0-1.3-.4-1.3-1.5V185h2v-1.2h-2v-2.3h-1.4zm6.2 0v2.3h-1.4v1.2h1.4v5.4c0 1.7.7 2.4 2.6 2.4.3 0 .6 0 .8-.1v-1.2h-.7c-.9 0-1.3-.4-1.3-1.5V185h2v-1.2h-2v-2.3h-1.4zm5.6 11.2h1.4v-5.5c0-1.3 1-2.2 2.3-2.2.3 0 .8 0 .9.1v-1.4h-.7c-1.2 0-2.2.6-2.5 1.5H56V184h-1.4v8.8zm8.9.2c1.2 0 2.2-.5 2.8-1.5h.1v1.3h1.4v-6.1c0-1.9-1.2-3-3.4-3-1.9 0-3.3.9-3.5 2.4h1.4c.2-.7.9-1.1 2-1.1 1.3 0 2 .6 2 1.7v.8l-2.6.2c-2.1.1-3.3 1-3.3 2.6.1 1.6 1.4 2.7 3.1 2.7zm.3-1.3c-1 0-1.8-.5-1.8-1.4 0-.9.6-1.4 2-1.5l2.4-.2v.8c-.1 1.4-1.1 2.3-2.6 2.3zm14-5.1c-.2-1.6-1.6-2.9-3.8-2.9-2.5 0-4.1 1.8-4.1 4.6s1.6 4.7 4.1 4.7c2.1 0 3.5-1.2 3.7-2.9h-1.4c-.3 1-1.1 1.6-2.3 1.6-1.6 0-2.6-1.3-2.6-3.4 0-2 1-3.3 2.6-3.3 1.3 0 2.1.7 2.3 1.6h1.5zm2.9-5v2.3h-1.4v1.2h1.4v5.4c0 1.7.7 2.4 2.6 2.4.3 0 .6 0 .8-.1v-1.2h-.7c-.9 0-1.3-.4-1.3-1.5V185h2v-1.2h-2v-2.3h-1.4zm6.3.5c.5 0 1-.4 1-1s-.4-1-1-1c-.5 0-1 .4-1 1s.5 1 1 1zm-.7 10.7h1.4v-8.9h-1.4v8.9zm11.5-8.9h-1.5l-2.4 7.4h-.1l-2.4-7.4H90l3.3 8.9h1.5l3.1-8.9zm7.5 6.6c-.4.8-1.2 1.2-2.3 1.2-1.5 0-2.5-1.1-2.6-2.9v-.1h6.4v-.5c0-2.8-1.5-4.5-3.9-4.5-2.5 0-4 1.8-4 4.6s1.6 4.6 4 4.6c2 0 3.4-.9 3.8-2.5h-1.4zM103 185c1.4 0 2.4 1 2.4 2.6h-4.9c.1-1.6 1.1-2.6 2.5-2.6zm6.1 7.8h1.4v-5.3c0-1.6.9-2.5 2.3-2.5s2.1.8 2.1 2.4v5.4h1.4V187c0-2.1-1.1-3.3-3.1-3.3-1.4 0-2.2.6-2.7 1.6h-.1v-1.4H109v8.9zm15.9-2.3c-.4.8-1.2 1.2-2.3 1.2-1.5 0-2.5-1.1-2.6-2.9v-.1h6.4v-.5c0-2.8-1.5-4.5-3.9-4.5-2.5 0-4 1.8-4 4.6s1.6 4.6 4 4.6c2 0 3.4-.9 3.8-2.5H125zm-2.4-5.5c1.4 0 2.4 1 2.4 2.6h-4.9c.1-1.6 1.1-2.6 2.5-2.6zm6 1.3c0 1.3.8 2 2.4 2.4l1.5.4c1 .2 1.4.6 1.4 1.3 0 .8-.9 1.4-2.1 1.4-1.1 0-1.9-.5-2.1-1.2h-1.5c.2 1.5 1.5 2.4 3.5 2.4s3.6-1.1 3.6-2.7c0-1.3-.8-2-2.5-2.4l-1.4-.3c-1.1-.3-1.6-.6-1.6-1.3 0-.8.8-1.3 1.9-1.3 1.1 0 1.8.5 2 1.2h1.4c-.2-1.5-1.5-2.4-3.4-2.4-1.7-.1-3.1 1-3.1 2.5zm8.7 0c0 1.3.8 2 2.4 2.4l1.5.4c1 .2 1.4.6 1.4 1.3 0 .8-.9 1.4-2.1 1.4-1.1 0-1.9-.5-2.1-1.2h-1.5c.2 1.5 1.5 2.4 3.5 2.4s3.6-1.1 3.6-2.7c0-1.3-.8-2-2.5-2.4l-1.4-.3c-1.1-.3-1.6-.6-1.6-1.3 0-.8.8-1.3 1.9-1.3 1.1 0 1.8.5 2 1.2h1.4c-.2-1.5-1.5-2.4-3.4-2.4-1.7-.1-3.1 1-3.1 2.5z" clip-path="url(#SVGID_2_)" fill="#7d8893"/><g clip-path="url(#SVGID_2_)"><defs><path id="SVGID_3_" d="M250.2 176.9h24.9v19.9h-24.9z"/></defs><clipPath id="SVGID_4_"><use xlink:href="#SVGID_3_" overflow="visible"/></clipPath><path d="M266.8 193.1c2.5 0 4.2-1.7 4.2-4.1 0-2.3-1.7-4-3.9-4-1.4 0-2.6.7-3.2 1.8h-.1c0-3.3 1.2-4.9 3.2-4.9 1.2 0 2.1.6 2.3 1.7h1.5c-.3-1.9-1.7-3.1-3.9-3.1-2.8 0-4.6 2.4-4.6 6.5s1.9 6.1 4.5 6.1zm0-1.3c-1.5 0-2.7-1.2-2.7-2.8 0-1.6 1.1-2.7 2.7-2.7s2.7 1.1 2.7 2.8c0 1.5-1.1 2.7-2.7 2.7z" clip-path="url(#SVGID_4_)" fill="#6e7cfb"/></g><defs><path id="SVGID_5_" d="M30 211.7h245v19.9H30z"/></defs><clipPath id="SVGID_6_"><use xlink:href="#SVGID_5_" overflow="visible"/></clipPath><path d="M31 224.5c.2 2.1 1.9 3.4 4.4 3.4 2.7 0 4.5-1.4 4.5-3.6 0-1.8-1-2.7-3.5-3.3l-1.3-.3c-1.7-.4-2.3-1-2.3-1.9 0-1.2 1.1-2 2.6-2s2.5.7 2.7 2h1.5c-.1-1.9-1.9-3.3-4.2-3.3-2.5 0-4.2 1.4-4.2 3.4 0 1.7.9 2.7 3.1 3.2l1.5.4c1.7.4 2.4 1.1 2.4 2.1 0 1.2-1.2 2.1-2.8 2.1-1.7 0-2.9-.8-3.1-2H31zm11.9-7.5c.5 0 1-.4 1-1s-.4-1-1-1c-.5 0-1 .4-1 1s.5 1 1 1zm-.7 10.7h1.4v-8.9h-1.4v8.9zm4.2 0h1.4v-5.3c0-1.6.9-2.5 2.3-2.5s2.1.8 2.1 2.4v5.4h1.4v-5.8c0-2.1-1.1-3.3-3.1-3.3-1.4 0-2.2.6-2.7 1.6h-.1v-1.4h-1.4v8.9zm17.3-6.3c-.2-1.6-1.6-2.9-3.8-2.9-2.5 0-4.1 1.8-4.1 4.6s1.6 4.7 4.1 4.7c2.1 0 3.5-1.2 3.7-2.9h-1.4c-.3 1-1.1 1.6-2.3 1.6-1.6 0-2.6-1.3-2.6-3.4 0-2 1-3.3 2.6-3.3 1.3 0 2.1.7 2.3 1.6h1.5zm8 3.9c-.4.8-1.2 1.2-2.3 1.2-1.5 0-2.5-1.1-2.6-2.9v-.1h6.4v-.5c0-2.8-1.5-4.5-3.9-4.5-2.5 0-4 1.8-4 4.6s1.6 4.6 4 4.6c2 0 3.4-.9 3.8-2.5h-1.4zm-2.3-5.5c1.4 0 2.4 1 2.4 2.6h-4.9c.1-1.5 1.1-2.6 2.5-2.6zm6.1 7.9h1.4v-5.5c0-1.3 1-2.2 2.3-2.2.3 0 .8.1.9.1v-1.4h-.7c-1.2 0-2.2.6-2.5 1.5h-.1v-1.3h-1.4v8.8zm7.2-10.7c.5 0 1-.4 1-1s-.4-1-1-1c-.5 0-1 .4-1 1s.5 1 1 1zm-.7 10.7h1.4v-8.9H82v8.9zm4.8-11.3v2.3h-1.4v1.2h1.4v5.4c0 1.7.7 2.4 2.6 2.4.3 0 .6 0 .8-.1v-1.2h-.7c-.9 0-1.3-.4-1.3-1.5v-5.1h2v-1.2h-2v-2.3h-1.4zm6.3 14.5c1.6 0 2.3-.6 3.1-2.7l3.5-9.5h-1.5l-2.4 7.4h-.1l-2.5-7.4h-1.5l3.3 9-.2.5c-.4 1.1-.8 1.5-1.6 1.5h-.6v1.2h.5z" clip-path="url(#SVGID_6_)" fill="#7d8893"/><g clip-path="url(#SVGID_6_)"><defs><path id="SVGID_7_" d="M250.2 211.7h24.9v19.9h-24.9z"/></defs><clipPath id="SVGID_8_"><use xlink:href="#SVGID_7_" overflow="visible"/></clipPath><path d="M266.7 228c2.5 0 4.3-1.4 4.3-3.5 0-1.6-1-2.8-2.5-3.1v-.1c1.2-.3 2-1.4 2-2.7 0-1.9-1.6-3.2-3.8-3.2s-3.8 1.3-3.8 3.2c0 1.3.8 2.3 2 2.7v.1c-1.5.3-2.5 1.5-2.5 3.1 0 2.1 1.7 3.5 4.3 3.5zm0-7.2c-1.4 0-2.4-.8-2.4-2s.9-2.1 2.4-2.1c1.4 0 2.4.8 2.4 2.1-.1 1.2-1 2-2.4 2zm0 5.9c-1.7 0-2.8-.9-2.8-2.3s1.1-2.3 2.8-2.3 2.8.9 2.8 2.3-1.2 2.3-2.8 2.3z" clip-path="url(#SVGID_8_)" fill="#6e7cfb"/></g><defs><path id="SVGID_9_" d="M30 246.5h245v19.9H30z"/></defs><clipPath id="SVGID_10_"><use xlink:href="#SVGID_9_" overflow="visible"/></clipPath><path d="M31 259.4c.2 2.1 1.9 3.4 4.4 3.4 2.7 0 4.5-1.4 4.5-3.6 0-1.8-1-2.7-3.5-3.3l-1.3-.3c-1.7-.4-2.3-1-2.3-1.9 0-1.2 1.1-2 2.6-2s2.5.7 2.7 2h1.5c-.1-1.9-1.9-3.3-4.2-3.3-2.5 0-4.2 1.4-4.2 3.4 0 1.7.9 2.7 3.1 3.2l1.5.4c1.7.4 2.4 1.1 2.4 2.1 0 1.2-1.2 2.1-2.8 2.1-1.7 0-2.9-.8-3.1-2.1H31zm11.3 3.1h1.4v-5.3c0-1.5.9-2.5 2.5-2.5 1.4 0 2.1.8 2.1 2.4v5.4h1.4v-5.8c0-2.1-1.2-3.3-3.1-3.3-1.4 0-2.3.6-2.8 1.6h-.1v-5h-1.4v12.5zm12.5.2c1.2 0 2.2-.5 2.8-1.5h.1v1.3H59v-6.1c0-1.9-1.2-3-3.4-3-1.9 0-3.3.9-3.5 2.4h1.4c.2-.7.9-1.1 2-1.1 1.3 0 2 .6 2 1.7v.8l-2.6.2c-2.1.1-3.3 1-3.3 2.6.1 1.6 1.4 2.7 3.2 2.7zm.2-1.3c-1 0-1.8-.5-1.8-1.4 0-.9.6-1.4 2-1.5l2.4-.2v.8c0 1.3-1.1 2.3-2.6 2.3zm6.7 1.1h1.4V257c0-1.3 1-2.2 2.3-2.2.3 0 .8 0 .9.1v-1.4h-.7c-1.2 0-2.2.6-2.5 1.5H63v-1.3h-1.4v8.8zm12.1-2.3c-.4.8-1.2 1.2-2.3 1.2-1.5 0-2.5-1.1-2.6-2.9v-.1h6.4v-.5c0-2.8-1.5-4.5-3.9-4.5-2.5 0-4 1.8-4 4.6s1.6 4.6 4 4.6c2 0 3.4-.9 3.8-2.5h-1.4zm-2.3-5.5c1.4 0 2.4 1 2.4 2.6H69c0-1.6 1-2.6 2.5-2.6zm9.4 8c1.2 0 2.3-.6 2.9-1.6h.1v1.4h1.4V250h-1.4v5h-.1c-.5-1-1.6-1.6-2.8-1.6-2.3 0-3.8 1.8-3.8 4.6-.1 2.8 1.4 4.7 3.7 4.7zm.3-8c1.6 0 2.6 1.3 2.6 3.3 0 2.1-1 3.3-2.6 3.3s-2.6-1.3-2.6-3.3c0-2.1 1-3.3 2.6-3.3zm12.4-2.9c.5 0 1-.4 1-1 0-.5-.4-1-1-1-.5 0-1 .4-1 1s.4 1 1 1zm-.7 10.7h1.4v-8.9h-1.4v8.9zm4.1 0h1.4v-5.3c0-1.6.9-2.5 2.3-2.5s2.1.8 2.1 2.4v5.4h1.4v-5.8c0-2.1-1.1-3.3-3.1-3.3-1.4 0-2.2.6-2.7 1.6h-.1v-1.4H97v8.9zm10.5-11.3v2.3h-1.4v1.2h1.4v5.4c0 1.7.7 2.4 2.6 2.4.3 0 .6 0 .8-.1v-1.2h-.7c-.9 0-1.3-.4-1.3-1.5v-5.1h2v-1.2h-2v-2.3h-1.4zm11.4 9c-.4.8-1.2 1.2-2.3 1.2-1.5 0-2.5-1.1-2.6-2.9v-.1h6.4v-.5c0-2.8-1.5-4.5-3.9-4.5-2.5 0-4 1.8-4 4.6s1.6 4.6 4 4.6c2 0 3.4-.9 3.8-2.5h-1.4zm-2.3-5.5c1.4 0 2.4 1 2.4 2.6h-5c.1-1.6 1.1-2.6 2.6-2.6zm6.1 7.8h1.4V257c0-1.3 1-2.2 2.3-2.2.3 0 .8 0 .9.1v-1.4h-.7c-1.2 0-2.2.6-2.5 1.5h-.1v-1.3h-1.4v8.8zm12.2-2.3c-.4.8-1.2 1.2-2.3 1.2-1.5 0-2.5-1.1-2.6-2.9v-.1h6.4v-.5c0-2.8-1.5-4.5-3.9-4.5-2.5 0-4 1.8-4 4.6s1.6 4.6 4 4.6c2 0 3.4-.9 3.8-2.5h-1.4zm-2.4-5.5c1.4 0 2.4 1 2.4 2.6H130c.1-1.6 1.1-2.6 2.5-2.6zm5.9 1.3c0 1.3.8 2 2.4 2.4l1.5.4c1 .2 1.4.6 1.4 1.3 0 .8-.9 1.4-2.1 1.4-1.1 0-1.9-.5-2.1-1.2H138c.2 1.5 1.5 2.4 3.5 2.4s3.6-1.1 3.6-2.7c0-1.3-.8-2-2.5-2.4l-1.4-.3c-1.1-.3-1.6-.6-1.6-1.3 0-.8.8-1.3 1.9-1.3 1.1 0 1.8.5 2 1.2h1.4c-.2-1.5-1.5-2.4-3.4-2.4-1.6-.1-3.1 1-3.1 2.5zm9.7-4.8v2.3h-1.4v1.2h1.4v5.4c0 1.7.7 2.4 2.6 2.4.3 0 .6 0 .8-.1v-1.2h-.7c-.9 0-1.3-.4-1.3-1.5v-5.1h2v-1.2h-2v-2.3h-1.4z" clip-path="url(#SVGID_10_)" fill="#7d8893"/><g clip-path="url(#SVGID_10_)"><defs><path id="SVGID_11_" d="M250.2 246.5h24.9v19.9h-24.9z"/></defs><clipPath id="SVGID_12_"><use xlink:href="#SVGID_11_" overflow="visible"/></clipPath><path d="M266.8 262.8c2.5 0 4.2-1.7 4.2-4.1 0-2.3-1.7-4-3.9-4-1.4 0-2.6.7-3.2 1.8h-.1c0-3.3 1.2-4.9 3.2-4.9 1.2 0 2.1.6 2.3 1.7h1.5c-.3-1.9-1.7-3.1-3.9-3.1-2.8 0-4.6 2.4-4.6 6.5s1.9 6.1 4.5 6.1zm0-1.3c-1.5 0-2.7-1.2-2.7-2.8 0-1.6 1.1-2.7 2.7-2.7s2.7 1.1 2.7 2.8c0 1.5-1.1 2.7-2.7 2.7z" clip-path="url(#SVGID_12_)" fill="#6e7cfb"/></g><defs><path id="SVGID_13_" d="M30 281.4h245v19.9H30z"/></defs><clipPath id="SVGID_14_"><use xlink:href="#SVGID_13_" overflow="visible"/></clipPath><path d="M33 297.3v-12h-1.5v12H33zm2.9 0h1.4V292c0-1.6.9-2.5 2.3-2.5s2.1.8 2.1 2.4v5.4h1.4v-5.8c0-2.1-1.1-3.3-3.1-3.3-1.4 0-2.2.6-2.7 1.6h-.1v-1.4h-1.4v8.9zm10.5-11.2v2.3H45v1.2h1.4v5.4c0 1.7.7 2.4 2.6 2.4.3 0 .6 0 .8-.1v-1.2h-.7c-.9 0-1.3-.4-1.3-1.5v-5.1h2v-1.2h-2V286h-1.4zm11.4 8.9c-.4.8-1.2 1.2-2.3 1.2-1.5 0-2.5-1.1-2.6-2.9v-.1h6.4v-.5c0-2.8-1.5-4.5-3.9-4.5-2.5 0-4 1.8-4 4.6s1.6 4.6 4 4.6c2 0 3.4-.9 3.8-2.5h-1.4zm-2.4-5.5c1.4 0 2.4 1 2.4 2.6h-4.9c.1-1.6 1.1-2.6 2.5-2.6zm6.3 7.8h1.4v-12.5h-1.4v12.5zm10.1-2.3c-.4.8-1.2 1.2-2.3 1.2-1.5 0-2.5-1.1-2.6-2.9v-.1h6.4v-.5c0-2.8-1.5-4.5-3.9-4.5-2.5 0-4 1.8-4 4.6s1.6 4.6 4 4.6c2 0 3.4-.9 3.8-2.5h-1.4zm-2.4-5.5c1.4 0 2.4 1 2.4 2.6h-4.9c.1-1.6 1.1-2.6 2.5-2.6zm9.9 11.3c2.4 0 4-1.3 4-3.3v-9.1h-1.4v1.4h-.1c-.5-1-1.6-1.6-2.9-1.6-2.3 0-3.8 1.8-3.8 4.5s1.4 4.5 3.8 4.5c1.2 0 2.2-.6 2.8-1.5h.1v1.8c0 1.3-1 2.1-2.6 2.1-1.3 0-2.1-.5-2.2-1.2h-1.5c.2 1.4 1.6 2.4 3.8 2.4zm-.1-4.9c-1.7 0-2.6-1.3-2.6-3.2 0-2 .9-3.2 2.6-3.2 1.7 0 2.7 1.3 2.7 3.2-.1 2-1 3.2-2.7 3.2zm12.7-.9c-.4.8-1.2 1.2-2.3 1.2-1.5 0-2.5-1.1-2.6-2.9v-.1h6.4v-.5c0-2.8-1.5-4.5-3.9-4.5-2.5 0-4 1.8-4 4.6s1.6 4.6 4 4.6c2 0 3.4-.9 3.8-2.5h-1.4zm-2.4-5.5c1.4 0 2.4 1 2.4 2.6H87c.1-1.6 1.1-2.6 2.5-2.6zm6.1 7.8H97V292c0-1.6.9-2.5 2.3-2.5s2.1.8 2.1 2.4v5.4h1.4v-5.8c0-2.1-1.1-3.3-3.1-3.3-1.4 0-2.2.6-2.7 1.6v-1.4h-1.4v8.9zm17.4-6.2c-.2-1.6-1.6-2.9-3.8-2.9-2.5 0-4.1 1.8-4.1 4.6s1.6 4.7 4.1 4.7c2.1 0 3.5-1.2 3.7-2.9h-1.4c-.3 1-1.1 1.6-2.3 1.6-1.6 0-2.6-1.3-2.6-3.4 0-2 1-3.3 2.6-3.3 1.3 0 2.1.7 2.3 1.6h1.5zm8 3.9c-.4.8-1.2 1.2-2.3 1.2-1.5 0-2.5-1.1-2.6-2.9v-.1h6.4v-.5c0-2.8-1.5-4.5-3.9-4.5-2.5 0-4 1.8-4 4.6s1.6 4.6 4 4.6c2 0 3.4-.9 3.8-2.5H121zm-2.3-5.5c1.4 0 2.4 1 2.4 2.6h-4.9c0-1.6 1-2.6 2.5-2.6z" clip-path="url(#SVGID_14_)" fill="#7d8893"/><g clip-path="url(#SVGID_14_)"><defs><path id="SVGID_15_" d="M250.2 281.4h24.9v19.9h-24.9z"/></defs><clipPath id="SVGID_16_"><use xlink:href="#SVGID_15_" overflow="visible"/></clipPath><path d="M266.7 297.7c2.5 0 4.3-1.4 4.3-3.5 0-1.6-1-2.8-2.5-3.1v-.1c1.2-.3 2-1.4 2-2.7 0-1.9-1.6-3.2-3.8-3.2s-3.8 1.3-3.8 3.2c0 1.3.8 2.3 2 2.7v.1c-1.5.3-2.5 1.5-2.5 3.1 0 2 1.7 3.5 4.3 3.5zm0-7.2c-1.4 0-2.4-.8-2.4-2s.9-2.1 2.4-2.1c1.4 0 2.4.8 2.4 2.1-.1 1.2-1 2-2.4 2zm0 5.9c-1.7 0-2.8-.9-2.8-2.3s1.1-2.3 2.8-2.3 2.8.9 2.8 2.3c0 1.3-1.2 2.3-2.8 2.3z" clip-path="url(#SVGID_16_)" fill="#6e7cfb"/></g><defs><path id="SVGID_17_" d="M30 316.2h245v19.9H30z"/></defs><clipPath id="SVGID_18_"><use xlink:href="#SVGID_17_" overflow="visible"/></clipPath><path d="M39.3 332.2h1.6l-4.4-12H35l-4.4 12h1.6l1.2-3.4h4.8l1.1 3.4zm-3.6-10.1h.1l1.9 5.3h-3.9l1.9-5.3zm7.1 10.1h1.4v-5.5c0-1.3.9-2.3 2.1-2.3 1.1 0 1.9.7 1.9 1.7v6.1h1.4v-5.8c0-1.1.8-2.1 2.1-2.1s1.9.6 1.9 2v5.9H55V326c0-1.9-1-2.9-2.8-2.9-1.2 0-2.3.6-2.7 1.6h-.1c-.4-.9-1.3-1.6-2.5-1.6s-2.1.6-2.5 1.6h-.1v-1.4h-1.4v8.9zm19.2.1c2.3 0 3.8-1.8 3.8-4.6s-1.5-4.6-3.8-4.6c-1.2 0-2.3.6-2.8 1.6h-.1v-5h-1.4v12.5H59v-1.4h.1c.6.9 1.7 1.5 2.9 1.5zm-.3-7.9c1.6 0 2.6 1.3 2.6 3.3 0 2.1-1 3.3-2.6 3.3s-2.6-1.3-2.6-3.3c0-2.1 1-3.3 2.6-3.3zm7.1-2.9c.5 0 1-.4 1-1s-.4-1-1-1c-.5 0-1 .4-1 1s.4 1 1 1zm-.7 10.7h1.4v-8.9h-1.4v8.9zm4.7-11.3v2.3h-1.4v1.2h1.4v5.4c0 1.7.7 2.4 2.6 2.4.3 0 .6 0 .8-.1V331h-.7c-.9 0-1.3-.4-1.3-1.5v-5.1h2v-1.2h-2v-2.3h-1.4zm6.3.6c.5 0 1-.4 1-1s-.4-1-1-1c-.5 0-1 .4-1 1s.5 1 1 1zm-.7 10.7h1.4v-8.9h-1.4v8.9zm7.9.1c2.5 0 4.1-1.8 4.1-4.6 0-2.9-1.6-4.6-4.1-4.6-2.5 0-4.1 1.8-4.1 4.6-.1 2.9 1.5 4.6 4.1 4.6zm0-1.3c-1.7 0-2.6-1.2-2.6-3.3 0-2.1 1-3.3 2.6-3.3 1.7 0 2.6 1.2 2.6 3.3 0 2.1-1 3.3-2.6 3.3zm6.3 1.2H94v-5.3c0-1.6.9-2.5 2.3-2.5s2.1.8 2.1 2.4v5.4h1.4v-5.8c0-2.1-1.1-3.3-3.1-3.3-1.4 0-2.2.6-2.7 1.6v-1.4h-1.4v8.9zm9.7-6.5c0 1.3.8 2 2.4 2.4l1.5.4c1 .2 1.4.6 1.4 1.3 0 .8-.9 1.4-2.1 1.4-1.1 0-1.9-.5-2.1-1.2h-1.5c.2 1.5 1.5 2.4 3.5 2.4s3.6-1.1 3.6-2.7c0-1.3-.8-2-2.5-2.4l-1.4-.3c-1.1-.3-1.6-.6-1.6-1.3 0-.8.8-1.3 1.9-1.3 1.1 0 1.8.5 2 1.2h1.4c-.2-1.5-1.5-2.4-3.4-2.4-1.6-.1-3.1 1-3.1 2.5z" clip-path="url(#SVGID_18_)" fill="#7d8893"/><g clip-path="url(#SVGID_18_)"><defs><path id="SVGID_19_" d="M250.2 316.2h24.9v19.9h-24.9z"/></defs><clipPath id="SVGID_20_"><use xlink:href="#SVGID_19_" overflow="visible"/></clipPath><path d="M257.7 332.2h1.5v-12h-1.5l-3.2 2.3v1.6l3-2.2h.1v10.3zm9.1.3c2.7 0 4.2-2.3 4.2-6.3s-1.6-6.3-4.2-6.3c-2.7 0-4.2 2.3-4.2 6.3-.1 4 1.5 6.3 4.2 6.3zm0-1.3c-1.8 0-2.7-1.8-2.7-5s1-5 2.7-5c1.8 0 2.7 1.8 2.7 5s-1 5-2.7 5z" clip-path="url(#SVGID_20_)" fill="#6e7cfb"/></g><defs><path id="SVGID_21_" d="M30 351.1h245V371H30z"/></defs><clipPath id="SVGID_22_"><use xlink:href="#SVGID_21_" overflow="visible"/></clipPath><path d="M33 367v-5.2h5.3v-1.3H33v-4.1h5.8V355h-7.3v12H33zm15.3-8.9h-1.4v5.3c0 1.6-.9 2.5-2.4 2.5-1.4 0-2-.7-2-2.4v-5.4H41v5.8c0 2.1 1 3.3 3.1 3.3 1.4 0 2.3-.6 2.8-1.6h.1v1.4h1.4v-8.9zM51 367h1.4v-5.3c0-1.6.9-2.5 2.3-2.5s2.1.8 2.1 2.4v5.4h1.4v-5.8c0-2.1-1.1-3.3-3.1-3.3-1.4 0-2.2.6-2.7 1.6h-.1v-1.4H51v8.9z" clip-path="url(#SVGID_22_)" fill="#7d8893"/><g clip-path="url(#SVGID_22_)"><defs><path id="SVGID_23_" d="M250.2 351.1h24.9V371h-24.9z"/></defs><clipPath id="SVGID_24_"><use xlink:href="#SVGID_23_" overflow="visible"/></clipPath><path d="M257.7 367.1h1.5v-12h-1.5l-3.2 2.3v1.6l3-2.2h.1v10.3zm9.1.2c2.7 0 4.2-2.3 4.2-6.2 0-4-1.6-6.3-4.2-6.3-2.7 0-4.2 2.3-4.2 6.3-.1 4 1.5 6.2 4.2 6.2zm0-1.3c-1.8 0-2.7-1.8-2.7-5s1-5 2.7-5c1.8 0 2.7 1.8 2.7 5 0 3.3-1 5-2.7 5z" clip-path="url(#SVGID_24_)" fill="#6e7cfb"/></g><linearGradient id="SVGID_25_" gradientUnits="userSpaceOnUse" x1="323.019" y1="555.955" x2="323.019" y2="355.955" gradientTransform="matrix(1 0 0 -1 0 722)"><stop offset="0" stop-color="#04cb00"/><stop offset=".521" stop-color="#ffd600"/><stop offset="1" stop-color="#c21700"/></linearGradient><path d="M320 166h6c1.1 0 2 .9 2 2v196c0 1.1-.9 2-2 2h-6c-1.1 0-2-.9-2-2V168c0-1.1.9-2 2-2z" fill="url(#SVGID_25_)"/><path d="M334.2 237.9h27.7c1.1 0 2 .9 2 2v13.2c0 1.1-.9 2-2 2h-27.7l-10-7.8c-.5-.4-.5-1.2 0-1.6l10-7.8z" fill="#898989"/><path d="M338.1 250.3c2 0 3.1-1.6 3.1-4.4 0-2.8-1.2-4.4-3.1-4.4-2 0-3.1 1.6-3.1 4.4 0 2.7 1.2 4.4 3.1 4.4zm0-1.1c-1.1 0-1.8-1.2-1.8-3.4 0-2.1.7-3.3 1.8-3.3s1.8 1.2 1.8 3.3c0 2.2-.6 3.4-1.8 3.4zm5.1 3.1l1-3.4h-1.3l-.5 3.4h.8zm5.5-2c2 0 3.1-1.6 3.1-4.4 0-2.8-1.2-4.4-3.1-4.4-2 0-3.1 1.6-3.1 4.4-.1 2.7 1.1 4.4 3.1 4.4zm0-1.1c-1.1 0-1.8-1.2-1.8-3.4 0-2.1.7-3.3 1.8-3.3s1.8 1.2 1.8 3.3c0 2.2-.7 3.4-1.8 3.4zm7.8 1.1c1.9 0 3.2-1 3.2-2.5 0-1.1-.7-1.9-1.8-2.1v-.1c.9-.2 1.5-.9 1.5-1.9 0-1.3-1.2-2.3-2.8-2.3-1.7 0-2.8.9-2.8 2.3 0 .9.6 1.6 1.5 1.9v.1c-1.1.2-1.8 1.1-1.8 2.2-.2 1.4 1.1 2.4 3 2.4zm0-5.2c-.9 0-1.5-.5-1.5-1.3s.6-1.4 1.5-1.4 1.5.5 1.5 1.4c.1.8-.6 1.3-1.5 1.3zm0 4.1c-1.1 0-1.8-.6-1.8-1.5s.8-1.5 1.8-1.5c1.1 0 1.8.6 1.8 1.5s-.7 1.5-1.8 1.5z" fill="#eff0f3"/><path class="st29" d="M303.3 130v-9.9h-1.2v9.9h1.2zm2.4 0h1.2v-4.4c0-1.3.8-2.1 1.9-2.1s1.7.6 1.7 2v4.5h1.2v-4.8c0-1.8-.9-2.7-2.6-2.7-1.1 0-1.8.5-2.2 1.3h-.1v-1.2h-1.1v7.4zm8.6-9.3v1.9h-1.2v1h1.2v4.5c0 1.4.6 2 2.1 2 .2 0 .5 0 .7-.1v-1h-.5c-.8 0-1.1-.4-1.1-1.2v-4.2h1.6v-1h-1.6v-1.9h-1.2zm9.4 7.4c-.3.6-1 1-1.9 1-1.3 0-2.1-.9-2.1-2.4v-.1h5.3v-.5c0-2.3-1.2-3.7-3.2-3.7s-3.3 1.5-3.3 3.8 1.3 3.8 3.3 3.8c1.6 0 2.8-.8 3.1-2h-1.2zm-1.9-4.6c1.2 0 1.9.9 2 2.2h-4.1c.1-1.3.9-2.2 2.1-2.2zm5 6.5h1.2v-4.6c0-1 .8-1.8 1.9-1.8.2 0 .7 0 .8.1v-1.2h-.6c-1 0-1.8.5-2 1.2h-.1v-1.1h-1.1v7.4zm10-1.9c-.3.6-1 1-1.9 1-1.3 0-2.1-.9-2.1-2.4v-.1h5.3v-.5c0-2.3-1.2-3.7-3.2-3.7s-3.3 1.5-3.3 3.8 1.3 3.8 3.3 3.8c1.6 0 2.8-.8 3.1-2h-1.2zm-1.9-4.6c1.2 0 1.9.9 2 2.2h-4.1c.1-1.3.9-2.2 2.1-2.2zm4.9 1.1c0 1.1.6 1.7 2 2l1.3.3c.8.2 1.2.5 1.2 1 0 .7-.7 1.1-1.7 1.1-.9 0-1.5-.4-1.7-1h-1.2c.1 1.2 1.3 2 2.9 2 1.7 0 3-.9 3-2.2 0-1.1-.7-1.7-2.1-2l-1.1-.3c-.9-.2-1.3-.5-1.3-1 0-.7.7-1.1 1.6-1.1.9 0 1.5.4 1.6 1h1.2c-.2-1.2-1.2-2-2.8-2-1.7.1-2.9 1-2.9 2.2zm7.9-3.9v1.9h-1.2v1h1.2v4.5c0 1.4.6 2 2.1 2 .2 0 .5 0 .7-.1v-1h-.5c-.8 0-1.1-.4-1.1-1.2v-4.2h1.6v-1h-1.6v-1.9h-1.2zm-50.3 26.5c2.1 0 3.7-1.2 4-3h-1.3c-.3 1.1-1.4 1.8-2.7 1.8-1.9 0-3.1-1.6-3.1-4 0-2.5 1.2-4 3.1-4 1.4 0 2.4.8 2.7 2.1h1.3c-.3-1.9-1.9-3.2-4-3.2-2.7 0-4.3 2-4.3 5.2 0 3.1 1.6 5.1 4.3 5.1zm8.9-.1c2.1 0 3.4-1.4 3.4-3.8s-1.3-3.8-3.4-3.8-3.4 1.4-3.4 3.8 1.3 3.8 3.4 3.8zm0-1c-1.4 0-2.2-1-2.2-2.8 0-1.8.8-2.8 2.2-2.8 1.4 0 2.2 1 2.2 2.8 0 1.8-.8 2.8-2.2 2.8zm5.3.9h1.2v-4.6c0-1 .8-1.8 1.9-1.8.2 0 .7 0 .8.1v-1.2h-.6c-1 0-1.8.5-2 1.2h-.1v-1.1h-1.1v7.4zm10-1.9c-.3.6-1 1-1.9 1-1.3 0-2.1-.9-2.1-2.4v-.1h5.3v-.5c0-2.3-1.2-3.7-3.2-3.7s-3.3 1.5-3.3 3.8 1.3 3.8 3.3 3.8c1.6 0 2.8-.8 3.1-2h-1.2zm-2-4.6c1.2 0 1.9.9 2 2.2h-4.1c.1-1.3 1-2.2 2.1-2.2zm5.2 6.5h1.2v-10.3h-1.2V147zm5.5.1c1 0 1.8-.4 2.3-1.2h.1v1.1h1.1v-5c0-1.5-1-2.5-2.8-2.5-1.6 0-2.7.8-2.9 2h1.2c.2-.6.8-.9 1.7-.9 1.1 0 1.7.5 1.7 1.4v.7l-2.1.1c-1.7.1-2.7.9-2.7 2.2-.1 1.3 1 2.1 2.4 2.1zm.2-1c-.9 0-1.5-.4-1.5-1.2 0-.7.5-1.1 1.6-1.2l2-.1v.7c0 1-.9 1.8-2.1 1.8zm5.9-8.4v1.9h-1.2v1h1.2v4.5c0 1.4.6 2 2.1 2 .2 0 .5 0 .7-.1v-1h-.5c-.8 0-1.1-.4-1.1-1.2v-4.2h1.6v-1h-1.6v-1.9h-1.2zm5.3.5c.5 0 .8-.4.8-.8 0-.5-.4-.8-.8-.8-.5 0-.8.4-.8.8-.1.4.3.8.8.8zm-.6 8.8h1.2v-7.4h-1.2v7.4zm6.4.1c2.1 0 3.4-1.4 3.4-3.8s-1.3-3.8-3.4-3.8c-2.1 0-3.4 1.4-3.4 3.8s1.3 3.8 3.4 3.8zm0-1c-1.4 0-2.2-1-2.2-2.8 0-1.8.8-2.8 2.2-2.8 1.4 0 2.2 1 2.2 2.8 0 1.8-.8 2.8-2.2 2.8zm5.3.9h1.2v-4.4c0-1.3.8-2.1 1.9-2.1s1.7.6 1.7 2v4.5h1.2v-4.8c0-1.8-.9-2.7-2.6-2.7-1.1 0-1.8.5-2.2 1.3h-.1v-1.2h-1.1v7.4zM312.1 265.8c1.9 0 3-1.6 3-4.4 0-2.8-1.1-4.4-3-4.4s-3 1.6-3 4.4c0 2.8 1.1 4.4 3 4.4zm0-.9c-1.2 0-1.9-1.2-1.9-3.5 0-2.2.7-3.5 1.9-3.5s1.9 1.2 1.9 3.5-.7 3.5-1.9 3.5zM311.6 177h1.1v-8.4h-1l-2.2 1.6v1.1l2.1-1.6h.1v7.3zM307.7 367.2v-1h-3.8v1h3.8zm3.8 2.9h1v-8.4h-1l-2.2 1.6v1.1l2.1-1.6h.1v7.3z"/><path class="st1" d="M374 30h248v342H374z"/><path class="st0" d="M374 35c0-2.8 2.2-5 5-5h238c2.8 0 5 2.2 5 5v88c0 2.8-2.2 5-5 5H379c-2.8 0-5-2.2-5-5V35z"/><path d="M415.3 89.3l.1.3.3.1 7.7 1.9c4.8 1.2 8.1 5.5 8.1 10.4 0 .3-.2.5-.5.5h-46c-.3 0-.5-.2-.5-.5 0-4.9 3.3-9.2 8.1-10.4v0l7.7-1.9.3-.1.1-.3.4-1.8.1-.5-.5-.1c-5.2-.9-7.9-2.4-8-2.5-.1-.1-.2-.2-.2-.4s.1-.3.2-.4h0c.2-.1 3.8-3.2 3.8-13.6 0-10.9 8-14.5 11.5-14.5 1.4 0 2.3.2 3.1.4.7.3 1.3.7 2 1.4l.1.1h.8c.9 0 1.7.2 2.3.7.7.5 1.2 1.2 1.7 2.3 1 2.1 1.5 5.2 1.5 9.5 0 10.3 3.6 13.4 3.8 13.6.1.1.2.3.2.4 0 .2-.1.3-.2.4v0c-.1.1-2.8 1.6-8 2.5l-.5.1.1.5.4 1.9z" fill="#ffbc58" fill-opacity=".5" stroke="#fba21c" stroke-width=".995"/><path fill="#ffbc58" fill-opacity=".4" d="M442 30h180v98H442z"/><path class="st4" d="M455.2 53v-3.9h4v-1.6h-4v-2.6h4.4v-1.7h-6.4V53h2zm11-2.1c-.2.5-.7.8-1.5.8-1 0-1.7-.7-1.7-1.9v-.1h5.2v-.6c0-2.4-1.3-3.8-3.5-3.8s-3.6 1.5-3.6 3.9 1.3 3.9 3.6 3.9c1.8 0 3.1-.9 3.4-2.3h-1.9zm-1.6-4.1c.9 0 1.5.6 1.6 1.7H463c0-1 .6-1.7 1.6-1.7zm5.1 6.2h2v-4.5c0-.9.6-1.5 1.3-1.5s1.2.5 1.2 1.3V53h1.9v-4.6c0-.8.5-1.4 1.3-1.4s1.3.4 1.3 1.4V53h2v-5.1c0-1.5-.9-2.5-2.4-2.5-1 0-1.9.6-2.3 1.4h-.1c-.3-.9-1-1.4-2.1-1.4-1 0-1.8.5-2.1 1.4h-.1v-1.2h-1.9V53zm15 .1c1 0 1.8-.4 2.2-1.1h.1v1h1.9v-5.1c0-1.6-1.1-2.5-3.1-2.5-1.9 0-3.2.9-3.3 2.2h1.8c.2-.5.6-.7 1.4-.7.8 0 1.3.4 1.3 1v.6l-1.8.1c-1.9.1-2.9.9-2.9 2.3-.1 1.3.9 2.2 2.4 2.2zm.6-1.4c-.7 0-1.2-.3-1.2-.9 0-.6.4-.9 1.3-.9l1.5-.1v.6c.1.7-.6 1.3-1.6 1.3zm5.6 1.3h2V42.6h-2V53zm8.9-2.1c-.2.5-.7.8-1.5.8-1 0-1.7-.7-1.7-1.9v-.1h5.2v-.6c0-2.4-1.3-3.8-3.5-3.8s-3.6 1.5-3.6 3.9 1.3 3.9 3.6 3.9c1.8 0 3.1-.9 3.4-2.3h-1.9zm-1.6-4.1c.9 0 1.5.6 1.6 1.7h-3.2c0-1 .7-1.7 1.6-1.7zM453 73h1.2c0-1.2.8-1.9 2-1.9s1.9.8 1.9 1.8c0 .9-.4 1.4-1.6 2.7l-3.3 3.6v.8h6.4v-1.1h-4.7v-.1l2.2-2.3c1.8-1.8 2.3-2.6 2.3-3.8 0-1.6-1.3-2.8-3-2.8-2 0-3.4 1.3-3.4 3.1zm10.9 7h1.2v-9.8h-1.2l-2.6 1.9v1.3l2.5-1.8h.1V80zm8.7 2.7c1.3 0 1.9-.5 2.5-2.2l2.9-7.8h-1.2l-2 6h-.1l-2-6h-1.3L474 80l-.1.4c-.3.9-.7 1.2-1.3 1.2h-.5v1c.1 0 .3.1.5.1zm11.5-4.6c-.3.6-.9 1-1.9 1-1.2 0-2.1-.9-2.1-2.4v-.1h5.3v-.4c0-2.3-1.2-3.7-3.2-3.7s-3.3 1.5-3.3 3.8 1.3 3.8 3.3 3.8c1.6 0 2.7-.8 3.1-2h-1.2zm-1.9-4.5c1.2 0 1.9.9 2 2.2h-4c0-1.4.8-2.2 2-2.2zm7.1 6.5c1 0 1.8-.4 2.3-1.2h.1V80h1.1v-5c0-1.5-1-2.4-2.8-2.4-1.6 0-2.7.8-2.9 2h1.2c.2-.6.8-.9 1.7-.9 1.1 0 1.7.5 1.7 1.4v.7l-2.1.1c-1.7.1-2.7.9-2.7 2.2-.1 1.2.9 2 2.4 2zm.2-1c-.9 0-1.5-.4-1.5-1.2 0-.7.5-1.1 1.6-1.2l2-.1v.7c0 1-.9 1.8-2.1 1.8zm5.4.9h1.2v-4.5c0-1 .8-1.8 1.9-1.8.2 0 .7 0 .7.1v-1.2h-.6c-1 0-1.8.5-2 1.2h-.1v-1.1h-1.1V80zm5-5.3c0 1.1.6 1.7 2 2l1.3.3c.8.2 1.2.5 1.2 1 0 .7-.7 1.1-1.7 1.1-.9 0-1.5-.4-1.7-1h-1.2c.1 1.2 1.3 2 2.9 2 1.7 0 2.9-.9 2.9-2.2 0-1.1-.7-1.7-2-2l-1.1-.3c-.9-.2-1.3-.5-1.3-1 0-.7.7-1.1 1.6-1.1.9 0 1.5.4 1.6 1h1.2c-.2-1.2-1.2-2-2.8-2-1.7 0-2.9 1-2.9 2.2zm8.2 7.8l1.1-3.9h-1.3l-.6 3.9h.8zm-48.8 13.4h-4.9v-3.4h4.6v-1.1h-4.6v-3.2h4.9v-1.1h-6.1V97h6.1v-1.1zm8-6.2h-1.2V94c0 1.3-.7 2.1-2 2.1-1.2 0-1.7-.6-1.7-1.9v-4.5h-1.2v4.7c0 1.7.9 2.7 2.5 2.7 1.1 0 1.9-.5 2.3-1.3h.1V97h1.1v-7.3zm2.2 7.3h1.2v-4.5c0-1 .8-1.8 1.9-1.8.2 0 .7 0 .7.1v-1.2h-.6c-1 0-1.8.5-2 1.2h-.1v-1.1h-1.1V97zm8.2.1c2.1 0 3.4-1.4 3.4-3.8s-1.3-3.8-3.4-3.8c-2.1 0-3.4 1.4-3.4 3.8s1.3 3.8 3.4 3.8zm0-1c-1.4 0-2.2-1-2.2-2.7 0-1.7.8-2.7 2.2-2.7s2.2 1 2.2 2.7c-.1 1.7-.9 2.7-2.2 2.7zm8.8-6.6c-1 0-1.9.5-2.3 1.4h-.2v-1.2h-1.1v9.8h1.2v-3.6h.1c.4.8 1.2 1.2 2.3 1.2 1.9 0 3.1-1.5 3.1-3.8-.1-2.3-1.3-3.8-3.1-3.8zm-.3 6.6c-1.3 0-2.2-1.1-2.2-2.7 0-1.7.8-2.7 2.2-2.7 1.3 0 2.1 1 2.1 2.7s-.8 2.7-2.1 2.7zm10-1c-.3.6-.9 1-1.9 1-1.2 0-2.1-.9-2.1-2.4v-.1h5.3v-.4c0-2.3-1.2-3.7-3.2-3.7S491 91 491 93.3s1.3 3.8 3.3 3.8c1.6 0 2.7-.8 3.1-2h-1.2zm-1.9-4.5c1.2 0 1.9.9 2 2.2h-4c0-1.4.8-2.2 2-2.2zm7.1 6.5c1 0 1.8-.4 2.3-1.2h.1V97h1.1v-5c0-1.5-1-2.4-2.8-2.4-1.6 0-2.7.8-2.9 2h1.2c.2-.6.8-.9 1.7-.9 1.1 0 1.7.5 1.7 1.4v.7l-2.1.1c-1.7.1-2.7.9-2.7 2.2-.1 1.2 1 2 2.4 2zm.2-1c-.9 0-1.5-.4-1.5-1.2 0-.7.5-1.1 1.6-1.2l2-.1v.7c0 1-.9 1.8-2.1 1.8zm5.4.9h1.2v-4.3c0-1.3.8-2.1 1.9-2.1 1.2 0 1.7.6 1.7 1.9V97h1.2v-4.7c0-1.7-.9-2.7-2.6-2.7-1.1 0-1.8.5-2.2 1.3h-.1v-1.2H507V97zm8.1 2.1l3.5-12.3h-1l-3.5 12.3h1zm8.8-1.9c2.1 0 3.6-1.2 4-3h-1.2c-.3 1.1-1.4 1.8-2.7 1.8-1.9 0-3.1-1.5-3.1-4s1.2-4 3.1-4c1.4 0 2.4.8 2.7 2.1h1.2c-.3-1.9-1.9-3.2-4-3.2-2.7 0-4.3 2-4.3 5.1 0 3.3 1.6 5.2 4.3 5.2zm7.9-.1c1 0 1.8-.4 2.3-1.2h.1V97h1.1v-5c0-1.5-1-2.4-2.8-2.4-1.6 0-2.7.8-2.9 2h1.2c.2-.6.8-.9 1.7-.9 1.1 0 1.7.5 1.7 1.4v.7l-2.1.1c-1.7.1-2.7.9-2.7 2.2-.1 1.2 1 2 2.4 2zm.2-1c-.9 0-1.5-.4-1.5-1.2 0-.7.5-1.1 1.6-1.2l2-.1v.7c0 1-.9 1.8-2.1 1.8zm7.5 1c1 0 1.8-.4 2.3-1.2h.1V97h1.1v-5c0-1.5-1-2.4-2.8-2.4-1.6 0-2.7.8-2.9 2h1.2c.2-.6.8-.9 1.7-.9 1.1 0 1.7.5 1.7 1.4v.7l-2.1.1c-1.7.1-2.7.9-2.7 2.2-.1 1.2 1 2 2.4 2zm.2-1c-.9 0-1.5-.4-1.5-1.2 0-.7.5-1.1 1.6-1.2l2-.1v.7c0 1-.9 1.8-2.1 1.8zm11.4-6.4h-1.2V94c0 1.3-.7 2.1-2 2.1-1.2 0-1.7-.6-1.7-1.9v-4.5H545v4.7c0 1.7.9 2.7 2.5 2.7 1.1 0 1.9-.5 2.3-1.3h.1V97h1.1v-7.3zm8.3 2.2c-.2-1.3-1.3-2.4-3.1-2.4-2.1 0-3.4 1.5-3.4 3.8s1.3 3.8 3.4 3.8c1.8 0 2.9-1 3.1-2.3h-1.2c-.2.8-.9 1.3-1.9 1.3-1.3 0-2.2-1.1-2.2-2.8 0-1.7.8-2.7 2.2-2.7 1.1 0 1.7.6 1.9 1.3h1.2zm3.7 5.2c1 0 1.8-.4 2.3-1.2h.1V97h1.1v-5c0-1.5-1-2.4-2.8-2.4-1.6 0-2.7.8-2.9 2h1.2c.2-.6.8-.9 1.7-.9 1.1 0 1.7.5 1.7 1.4v.7l-2.1.1c-1.7.1-2.7.9-2.7 2.2 0 1.2 1 2 2.4 2zm.3-1c-.9 0-1.5-.4-1.5-1.2 0-.7.5-1.1 1.6-1.2l2-.1v.7c-.1 1-.9 1.8-2.1 1.8zm5.2-4.4c0 1.1.6 1.7 2 2l1.3.3c.8.2 1.2.5 1.2 1 0 .7-.7 1.1-1.7 1.1-.9 0-1.5-.4-1.7-1h-1.2c.1 1.2 1.3 2 2.9 2 1.7 0 2.9-.9 2.9-2.2 0-1.1-.7-1.7-2-2l-1.1-.3c-.9-.2-1.3-.5-1.3-1 0-.7.7-1.1 1.6-1.1.9 0 1.5.4 1.6 1h1.2c-.2-1.2-1.2-2-2.8-2-1.7 0-2.9 1-2.9 2.2zm8.1-3.5c.5 0 .8-.4.8-.8s-.4-.8-.8-.8-.8.4-.8.8c0 .5.3.8.8.8zm-.6 8.8h1.2v-7.3h-1.2V97zm5.4.1c1 0 1.8-.4 2.3-1.2h.1V97h1.1v-5c0-1.5-1-2.4-2.8-2.4-1.6 0-2.7.8-2.9 2h1.2c.2-.6.8-.9 1.7-.9 1.1 0 1.7.5 1.7 1.4v.7l-2.1.1c-1.7.1-2.7.9-2.7 2.2 0 1.2 1 2 2.4 2zm.3-1c-.9 0-1.5-.4-1.5-1.2 0-.7.5-1.1 1.6-1.2l2-.1v.7c0 1-.9 1.8-2.1 1.8zm5.4.9h1.2v-4.3c0-1.3.8-2.1 1.9-2.1 1.2 0 1.7.6 1.7 1.9V97h1.2v-4.7c0-1.7-.9-2.7-2.6-2.7-1.1 0-1.8.5-2.2 1.3h-.1v-1.2h-1.1V97zm12.6-3.4v-1.1h-4.5v1.1h4.5zM459.6 114h1.3l-3.6-9.8h-1.2l-3.6 9.8h1.3l1-2.8h3.9l.9 2.8zm-3-8.2h.1l1.5 4.4H455l1.6-4.4zm5.9 8.2h1.2v-4.5c0-1 .7-1.9 1.7-1.9.9 0 1.5.6 1.5 1.4v5h1.2v-4.7c0-.9.7-1.7 1.7-1.7s1.5.5 1.5 1.6v4.8h1.2v-5.1c0-1.5-.8-2.4-2.3-2.4-1 0-1.9.5-2.2 1.3h-.1c-.3-.8-1-1.3-2-1.3s-1.7.5-2 1.3h-.1v-1.2h-1.1v7.4zm17-1.9c-.3.6-.9 1-1.9 1-1.2 0-2.1-.9-2.1-2.4v-.1h5.3v-.4c0-2.3-1.2-3.7-3.2-3.7s-3.3 1.5-3.3 3.8 1.3 3.8 3.3 3.8c1.6 0 2.7-.8 3.1-2h-1.2zm-2-4.5c1.2 0 1.9.9 2 2.2h-4c.1-1.4.9-2.2 2-2.2zm5.1 6.4h1.2v-4.5c0-1 .8-1.8 1.9-1.8.2 0 .7 0 .7.1v-1.2h-.6c-1 0-1.8.5-2 1.2h-.1v-1.1h-1.1v7.3zm5.9-8.8c.4 0 .8-.4.8-.8s-.4-.8-.8-.8-.8.4-.8.8c0 .5.4.8.8.8zm-.6 8.8h1.2v-7.3h-1.2v7.3zm9.5-5.1c-.2-1.3-1.3-2.4-3.1-2.4-2.1 0-3.4 1.5-3.4 3.8s1.3 3.8 3.4 3.8c1.8 0 2.9-1 3.1-2.3h-1.2c-.2.8-.9 1.3-1.9 1.3-1.3 0-2.2-1.1-2.2-2.8 0-1.7.8-2.7 2.2-2.7 1.1 0 1.7.6 1.9 1.3h1.2zm3.8 5.2c1 0 1.8-.4 2.3-1.2h.1v1.1h1.1v-5c0-1.5-1-2.4-2.8-2.4-1.6 0-2.7.8-2.9 2h1.2c.2-.6.8-.9 1.7-.9 1.1 0 1.7.5 1.7 1.4v.7l-2.1.1c-1.7.1-2.7.9-2.7 2.2-.1 1.2.9 2 2.4 2zm.2-1c-.9 0-1.5-.4-1.5-1.2 0-.7.5-1.1 1.6-1.2l2-.1v.7c0 1-.9 1.8-2.1 1.8zm5.4.9h1.2v-4.3c0-1.3.8-2.1 1.9-2.1 1.2 0 1.7.6 1.7 1.9v4.5h1.2v-4.8c0-1.7-.9-2.7-2.6-2.7-1.1 0-1.8.5-2.2 1.3h-.1v-1.2h-1.1v7.4z"/><path d="M379 31h238v-2H379v2zm242 4v88h2V35h-2zm-4 92H379v2h238v-2zm-242-4V35h-2v88h2zm4 4c-2.2 0-4-1.8-4-4h-2c0 3.3 2.7 6 6 6v-2zm242-4c0 2.2-1.8 4-4 4v2c3.3 0 6-2.7 6-6h-2zm-4-92c2.2 0 4 1.8 4 4h2c0-3.3-2.7-6-6-6v2zm-238-2c-3.3 0-6 2.7-6 6h2c0-2.2 1.8-4 4-4v-2z" fill="#ffbc58"/><path class="st7" d="M377.9 154.6h2l2.2 4.4h2.8l-2.5-4.7c1.4-.5 2.2-1.9 2.2-3.4 0-2.4-1.6-3.8-4.2-3.8h-5V159h2.5v-4.4zm0-5.6h2.2c1.2 0 2 .7 2 1.9s-.7 1.9-2 1.9h-2.2V149zm11.5 10.1c1.2 0 2.2-.5 2.6-1.3h.1v1.2h2.3v-6.2c0-1.9-1.4-3.1-3.8-3.1-2.3 0-3.8 1-4 2.7h2.2c.2-.6.8-.9 1.6-.9 1 0 1.5.5 1.5 1.2v.8l-2.2.1c-2.3.1-3.5 1.1-3.5 2.7.2 1.7 1.4 2.8 3.2 2.8zm.8-1.8c-.8 0-1.4-.4-1.4-1.1 0-.7.5-1.1 1.5-1.1l1.8-.1v.7c.1.9-.8 1.6-1.9 1.6zm7.4-9.6v2.3h-1.4v1.8h1.4v4.7c0 1.8.9 2.5 3.1 2.5.5 0 .9-.1 1.2-.1v-1.8h-.7c-.8 0-1.2-.4-1.2-1.2v-4.2h1.9v-1.8H400v-2.3h-2.4zm7.5.7c.7 0 1.4-.6 1.4-1.3 0-.8-.6-1.3-1.4-1.3-.7 0-1.4.6-1.4 1.3 0 .7.7 1.3 1.4 1.3zm-1.2 10.5h2.4v-9.1h-2.4v9.1zm4.8 0h2.4v-5.3c0-1.2.7-2 1.8-2s1.7.7 1.7 1.9v5.3h2.4V153c0-2.2-1.1-3.4-3.1-3.4-1.3 0-2.3.6-2.7 1.7h-.1v-1.5h-2.3v9.1zm14.7 3.5c2.8 0 4.5-1.3 4.5-3.5v-9.1h-2.3v1.5h-.1c-.5-1-1.5-1.6-2.8-1.6-2.3 0-3.7 1.8-3.7 4.6 0 2.7 1.4 4.5 3.7 4.5 1.3 0 2.2-.5 2.7-1.5h.1v1.7c0 1-.8 1.7-2 1.7-1 0-1.7-.4-1.8-.9h-2.4c.1 1.5 1.7 2.6 4.1 2.6zm0-5.4c-1.3 0-2-1-2-2.7s.8-2.7 2-2.7c1.3 0 2.1 1 2.1 2.7s-.8 2.7-2.1 2.7zm6.7-4.5c0 1.4.9 2.2 2.6 2.6l1.7.4c.8.2 1.1.5 1.1.9 0 .6-.6 1-1.6 1s-1.5-.4-1.7-1h-2.3c.2 1.7 1.6 2.7 4 2.7s4-1.2 4-3c0-1.4-.8-2.1-2.6-2.5l-1.7-.4c-.8-.2-1.2-.5-1.2-.9 0-.6.6-1 1.5-1s1.4.4 1.6 1h2.2c-.1-1.7-1.5-2.7-3.8-2.7s-3.8 1.2-3.8 2.9z"/><g><defs><path id="SVGID_26_" d="M374 177.9h245v19.9H374z"/></defs><clipPath id="SVGID_27_"><use xlink:href="#SVGID_26_" overflow="visible"/></clipPath><g clip-path="url(#SVGID_27_)"><path class="st7" d="M383.3 193.8h1.6l-4.4-12H379l-4.4 12h1.6l1.2-3.4h4.8l1.1 3.4zm-3.6-10h.1l1.9 5.3h-3.9l1.9-5.3zm7.2-1.2v2.3h-1.4v1.2h1.4v5.4c0 1.7.7 2.4 2.6 2.4.3 0 .6 0 .8-.1v-1.2h-.7c-.9 0-1.3-.4-1.3-1.5V186h2v-1.2h-2v-2.3h-1.4zm6.2 0v2.3h-1.4v1.2h1.4v5.4c0 1.7.7 2.4 2.6 2.4.3 0 .6 0 .8-.1v-1.2h-.7c-.9 0-1.3-.4-1.3-1.5V186h2v-1.2h-2v-2.3h-1.4zm5.6 11.2h1.4v-5.5c0-1.3 1-2.2 2.3-2.2.3 0 .8 0 .9.1v-1.4h-.7c-1.2 0-2.2.6-2.5 1.5h-.1V185h-1.4v8.8zm8.9.2c1.2 0 2.2-.5 2.8-1.5h.1v1.3h1.4v-6.1c0-1.9-1.2-3-3.4-3-1.9 0-3.3.9-3.5 2.4h1.4c.2-.7.9-1.1 2-1.1 1.3 0 2 .6 2 1.7v.8l-2.6.2c-2.1.1-3.3 1-3.3 2.6.1 1.6 1.4 2.7 3.1 2.7zm.3-1.3c-1 0-1.8-.5-1.8-1.4 0-.9.6-1.4 2-1.5l2.4-.2v.8c-.1 1.4-1.1 2.3-2.6 2.3zm14-5.1c-.2-1.6-1.6-2.9-3.8-2.9-2.5 0-4.1 1.8-4.1 4.6s1.6 4.7 4.1 4.7c2.1 0 3.5-1.2 3.7-2.9h-1.4c-.3 1-1.1 1.6-2.3 1.6-1.6 0-2.6-1.3-2.6-3.4 0-2 1-3.3 2.6-3.3 1.3 0 2.1.7 2.3 1.6h1.5zm2.9-5v2.3h-1.4v1.2h1.4v5.4c0 1.7.7 2.4 2.6 2.4.3 0 .6 0 .8-.1v-1.2h-.7c-.9 0-1.3-.4-1.3-1.5V186h2v-1.2h-2v-2.3h-1.4zm6.3.5c.5 0 1-.4 1-1s-.4-1-1-1c-.5 0-1 .4-1 1s.5 1 1 1zm-.7 10.7h1.4v-8.9h-1.4v8.9zm11.5-8.9h-1.5l-2.4 7.4h-.1l-2.4-7.4H434l3.3 8.9h1.5l3.1-8.9zm7.5 6.6c-.4.8-1.2 1.2-2.3 1.2-1.5 0-2.5-1.1-2.6-2.9v-.1h6.4v-.5c0-2.8-1.5-4.5-3.9-4.5-2.5 0-4 1.8-4 4.6s1.6 4.6 4 4.6c2 0 3.4-.9 3.8-2.5h-1.4zM447 186c1.4 0 2.4 1 2.4 2.6h-4.9c.1-1.6 1.1-2.6 2.5-2.6zm6.1 7.8h1.4v-5.3c0-1.6.9-2.5 2.4-2.5 1.4 0 2.1.8 2.1 2.4v5.4h1.4V188c0-2.1-1.1-3.3-3.1-3.3-1.4 0-2.2.6-2.7 1.6h-.1v-1.4h-1.4v8.9zm15.9-2.3c-.4.8-1.2 1.2-2.3 1.2-1.5 0-2.5-1.1-2.6-2.9v-.1h6.4v-.5c0-2.8-1.5-4.5-3.9-4.5-2.5 0-4 1.8-4 4.6s1.6 4.6 4 4.6c2 0 3.4-.9 3.8-2.5H469zm-2.4-5.5c1.4 0 2.4 1 2.4 2.6h-4.9c.1-1.6 1.1-2.6 2.5-2.6zm6 1.3c0 1.3.8 2 2.4 2.4l1.5.4c1 .2 1.4.6 1.4 1.3 0 .8-.9 1.4-2.1 1.4-1.1 0-1.9-.5-2.1-1.2h-1.5c.2 1.5 1.5 2.4 3.5 2.4s3.6-1.1 3.6-2.7c0-1.3-.8-2-2.5-2.4l-1.4-.3c-1.1-.3-1.6-.6-1.6-1.3 0-.8.8-1.3 1.9-1.3 1.1 0 1.8.5 2 1.2h1.4c-.2-1.5-1.5-2.4-3.4-2.4-1.7-.1-3.1 1-3.1 2.5zm8.7 0c0 1.3.8 2 2.4 2.4l1.5.4c1 .2 1.4.6 1.4 1.3 0 .8-.9 1.4-2.1 1.4-1.1 0-1.9-.5-2.1-1.2h-1.5c.2 1.5 1.5 2.4 3.5 2.4s3.6-1.1 3.6-2.7c0-1.3-.8-2-2.5-2.4l-1.4-.3c-1.1-.3-1.6-.6-1.6-1.3 0-.8.8-1.3 1.9-1.3 1.1 0 1.8.5 2 1.2h1.4c-.2-1.5-1.5-2.4-3.4-2.4-1.7-.1-3.1 1-3.1 2.5z"/><defs><path id="SVGID_28_" d="M594.2 177.9h24.9v19.9h-24.9z"/></defs><clipPath id="SVGID_29_"><use xlink:href="#SVGID_28_" overflow="visible"/></clipPath><g clip-path="url(#SVGID_29_)"><path class="st35" d="M610.8 194.1c2.5 0 4.2-1.7 4.2-4.1 0-2.3-1.7-4-3.9-4-1.4 0-2.6.7-3.2 1.8h-.1c0-3.3 1.2-4.9 3.2-4.9 1.2 0 2.1.6 2.3 1.7h1.5c-.3-1.9-1.7-3.1-3.9-3.1-2.8 0-4.6 2.4-4.6 6.5s1.9 6.1 4.5 6.1zm0-1.3c-1.5 0-2.7-1.2-2.7-2.8 0-1.6 1.1-2.7 2.7-2.7s2.7 1.1 2.7 2.8c0 1.5-1.2 2.7-2.7 2.7z"/></g></g></g><g><defs><path id="SVGID_30_" d="M374 212.7h245v19.9H374z"/></defs><clipPath id="SVGID_31_"><use xlink:href="#SVGID_30_" overflow="visible"/></clipPath><g clip-path="url(#SVGID_31_)"><path class="st7" d="M375 225.5c.2 2.1 1.9 3.4 4.4 3.4 2.7 0 4.5-1.4 4.5-3.6 0-1.8-1-2.7-3.5-3.3l-1.3-.3c-1.7-.4-2.3-1-2.3-1.9 0-1.2 1.1-2 2.6-2s2.5.7 2.7 2h1.5c-.1-1.9-1.9-3.3-4.2-3.3-2.5 0-4.2 1.4-4.2 3.4 0 1.7.9 2.7 3.1 3.2l1.5.4c1.7.4 2.4 1.1 2.4 2.1 0 1.2-1.2 2.1-2.8 2.1-1.7 0-2.9-.8-3.1-2H375zm11.9-7.5c.5 0 1-.4 1-1s-.4-1-1-1c-.5 0-1 .4-1 1s.5 1 1 1zm-.7 10.7h1.4v-8.9h-1.4v8.9zm4.2 0h1.4v-5.3c0-1.6.9-2.5 2.3-2.5s2.1.8 2.1 2.4v5.4h1.4v-5.8c0-2.1-1.1-3.3-3.1-3.3-1.4 0-2.2.6-2.7 1.6h-.1v-1.4h-1.4v8.9zm17.3-6.3c-.2-1.6-1.6-2.9-3.8-2.9-2.5 0-4.1 1.8-4.1 4.6s1.6 4.7 4.1 4.7c2.1 0 3.5-1.2 3.7-2.9h-1.4c-.3 1-1.1 1.6-2.3 1.6-1.6 0-2.6-1.3-2.6-3.4 0-2 1-3.3 2.6-3.3 1.3 0 2.1.7 2.3 1.6h1.5zm8 3.9c-.4.8-1.2 1.2-2.3 1.2-1.5 0-2.5-1.1-2.6-2.9v-.1h6.4v-.5c0-2.8-1.5-4.5-3.9-4.5-2.5 0-4 1.8-4 4.6s1.6 4.6 4 4.6c2 0 3.4-.9 3.8-2.5h-1.4zm-2.3-5.5c1.4 0 2.4 1 2.4 2.6h-4.9c.1-1.5 1.1-2.6 2.5-2.6zm6.1 7.9h1.4v-5.5c0-1.3 1-2.2 2.3-2.2.3 0 .8.1.9.1v-1.4h-.7c-1.2 0-2.2.6-2.5 1.5h-.1v-1.3h-1.4v8.8zm7.2-10.7c.5 0 1-.4 1-1s-.4-1-1-1c-.5 0-1 .4-1 1s.5 1 1 1zm-.7 10.7h1.4v-8.9H426v8.9zm4.8-11.3v2.3h-1.4v1.2h1.4v5.4c0 1.7.7 2.4 2.6 2.4.3 0 .6 0 .8-.1v-1.2h-.7c-.9 0-1.3-.4-1.3-1.5v-5.1h2v-1.2h-2v-2.3h-1.4zm6.3 14.5c1.6 0 2.3-.6 3.1-2.7l3.5-9.5h-1.5l-2.4 7.4h-.1l-2.5-7.4h-1.5l3.3 9-.2.5c-.4 1.1-.8 1.5-1.6 1.5h-.6v1.2h.5z"/><defs><path id="SVGID_32_" d="M594.2 212.7h24.9v19.9h-24.9z"/></defs><clipPath id="SVGID_33_"><use xlink:href="#SVGID_32_" overflow="visible"/></clipPath><g clip-path="url(#SVGID_33_)"><path class="st35" d="M610.7 229c2.5 0 4.3-1.4 4.3-3.5 0-1.6-1-2.8-2.5-3.1v-.1c1.2-.3 2-1.4 2-2.7 0-1.9-1.6-3.2-3.8-3.2-2.2 0-3.8 1.3-3.8 3.2 0 1.3.8 2.3 2 2.7v.1c-1.5.3-2.5 1.5-2.5 3.1 0 2.1 1.7 3.5 4.3 3.5zm0-7.2c-1.4 0-2.4-.8-2.4-2s.9-2.1 2.4-2.1c1.4 0 2.4.8 2.4 2.1-.1 1.2-1 2-2.4 2zm0 5.9c-1.7 0-2.8-.9-2.8-2.3s1.1-2.3 2.8-2.3c1.7 0 2.8.9 2.8 2.3s-1.2 2.3-2.8 2.3z"/></g></g></g><g><defs><path id="SVGID_34_" d="M374 247.5h245v19.9H374z"/></defs><clipPath id="SVGID_35_"><use xlink:href="#SVGID_34_" overflow="visible"/></clipPath><g clip-path="url(#SVGID_35_)"><path class="st7" d="M375 260.4c.2 2.1 1.9 3.4 4.4 3.4 2.7 0 4.5-1.4 4.5-3.6 0-1.8-1-2.7-3.5-3.3l-1.3-.3c-1.7-.4-2.3-1-2.3-1.9 0-1.2 1.1-2 2.6-2s2.5.7 2.7 2h1.5c-.1-1.9-1.9-3.3-4.2-3.3-2.5 0-4.2 1.4-4.2 3.4 0 1.7.9 2.7 3.1 3.2l1.5.4c1.7.4 2.4 1.1 2.4 2.1 0 1.2-1.2 2.1-2.8 2.1-1.7 0-2.9-.8-3.1-2.1H375zm11.3 3.1h1.4v-5.3c0-1.5.9-2.5 2.5-2.5 1.4 0 2.1.8 2.1 2.4v5.4h1.4v-5.8c0-2.1-1.2-3.3-3.1-3.3-1.4 0-2.3.6-2.8 1.6h-.1v-5h-1.4v12.5zm12.5.2c1.2 0 2.2-.5 2.8-1.5h.1v1.3h1.4v-6.1c0-1.9-1.2-3-3.4-3-1.9 0-3.3.9-3.5 2.4h1.4c.2-.7.9-1.1 2-1.1 1.3 0 2 .6 2 1.7v.8l-2.6.2c-2.1.1-3.3 1-3.3 2.6s1.3 2.7 3.1 2.7zm.2-1.3c-1 0-1.8-.5-1.8-1.4 0-.9.6-1.4 2-1.5l2.4-.2v.8c0 1.3-1.1 2.3-2.6 2.3zm6.7 1.1h1.4V258c0-1.3 1-2.2 2.3-2.2.3 0 .8 0 .9.1v-1.4h-.7c-1.2 0-2.2.6-2.5 1.5h-.1v-1.3h-1.4v8.8zm12.1-2.3c-.4.8-1.2 1.2-2.3 1.2-1.5 0-2.5-1.1-2.6-2.9v-.1h6.4v-.5c0-2.8-1.5-4.5-3.9-4.5-2.5 0-4 1.8-4 4.6s1.6 4.6 4 4.6c2 0 3.4-.9 3.8-2.5h-1.4zm-2.3-5.5c1.4 0 2.4 1 2.4 2.6H413c0-1.6 1-2.6 2.5-2.6zm9.4 8c1.2 0 2.3-.6 2.9-1.6h.1v1.4h1.4V251h-1.4v5h-.1c-.5-1-1.6-1.6-2.8-1.6-2.3 0-3.8 1.8-3.8 4.6-.1 2.8 1.4 4.7 3.7 4.7zm.3-8c1.6 0 2.6 1.3 2.6 3.3 0 2.1-1 3.3-2.6 3.3s-2.6-1.3-2.6-3.3c0-2.1 1-3.3 2.6-3.3zm12.4-2.9c.5 0 1-.4 1-1 0-.5-.4-1-1-1-.5 0-1 .4-1 1s.4 1 1 1zm-.7 10.7h1.4v-8.9h-1.4v8.9zm4.1 0h1.4v-5.3c0-1.6.9-2.5 2.3-2.5s2.1.8 2.1 2.4v5.4h1.4v-5.8c0-2.1-1.1-3.3-3.1-3.3-1.4 0-2.2.6-2.7 1.6h-.1v-1.4H441v8.9zm10.5-11.3v2.3h-1.4v1.2h1.4v5.4c0 1.7.7 2.4 2.6 2.4.3 0 .6 0 .8-.1v-1.2h-.7c-.9 0-1.3-.4-1.3-1.5v-5.1h2v-1.2h-2v-2.3h-1.4zm11.4 9c-.4.8-1.2 1.2-2.3 1.2-1.5 0-2.5-1.1-2.6-2.9v-.1h6.4v-.5c0-2.8-1.5-4.5-3.9-4.5-2.5 0-4 1.8-4 4.6s1.6 4.6 4 4.6c2 0 3.4-.9 3.8-2.5h-1.4zm-2.3-5.5c1.4 0 2.4 1 2.4 2.6h-5c.1-1.6 1.1-2.6 2.6-2.6zm6.1 7.8h1.4V258c0-1.3 1-2.2 2.3-2.2.3 0 .8 0 .9.1v-1.4h-.7c-1.2 0-2.2.6-2.5 1.5h-.1v-1.3h-1.4v8.8zm12.2-2.3c-.4.8-1.2 1.2-2.3 1.2-1.5 0-2.5-1.1-2.6-2.9v-.1h6.4v-.5c0-2.8-1.5-4.5-3.9-4.5-2.5 0-4 1.8-4 4.6s1.6 4.6 4 4.6c2 0 3.4-.9 3.8-2.5h-1.4zm-2.4-5.5c1.4 0 2.4 1 2.4 2.6H474c.1-1.6 1.1-2.6 2.5-2.6zm5.9 1.3c0 1.3.8 2 2.4 2.4l1.5.4c1 .2 1.4.6 1.4 1.3 0 .8-.9 1.4-2.1 1.4-1.1 0-1.9-.5-2.1-1.2H482c.2 1.5 1.5 2.4 3.5 2.4s3.6-1.1 3.6-2.7c0-1.3-.8-2-2.5-2.4l-1.4-.3c-1.1-.3-1.6-.6-1.6-1.3 0-.8.8-1.3 1.9-1.3 1.1 0 1.8.5 2 1.2h1.4c-.2-1.5-1.5-2.4-3.4-2.4-1.6-.1-3.1 1-3.1 2.5zm9.7-4.8v2.3h-1.4v1.2h1.4v5.4c0 1.7.7 2.4 2.6 2.4.3 0 .6 0 .8-.1v-1.2h-.7c-.9 0-1.3-.4-1.3-1.5v-5.1h2v-1.2h-2v-2.3h-1.4z"/><defs><path id="SVGID_36_" d="M594.2 247.5h24.9v19.9h-24.9z"/></defs><clipPath id="SVGID_37_"><use xlink:href="#SVGID_36_" overflow="visible"/></clipPath><g clip-path="url(#SVGID_37_)"><path class="st35" d="M610.9 263.8c2.4 0 4.1-1.7 4.1-4.2 0-2.4-1.7-4-3.7-4-1.2 0-2.1.4-2.7 1.1h-.1l.4-3.9h5.5v-1.3h-6.6l-.7 6.8h1.4c.5-.9 1.4-1.4 2.5-1.4 1.5 0 2.5 1.1 2.5 2.7 0 1.7-1 2.8-2.6 2.8-1.4 0-2.4-.9-2.6-2.1h-1.5c.2 2.1 1.8 3.5 4.1 3.5z"/></g></g></g><g><defs><path id="SVGID_38_" d="M374 282.4h245v19.9H374z"/></defs><clipPath id="SVGID_39_"><use xlink:href="#SVGID_38_" overflow="visible"/></clipPath><g clip-path="url(#SVGID_39_)"><path class="st7" d="M377 298.3v-12h-1.5v12h1.5zm2.9 0h1.4V293c0-1.6.9-2.5 2.3-2.5s2.1.8 2.1 2.4v5.4h1.4v-5.8c0-2.1-1.1-3.3-3.1-3.3-1.4 0-2.2.6-2.7 1.6h-.1v-1.4h-1.4v8.9zm10.5-11.2v2.3H389v1.2h1.4v5.4c0 1.7.7 2.4 2.6 2.4.3 0 .6 0 .8-.1v-1.2h-.7c-.9 0-1.3-.4-1.3-1.5v-5.1h2v-1.2h-2V287h-1.4zm11.4 8.9c-.4.8-1.2 1.2-2.3 1.2-1.5 0-2.5-1.1-2.6-2.9v-.1h6.4v-.5c0-2.8-1.5-4.5-3.9-4.5-2.5 0-4 1.8-4 4.6s1.6 4.6 4 4.6c2 0 3.4-.9 3.8-2.5h-1.4zm-2.4-5.5c1.4 0 2.4 1 2.4 2.6h-4.9c.1-1.6 1.1-2.6 2.5-2.6zm6.3 7.8h1.4v-12.5h-1.4v12.5zm10.1-2.3c-.4.8-1.2 1.2-2.3 1.2-1.5 0-2.5-1.1-2.6-2.9v-.1h6.4v-.5c0-2.8-1.5-4.5-3.9-4.5-2.5 0-4 1.8-4 4.6s1.6 4.6 4 4.6c2 0 3.4-.9 3.8-2.5h-1.4zm-2.4-5.5c1.4 0 2.4 1 2.4 2.6h-4.9c.1-1.6 1.1-2.6 2.5-2.6zm9.9 11.3c2.4 0 4-1.3 4-3.3v-9.1h-1.4v1.4h-.1c-.5-1-1.6-1.6-2.9-1.6-2.3 0-3.8 1.8-3.8 4.5s1.4 4.5 3.8 4.5c1.2 0 2.2-.6 2.8-1.5h.1v1.8c0 1.3-1 2.1-2.6 2.1-1.3 0-2.1-.5-2.2-1.2h-1.5c.2 1.4 1.6 2.4 3.8 2.4zm-.1-4.9c-1.7 0-2.6-1.3-2.6-3.2 0-2 .9-3.2 2.6-3.2 1.7 0 2.7 1.3 2.7 3.2-.1 2-1 3.2-2.7 3.2zm12.7-.9c-.4.8-1.2 1.2-2.3 1.2-1.5 0-2.5-1.1-2.6-2.9v-.1h6.4v-.5c0-2.8-1.5-4.5-3.9-4.5-2.5 0-4 1.8-4 4.6s1.6 4.6 4 4.6c2 0 3.4-.9 3.8-2.5h-1.4zm-2.4-5.5c1.4 0 2.4 1 2.4 2.6H431c.1-1.6 1.1-2.6 2.5-2.6zm6.1 7.8h1.4V293c0-1.6.9-2.5 2.3-2.5s2.1.8 2.1 2.4v5.4h1.4v-5.8c0-2.1-1.1-3.3-3.1-3.3-1.4 0-2.2.6-2.7 1.6v-1.4h-1.4v8.9zm17.4-6.2c-.2-1.6-1.6-2.9-3.8-2.9-2.5 0-4.1 1.8-4.1 4.6s1.6 4.7 4.1 4.7c2.2 0 3.5-1.2 3.7-2.9h-1.4c-.3 1-1.1 1.6-2.3 1.6-1.6 0-2.6-1.3-2.6-3.4 0-2 1-3.3 2.6-3.3 1.3 0 2.1.7 2.3 1.6h1.5zm8 3.9c-.4.8-1.2 1.2-2.3 1.2-1.5 0-2.5-1.1-2.6-2.9v-.1h6.4v-.5c0-2.8-1.5-4.5-3.9-4.5-2.5 0-4 1.8-4 4.6s1.6 4.6 4 4.6c2 0 3.4-.9 3.8-2.5H465zm-2.3-5.5c1.4 0 2.4 1 2.4 2.6h-4.9c0-1.6 1-2.6 2.5-2.6z"/><defs><path id="SVGID_40_" d="M594.2 282.4h24.9v19.9h-24.9z"/></defs><clipPath id="SVGID_41_"><use xlink:href="#SVGID_40_" overflow="visible"/></clipPath><g clip-path="url(#SVGID_41_)"><path class="st35" d="M610.7 298.7c2.5 0 4.3-1.4 4.3-3.5 0-1.6-1-2.8-2.5-3.1v-.1c1.2-.3 2-1.4 2-2.7 0-1.9-1.6-3.2-3.8-3.2-2.2 0-3.8 1.3-3.8 3.2 0 1.3.8 2.3 2 2.7v.1c-1.5.3-2.5 1.5-2.5 3.1 0 2 1.7 3.5 4.3 3.5zm0-7.2c-1.4 0-2.4-.8-2.4-2s.9-2.1 2.4-2.1c1.4 0 2.4.8 2.4 2.1-.1 1.2-1 2-2.4 2zm0 5.9c-1.7 0-2.8-.9-2.8-2.3s1.1-2.3 2.8-2.3c1.7 0 2.8.9 2.8 2.3 0 1.3-1.2 2.3-2.8 2.3z"/></g></g></g><g><defs><path id="SVGID_42_" d="M374 317.2h245v19.9H374z"/></defs><clipPath id="SVGID_43_"><use xlink:href="#SVGID_42_" overflow="visible"/></clipPath><g clip-path="url(#SVGID_43_)"><path class="st7" d="M383.3 333.2h1.6l-4.4-12H379l-4.4 12h1.6l1.2-3.4h4.8l1.1 3.4zm-3.6-10.1h.1l1.9 5.3h-3.9l1.9-5.3zm7.1 10.1h1.4v-5.5c0-1.3.9-2.3 2.1-2.3 1.1 0 1.9.7 1.9 1.7v6.1h1.4v-5.8c0-1.1.8-2.1 2.1-2.1s1.9.6 1.9 2v5.9h1.4V327c0-1.9-1-2.9-2.8-2.9-1.2 0-2.3.6-2.7 1.6h-.1c-.4-.9-1.3-1.6-2.5-1.6s-2.1.6-2.5 1.6h-.1v-1.4h-1.4v8.9zm19.2.1c2.3 0 3.8-1.8 3.8-4.6s-1.5-4.6-3.8-4.6c-1.2 0-2.3.6-2.8 1.6h-.1v-5h-1.4v12.5h1.4v-1.4h.1c.5.9 1.6 1.5 2.8 1.5zm-.3-7.9c1.6 0 2.6 1.3 2.6 3.3 0 2.1-1 3.3-2.6 3.3s-2.6-1.3-2.6-3.3c0-2.1 1-3.3 2.6-3.3zm7.1-2.9c.5 0 1-.4 1-1s-.4-1-1-1-1 .4-1 1 .4 1 1 1zm-.7 10.7h1.4v-8.9h-1.4v8.9zm4.7-11.3v2.3h-1.4v1.2h1.4v5.4c0 1.7.7 2.4 2.6 2.4.3 0 .6 0 .8-.1V332h-.7c-.9 0-1.3-.4-1.3-1.5v-5.1h2v-1.2h-2v-2.3h-1.4zm6.3.6c.5 0 1-.4 1-1s-.4-1-1-1c-.5 0-1 .4-1 1s.5 1 1 1zm-.7 10.7h1.4v-8.9h-1.4v8.9zm7.9.1c2.5 0 4.1-1.8 4.1-4.6 0-2.9-1.6-4.6-4.1-4.6-2.5 0-4.1 1.8-4.1 4.6-.1 2.9 1.5 4.6 4.1 4.6zm0-1.3c-1.7 0-2.6-1.2-2.6-3.3 0-2.1 1-3.3 2.6-3.3 1.7 0 2.6 1.2 2.6 3.3 0 2.1-1 3.3-2.6 3.3zm6.3 1.2h1.4v-5.3c0-1.6.9-2.5 2.3-2.5s2.1.8 2.1 2.4v5.4h1.4v-5.8c0-2.1-1.1-3.3-3.1-3.3-1.4 0-2.2.6-2.7 1.6v-1.4h-1.4v8.9zm9.7-6.5c0 1.3.8 2 2.4 2.4l1.5.4c1 .2 1.4.6 1.4 1.3 0 .8-.9 1.4-2.1 1.4-1.1 0-1.9-.5-2.1-1.2h-1.5c.2 1.5 1.5 2.4 3.5 2.4s3.6-1.1 3.6-2.7c0-1.3-.8-2-2.5-2.4l-1.4-.3c-1.1-.3-1.6-.6-1.6-1.3 0-.8.8-1.3 1.9-1.3 1.1 0 1.8.5 2 1.2h1.4c-.2-1.5-1.5-2.4-3.4-2.4-1.6-.1-3.1 1-3.1 2.5z"/><defs><path id="SVGID_44_" d="M594.2 317.2h24.9v19.9h-24.9z"/></defs><clipPath id="SVGID_45_"><use xlink:href="#SVGID_44_" overflow="visible"/></clipPath><g clip-path="url(#SVGID_45_)"><path class="st35" d="M610.8 333.5c2.5 0 4.2-1.7 4.2-4.1 0-2.3-1.7-4-3.9-4-1.4 0-2.6.7-3.2 1.8h-.1c0-3.3 1.2-4.9 3.2-4.9 1.2 0 2.1.6 2.3 1.7h1.5c-.3-1.9-1.7-3.1-3.9-3.1-2.8 0-4.6 2.4-4.6 6.5s1.9 6.1 4.5 6.1zm0-1.3c-1.5 0-2.7-1.2-2.7-2.8 0-1.6 1.1-2.7 2.7-2.7s2.7 1.1 2.7 2.8c0 1.5-1.2 2.7-2.7 2.7z"/></g></g></g><g><defs><path id="SVGID_46_" d="M374 352.1h245V372H374z"/></defs><clipPath id="SVGID_47_"><use xlink:href="#SVGID_46_" overflow="visible"/></clipPath><g clip-path="url(#SVGID_47_)"><path class="st7" d="M377 368v-5.2h5.3v-1.3H377v-4.1h5.8V356h-7.3v12h1.5zm15.3-8.9h-1.4v5.3c0 1.6-.9 2.5-2.4 2.5-1.4 0-2-.7-2-2.4v-5.4H385v5.8c0 2.1 1 3.3 3.1 3.3 1.4 0 2.3-.6 2.8-1.6h.1v1.4h1.4v-8.9zm2.7 8.9h1.4v-5.3c0-1.6.9-2.5 2.3-2.5s2.1.8 2.1 2.4v5.4h1.4v-5.8c0-2.1-1.1-3.3-3.1-3.3-1.4 0-2.2.6-2.7 1.6h-.1v-1.4H395v8.9z"/><defs><path id="SVGID_48_" d="M594.2 352.1h24.9V372h-24.9z"/></defs><clipPath id="SVGID_49_"><use xlink:href="#SVGID_48_" overflow="visible"/></clipPath><g clip-path="url(#SVGID_49_)"><path class="st35" d="M610.7 368.3c2.5 0 4.3-1.4 4.3-3.5 0-1.6-1-2.8-2.5-3.1v-.1c1.2-.3 2-1.4 2-2.7 0-1.9-1.6-3.2-3.8-3.2-2.2 0-3.8 1.3-3.8 3.2 0 1.3.8 2.3 2 2.7v.1c-1.5.3-2.5 1.5-2.5 3.1 0 2.1 1.7 3.5 4.3 3.5zm0-7.1c-1.4 0-2.4-.8-2.4-2s.9-2.1 2.4-2.1c1.4 0 2.4.8 2.4 2.1-.1 1.2-1 2-2.4 2zm0 5.9c-1.7 0-2.8-.9-2.8-2.3s1.1-2.3 2.8-2.3c1.7 0 2.8.9 2.8 2.3s-1.2 2.3-2.8 2.3z"/></g></g></g><path class="st46" d="M0 404h652v317H0z"/><path class="st4" d="M37.4 438.1V450h2.5v-3.8h2.4c2.5 0 4.3-1.6 4.3-4.1 0-2.5-1.7-4.1-4.1-4.1h-5.1zm2.5 2h1.8c1.4 0 2.3.7 2.3 2.1 0 1.4-.8 2.1-2.3 2.1h-1.8v-4.2zm8.8 9.9h2.4v-12.6h-2.4V450zm10.8-2.6c-.3.6-.9 1-1.9 1-1.3 0-2-.9-2.1-2.3v-.1h6.3v-.7c0-2.9-1.6-4.6-4.3-4.6-2.7 0-4.4 1.8-4.4 4.8 0 2.9 1.6 4.7 4.4 4.7 2.2 0 3.8-1.1 4.2-2.8h-2.2zm-2-4.9c1.1 0 1.9.8 1.9 2h-3.9c.1-1.2.9-2 2-2zm8.8 7.6c1.2 0 2.2-.5 2.6-1.3h.1v1.2h2.3v-6.2c0-1.9-1.4-3.1-3.8-3.1-2.3 0-3.8 1-4 2.7h2.2c.2-.6.8-.9 1.6-.9 1 0 1.5.5 1.5 1.2v.8l-2.2.1c-2.3.1-3.5 1.1-3.5 2.7.2 1.8 1.4 2.8 3.2 2.8zm.8-1.7c-.8 0-1.4-.4-1.4-1.1 0-.7.5-1.1 1.5-1.1l1.8-.2v.7c0 .9-.8 1.7-1.9 1.7zm6.5-4.8c0 1.4.9 2.2 2.6 2.6l1.7.4c.8.2 1.1.5 1.1.9 0 .6-.6 1-1.6 1s-1.5-.4-1.7-1h-2.3c.2 1.7 1.6 2.7 4 2.7s4-1.2 4-3c0-1.4-.8-2.1-2.6-2.5l-1.7-.4c-.8-.2-1.2-.5-1.2-.9 0-.6.6-1 1.5-1s1.4.4 1.6 1h2.2c-.1-1.7-1.5-2.7-3.8-2.7s-3.8 1.2-3.8 2.9zm15.6 3.8c-.3.6-.9 1-1.9 1-1.3 0-2-.9-2.1-2.3v-.1h6.3v-.7c0-2.9-1.6-4.6-4.3-4.6-2.7 0-4.4 1.8-4.4 4.8 0 2.9 1.6 4.7 4.4 4.7 2.2 0 3.8-1.1 4.2-2.8h-2.2zm-1.9-4.9c1.1 0 1.9.8 1.9 2h-3.9c.1-1.2.9-2 2-2zm10.6 7.5h2.4v-5.5c0-1 .7-1.8 1.6-1.8s1.5.6 1.5 1.5v5.8h2.3v-5.6c0-1 .6-1.7 1.6-1.7s1.5.5 1.5 1.6v5.6h2.4v-6.2c0-1.9-1.1-3-2.9-3-1.3 0-2.3.7-2.7 1.7h-.1c-.4-1-1.2-1.7-2.5-1.7-1.2 0-2.1.6-2.5 1.7h-.1v-1.5h-2.3v9.1zm18.2.1c1.2 0 2.2-.5 2.6-1.3h.1v1.2h2.3v-6.2c0-1.9-1.4-3.1-3.8-3.1-2.3 0-3.8 1-4 2.7h2.2c.2-.6.8-.9 1.6-.9 1 0 1.5.5 1.5 1.2v.8l-2.2.1c-2.3.1-3.5 1.1-3.5 2.7.2 1.8 1.4 2.8 3.2 2.8zm.8-1.7c-.8 0-1.4-.4-1.4-1.1 0-.7.5-1.1 1.5-1.1l1.8-.1v.7c0 .8-.8 1.6-1.9 1.6zm9.3-3.9h-.1v-7.1h-2.4V450h2.4v-3.1l.7-.7 2.7 3.7h2.9l-3.7-5.2 3.5-3.9h-2.7l-3.3 3.7zm12.9 2.9c-.3.6-.9 1-1.9 1-1.3 0-2-.9-2.1-2.3v-.1h6.3v-.7c0-2.9-1.6-4.6-4.3-4.6-2.7 0-4.4 1.8-4.4 4.8 0 2.9 1.6 4.7 4.4 4.7 2.2 0 3.8-1.1 4.2-2.8h-2.2zm-2-4.9c1.1 0 1.9.8 1.9 2h-3.9c.1-1.2.9-2 2-2zm13.1 7.6c1.2 0 2.2-.5 2.6-1.3h.1v1.2h2.3v-6.2c0-1.9-1.4-3.1-3.8-3.1-2.3 0-3.8 1-4 2.7h2.2c.2-.6.8-.9 1.6-.9 1 0 1.5.5 1.5 1.2v.8l-2.2.1c-2.3.1-3.5 1.1-3.5 2.7.3 1.8 1.5 2.8 3.2 2.8zm.8-1.7c-.8 0-1.4-.4-1.4-1.1 0-.7.5-1.1 1.5-1.1l1.8-.1v.7c.1.8-.7 1.6-1.9 1.6zm16.4-7.6c-1.3 0-2.3.6-2.8 1.6h-.1v-1.5h-2.3V453h2.4v-4.4h.1c.4 1 1.4 1.5 2.8 1.5 2.3 0 3.7-1.8 3.7-4.7-.1-2.9-1.5-4.6-3.8-4.6zm-.9 7.4c-1.3 0-2.1-1-2.1-2.7 0-1.7.8-2.8 2.1-2.8s2.1 1 2.1 2.7c0 1.8-.8 2.8-2.1 2.8zm6.5 1.8h2.4v-5.1c0-1.3.9-2.1 2.2-2.1.4 0 .9.1 1.1.1v-2.1c-.2-.1-.6-.1-.9-.1-1.2 0-2.1.7-2.3 1.6h-.1v-1.4H173v9.1zm13.1-2.6c-.3.6-.9 1-1.9 1-1.3 0-2-.9-2.1-2.3v-.1h6.3v-.7c0-2.9-1.6-4.6-4.3-4.6-2.7 0-4.4 1.8-4.4 4.8 0 2.9 1.6 4.7 4.4 4.7 2.2 0 3.8-1.1 4.2-2.8h-2.2zm-2-4.9c1.1 0 1.9.8 1.9 2h-3.9c.1-1.2.9-2 2-2zm9.5 7.6c1.3 0 2.3-.6 2.8-1.6h.1v1.4h2.3v-12.6h-2.4v4.9h-.1c-.5-1-1.5-1.6-2.7-1.6-2.3 0-3.7 1.8-3.7 4.7 0 3 1.4 4.8 3.7 4.8zm.8-7.4c1.3 0 2.1 1 2.1 2.8 0 1.7-.8 2.7-2.1 2.7s-2.1-1-2.1-2.8c.1-1.7.9-2.7 2.1-2.7zm8.2-3.2c.7 0 1.4-.6 1.4-1.3 0-.8-.6-1.3-1.4-1.3-.7 0-1.4.6-1.4 1.3 0 .7.7 1.3 1.4 1.3zm-1.2 10.5h2.4v-9.1h-2.4v9.1zm12.9-5.9c-.2-2-1.6-3.4-4.1-3.4-2.9 0-4.5 1.7-4.5 4.7s1.6 4.8 4.5 4.8c2.4 0 3.9-1.3 4.1-3.3h-2.2c-.2.9-.8 1.4-1.8 1.4-1.3 0-2-1-2-2.9 0-1.8.7-2.8 2-2.8 1 0 1.6.6 1.8 1.5h2.2zm2.7-5.4v2.3h-1.4v1.8h1.4v4.7c0 1.8.9 2.5 3.1 2.5.5 0 .9 0 1.2-.1v-1.8h-.7c-.8 0-1.2-.4-1.2-1.2v-4.2h1.9V441h-1.9v-2.3H217zm7.5.8c.7 0 1.4-.6 1.4-1.3 0-.8-.6-1.3-1.4-1.3-.7 0-1.4.6-1.4 1.3 0 .7.7 1.3 1.4 1.3zm-1.2 10.5h2.4v-9.1h-2.4v9.1zm8.9.2c2.8 0 4.5-1.8 4.5-4.7 0-2.9-1.7-4.7-4.5-4.7s-4.5 1.8-4.5 4.7c0 2.9 1.7 4.7 4.5 4.7zm0-1.9c-1.3 0-2-1-2-2.8 0-1.8.7-2.8 2-2.8s2 1 2 2.8c0 1.7-.7 2.8-2 2.8zm6.4 1.7h2.4v-5.3c0-1.2.7-2 1.8-2s1.7.7 1.7 1.9v5.3h2.4V444c0-2.2-1.1-3.4-3.1-3.4-1.3 0-2.3.6-2.7 1.7h-.1v-1.5h-2.3v9.2zm17.5.1c1.2 0 2.2-.5 2.6-1.3h.1v1.2h2.3v-6.2c0-1.9-1.4-3.1-3.8-3.1-2.3 0-3.8 1-4 2.7h2.2c.2-.6.8-.9 1.6-.9 1 0 1.5.5 1.5 1.2v.8l-2.2.1c-2.3.1-3.5 1.1-3.5 2.7.2 1.8 1.5 2.8 3.2 2.8zm.8-1.7c-.8 0-1.4-.4-1.4-1.1 0-.7.5-1.1 1.5-1.1l1.8-.1v.7c.1.8-.8 1.6-1.9 1.6zm12.1 1.7c2.3 0 3.7-1.8 3.7-4.7 0-2.9-1.4-4.7-3.7-4.7-1.2 0-2.3.6-2.7 1.6h-.1v-4.9h-2.4V450h2.3v-1.4h.1c.4 1 1.5 1.5 2.8 1.5zm-.9-7.4c1.3 0 2.1 1 2.1 2.7 0 1.7-.8 2.8-2.1 2.8s-2.1-1.1-2.1-2.7c.1-1.7.9-2.8 2.1-2.8zm10.6 7.5c2.8 0 4.5-1.8 4.5-4.7 0-2.9-1.7-4.7-4.5-4.7s-4.5 1.8-4.5 4.7c0 2.9 1.7 4.7 4.5 4.7zm0-1.9c-1.3 0-2-1-2-2.8 0-1.8.7-2.8 2-2.8s2 1 2 2.8c0 1.7-.8 2.8-2 2.8zm14.7-7.4H291v5.3c0 1.2-.6 2-1.8 2-1.1 0-1.7-.7-1.7-1.9V441H285v5.9c0 2.1 1.2 3.4 3.2 3.4 1.4 0 2.2-.6 2.7-1.7h.1v1.5h2.3v-9.2zm3.1-2.2v2.3H295v1.8h1.4v4.7c0 1.8.9 2.5 3.1 2.5.5 0 .9 0 1.2-.1v-1.8h-.7c-.8 0-1.2-.4-1.2-1.2v-4.2h1.9V441h-1.9v-2.3h-2.3zm23.2 2.2h-2.4l-1.4 6.6h-.1l-1.6-6.6H312l-1.6 6.6h-.1l-1.4-6.6h-2.4l2.4 9.1h2.5l1.6-6.3h.1l1.6 6.3h2.6l2.4-9.1zm1.8 9.1h2.4v-5.2c0-1.2.7-2 1.9-2 1.1 0 1.7.7 1.7 2v5.3h2.4v-5.9c0-2.2-1.2-3.4-3.1-3.4-1.3 0-2.3.6-2.8 1.7h-.1v-5h-2.4V450zm16.7-2.6c-.3.6-.9 1-1.9 1-1.3 0-2.1-.9-2.1-2.3v-.1h6.3v-.7c0-2.9-1.6-4.6-4.3-4.6-2.7 0-4.4 1.8-4.4 4.8 0 2.9 1.6 4.7 4.4 4.7 2.2 0 3.8-1.1 4.2-2.8h-2.2zm-2-4.9c1.1 0 1.9.8 1.9 2h-3.9c.1-1.2.9-2 2-2zm6.9-3.8v2.3h-1.4v1.8h1.4v4.7c0 1.8.9 2.5 3.1 2.5.5 0 .9 0 1.2-.1v-1.8h-.7c-.8 0-1.2-.4-1.2-1.2v-4.2h1.9V441h-1.9v-2.3h-2.4zm6.4 11.3h2.4v-5.2c0-1.2.7-2 1.9-2 1.1 0 1.7.7 1.7 2v5.3h2.4v-5.9c0-2.2-1.2-3.4-3.1-3.4-1.3 0-2.3.6-2.8 1.7h-.1v-5h-2.4V450zm16.6-2.6c-.3.6-.9 1-1.9 1-1.3 0-2-.9-2.1-2.3v-.1h6.3v-.7c0-2.9-1.6-4.6-4.3-4.6-2.7 0-4.4 1.8-4.4 4.8 0 2.9 1.6 4.7 4.4 4.7 2.2 0 3.8-1.1 4.2-2.8h-2.2zm-1.9-4.9c1.1 0 1.9.8 1.9 2h-3.9c.1-1.2.9-2 2-2zm6.2 7.5h2.4v-5.1c0-1.3.9-2.1 2.2-2.1.4 0 1 .1 1.1.1v-2.1c-.2-.1-.6-.1-.9-.1-1.2 0-2.1.7-2.3 1.6h-.1v-1.4h-2.3v9.1zm12.5-11.3v2.3h-1.4v1.8h1.4v4.7c0 1.8.9 2.5 3.1 2.5.5 0 .9 0 1.2-.1v-1.8h-.7c-.8 0-1.2-.4-1.2-1.2v-4.2h1.9V441h-1.9v-2.3h-2.4zm6.3 11.3h2.4v-5.2c0-1.2.7-2 1.9-2 1.1 0 1.7.7 1.7 2v5.3h2.4v-5.9c0-2.2-1.2-3.4-3.1-3.4-1.3 0-2.3.6-2.8 1.7h-.1v-5h-2.4V450zm16.7-2.6c-.3.6-.9 1-1.9 1-1.3 0-2-.9-2.1-2.3v-.1h6.3v-.7c0-2.9-1.6-4.6-4.3-4.6-2.7 0-4.4 1.8-4.4 4.8 0 2.9 1.6 4.7 4.4 4.7 2.2 0 3.8-1.1 4.2-2.8h-2.2zm-2-4.9c1.1 0 1.8.8 1.9 2h-3.9c.1-1.2.9-2 2-2zm18.7 1.6c-.2-2-1.6-3.4-4.1-3.4-2.9 0-4.5 1.7-4.5 4.7s1.6 4.8 4.5 4.8c2.4 0 3.9-1.3 4.1-3.3h-2.2c-.2.9-.8 1.4-1.8 1.4-1.3 0-2-1-2-2.9 0-1.8.7-2.8 2-2.8 1 0 1.6.6 1.8 1.5h2.2zm5.9 6.1c2.8 0 4.5-1.8 4.5-4.7 0-2.9-1.7-4.7-4.5-4.7s-4.5 1.8-4.5 4.7c0 2.9 1.7 4.7 4.5 4.7zm0-1.9c-1.3 0-2-1-2-2.8 0-1.8.7-2.8 2-2.8s2 1 2 2.8c0 1.7-.7 2.8-2 2.8zm14.7-7.4h-2.4v5.3c0 1.2-.6 2-1.8 2-1.1 0-1.7-.7-1.7-1.9V441h-2.4v5.9c0 2.1 1.2 3.4 3.2 3.4 1.4 0 2.2-.6 2.7-1.7h.1v1.5h2.3v-9.2zm7.7-.1c-1.3 0-2.3.6-2.8 1.6h-.1v-1.5h-2.3V453h2.4v-4.4h.1c.4 1 1.4 1.5 2.8 1.5 2.3 0 3.7-1.8 3.7-4.7-.1-2.9-1.5-4.6-3.8-4.6zm-.8 7.4c-1.3 0-2.1-1-2.1-2.7 0-1.7.8-2.8 2.1-2.8s2.1 1 2.1 2.7c-.1 1.8-.8 2.8-2.1 2.8zm6.5 1.8h2.4v-12.6h-2.4V450zm10.8-2.6c-.3.6-.9 1-1.9 1-1.3 0-2-.9-2.1-2.3v-.1h6.3v-.7c0-2.9-1.6-4.6-4.3-4.6-2.7 0-4.4 1.8-4.4 4.8 0 2.9 1.6 4.7 4.4 4.7 2.2 0 3.8-1.1 4.2-2.8h-2.2zm-1.9-4.9c1.1 0 1.9.8 1.9 2h-3.9c.1-1.2.9-2 2-2zm10.4 1.1c0 1.4.9 2.2 2.6 2.6l1.7.4c.8.2 1.1.5 1.1.9 0 .6-.6 1-1.6 1s-1.5-.4-1.7-1h-2.3c.2 1.7 1.6 2.7 4 2.7s4-1.2 4-3c0-1.4-.8-2.1-2.6-2.5l-1.7-.4c-.8-.2-1.2-.5-1.2-.9 0-.6.6-1 1.5-1s1.4.4 1.6 1h2.2c-.1-1.7-1.5-2.7-3.8-2.7s-3.8 1.2-3.8 2.9zm9.9 6.4h2.4v-5.2c0-1.2.7-2 1.9-2 1.1 0 1.7.7 1.7 2v5.3h2.4v-5.9c0-2.2-1.2-3.4-3.1-3.4-1.3 0-2.3.6-2.8 1.7h-.1v-5h-2.4V450zm14.7.2c2.8 0 4.5-1.8 4.5-4.7 0-2.9-1.7-4.7-4.5-4.7s-4.5 1.8-4.5 4.7c0 2.9 1.7 4.7 4.5 4.7zm0-1.9c-1.3 0-2-1-2-2.8 0-1.8.7-2.8 2-2.8s2 1 2 2.8c0 1.7-.7 2.8-2 2.8zm18.7-7.4h-2.4l-1.4 6.6h-.1l-1.6-6.6h-2.3l-1.6 6.6h-.1l-1.4-6.6h-2.4l2.4 9.1h2.5l1.6-6.3h.1l1.6 6.3h2.6l2.5-9.1zm1.7 9.1h2.4v-5.3c0-1.2.7-2 1.8-2s1.7.7 1.7 1.9v5.3h2.4V444c0-2.2-1.1-3.4-3.1-3.4-1.3 0-2.3.6-2.7 1.7h-.1v-1.5H521v9.2zm16.2-10.5c.7 0 1.4-.6 1.4-1.3 0-.8-.6-1.3-1.4-1.3s-1.4.6-1.4 1.3c.1.7.7 1.3 1.4 1.3zm-1.2 10.5h2.4v-9.1h-2.4v9.1zm4.9 0h2.4v-5.3c0-1.2.7-2 1.8-2s1.7.7 1.7 1.9v5.3h2.4V444c0-2.2-1.1-3.4-3.1-3.4-1.3 0-2.3.6-2.7 1.7h-.1v-1.5h-2.3v9.2zm15.7-11.3v2.3H555v1.8h1.4v4.7c0 1.8.9 2.5 3.1 2.5.5 0 .9 0 1.2-.1v-1.8h-.7c-.8 0-1.2-.4-1.2-1.2v-4.2h1.9V441h-1.9v-2.3h-2.3zm6.3 11.3h2.4v-5.2c0-1.2.7-2 1.9-2 1.1 0 1.7.7 1.7 2v5.3h2.4v-5.9c0-2.2-1.2-3.4-3.1-3.4-1.3 0-2.3.6-2.8 1.7h-.1v-5h-2.4V450zm16.7-2.6c-.3.6-.9 1-1.9 1-1.3 0-2-.9-2.1-2.3v-.1h6.3v-.7c0-2.9-1.6-4.6-4.3-4.6-2.7 0-4.4 1.8-4.4 4.8 0 2.9 1.6 4.7 4.4 4.7 2.2 0 3.8-1.1 4.2-2.8h-2.2zm-2-4.9c1.1 0 1.9.8 1.9 2h-3.9c.1-1.2.9-2 2-2zM45.3 464.1c-.2-2-1.6-3.4-4.1-3.4-2.9 0-4.5 1.7-4.5 4.7s1.6 4.8 4.5 4.8c2.4 0 3.9-1.3 4.1-3.3H43c-.2.9-.8 1.4-1.8 1.4-1.3 0-2-1-2-2.9 0-1.8.7-2.8 2-2.8 1 0 1.6.6 1.8 1.5h2.3zm1.9 5.9h2.4v-5.2c0-1.2.7-2 1.9-2 1.1 0 1.7.7 1.7 2v5.3h2.4v-5.9c0-2.2-1.2-3.4-3.1-3.4-1.3 0-2.3.6-2.8 1.7h-.1v-5h-2.4V470zm13.3.1c1.2 0 2.2-.5 2.6-1.3h.1v1.2h2.3v-6.2c0-1.9-1.4-3.1-3.8-3.1-2.3 0-3.8 1-4 2.7H60c.2-.6.8-.9 1.6-.9 1 0 1.5.5 1.5 1.2v.8l-2.2.1c-2.3.1-3.5 1.1-3.5 2.7.1 1.8 1.3 2.8 3.1 2.8zm.8-1.7c-.8 0-1.4-.4-1.4-1.1 0-.7.5-1.1 1.5-1.1l1.8-.1v.7c0 .8-.8 1.6-1.9 1.6zm6.6 1.6h2.4v-5.1c0-1.3.9-2.1 2.2-2.1.4 0 1 .1 1.1.1v-2.1c-.2-.1-.6-.1-.9-.1-1.2 0-2.1.7-2.3 1.6h-.1v-1.4H68v9.1zm8.5-11.3v2.3H75v1.8h1.4v4.7c0 1.8.9 2.5 3.1 2.5.5 0 .9 0 1.2-.1v-1.8H80c-.8 0-1.2-.4-1.2-1.2v-4.2h1.9V461h-1.9v-2.3h-2.4zm23.3 2.2h-2.4l-1.4 6.6h-.1l-1.6-6.6h-2.3l-1.6 6.6h-.1l-1.4-6.6h-2.4l2.4 9.1h2.5l1.6-6.3h.1l1.6 6.3h2.6l2.5-9.1zm5.4 9.3c2.8 0 4.5-1.8 4.5-4.7 0-2.9-1.7-4.7-4.5-4.7s-4.5 1.8-4.5 4.7c0 2.9 1.7 4.7 4.5 4.7zm0-1.9c-1.3 0-2-1-2-2.8 0-1.8.7-2.8 2-2.8s2 1 2 2.8c0 1.7-.8 2.8-2 2.8zm14.7-7.4h-2.4v5.3c0 1.2-.6 2-1.8 2-1.1 0-1.7-.7-1.7-1.9V461h-2.4v5.9c0 2.1 1.2 3.4 3.2 3.4 1.4 0 2.2-.6 2.7-1.7h.1v1.5h2.3v-9.2zm2.4 9.1h2.4v-12.6h-2.4V470zm8.2.1c1.3 0 2.3-.6 2.8-1.6h.1v1.4h2.3v-12.6h-2.4v4.9h-.1c-.5-1-1.5-1.6-2.7-1.6-2.3 0-3.7 1.8-3.7 4.7 0 3 1.4 4.8 3.7 4.8zm.8-7.4c1.3 0 2.1 1 2.1 2.8 0 1.7-.8 2.7-2.1 2.7s-2.1-1-2.1-2.8c.1-1.7.9-2.7 2.1-2.7zm24-1.8h-2.4l-1.4 6.6h-.1l-1.6-6.6h-2.3l-1.6 6.6h-.1l-1.4-6.6h-2.4l2.4 9.1h2.5l1.6-6.3h.1l1.6 6.3h2.6l2.5-9.1zm3.9 9.2c1.2 0 2.2-.5 2.6-1.3h.1v1.2h2.3v-6.2c0-1.9-1.4-3.1-3.8-3.1-2.3 0-3.8 1-4 2.7h2.2c.2-.6.8-.9 1.6-.9 1 0 1.5.5 1.5 1.2v.8l-2.2.1c-2.3.1-3.5 1.1-3.5 2.7.3 1.8 1.5 2.8 3.2 2.8zm.8-1.7c-.8 0-1.4-.4-1.4-1.1 0-.7.5-1.1 1.5-1.1l1.8-.1v.7c.1.8-.8 1.6-1.9 1.6zm6.7 1.6h2.4v-5.3c0-1.2.7-2 1.8-2s1.7.7 1.7 1.9v5.3h2.4V464c0-2.2-1.1-3.4-3.1-3.4-1.3 0-2.3.6-2.7 1.7h-.1v-1.5h-2.3v9.2zm11.3-11.3v2.3h-1.4v1.8h1.4v4.7c0 1.8.9 2.5 3.1 2.5.5 0 .9 0 1.2-.1v-1.8h-.7c-.8 0-1.2-.4-1.2-1.2v-4.2h1.9V461h-1.9v-2.3h-2.4zm13.2 11.4c1.2 0 2.2-.5 2.6-1.3h.1v1.2h2.3v-6.2c0-1.9-1.4-3.1-3.8-3.1-2.3 0-3.8 1-4 2.7h2.2c.2-.6.8-.9 1.6-.9 1 0 1.5.5 1.5 1.2v.8l-2.2.1c-2.3.1-3.5 1.1-3.5 2.7.2 1.8 1.4 2.8 3.2 2.8zm.8-1.7c-.8 0-1.4-.4-1.4-1.1 0-.7.5-1.1 1.5-1.1l1.8-.1v.7c0 .8-.8 1.6-1.9 1.6zm10.8-4.8c0 1.4.9 2.2 2.6 2.6l1.7.4c.8.2 1.1.5 1.1.9 0 .6-.6 1-1.6 1s-1.5-.4-1.7-1h-2.3c.2 1.7 1.6 2.7 4 2.7s4-1.2 4-3c0-1.4-.8-2.1-2.6-2.5l-1.7-.4c-.8-.2-1.2-.5-1.2-.9 0-.6.6-1 1.5-1s1.4.4 1.6 1h2.2c-.1-1.7-1.5-2.7-3.8-2.7-2.2 0-3.8 1.2-3.8 2.9zm15.7 3.8c-.3.6-.9 1-1.9 1-1.3 0-2-.9-2.1-2.3v-.1h6.3v-.7c0-2.9-1.6-4.6-4.3-4.6-2.7 0-4.4 1.8-4.4 4.8 0 2.9 1.6 4.7 4.4 4.7 2.2 0 3.8-1.1 4.2-2.8h-2.2zm-1.9-4.9c1.1 0 1.9.8 1.9 2h-3.9c.1-1.2.9-2 2-2zm14.3 1.6c-.2-2-1.6-3.4-4.1-3.4-2.9 0-4.5 1.7-4.5 4.7s1.6 4.8 4.5 4.8c2.4 0 3.9-1.3 4.1-3.3h-2.2c-.2.9-.8 1.4-1.8 1.4-1.3 0-2-1-2-2.9 0-1.8.7-2.8 2-2.8 1 0 1.6.6 1.8 1.5h2.2zm5.9 6.1c2.8 0 4.5-1.8 4.5-4.7 0-2.9-1.7-4.7-4.5-4.7s-4.5 1.8-4.5 4.7c0 2.9 1.7 4.7 4.5 4.7zm0-1.9c-1.3 0-2-1-2-2.8 0-1.8.7-2.8 2-2.8s2 1 2 2.8c0 1.7-.7 2.8-2 2.8zm6.5 1.7h2.4v-5.3c0-1.2.7-2 1.8-2s1.7.7 1.7 1.9v5.3h2.4V464c0-2.2-1.1-3.4-3.1-3.4-1.3 0-2.3.6-2.7 1.7h-.1v-1.5h-2.3v9.2zm13.8.1c1.3 0 2.3-.6 2.8-1.6h.1v1.4h2.3v-12.6h-2.4v4.9h-.1c-.5-1-1.5-1.6-2.7-1.6-2.3 0-3.7 1.8-3.7 4.7 0 3 1.4 4.8 3.7 4.8zm.9-7.4c1.3 0 2.1 1 2.1 2.8 0 1.7-.8 2.7-2.1 2.7s-2.1-1-2.1-2.8c0-1.7.8-2.7 2.1-2.7zm14.5 7.4c1.3 0 2.3-.6 2.8-1.6h.1v1.4h2.3v-12.6h-2.4v4.9h-.1c-.5-1-1.5-1.6-2.7-1.6-2.3 0-3.7 1.8-3.7 4.7 0 3 1.4 4.8 3.7 4.8zm.8-7.4c1.3 0 2.1 1 2.1 2.8 0 1.7-.8 2.7-2.1 2.7s-2.1-1-2.1-2.8c.1-1.7.9-2.7 2.1-2.7zm9.5 7.4c1.2 0 2.2-.5 2.6-1.3h.1v1.2h2.3v-6.2c0-1.9-1.4-3.1-3.8-3.1-2.3 0-3.8 1-4 2.7h2.2c.2-.6.8-.9 1.6-.9 1 0 1.5.5 1.5 1.2v.8l-2.2.1c-2.3.1-3.5 1.1-3.5 2.7.2 1.8 1.4 2.8 3.2 2.8zm.8-1.7c-.8 0-1.4-.4-1.4-1.1 0-.7.5-1.1 1.5-1.1l1.8-.1v.7c0 .8-.8 1.6-1.9 1.6zm7.4-9.7v2.3h-1.4v1.8h1.4v4.7c0 1.8.9 2.5 3.1 2.5.5 0 .9 0 1.2-.1v-1.8h-.7c-.8 0-1.2-.4-1.2-1.2v-4.2h1.9V461h-1.9v-2.3h-2.4zm12.1 8.7c-.3.6-.9 1-1.9 1-1.3 0-2-.9-2.1-2.3v-.1h6.3v-.7c0-2.9-1.6-4.6-4.3-4.6-2.7 0-4.4 1.8-4.4 4.8 0 2.9 1.6 4.7 4.4 4.7 2.2 0 3.8-1.1 4.2-2.8H303zm-2-4.9c1.1 0 1.9.8 1.9 2H299c.1-1.2.9-2 2-2zm8 7.7c.9 0 1.5-.6 1.5-1.4s-.6-1.4-1.5-1.4-1.5.6-1.5 1.4.6 1.4 1.5 1.4z"/><g><defs><path id="SVGID_50_" d="M35 481h582v170H35z"/></defs><clipPath id="SVGID_51_"><use xlink:href="#SVGID_50_" overflow="visible"/></clipPath><g clip-path="url(#SVGID_51_)"><defs><path id="SVGID_52_" d="M31 527.9h590c2.8 0 5 2.2 5 5v9c0 2.8-2.2 5-5 5H31c-2.8 0-5-2.2-5-5v-9c0-2.8 2.2-5 5-5z"/></defs><clipPath id="SVGID_53_"><use xlink:href="#SVGID_52_" overflow="visible"/></clipPath><g clip-path="url(#SVGID_53_)"><defs><path id="SVGID_54_" d="M26 527.9h100v19H26z"/></defs><clipPath id="SVGID_55_"><use xlink:href="#SVGID_54_" overflow="visible"/></clipPath><g clip-path="url(#SVGID_55_)"><path d="M71 539.1c1.9 0 3-1.6 3-4.4 0-2.8-1.1-4.4-3-4.4s-3 1.6-3 4.4c0 2.8 1.1 4.4 3 4.4zm0-.9c-1.2 0-1.9-1.2-1.9-3.5 0-2.2.7-3.5 1.9-3.5s1.9 1.3 1.9 3.5-.7 3.5-1.9 3.5zm6-3.9c1.1 0 1.8-.7 1.8-2 0-1.2-.7-2-1.8-2s-1.8.8-1.8 2c-.1 1.2.6 2 1.8 2zm.3 4.6l5.8-8.5h-1l-5.8 8.5h1zm-.3-5.4c-.6 0-.9-.4-.9-1.2 0-.8.3-1.2.9-1.2.6 0 .9.5.9 1.2 0 .8-.4 1.2-.9 1.2zm5.6 5.5c1.1 0 1.8-.7 1.8-2 0-1.2-.7-2-1.8-2s-1.8.8-1.8 2 .7 2 1.8 2zm0-.8c-.6 0-.9-.4-.9-1.2 0-.8.3-1.2.9-1.2.6 0 .9.5.9 1.2 0 .8-.3 1.2-.9 1.2z"/><path class="st50" d="M76 541.9v5"/></g><defs><path id="SVGID_56_" d="M151 527.9h100v19H151z"/></defs><clipPath id="SVGID_57_"><use xlink:href="#SVGID_56_" overflow="visible"/></clipPath><g clip-path="url(#SVGID_57_)"><path d="M189.5 532.8h1c0-1 .7-1.7 1.7-1.7s1.6.7 1.6 1.6c0 .7-.3 1.2-1.4 2.3l-2.9 3.1v.7h5.5v-.8h-4v-.1l1.9-2c1.5-1.6 1.9-2.3 1.9-3.3 0-1.4-1.1-2.4-2.6-2.4-1.5.1-2.7 1.1-2.7 2.6zm10.1 6.3c1.7 0 2.9-1.2 2.9-2.9s-1.2-2.8-2.6-2.8c-.8 0-1.5.3-1.9.8l.3-2.8h3.9v-.9h-4.7l-.5 4.8h1c.3-.6 1-1 1.8-1 1.1 0 1.8.8 1.8 1.9 0 1.2-.7 2-1.8 2-1 0-1.7-.6-1.8-1.5h-1c-.1 1.4 1 2.4 2.6 2.4zm5.9-4.8c1.1 0 1.8-.7 1.8-2 0-1.2-.7-2-1.8-2s-1.8.8-1.8 2 .7 2 1.8 2zm.4 4.6l5.8-8.5h-1l-5.8 8.5h1zm-.4-5.4c-.6 0-.9-.4-.9-1.2 0-.8.3-1.2.9-1.2.6 0 .9.5.9 1.2 0 .8-.3 1.2-.9 1.2zm5.7 5.5c1.1 0 1.8-.7 1.8-2 0-1.2-.7-2-1.8-2s-1.8.8-1.8 2c-.1 1.2.6 2 1.8 2zm0-.8c-.6 0-.9-.4-.9-1.2 0-.8.3-1.2.9-1.2.6 0 .9.5.9 1.2 0 .8-.3 1.2-.9 1.2z"/><path class="st50" d="M201 541.9v5"/></g><g><defs><path id="SVGID_58_" d="M276 527.9h100v19H276z"/></defs><clipPath id="SVGID_59_"><use xlink:href="#SVGID_58_" overflow="visible"/></clipPath><g clip-path="url(#SVGID_59_)"><path class="st46" d="M276 527.9h100v19H276z"/><path d="M317.2 539.1c1.7 0 2.9-1.2 2.9-2.9s-1.2-2.8-2.6-2.8c-.8 0-1.5.3-1.9.8h-.1l.3-2.8h3.9v-.9H315l-.5 4.8h1c.3-.6 1-1 1.8-1 1.1 0 1.8.8 1.8 1.9 0 1.2-.7 2-1.8 2-1 0-1.7-.6-1.8-1.5h-1c0 1.4 1.1 2.4 2.7 2.4zm7.5 0c1.9 0 3-1.6 3-4.4 0-2.8-1.1-4.4-3-4.4s-3 1.6-3 4.4c0 2.8 1.1 4.4 3 4.4zm0-.9c-1.2 0-1.9-1.2-1.9-3.5 0-2.2.7-3.5 1.9-3.5s1.9 1.3 1.9 3.5-.7 3.5-1.9 3.5zm6-3.9c1.1 0 1.8-.7 1.8-2 0-1.2-.7-2-1.8-2s-1.8.8-1.8 2c-.1 1.2.6 2 1.8 2zm.4 4.6l5.8-8.5h-1l-5.8 8.5h1zm-.4-5.4c-.6 0-.9-.4-.9-1.2 0-.8.3-1.2.9-1.2.6 0 .9.5.9 1.2 0 .8-.3 1.2-.9 1.2zm5.6 5.5c1.1 0 1.8-.7 1.8-2 0-1.2-.7-2-1.8-2s-1.8.8-1.8 2 .7 2 1.8 2zm0-.8c-.6 0-.9-.4-.9-1.2 0-.8.3-1.2.9-1.2.6 0 .9.5.9 1.2 0 .8-.3 1.2-.9 1.2z"/><path class="st50" d="M326 541.9v5"/></g></g><g><defs><path id="SVGID_60_" d="M401 527.9h100v19H401z"/></defs><clipPath id="SVGID_61_"><use xlink:href="#SVGID_60_" overflow="visible"/></clipPath><g clip-path="url(#SVGID_61_)"><path d="M440.2 538.9h1.1l3.8-7.5v-1h-5.6v.9h4.5v.1l-3.8 7.5zm9.2.2c1.7 0 2.9-1.2 2.9-2.9s-1.2-2.8-2.6-2.8c-.8 0-1.5.3-1.9.8h-.1l.3-2.8h3.9v-.9h-4.7l-.5 4.8h1c.3-.6 1-1 1.8-1 1.1 0 1.8.8 1.8 1.9 0 1.2-.7 2-1.8 2-1 0-1.7-.6-1.8-1.5h-1c-.1 1.4 1.1 2.4 2.7 2.4zm5.9-4.8c1.1 0 1.8-.7 1.8-2 0-1.2-.7-2-1.8-2s-1.8.8-1.8 2c-.1 1.2.6 2 1.8 2zm.3 4.6l5.8-8.5h-1l-5.8 8.5h1zm-.3-5.4c-.6 0-.9-.4-.9-1.2 0-.8.3-1.2.9-1.2.6 0 .9.5.9 1.2 0 .8-.4 1.2-.9 1.2zm5.6 5.5c1.1 0 1.8-.7 1.8-2 0-1.2-.7-2-1.8-2s-1.8.8-1.8 2 .7 2 1.8 2zm0-.8c-.6 0-.9-.4-.9-1.2 0-.8.3-1.2.9-1.2.6 0 .9.5.9 1.2 0 .8-.3 1.2-.9 1.2z"/><path class="st50" d="M451 541.9v5"/></g></g><g><defs><path id="SVGID_62_" d="M526 527.9h100v19H526z"/></defs><clipPath id="SVGID_63_"><use xlink:href="#SVGID_62_" overflow="visible"/></clipPath><g clip-path="url(#SVGID_63_)"><path d="M563.6 538.9h1.1v-8.5h-1l-2.2 1.6v1.1l2.2-1.6h.1v7.4zm6.4.2c1.9 0 3-1.6 3-4.4 0-2.8-1.1-4.4-3-4.4s-3 1.6-3 4.4c0 2.8 1.1 4.4 3 4.4zm0-.9c-1.2 0-1.9-1.2-1.9-3.5 0-2.2.7-3.5 1.9-3.5s1.9 1.3 1.9 3.5-.7 3.5-1.9 3.5zm7.5.9c1.9 0 3-1.6 3-4.4 0-2.8-1.1-4.4-3-4.4s-3 1.6-3 4.4c0 2.8 1.1 4.4 3 4.4zm0-.9c-1.2 0-1.9-1.2-1.9-3.5 0-2.2.7-3.5 1.9-3.5s1.9 1.3 1.9 3.5c.1 2.2-.6 3.5-1.9 3.5zm6-3.9c1.1 0 1.8-.7 1.8-2 0-1.2-.7-2-1.8-2s-1.8.8-1.8 2 .7 2 1.8 2zm.4 4.6l5.8-8.5h-1l-5.8 8.5h1zm-.4-5.4c-.6 0-.9-.4-.9-1.2 0-.8.3-1.2.9-1.2.6 0 .9.5.9 1.2.1.8-.3 1.2-.9 1.2zm5.7 5.5c1.1 0 1.8-.7 1.8-2 0-1.2-.7-2-1.8-2s-1.8.8-1.8 2c-.1 1.2.6 2 1.8 2zm0-.8c-.6 0-.9-.4-.9-1.2 0-.8.3-1.2.9-1.2.6 0 .9.5.9 1.2 0 .8-.3 1.2-.9 1.2z"/><path class="st50" d="M576 541.9v5"/></g></g></g><defs><path id="SVGID_64_" d="M76 553h500v5H76z"/></defs><clipPath id="SVGID_65_"><use xlink:href="#SVGID_64_" overflow="visible"/></clipPath><g clip-path="url(#SVGID_65_)"><path d="M53.5 553h545c1.4 0 2.5 1.1 2.5 2.5s-1.1 2.5-2.5 2.5h-545c-1.4 0-2.5-1.1-2.5-2.5s1.1-2.5 2.5-2.5z" fill="#d3dae0"/></g><defs><path id="SVGID_66_" d="M31 564.9h590c2.8 0 5 2.2 5 5v33c0 2.8-2.2 5-5 5H31c-2.8 0-5-2.2-5-5v-33c0-2.8 2.2-5 5-5z"/></defs><clipPath id="SVGID_67_"><use xlink:href="#SVGID_66_" overflow="visible"/></clipPath><g clip-path="url(#SVGID_67_)"><defs><path id="SVGID_68_" d="M26 564.9h100v35H26z"/></defs><clipPath id="SVGID_69_"><use xlink:href="#SVGID_68_" overflow="visible"/></clipPath><g clip-path="url(#SVGID_69_)"><path class="st50" d="M76 564.9v5"/><path class="st7" d="M44.8 582.9l3.1-8.5h-1.1l-2.5 7.1h-.1l-2.5-7.1h-1.1l3.1 8.5h1.1zm8.1-1.6c-.3.6-.8.9-1.6.9-1.1 0-1.8-.8-1.8-2H54v-.4c0-2-1-3.2-2.7-3.2-1.7 0-2.8 1.3-2.8 3.3 0 2 1.1 3.3 2.8 3.3 1.4 0 2.4-.7 2.7-1.7h-1.1zm-1.7-3.9c1 0 1.7.7 1.7 1.9h-3.5c.1-1.2.8-1.9 1.8-1.9zm4.4 5.5h1V579c0-.9.7-1.5 1.7-1.5.2 0 .6 0 .6.1v-1h-.5c-.8 0-1.6.4-1.8 1h-.1v-.9h-1v6.2zm5.1 2.3c1.1 0 1.6-.4 2.2-1.9l2.5-6.7h-1.1l-1.7 5.2h-.1l-1.7-5.2h-1.1l2.3 6.3-.1.4c-.3.8-.6 1-1.2 1h-.4v.9h.4zm14.5-8.6h-1v3.7c0 1.1-.6 1.8-1.7 1.8-1 0-1.4-.5-1.4-1.7v-3.8h-1v4.1c0 1.5.7 2.3 2.2 2.3 1 0 1.6-.4 2-1.1h.1v1h1v-6.3zm1.9 6.3h1v-3.7c0-1.1.7-1.8 1.7-1.8s1.5.5 1.5 1.7v3.8h1v-4.1c0-1.5-.8-2.3-2.2-2.3-1 0-1.6.4-1.9 1.1H78v-1h-1v6.3zm7 0h1v-8.8h-1v8.8zm3.5-7.5c.4 0 .7-.3.7-.7 0-.4-.3-.7-.7-.7s-.7.3-.7.7c0 .4.3.7.7.7zm-.5 7.5h1v-6.3h-1v6.3zm4.1-3.5l-.1-5.3h-1v8.8h1v-2.4l.6-.6 2.4 3h1.3l-2.9-3.6 2.7-2.7H94l-2.8 2.8zm9.3 1.9c-.3.6-.8.9-1.6.9-1.1 0-1.8-.8-1.8-2h4.5v-.4c0-2-1-3.2-2.7-3.2-1.7 0-2.8 1.3-2.8 3.3 0 2 1.1 3.3 2.8 3.3 1.4 0 2.4-.7 2.7-1.7h-1.1zm-1.7-3.9c1 0 1.7.7 1.7 1.9H97c.1-1.2.8-1.9 1.8-1.9zm4.4 5.5h1v-8.8h-1v8.8zm3.5 2.3c1.1 0 1.6-.4 2.2-1.9l2.5-6.7h-1.1l-1.7 5.2h-.1l-1.7-5.2h-1.1l2.3 6.3-.1.4c-.3.8-.6 1-1.2 1h-.4v.9h.4zM40.5 589v1.6h-1v.8h1v3.8c0 1.2.5 1.7 1.8 1.7.2 0 .4 0 .6-.1v-.8h-.5c-.7 0-.9-.3-.9-1.1v-3.6h1.4v-.8h-1.4V589h-1zm6.4 8c1.8 0 2.9-1.2 2.9-3.3 0-2-1.1-3.3-2.9-3.3-1.8 0-2.9 1.2-2.9 3.3 0 2.1 1.1 3.3 2.9 3.3zm0-.9c-1.2 0-1.9-.9-1.9-2.4s.7-2.4 1.9-2.4 1.9.9 1.9 2.4-.7 2.4-1.9 2.4zm10.3.9c.9 0 1.6-.4 2-1.1h.1v1h1v-8.8h-1v3.5h-.1c-.4-.7-1.1-1.1-2-1.1-1.6 0-2.7 1.3-2.7 3.3 0 1.9 1 3.2 2.7 3.2zm.2-5.6c1.1 0 1.9.9 1.9 2.4s-.7 2.4-1.9 2.4-1.8-.9-1.8-2.4c-.1-1.5.6-2.4 1.8-2.4zm6.5 5.6c.8 0 1.5-.4 1.9-1h.2v.9h1v-4.3c0-1.3-.9-2.1-2.4-2.1-1.3 0-2.3.7-2.5 1.7h1c.1-.5.7-.8 1.4-.8.9 0 1.4.4 1.4 1.2v.6l-1.8.1c-1.5.1-2.3.7-2.3 1.9 0 1.1.9 1.8 2.1 1.8zm.2-.9c-.7 0-1.3-.4-1.3-1s.4-1 1.4-1l1.7-.1v.6c0 .9-.7 1.5-1.8 1.5zm5.1-7.1v1.6h-1v.8h1v3.8c0 1.2.5 1.7 1.8 1.7.2 0 .4 0 .6-.1v-.8h-.5c-.7 0-.9-.3-.9-1.1v-3.6h1.4v-.8h-1.4V589h-1zm8.1 6.3c-.3.6-.8.9-1.6.9-1.1 0-1.8-.8-1.8-2h4.5v-.4c0-2-1-3.2-2.7-3.2-1.7 0-2.8 1.3-2.8 3.3 0 2 1.1 3.3 2.8 3.3 1.4 0 2.4-.7 2.7-1.7h-1.1zm-1.7-3.9c1 0 1.7.7 1.7 1.9h-3.5c.1-1.2.8-1.9 1.8-1.9zm9.5 5.6c.8 0 1.5-.4 1.9-1h.1v.9h1v-4.3c0-1.3-.9-2.1-2.4-2.1-1.3 0-2.3.7-2.5 1.7h1c.1-.5.7-.8 1.4-.8.9 0 1.4.4 1.4 1.2v.6l-1.8.1c-1.5.1-2.3.7-2.3 1.9 0 1.1.9 1.8 2.2 1.8zm.2-.9c-.7 0-1.3-.4-1.3-1s.4-1 1.4-1l1.7-.1v.6c0 .9-.8 1.5-1.8 1.5zm7.2 3.2c1.7 0 2.8-.9 2.8-2.3v-6.4h-1v1h-.1c-.4-.7-1.1-1.1-2-1.1-1.6 0-2.6 1.3-2.6 3.2 0 1.9 1 3.2 2.6 3.2.9 0 1.6-.4 2-1.1h.1v1.2c0 .9-.7 1.5-1.8 1.5-.9 0-1.5-.3-1.6-.8h-1.1c.2.9 1.2 1.6 2.7 1.6zm0-3.4c-1.2 0-1.8-.9-1.8-2.3s.7-2.3 1.8-2.3c1.2 0 1.9.9 1.9 2.3s-.7 2.3-1.9 2.3zM99 597c.8 0 1.5-.4 1.9-1h.1v.9h1v-4.3c0-1.3-.9-2.1-2.4-2.1-1.3 0-2.3.7-2.5 1.7h1c.1-.5.7-.8 1.4-.8.9 0 1.4.4 1.4 1.2v.6l-1.8.1c-1.5.1-2.3.7-2.3 1.9.1 1.1 1 1.8 2.2 1.8zm.2-.9c-.7 0-1.3-.4-1.3-1s.4-1 1.4-1l1.7-.1v.6c0 .9-.8 1.5-1.8 1.5zm5.2-6.7c.4 0 .7-.3.7-.7 0-.4-.3-.7-.7-.7-.4 0-.7.3-.7.7 0 .4.3.7.7.7zm-.5 7.5h1v-6.3h-1v6.3zm2.9 0h1v-3.7c0-1.1.7-1.8 1.7-1.8s1.5.5 1.5 1.7v3.8h1v-4.1c0-1.5-.8-2.3-2.2-2.3-1 0-1.6.4-1.9 1.1h-.1v-1h-1v6.3z"/></g><defs><path id="SVGID_70_" d="M151 564.9h100v35H151z"/></defs><clipPath id="SVGID_71_"><use xlink:href="#SVGID_70_" overflow="visible"/></clipPath><g clip-path="url(#SVGID_71_)"><path class="st50" d="M201 564.9v5"/><path class="st7" d="M171.8 574.5h-1.1v5.5c0 1.8 1.3 3.1 3.4 3.1 2.1 0 3.4-1.3 3.4-3.1v-5.5h-1.1v5.5c0 1.3-.8 2.2-2.3 2.2-1.5 0-2.3-.9-2.3-2.2v-5.5zm7.7 8.4h1v-3.7c0-1.1.6-1.8 1.7-1.8 1 0 1.5.5 1.5 1.7v3.8h1v-4.1c0-1.5-.8-2.3-2.2-2.3-1 0-1.6.4-1.9 1.1h-.1v-1h-1v6.3zm7.1 0h1v-8.8h-1v8.8zm3.5-7.5c.4 0 .7-.3.7-.7 0-.4-.3-.7-.7-.7-.4 0-.7.3-.7.7 0 .4.3.7.7.7zm-.5 7.5h1v-6.3h-1v6.3zm4.1-3.5l-.1-5.3h-1v8.8h1v-2.4l.6-.6 2.4 3h1.3l-2.9-3.6 2.7-2.7h-1.2l-2.8 2.8zm9.2 1.9c-.3.6-.8.9-1.6.9-1.1 0-1.8-.8-1.8-2h4.5v-.4c0-2-1-3.2-2.7-3.2-1.7 0-2.8 1.3-2.8 3.3 0 2 1.1 3.3 2.8 3.3 1.4 0 2.4-.7 2.7-1.7h-1.1zm-1.7-3.9c1 0 1.7.7 1.7 1.9h-3.5c.1-1.2.8-1.9 1.8-1.9zm4.4 5.5h1v-8.8h-1v8.8zm3.5 2.3c1.1 0 1.6-.4 2.2-1.9l2.5-6.7h-1.1l-1.7 5.2h-.1l-1.7-5.2H208l2.3 6.3-.1.4c-.3.8-.6 1-1.2 1h-.4v.9h.5zm9.8-10.2v1.6h-1v.8h1v3.8c0 1.2.5 1.7 1.8 1.7.2 0 .4 0 .6-.1v-.8h-.5c-.7 0-.9-.3-.9-1.1v-3.6h1.4v-.8h-1.4V575h-1zm6.5 8c1.8 0 2.9-1.2 2.9-3.3 0-2-1.1-3.3-2.9-3.3-1.8 0-2.9 1.2-2.9 3.3-.1 2.1 1.1 3.3 2.9 3.3zm0-.9c-1.2 0-1.9-.9-1.9-2.4s.7-2.4 1.9-2.4 1.9.9 1.9 2.4c-.1 1.5-.7 2.4-1.9 2.4zM174.8 597c.9 0 1.6-.4 2-1.1h.1v1h1v-8.8h-1v3.5h-.1c-.4-.7-1.1-1.1-2-1.1-1.6 0-2.7 1.3-2.7 3.3 0 1.9 1.1 3.2 2.7 3.2zm.2-5.6c1.1 0 1.9.9 1.9 2.4s-.7 2.4-1.9 2.4-1.8-.9-1.8-2.4.7-2.4 1.8-2.4zm6.6 5.6c.8 0 1.5-.4 1.9-1h.1v.9h1v-4.3c0-1.3-.9-2.1-2.4-2.1-1.3 0-2.3.7-2.5 1.7h1c.1-.5.7-.8 1.4-.8.9 0 1.4.4 1.4 1.2v.6l-1.8.1c-1.5.1-2.3.7-2.3 1.9 0 1.1.9 1.8 2.2 1.8zm.2-.9c-.7 0-1.3-.4-1.3-1s.4-1 1.4-1l1.7-.1v.6c0 .9-.8 1.5-1.8 1.5zm5.1-7.1v1.6h-1v.8h1v3.8c0 1.2.5 1.7 1.8 1.7.2 0 .4 0 .6-.1v-.8h-.5c-.7 0-.9-.3-.9-1.1v-3.6h1.4v-.8h-1.4V589h-1zm8 6.3c-.3.6-.8.9-1.6.9-1.1 0-1.8-.8-1.8-2h4.5v-.4c0-2-1-3.2-2.7-3.2-1.7 0-2.8 1.3-2.8 3.3 0 2 1.1 3.3 2.8 3.3 1.4 0 2.4-.7 2.7-1.7h-1.1zm-1.7-3.9c1 0 1.7.7 1.7 1.9h-3.5c.1-1.2.8-1.9 1.8-1.9zm9.5 5.6c.8 0 1.5-.4 1.9-1h.1v.9h1v-4.3c0-1.3-.9-2.1-2.4-2.1-1.3 0-2.3.7-2.5 1.7h1c.1-.5.7-.8 1.4-.8.9 0 1.4.4 1.4 1.2v.6l-1.8.1c-1.5.1-2.3.7-2.3 1.9.1 1.1 1 1.8 2.2 1.8zm.2-.9c-.7 0-1.3-.4-1.3-1s.4-1 1.4-1l1.7-.1v.6c0 .9-.8 1.5-1.8 1.5zm7.3 3.2c1.7 0 2.8-.9 2.8-2.3v-6.4h-1v1h-.1c-.4-.7-1.1-1.1-2-1.1-1.6 0-2.6 1.3-2.6 3.2 0 1.9 1 3.2 2.6 3.2.9 0 1.6-.4 2-1.1h.1v1.2c0 .9-.7 1.5-1.8 1.5-.9 0-1.5-.3-1.6-.8h-1.1c.2.9 1.1 1.6 2.7 1.6zm-.1-3.4c-1.2 0-1.8-.9-1.8-2.3s.7-2.3 1.8-2.3c1.2 0 1.9.9 1.9 2.3s-.7 2.3-1.9 2.3zm6.5 1.1c.8 0 1.5-.4 1.9-1h.1v.9h1v-4.3c0-1.3-.9-2.1-2.4-2.1-1.3 0-2.3.7-2.5 1.7h1c.1-.5.7-.8 1.4-.8.9 0 1.4.4 1.4 1.2v.6l-1.8.1c-1.5.1-2.3.7-2.3 1.9.1 1.1 1 1.8 2.2 1.8zm.2-.9c-.7 0-1.3-.4-1.3-1s.4-1 1.4-1l1.7-.1v.6c0 .9-.7 1.5-1.8 1.5zm5.2-6.7c.4 0 .7-.3.7-.7 0-.4-.3-.7-.7-.7-.4 0-.7.3-.7.7 0 .4.3.7.7.7zm-.5 7.5h1v-6.3h-1v6.3zm2.9 0h1v-3.7c0-1.1.6-1.8 1.7-1.8 1 0 1.5.5 1.5 1.7v3.8h1v-4.1c0-1.5-.8-2.3-2.2-2.3-1 0-1.6.4-1.9 1.1h-.1v-1h-1v6.3z"/></g><g><defs><path id="SVGID_72_" d="M276 564.9h100v35H276z"/></defs><clipPath id="SVGID_73_"><use xlink:href="#SVGID_72_" overflow="visible"/></clipPath><g clip-path="url(#SVGID_73_)"><path class="st50" d="M326 564.9v5"/><path class="st7" d="M289.6 582.9v-6.6h.1l4.6 6.6h1v-8.5h-1v6.6h-.1l-4.6-6.6h-1v8.5h1zm11.9-1.6c-.3.6-.8.9-1.6.9-1.1 0-1.8-.8-1.8-2h4.5v-.4c0-2-1-3.2-2.7-3.2-1.7 0-2.8 1.3-2.8 3.3 0 2 1.1 3.3 2.8 3.3 1.4 0 2.4-.7 2.7-1.7h-1.1zm-1.6-3.9c1 0 1.7.7 1.7 1.9h-3.5c.1-1.2.8-1.9 1.8-1.9zm4.8-2c.4 0 .7-.3.7-.7 0-.4-.3-.7-.7-.7s-.7.3-.7.7c0 .4.4.7.7.7zm-.5 7.5h1v-6.3h-1v6.3zm3.4-7.9v1.6h-1v.8h1v3.8c0 1.2.5 1.7 1.8 1.7.2 0 .4 0 .6-.1v-.8h-.5c-.7 0-.9-.3-.9-1.1v-3.6h1.4v-.8h-1.4V575h-1zm4 7.9h1v-3.7c0-1.1.6-1.8 1.8-1.8 1 0 1.5.6 1.5 1.7v3.8h1v-4.1c0-1.5-.8-2.3-2.2-2.3-1 0-1.6.4-1.9 1.1h-.1v-3.5h-1v8.8zm11.2-1.6c-.3.6-.8.9-1.6.9-1.1 0-1.8-.8-1.8-2h4.5v-.4c0-2-1-3.2-2.7-3.2-1.7 0-2.8 1.3-2.8 3.3 0 2 1.1 3.3 2.8 3.3 1.4 0 2.4-.7 2.7-1.7h-1.1zm-1.6-3.9c1 0 1.7.7 1.7 1.9h-3.5c.1-1.2.8-1.9 1.8-1.9zm4.3 5.5h1V579c0-.9.7-1.5 1.7-1.5.2 0 .6 0 .6.1v-1h-.5c-.8 0-1.6.4-1.8 1h-.1v-.9h-1v6.2zm8 0h1v-8.8h-1v8.8zm3.5-7.5c.4 0 .7-.3.7-.7 0-.4-.3-.7-.7-.7-.4 0-.7.3-.7.7 0 .4.3.7.7.7zm-.5 7.5h1v-6.3h-1v6.3zm4.1-3.5l-.1-5.3h-1v8.8h1v-2.4l.6-.6 2.4 3h1.3l-2.9-3.6 2.7-2.7h-1.2l-2.8 2.8zm9.2 1.9c-.3.6-.8.9-1.6.9-1.1 0-1.8-.8-1.8-2h4.5v-.4c0-2-1-3.2-2.7-3.2-1.7 0-2.8 1.3-2.8 3.3 0 2 1.1 3.3 2.8 3.3 1.4 0 2.4-.7 2.7-1.7h-1.1zm-1.6-3.9c1 0 1.7.7 1.7 1.9h-3.5c.1-1.2.8-1.9 1.8-1.9zm4.4 5.5h1v-8.8h-1v8.8zm3.5 2.3c1.1 0 1.6-.4 2.2-1.9l2.5-6.7h-1.1l-1.7 5.2h-.1l-1.7-5.2H355l2.3 6.3-.1.4c-.3.8-.6 1-1.2 1h-.4v.9h.5zm-61.5 11.7h1v-3.7c0-1.1.6-1.8 1.7-1.8s1.5.5 1.5 1.7v3.8h1v-4.1c0-1.5-.8-2.3-2.2-2.3-1 0-1.6.4-1.9 1.1h-.1v-1h-1v6.3zm9.6.1c1.8 0 2.9-1.2 2.9-3.3 0-2-1.1-3.3-2.9-3.3-1.8 0-2.9 1.2-2.9 3.3 0 2.1 1.1 3.3 2.9 3.3zm0-.9c-1.2 0-1.9-.9-1.9-2.4s.7-2.4 1.9-2.4 1.9.9 1.9 2.4-.7 2.4-1.9 2.4zm4.5.8h1V593c0-.9.7-1.5 1.7-1.5.2 0 .6 0 .6.1v-1h-.5c-.8 0-1.6.4-1.8 1h-.1v-.9h-1v6.2zm13.1-6.3h-1v3.7c0 1.1-.6 1.8-1.7 1.8-1 0-1.4-.5-1.4-1.7v-3.8h-1v4.1c0 1.5.7 2.3 2.2 2.3 1 0 1.6-.4 2-1.1h.1v1h1v-6.3zm1.9 6.3h1v-3.7c0-1.1.7-1.8 1.7-1.8s1.5.5 1.5 1.7v3.8h1v-4.1c0-1.5-.8-2.3-2.2-2.3-1 0-1.6.4-1.9 1.1h-.1v-1h-1v6.3zm7 0h1v-8.8h-1v8.8zm3.5-7.5c.4 0 .7-.3.7-.7 0-.4-.3-.7-.7-.7-.4 0-.7.3-.7.7 0 .4.4.7.7.7zm-.5 7.5h1v-6.3h-1v6.3zm4.1-3.5l-.1-5.3h-1v8.8h1v-2.4l.6-.6 2.4 3h1.3l-2.9-3.6 2.7-2.7h-1.2l-2.8 2.8zm9.3 1.9c-.3.6-.8.9-1.6.9-1.1 0-1.8-.8-1.8-2h4.5v-.4c0-2-1-3.2-2.7-3.2-1.7 0-2.8 1.3-2.8 3.3 0 2 1.1 3.3 2.8 3.3 1.4 0 2.4-.7 2.7-1.7h-1.1zm-1.7-3.9c1 0 1.7.7 1.7 1.9h-3.5c.1-1.2.8-1.9 1.8-1.9zm4.4 5.5h1v-8.8h-1v8.8zm3.5 2.3c1.1 0 1.6-.4 2.2-1.9l2.5-6.7h-1.1l-1.7 5.2h-.2l-1.7-5.2h-1.1l2.3 6.3-.1.4c-.3.8-.6 1-1.2 1h-.4v.9h.5z"/></g></g><g><defs><path id="SVGID_74_" d="M401 564.9h100v35H401z"/></defs><clipPath id="SVGID_75_"><use xlink:href="#SVGID_74_" overflow="visible"/></clipPath><g clip-path="url(#SVGID_75_)"><path class="st50" d="M451 564.9v5"/><path class="st7" d="M433.6 582h-4.1v-7.5h-1.1v8.5h5.1v-1zm2.1-6.6c.4 0 .7-.3.7-.7 0-.4-.3-.7-.7-.7-.4 0-.7.3-.7.7 0 .4.3.7.7.7zm-.5 7.5h1v-6.3h-1v6.3zm4.1-3.5l-.1-5.3h-1v8.8h1v-2.4l.6-.6 2.4 3h1.3l-2.9-3.6 2.7-2.7h-1.2l-2.8 2.8zm9.3 1.9c-.3.6-.8.9-1.6.9-1.1 0-1.8-.8-1.8-2h4.5v-.4c0-2-1-3.2-2.7-3.2-1.7 0-2.8 1.3-2.8 3.3 0 2 1.1 3.3 2.8 3.3 1.4 0 2.4-.7 2.7-1.7h-1.1zm-1.7-3.9c1 0 1.7.7 1.7 1.9h-3.5c.1-1.2.8-1.9 1.8-1.9zm4.4 5.5h1v-8.8h-1v8.8zm3.5 2.3c1.1 0 1.6-.4 2.2-1.9l2.5-6.7h-1.1l-1.7 5.2h-.1l-1.7-5.2h-1.1l2.3 6.3-.1.4c-.3.8-.6 1-1.2 1h-.4v.9h.4zm9.8-10.2v1.6h-1v.8h1v3.8c0 1.2.5 1.7 1.8 1.7.2 0 .4 0 .6-.1v-.8h-.5c-.7 0-.9-.3-.9-1.1v-3.6h1.4v-.8h-1.4V575h-1zm6.4 8c1.8 0 2.9-1.2 2.9-3.3 0-2-1.1-3.3-2.9-3.3-1.8 0-2.9 1.2-2.9 3.3 0 2.1 1.1 3.3 2.9 3.3zm0-.9c-1.2 0-1.9-.9-1.9-2.4s.7-2.4 1.9-2.4 1.9.9 1.9 2.4-.7 2.4-1.9 2.4zM424.8 597c.9 0 1.6-.4 2-1.1h.1v1h1v-8.8h-1v3.5h-.1c-.4-.7-1.1-1.1-2-1.1-1.6 0-2.7 1.3-2.7 3.3 0 1.9 1.1 3.2 2.7 3.2zm.2-5.6c1.1 0 1.9.9 1.9 2.4s-.7 2.4-1.9 2.4-1.8-.9-1.8-2.4.7-2.4 1.8-2.4zm6.6 5.6c.8 0 1.5-.4 1.9-1h.1v.9h1v-4.3c0-1.3-.9-2.1-2.4-2.1-1.3 0-2.3.7-2.5 1.7h1c.1-.5.7-.8 1.4-.8.9 0 1.4.4 1.4 1.2v.6l-1.8.1c-1.5.1-2.3.7-2.3 1.9 0 1.1.9 1.8 2.2 1.8zm.2-.9c-.7 0-1.3-.4-1.3-1s.4-1 1.4-1l1.7-.1v.6c0 .9-.8 1.5-1.8 1.5zm5.1-7.1v1.6h-1v.8h1v3.8c0 1.2.5 1.7 1.8 1.7.2 0 .4 0 .6-.1v-.8h-.5c-.7 0-.9-.3-.9-1.1v-3.6h1.4v-.8h-1.4V589h-1zm8 6.3c-.3.6-.8.9-1.6.9-1.1 0-1.8-.8-1.8-2h4.5v-.4c0-2-1-3.2-2.7-3.2-1.7 0-2.8 1.3-2.8 3.3 0 2 1.1 3.3 2.8 3.3 1.4 0 2.4-.7 2.7-1.7h-1.1zm-1.7-3.9c1 0 1.7.7 1.7 1.9h-3.5c.1-1.2.8-1.9 1.8-1.9zm9.5 5.6c.8 0 1.5-.4 1.9-1h.1v.9h1v-4.3c0-1.3-.9-2.1-2.4-2.1-1.3 0-2.3.7-2.5 1.7h1c.1-.5.7-.8 1.4-.8.9 0 1.4.4 1.4 1.2v.6l-1.8.1c-1.5.1-2.3.7-2.3 1.9.1 1.1 1 1.8 2.2 1.8zm.2-.9c-.7 0-1.3-.4-1.3-1s.4-1 1.4-1l1.7-.1v.6c0 .9-.8 1.5-1.8 1.5zm7.3 3.2c1.7 0 2.8-.9 2.8-2.3v-6.4h-1v1h-.1c-.4-.7-1.1-1.1-2-1.1-1.6 0-2.6 1.3-2.6 3.2 0 1.9 1 3.2 2.6 3.2.9 0 1.6-.4 2-1.1h.1v1.2c0 .9-.7 1.5-1.8 1.5-.9 0-1.5-.3-1.6-.8h-1.1c.2.9 1.1 1.6 2.7 1.6zm-.1-3.4c-1.2 0-1.8-.9-1.8-2.3s.7-2.3 1.8-2.3c1.2 0 1.9.9 1.9 2.3s-.7 2.3-1.9 2.3zm6.5 1.1c.8 0 1.5-.4 1.9-1h.1v.9h1v-4.3c0-1.3-.9-2.1-2.4-2.1-1.3 0-2.3.7-2.5 1.7h1c.1-.5.7-.8 1.4-.8.9 0 1.4.4 1.4 1.2v.6l-1.8.1c-1.5.1-2.3.7-2.3 1.9.1 1.1 1 1.8 2.2 1.8zm.2-.9c-.7 0-1.3-.4-1.3-1s.4-1 1.4-1l1.7-.1v.6c0 .9-.7 1.5-1.8 1.5zm5.2-6.7c.4 0 .7-.3.7-.7 0-.4-.3-.7-.7-.7-.4 0-.7.3-.7.7 0 .4.3.7.7.7zm-.5 7.5h1v-6.3h-1v6.3zm2.9 0h1v-3.7c0-1.1.6-1.8 1.7-1.8s1.5.5 1.5 1.7v3.8h1v-4.1c0-1.5-.8-2.3-2.2-2.3-1 0-1.6.4-1.9 1.1h-.1v-1h-1v6.3z"/></g></g><g><defs><path id="SVGID_76_" d="M526 564.9h100v35H526z"/></defs><clipPath id="SVGID_77_"><use xlink:href="#SVGID_76_" overflow="visible"/></clipPath><g clip-path="url(#SVGID_77_)"><path class="st50" d="M576 564.9v5"/><path class="st7" d="M550.2 582.9l3.1-8.5h-1.1l-2.5 7.1h-.1l-2.5-7.1H546l3.1 8.5h1.1zm8-1.6c-.3.6-.8.9-1.6.9-1.1 0-1.8-.8-1.8-2h4.5v-.4c0-2-1-3.2-2.7-3.2-1.7 0-2.8 1.3-2.8 3.3 0 2 1.1 3.3 2.8 3.3 1.4 0 2.4-.7 2.7-1.7h-1.1zm-1.6-3.9c1 0 1.7.7 1.7 1.9h-3.5c.1-1.2.8-1.9 1.8-1.9zm4.3 5.5h1V579c0-.9.7-1.5 1.7-1.5.2 0 .6 0 .6.1v-1h-.5c-.8 0-1.6.4-1.8 1h-.1v-.9h-1v6.2zm5.1 2.3c1.1 0 1.6-.4 2.2-1.9l2.5-6.7h-1.1l-1.7 5.2h-.1l-1.7-5.2H565l2.3 6.3-.1.4c-.3.8-.6 1-1.2 1h-.4v.9h.4zm9.4-2.3h1v-8.8h-1v8.8zm3.5-7.5c.4 0 .7-.3.7-.7 0-.4-.3-.7-.7-.7-.4 0-.7.3-.7.7 0 .4.3.7.7.7zm-.5 7.5h1v-6.3h-1v6.3zm4.1-3.5l-.1-5.3h-1v8.8h1v-2.4l.6-.6 2.4 3h1.3l-2.9-3.6 2.7-2.7h-1.2l-2.8 2.8zm9.3 1.9c-.3.6-.8.9-1.6.9-1.1 0-1.8-.8-1.8-2h4.5v-.4c0-2-1-3.2-2.7-3.2-1.7 0-2.8 1.3-2.8 3.3 0 2 1.1 3.3 2.8 3.3 1.4 0 2.4-.7 2.7-1.7h-1.1zm-1.7-3.9c1 0 1.7.7 1.7 1.9h-3.5c.1-1.2.8-1.9 1.8-1.9zm4.4 5.5h1v-8.8h-1v8.8zm3.5 2.3c1.1 0 1.6-.4 2.2-1.9l2.5-6.7h-1.1l-1.7 5.2h-.1l-1.7-5.2H597l2.3 6.3-.1.4c-.3.8-.6 1-1.2 1h-.4v.9h.4zm-57.5 3.8v1.6h-1v.8h1v3.8c0 1.2.5 1.7 1.8 1.7.2 0 .4 0 .6-.1v-.8h-.5c-.7 0-.9-.3-.9-1.1v-3.6h1.4v-.8h-1.4V589h-1zm6.4 8c1.8 0 2.9-1.2 2.9-3.3 0-2-1.1-3.3-2.9-3.3-1.8 0-2.9 1.2-2.9 3.3 0 2.1 1.1 3.3 2.9 3.3zm0-.9c-1.2 0-1.9-.9-1.9-2.4s.7-2.4 1.9-2.4 1.9.9 1.9 2.4-.7 2.4-1.9 2.4zm10.3.9c.9 0 1.6-.4 2-1.1h.1v1h1v-8.8h-1v3.5h-.1c-.4-.7-1.1-1.1-2-1.1-1.6 0-2.7 1.3-2.7 3.3 0 1.9 1 3.2 2.7 3.2zm.2-5.6c1.1 0 1.9.9 1.9 2.4s-.7 2.4-1.9 2.4-1.8-.9-1.8-2.4c-.1-1.5.6-2.4 1.8-2.4zm6.5 5.6c.8 0 1.5-.4 1.9-1h.1v.9h1v-4.3c0-1.3-.9-2.1-2.4-2.1-1.3 0-2.3.7-2.5 1.7h1c.1-.5.7-.8 1.4-.8.9 0 1.4.4 1.4 1.2v.6l-1.8.1c-1.5.1-2.3.7-2.3 1.9.1 1.1 1 1.8 2.2 1.8zm.2-.9c-.7 0-1.3-.4-1.3-1s.4-1 1.4-1l1.7-.1v.6c0 .9-.7 1.5-1.8 1.5zm5.1-7.1v1.6h-1v.8h1v3.8c0 1.2.5 1.7 1.8 1.7.2 0 .4 0 .6-.1v-.8h-.5c-.7 0-.9-.3-.9-1.1v-3.6h1.4v-.8h-1.4V589h-1zm8.1 6.3c-.3.6-.8.9-1.6.9-1.1 0-1.8-.8-1.8-2h4.5v-.4c0-2-1-3.2-2.7-3.2-1.7 0-2.8 1.3-2.8 3.3 0 2 1.1 3.3 2.8 3.3 1.4 0 2.4-.7 2.7-1.7h-1.1zm-1.7-3.9c1 0 1.7.7 1.7 1.9h-3.5c.1-1.2.8-1.9 1.8-1.9zm9.5 5.6c.8 0 1.5-.4 1.9-1h.1v.9h1v-4.3c0-1.3-.9-2.1-2.4-2.1-1.3 0-2.3.7-2.5 1.7h1c.1-.5.7-.8 1.4-.8.9 0 1.4.4 1.4 1.2v.6l-1.8.1c-1.5.1-2.3.7-2.3 1.9 0 1.1.9 1.8 2.2 1.8zm.2-.9c-.7 0-1.3-.4-1.3-1s.4-1 1.4-1l1.7-.1v.6c0 .9-.8 1.5-1.8 1.5zm7.2 3.2c1.7 0 2.8-.9 2.8-2.3v-6.4h-1v1h-.1c-.4-.7-1.1-1.1-2-1.1-1.6 0-2.6 1.3-2.6 3.2 0 1.9 1 3.2 2.6 3.2.9 0 1.6-.4 2-1.1h.1v1.2c0 .9-.7 1.5-1.8 1.5-.9 0-1.5-.3-1.6-.8h-1.1c.2.9 1.2 1.6 2.7 1.6zm0-3.4c-1.2 0-1.8-.9-1.8-2.3s.7-2.3 1.8-2.3c1.2 0 1.9.9 1.9 2.3s-.7 2.3-1.9 2.3zm6.5 1.1c.8 0 1.5-.4 1.9-1h.1v.9h1v-4.3c0-1.3-.9-2.1-2.4-2.1-1.3 0-2.3.7-2.5 1.7h1c.1-.5.7-.8 1.4-.8.9 0 1.4.4 1.4 1.2v.6l-1.8.1c-1.5.1-2.3.7-2.3 1.9.1 1.1 1 1.8 2.2 1.8zm.2-.9c-.7 0-1.3-.4-1.3-1s.4-1 1.4-1l1.7-.1v.6c0 .9-.8 1.5-1.8 1.5zm5.2-6.7c.4 0 .7-.3.7-.7 0-.4-.3-.7-.7-.7-.4 0-.7.3-.7.7 0 .4.3.7.7.7zm-.5 7.5h1v-6.3h-1v6.3zm2.9 0h1v-3.7c0-1.1.7-1.8 1.7-1.8s1.5.5 1.5 1.7v3.8h1v-4.1c0-1.5-.8-2.3-2.2-2.3-1 0-1.6.4-1.9 1.1h-.1v-1h-1v6.3z"/></g></g></g><linearGradient id="SVGID_78_" gradientUnits="userSpaceOnUse" x1="326" y1="178.091" x2="326" y2="152.091" gradientTransform="matrix(1 0 0 -1 0 722)"><stop offset="0" stop-color="#f6f8fb"/><stop offset="1" stop-color="#e0e2e4"/></linearGradient><path d="M321 544.4h10c.8 0 1.5.7 1.5 1.5v22c0 .8-.7 1.5-1.5 1.5h-10c-.8 0-1.5-.7-1.5-1.5v-22c0-.8.7-1.5 1.5-1.5z" fill="url(#SVGID_78_)" stroke="#7d8893"/><path class="st64" d="M323.5 553.4v7M326 551.9v10M328.5 553.4v7"/></g></g><linearGradient id="SVGID_79_" gradientUnits="userSpaceOnUse" x1="326" y1="71" x2="326" y2="31" gradientTransform="matrix(1 0 0 -1 0 722)"><stop offset="0" stop-color="#f6f8fb"/><stop offset="1" stop-color="#e0e2e4"/></linearGradient><path d="M41 651.5h570c2.5 0 4.5 2 4.5 4.5v30c0 2.5-2 4.5-4.5 4.5H41c-2.5 0-4.5-2-4.5-4.5v-30c0-2.5 2-4.5 4.5-4.5z" fill="url(#SVGID_79_)"/><path d="M250.4 673.7c.1 2.2 1.9 3.6 4.8 3.6 3 0 4.8-1.5 4.8-3.9 0-1.8-1-2.9-3.4-3.4l-1.4-.3c-1.4-.3-2-.7-2-1.5 0-.9.8-1.5 2.1-1.5 1.2 0 2.1.6 2.2 1.6h2.3c-.1-2.1-1.9-3.6-4.6-3.6-2.8 0-4.6 1.5-4.6 3.7 0 1.8 1.1 2.9 3.2 3.4l1.6.3c1.5.3 2.1.8 2.1 1.6 0 .9-.9 1.6-2.2 1.6-1.4 0-2.4-.6-2.5-1.6h-2.4zm20-5.8H268v5.3c0 1.2-.6 2-1.8 2-1.1 0-1.7-.7-1.7-1.9V668h-2.4v5.9c0 2.1 1.2 3.4 3.2 3.4 1.4 0 2.2-.6 2.7-1.7h.1v1.5h2.3v-9.2zm7.8 9.2c2.3 0 3.7-1.8 3.7-4.7 0-2.9-1.4-4.7-3.7-4.7-1.2 0-2.3.6-2.7 1.6h-.1v-4.9H273V677h2.3v-1.4h.1c.5 1 1.5 1.5 2.8 1.5zm-.9-7.4c1.3 0 2.1 1 2.1 2.7 0 1.7-.8 2.8-2.1 2.8s-2.1-1-2.1-2.7c.1-1.7.9-2.8 2.1-2.8zm6.5 7.3h2.4v-5.5c0-1 .7-1.8 1.6-1.8.9 0 1.5.6 1.5 1.5v5.8h2.3v-5.6c0-1 .6-1.7 1.6-1.7s1.5.5 1.5 1.6v5.6h2.4v-6.2c0-1.9-1.1-3-3-3-1.3 0-2.3.7-2.7 1.7h-.1c-.4-1-1.2-1.7-2.5-1.7-1.2 0-2.1.6-2.5 1.7h-.1v-1.5h-2.3v9.1zm16.9-10.5c.7 0 1.4-.6 1.4-1.3 0-.8-.6-1.3-1.4-1.3-.7 0-1.4.6-1.4 1.3.1.7.7 1.3 1.4 1.3zm-1.2 10.5h2.4v-9.1h-2.4v9.1zm5.6-11.3v2.3h-1.4v1.8h1.4v4.7c0 1.8.9 2.5 3.1 2.5.5 0 .9-.1 1.2-.1v-1.8h-.7c-.8 0-1.2-.4-1.2-1.2v-4.2h1.9V668h-1.9v-2.3h-2.4zm10.9-.6V677h2.5v-3.8h2.4c2.5 0 4.3-1.6 4.3-4.1 0-2.5-1.7-4.1-4.1-4.1H316zm2.5 2h1.8c1.4 0 2.3.7 2.3 2.1 0 1.4-.8 2.1-2.3 2.1h-1.8v-4.2zm8.6 9.9h2.4v-5.1c0-1.3.9-2.1 2.2-2.1.4 0 1 .1 1.1.1v-2.1c-.2-.1-.6-.1-.9-.1-1.2 0-2.1.7-2.3 1.6h-.1v-1.4h-2.3v9.1zm13.1-2.6c-.3.6-.9 1-1.9 1-1.3 0-2-.9-2.1-2.3v-.1h6.3v-.7c0-2.9-1.6-4.6-4.3-4.6-2.7 0-4.4 1.8-4.4 4.8 0 2.9 1.6 4.7 4.4 4.7 2.2 0 3.8-1.1 4.2-2.8h-2.2zm-2-4.9c1.1 0 1.9.8 1.9 2h-3.9c.1-1.2.9-2 2-2zm9.5 7.6c1.3 0 2.3-.6 2.8-1.6h.1v1.4h2.3v-12.6h-2.4v4.9h-.1c-.5-1-1.5-1.6-2.7-1.6-2.3 0-3.7 1.8-3.7 4.7 0 3 1.4 4.8 3.7 4.8zm.9-7.4c1.3 0 2.1 1 2.1 2.8 0 1.7-.8 2.7-2.1 2.7s-2.1-1-2.1-2.8c0-1.7.8-2.7 2.1-2.7zm8.1-3.2c.7 0 1.4-.6 1.4-1.3 0-.8-.6-1.3-1.4-1.3-.7 0-1.4.6-1.4 1.3.1.7.7 1.3 1.4 1.3zm-1.2 10.5h2.4v-9.1h-2.4v9.1zm12.9-5.9c-.2-2-1.6-3.4-4.1-3.4-2.9 0-4.5 1.7-4.5 4.7s1.6 4.8 4.5 4.8c2.4 0 3.9-1.3 4.1-3.3h-2.2c-.2.9-.8 1.4-1.8 1.4-1.3 0-2-1-2-2.8 0-1.8.7-2.8 2-2.8 1 0 1.6.6 1.8 1.5h2.2zm2.7-5.4v2.3h-1.4v1.8h1.4v4.7c0 1.8.9 2.5 3.1 2.5.5 0 .9-.1 1.2-.1v-1.8h-.7c-.8 0-1.2-.4-1.2-1.2v-4.2h1.9V668h-1.9v-2.3h-2.4zm7.5.8c.7 0 1.4-.6 1.4-1.3 0-.8-.6-1.3-1.4-1.3-.7 0-1.4.6-1.4 1.3 0 .7.7 1.3 1.4 1.3zm-1.2 10.5h2.4v-9.1h-2.4v9.1zm8.9.2c2.8 0 4.5-1.8 4.5-4.7 0-3-1.7-4.7-4.5-4.7s-4.5 1.8-4.5 4.7c0 2.9 1.7 4.7 4.5 4.7zm0-1.9c-1.3 0-2-1-2-2.8 0-1.8.7-2.8 2-2.8s2 1 2 2.8c0 1.7-.7 2.8-2 2.8zm6.4 1.7h2.4v-5.3c0-1.2.7-2 1.8-2s1.7.7 1.7 2v5.3h2.4v-5.9c0-2.2-1.1-3.4-3.1-3.4-1.3 0-2.3.6-2.7 1.7h-.1v-1.5h-2.3v9.1z" fill="#677380"/><path d="M41 651.5h570c2.5 0 4.5 2 4.5 4.5v30c0 2.5-2 4.5-4.5 4.5H41c-2.5 0-4.5-2-4.5-4.5v-30c0-2.5 2-4.5 4.5-4.5z" fill="none" stroke="#d3dae0" stroke-width=".995"/><path d="M10 .5h632c5.2 0 9.5 4.2 9.5 9.5v701c0 5.2-4.2 9.5-9.5 9.5H10c-5.2 0-9.5-4.2-9.5-9.5V10C.5 4.7 4.7.5 10 .5z" fill="none" stroke="#c2cbd3" stroke-width=".995"/></svg>