<svg width="592" height="344" fill="none" xmlns="http://www.w3.org/2000/svg"><g clip-path="url(#clip0)"><path d="M0 5a5 5 0 015-5h238a5 5 0 015 5v87a5 5 0 01-5 5H5a5 5 0 01-5-5V5z" fill="#fff"/><path d="M40.87 51.826l-.05.104v2.697c0 .955.546 1.83 1.405 2.246l15.678 7.617.038.025c.277.202.525.44.737.71.407.518.817 1.311.817 2.424v4.258a1.522 1.522 0 01-.156.572.926.926 0 01-.304.356c-.13.088-.324.162-.62.162H11.578c-.294 0-.486-.074-.616-.161a.933.933 0 01-.306-.357 1.526 1.526 0 01-.158-.573v-4.258c0-1.112.411-1.905.82-2.423.213-.27.462-.508.74-.71l.038-.026 15.672-7.617a2.499 2.499 0 001.406-2.246V51.93l-.05-.104-2.923-6.001-.063-.129-.118-.074-.013-.008a2.967 2.967 0 01-.312-.262 4.847 4.847 0 01-.787-1.012c-.55-.92-1.1-2.425-1.037-4.736.13-.112.268-.276.38-.51.246-.51.364-1.32.14-2.62-.44-2.53-.834-4.853.912-6.734l.005-.004a5.91 5.91 0 01.6-.371 7.554 7.554 0 011.823-.694l.102-.024.083-.063.002-.002.003-.002.012-.01a9.52 9.52 0 00.656-.565c.356-.336.808-.815 1.084-1.32.174-.32.618-.748 1.272-1.1.643-.345 1.433-.587 2.247-.587h3.545c.816 0 1.625.242 2.286.59.675.354 1.128.781 1.296 1.094l.001.002c.276.506.728.985 1.084 1.321.21.198.43.387.656.566l.012.009.003.002.001.001.302-.396-.3.397.083.064.103.024c.777.182 1.397.46 1.82.69.207.112.407.236.6.372l.006.005c1.746 1.881 1.352 4.205.913 6.736-.225 1.3-.107 2.108.138 2.618.113.235.25.399.381.51.063 2.312-.488 3.817-1.037 4.737a4.85 4.85 0 01-.788 1.011 3 3 0 01-.31.263l-.01.007h-.003l-.12.075-.062.129-2.923 6.001z" fill="#6E7CFB" fill-opacity=".5"/><path d="M27.916 28.584l-.083.063-.102.024a7.554 7.554 0 00-1.824.694 5.91 5.91 0 00-.599.371l-.005.004c-1.746 1.881-1.352 4.204-.913 6.734.225 1.3.107 2.11-.139 2.62-.112.234-.25.398-.38.51-.063 2.311.487 3.816 1.037 4.736.217.37.481.711.787 1.012.098.094.202.182.312.262l.012.008h.001l.118.074.063.129 2.923 6.001.05.104v2.696a2.5 2.5 0 01-1.406 2.246l-15.672 7.617-.038.026c-.278.202-.527.44-.74.71-.409.518-.82 1.311-.82 2.423V71.906c.015.2.069.394.158.573.07.143.175.266.306.357.13.087.322.161.616.161h46.837c.296 0 .49-.074.62-.162a.926.926 0 00.304-.356 1.517 1.517 0 00.156-.572v-4.258c0-1.113-.41-1.906-.817-2.424a3.751 3.751 0 00-.737-.71l-.038-.025-15.678-7.617a2.498 2.498 0 01-1.406-2.246V51.93l.05-.104 2.923-6.001.062-.129.12-.075h.002l.01-.007a3 3 0 00.311-.263c.306-.3.571-.64.788-1.011.55-.92 1.1-2.425 1.037-4.737a1.524 1.524 0 01-.38-.51c-.246-.51-.364-1.318-.139-2.618.44-2.531.833-4.855-.913-6.736l-.007-.005a5.826 5.826 0 00-.599-.372 7.336 7.336 0 00-1.82-.69l-.103-.024-.084-.064.301-.397-.302.396v-.001l-.004-.002-.012-.009a9.78 9.78 0 01-.656-.566c-.356-.336-.808-.815-1.084-1.321v-.002c-.169-.313-.622-.74-1.297-1.094-.66-.348-1.47-.59-2.286-.59h-3.545c-.814 0-1.604.242-2.247.587-.654.352-1.098.78-1.272 1.1-.276.505-.728.984-1.084 1.32a9.52 9.52 0 01-.656.565l-.012.01-.003.002-.002.002zm0 0l-.3-.397" stroke="#6E7CFB" stroke-width=".99"/><path fill="#6E7CFB" fill-opacity=".5" d="M68.498.498h179.005v96.005H68.498z"/><path d="M89.588 23v-9.82h-2.415l-2.722 6.771h-.123l-2.715-6.77h-2.422V23h1.905v-6.648h.109l2.504 6.165h1.368l2.497-6.165h.11V23h1.904zm4.24.116c.973 0 1.79-.415 2.177-1.11h.123V23h1.919v-5.117c0-1.6-1.123-2.538-3.11-2.538-1.885 0-3.157.864-3.287 2.238h1.824c.163-.47.64-.72 1.354-.72.817 0 1.266.373 1.266 1.02v.62l-1.817.108c-1.865.109-2.906.898-2.906 2.252 0 1.368 1.014 2.253 2.457 2.253zm.653-1.45c-.687 0-1.17-.347-1.17-.925 0-.551.415-.871 1.265-.926l1.518-.102v.558c0 .79-.694 1.395-1.613 1.395zm5.58 1.334h1.98V12.643h-1.98V23zm8.894-2.116c-.211.51-.749.796-1.531.796-1.035 0-1.688-.715-1.715-1.858v-.102h5.151v-.592c0-2.368-1.306-3.783-3.518-3.783-2.232 0-3.606 1.51-3.606 3.946 0 2.423 1.347 3.866 3.633 3.866 1.838 0 3.137-.878 3.43-2.273h-1.844zm-1.606-4.063c.925 0 1.524.64 1.565 1.667h-3.198c.068-1.007.714-1.667 1.633-1.667zM79.034 42.95h1.184c0-1.163.783-1.932 1.96-1.932 1.157 0 1.858.776 1.858 1.817 0 .864-.368 1.374-1.62 2.728l-3.32 3.593V50h6.355v-1.102h-4.654v-.11l2.232-2.306c1.769-1.83 2.259-2.647 2.259-3.777 0-1.592-1.313-2.756-3.028-2.756-1.878 0-3.226 1.252-3.226 3.001zM89.868 50h1.224v-9.82h-1.218l-2.613 1.879v1.293l2.498-1.81h.109V50zm8.723 2.654c1.3 0 1.885-.504 2.511-2.205l2.865-7.785h-1.245l-2.008 6.036h-.109l-2.014-6.036h-1.265l2.715 7.343-.136.435c-.307.885-.674 1.205-1.348 1.205a2.82 2.82 0 01-.49-.034v1c.164.027.368.04.524.04zm11.527-4.553c-.306.647-.945.994-1.891.994-1.246 0-2.055-.919-2.117-2.368v-.054h5.274v-.45c0-2.28-1.204-3.688-3.184-3.688-2.015 0-3.308 1.497-3.308 3.804 0 2.32 1.273 3.79 3.308 3.79 1.605 0 2.749-.776 3.089-2.027h-1.171zm-1.932-4.532c1.164 0 1.939.858 1.966 2.158h-4.042c.089-1.3.905-2.157 2.076-2.157zm7.077 6.56c.98 0 1.783-.428 2.259-1.211h.109V50h1.116v-5.022c0-1.524-1-2.443-2.79-2.443-1.565 0-2.722.776-2.878 1.953h1.184c.163-.578.775-.912 1.653-.912 1.096 0 1.66.497 1.66 1.402v.667l-2.116.13c-1.708.101-2.674.857-2.674 2.17 0 1.34 1.055 2.184 2.477 2.184zm.218-1.027c-.851 0-1.484-.436-1.484-1.184 0-.735.49-1.123 1.606-1.198l1.973-.13v.674c0 1.048-.891 1.838-2.095 1.838zm5.43.898h1.17v-4.546c0-1.034.81-1.782 1.926-1.782.231 0 .653.04.748.068v-1.17a5.01 5.01 0 00-.585-.035c-.973 0-1.817.504-2.034 1.218h-.109v-1.089h-1.116V50zm5.001-5.328c0 1.061.626 1.653 2.001 1.987l1.259.306c.782.19 1.163.53 1.163 1.034 0 .674-.707 1.144-1.694 1.144-.939 0-1.524-.395-1.722-1.014h-1.204c.129 1.218 1.252 2 2.885 2 1.667 0 2.94-.905 2.94-2.218 0-1.055-.667-1.654-2.048-1.987l-1.13-.272c-.864-.211-1.272-.524-1.272-1.028 0-.653.68-1.095 1.551-1.095.885 0 1.456.387 1.613.973h1.157c-.157-1.205-1.225-1.967-2.763-1.967-1.558 0-2.736.919-2.736 2.137zm8.207 7.825l1.068-3.872h-1.3l-.646 3.872h.878zm-48.784 13.4h-4.858v-3.375h4.607v-1.088h-4.607v-3.15h4.858V57.18h-6.083V67h6.084v-1.102zm8.003-6.233h-1.17v4.342c0 1.286-.708 2.055-2.001 2.055-1.17 0-1.66-.613-1.66-1.933v-4.464h-1.17v4.75c0 1.735.856 2.715 2.503 2.715 1.123 0 1.906-.462 2.273-1.279h.109V67h1.116v-7.336zM95.543 67h1.17v-4.546c0-1.034.81-1.782 1.926-1.782.231 0 .653.04.748.068v-1.17a5.03 5.03 0 00-.585-.035c-.973 0-1.817.504-2.035 1.218h-.108v-1.089h-1.116V67zm8.118.13c2.089 0 3.382-1.443 3.382-3.798 0-2.361-1.293-3.797-3.382-3.797-2.089 0-3.382 1.436-3.382 3.797 0 2.355 1.293 3.797 3.382 3.797zm0-1.055c-1.388 0-2.171-1.008-2.171-2.743 0-1.742.783-2.742 2.171-2.742s2.17 1 2.17 2.742c0 1.735-.782 2.743-2.17 2.743zm8.791-6.54c-1 0-1.878.51-2.347 1.354h-.109v-1.225h-1.116v9.786h1.17v-3.552h.109c.402.775 1.246 1.231 2.293 1.231 1.865 0 3.083-1.504 3.083-3.797 0-2.307-1.211-3.797-3.083-3.797zm-.279 6.54c-1.32 0-2.157-1.062-2.157-2.743 0-1.687.837-2.742 2.164-2.742 1.341 0 2.144 1.027 2.144 2.742s-.803 2.743-2.151 2.743zm10.058-.974c-.306.647-.946.994-1.892.994-1.245 0-2.055-.919-2.116-2.368v-.054h5.274v-.45c0-2.28-1.205-3.688-3.185-3.688-2.014 0-3.307 1.497-3.307 3.804 0 2.32 1.272 3.79 3.307 3.79 1.606 0 2.749-.776 3.089-2.028h-1.17zm-1.933-4.532c1.164 0 1.94.858 1.967 2.158h-4.042c.088-1.3.905-2.157 2.075-2.157zm7.077 6.56c.98 0 1.783-.428 2.26-1.211h.108V67h1.116v-5.022c0-1.524-1-2.443-2.79-2.443-1.565 0-2.721.776-2.878 1.953h1.184c.163-.578.776-.912 1.654-.912 1.095 0 1.66.497 1.66 1.402v.667l-2.116.13c-1.708.101-2.675.857-2.675 2.17 0 1.34 1.055 2.184 2.477 2.184zm.218-1.027c-.851 0-1.483-.436-1.483-1.184 0-.735.49-1.123 1.606-1.198l1.973-.13v.674c0 1.048-.891 1.838-2.096 1.838zm5.43.898h1.171v-4.341c0-1.286.755-2.07 1.925-2.07 1.171 0 1.729.627 1.729 1.947V67h1.17v-4.75c0-1.742-.918-2.715-2.565-2.715-1.123 0-1.837.477-2.205 1.286h-.109v-1.157h-1.116V67zm8.084 2.09l3.539-12.338h-.994l-3.538 12.337h.993zm8.799-1.859c2.089 0 3.64-1.163 3.967-2.966h-1.245c-.313 1.136-1.354 1.837-2.722 1.837-1.892 0-3.076-1.545-3.076-4.008 0-2.464 1.184-4.015 3.069-4.015 1.354 0 2.402.796 2.729 2.062h1.245c-.293-1.892-1.905-3.192-3.974-3.192-2.667 0-4.328 1.974-4.328 5.145 0 3.164 1.667 5.137 4.335 5.137zm7.914-.102c.98 0 1.783-.428 2.259-1.211h.109V67h1.116v-5.022c0-1.524-1-2.443-2.79-2.443-1.565 0-2.722.776-2.879 1.953h1.185c.163-.578.775-.912 1.653-.912 1.096 0 1.66.497 1.66 1.402v.667l-2.116.13c-1.708.101-2.674.857-2.674 2.17 0 1.34 1.055 2.184 2.477 2.184zm.218-1.027c-.851 0-1.484-.436-1.484-1.184 0-.735.49-1.123 1.606-1.198l1.973-.13v.674c0 1.048-.891 1.838-2.095 1.838zm7.471 1.027c.98 0 1.783-.428 2.259-1.211h.109V67h1.116v-5.022c0-1.524-1-2.443-2.79-2.443-1.565 0-2.722.776-2.878 1.953h1.184c.163-.578.776-.912 1.653-.912 1.096 0 1.661.497 1.661 1.402v.667l-2.116.13c-1.708.101-2.675.857-2.675 2.17 0 1.34 1.055 2.184 2.477 2.184zm.218-1.027c-.851 0-1.483-.436-1.483-1.184 0-.735.489-1.123 1.605-1.198l1.974-.13v.674c0 1.048-.892 1.838-2.096 1.838zm11.364-6.438h-1.171v4.342c0 1.286-.707 2.055-2 2.055-1.171 0-1.66-.613-1.66-1.933v-4.464h-1.171v4.75c0 1.735.858 2.715 2.504 2.715 1.123 0 1.906-.462 2.273-1.279h.109V67h1.116v-7.336zm8.274 2.246c-.204-1.306-1.292-2.375-3.075-2.375-2.055 0-3.362 1.484-3.362 3.77 0 2.334 1.314 3.824 3.369 3.824 1.762 0 2.858-.993 3.068-2.34h-1.184c-.217.83-.905 1.286-1.891 1.286-1.307 0-2.151-1.076-2.151-2.77 0-1.66.831-2.715 2.151-2.715 1.054 0 1.701.592 1.891 1.32h1.184zm3.77 5.22c.98 0 1.783-.43 2.26-1.212h.108V67h1.116v-5.022c0-1.524-1-2.443-2.79-2.443-1.565 0-2.721.776-2.878 1.953h1.184c.163-.578.776-.912 1.654-.912 1.095 0 1.66.497 1.66 1.402v.667l-2.116.13c-1.708.101-2.675.857-2.675 2.17 0 1.34 1.055 2.184 2.477 2.184zm.218-1.028c-.851 0-1.483-.436-1.483-1.184 0-.735.49-1.123 1.606-1.198l1.973-.13v.674c0 1.048-.891 1.838-2.096 1.838zm5.26-4.43c0 1.061.626 1.653 2.001 1.987l1.259.306c.782.19 1.163.53 1.163 1.034 0 .674-.707 1.144-1.694 1.144-.939 0-1.524-.395-1.722-1.014h-1.204c.129 1.218 1.252 2 2.885 2 1.667 0 2.94-.905 2.94-2.218 0-1.055-.667-1.654-2.049-1.987l-1.129-.272c-.864-.211-1.273-.524-1.273-1.028 0-.653.681-1.095 1.552-1.095.884 0 1.456.387 1.613.973h1.156c-.156-1.205-1.224-1.967-2.762-1.967-1.559 0-2.736.919-2.736 2.137zm8.077-3.423c.45 0 .817-.367.817-.817a.819.819 0 00-.817-.816.819.819 0 00-.816.816c0 .45.367.817.816.817zM202.105 67h1.171v-7.336h-1.171V67zm5.444.13c.98 0 1.783-.43 2.259-1.212h.109V67h1.116v-5.022c0-1.524-1-2.443-2.79-2.443-1.565 0-2.722.776-2.878 1.953h1.184c.163-.578.775-.912 1.653-.912 1.096 0 1.661.497 1.661 1.402v.667l-2.117.13c-1.708.101-2.674.857-2.674 2.17 0 1.34 1.055 2.184 2.477 2.184zm.218-1.028c-.851 0-1.484-.436-1.484-1.184 0-.735.49-1.123 1.606-1.198l1.974-.13v.674c0 1.048-.892 1.838-2.096 1.838zm5.43.898h1.17v-4.341c0-1.286.756-2.07 1.926-2.07 1.171 0 1.729.627 1.729 1.947V67h1.17v-4.75c0-1.742-.919-2.715-2.565-2.715-1.123 0-1.838.477-2.205 1.286h-.109v-1.157h-1.116V67zm12.555-3.396v-1.109h-4.464v1.11h4.464zM85.635 84h1.286l-3.62-9.82H82.09L78.47 84h1.286l.986-2.81h3.906l.987 2.81zm-2.994-8.234h.109l1.538 4.382h-3.185l1.538-4.382zM88.493 84h1.17v-4.546c0-1.034.742-1.864 1.702-1.864.925 0 1.53.558 1.53 1.429V84h1.171v-4.716c0-.932.68-1.694 1.701-1.694 1.035 0 1.545.53 1.545 1.613V84h1.17v-5.07c0-1.537-.837-2.395-2.334-2.395-1.014 0-1.85.51-2.245 1.286h-.11c-.34-.762-1.034-1.286-2.027-1.286-.98 0-1.715.47-2.048 1.286h-.11v-1.156h-1.115V84zm16.985-1.898c-.307.646-.946.993-1.892.993-1.245 0-2.055-.919-2.116-2.368v-.055h5.273v-.449c0-2.28-1.204-3.688-3.184-3.688-2.015 0-3.307 1.497-3.307 3.804 0 2.32 1.272 3.79 3.307 3.79 1.606 0 2.749-.776 3.089-2.028h-1.17zm-1.933-4.532c1.164 0 1.939.857 1.967 2.157h-4.042c.088-1.3.905-2.157 2.075-2.157zm5.036 6.43h1.17v-4.546c0-1.034.81-1.782 1.926-1.782.231 0 .653.04.748.068v-1.17a5.01 5.01 0 00-.585-.035c-.973 0-1.817.504-2.035 1.218h-.108v-1.088h-1.116V84zm5.92-8.75a.819.819 0 00.816-.817.819.819 0 00-.816-.817.82.82 0 00-.817.817c0 .449.368.816.817.816zm-.585 8.75h1.17v-7.335h-1.17V84zm9.472-5.09c-.204-1.306-1.293-2.375-3.076-2.375-2.055 0-3.362 1.484-3.362 3.77 0 2.334 1.314 3.824 3.369 3.824 1.762 0 2.858-.993 3.069-2.34h-1.184c-.218.83-.905 1.286-1.892 1.286-1.307 0-2.15-1.076-2.15-2.77 0-1.66.83-2.715 2.15-2.715 1.055 0 1.701.592 1.892 1.32h1.184zm3.77 5.22c.979 0 1.782-.43 2.259-1.212h.109V84h1.116v-5.022c0-1.524-1.001-2.443-2.79-2.443-1.565 0-2.722.776-2.879 1.953h1.184c.164-.578.776-.912 1.654-.912 1.095 0 1.66.497 1.66 1.402v.667l-2.116.13c-1.708.101-2.674.857-2.674 2.17 0 1.34 1.054 2.184 2.477 2.184zm.217-1.028c-.85 0-1.483-.436-1.483-1.184 0-.735.49-1.123 1.606-1.198l1.973-.13v.674c0 1.048-.891 1.838-2.096 1.838zm5.431.898h1.17v-4.341c0-1.287.755-2.07 1.926-2.07 1.17 0 1.728.627 1.728 1.947V84h1.171v-4.75c0-1.742-.919-2.715-2.566-2.715-1.123 0-1.837.477-2.205 1.286h-.108v-1.156h-1.116V84z" fill="#505962"/><path stroke="#6E7CFB" stroke-width=".995" d="M68.498.498h179.005v96.005H68.498z"/><path d="M5 .995h238v-1.99H5v1.99zM247.005 5v87h1.99V5h-1.99zM243 96.005H5v1.99h238v-1.99zM.995 92V5h-1.99v87h1.99zM5 96.005A4.005 4.005 0 01.995 92h-1.99A5.995 5.995 0 005 97.995v-1.99zM247.005 92A4.005 4.005 0 01243 96.005v1.99A5.995 5.995 0 00248.995 92h-1.99zM243 .995A4.005 4.005 0 01247.005 5h1.99A5.995 5.995 0 00243-.995v1.99zM5-.995A5.995 5.995 0 00-.995 5h1.99A4.005 4.005 0 015 .995v-1.99z" fill="#6E7CFB"/><path d="M3.941 123.569h2.041l2.223 4.363h2.826l-2.512-4.735c1.372-.537 2.165-1.859 2.165-3.388 0-2.355-1.611-3.801-4.23-3.801H1.445v11.924h2.495v-4.363zm0-5.611h2.165c1.24 0 2.016.727 2.016 1.884 0 1.182-.735 1.868-1.99 1.868h-2.19v-3.752zm11.461 10.114c1.182 0 2.173-.504 2.644-1.347h.149v1.207h2.33v-6.214c0-1.942-1.363-3.082-3.776-3.082-2.289 0-3.834 1.049-3.991 2.718h2.214c.199-.57.777-.876 1.645-.876.991 0 1.537.455 1.537 1.24v.752l-2.207.132c-2.264.132-3.528 1.091-3.528 2.735 0 1.661 1.231 2.735 2.983 2.735zm.793-1.76c-.834 0-1.42-.421-1.42-1.124 0-.669.503-1.057 1.536-1.123l1.843-.124v.677c0 .959-.843 1.694-1.959 1.694zm7.38-9.651v2.256h-1.422v1.826h1.421v4.735c0 1.768.876 2.487 3.09 2.487.463 0 .91-.05 1.207-.108v-1.776a5.646 5.646 0 01-.71.041c-.819 0-1.182-.38-1.182-1.198v-4.181h1.892v-1.826h-1.892v-2.256h-2.405zm7.527.777c.743 0 1.355-.595 1.355-1.339 0-.752-.612-1.347-1.355-1.347-.744 0-1.364.595-1.364 1.347 0 .744.62 1.339 1.364 1.339zm-1.207 10.494H32.3v-9.098h-2.405v9.098zm4.842 0h2.405v-5.264c0-1.231.686-2.024 1.801-2.024 1.14 0 1.678.669 1.678 1.95v5.338h2.404v-5.884c0-2.173-1.09-3.412-3.115-3.412-1.347 0-2.272.636-2.694 1.661h-.148v-1.463h-2.33v9.098zm14.642 3.445c2.752 0 4.495-1.338 4.495-3.462v-9.081h-2.33v1.454h-.149c-.487-.991-1.537-1.603-2.768-1.603-2.313 0-3.735 1.802-3.735 4.619 0 2.727 1.413 4.495 3.686 4.495 1.28 0 2.239-.52 2.743-1.479h.149v1.694c0 1.05-.752 1.661-2.041 1.661-1.041 0-1.719-.363-1.843-.942h-2.38c.15 1.595 1.752 2.644 4.173 2.644zm.033-5.42c-1.305 0-2.049-1.025-2.049-2.661 0-1.636.752-2.661 2.05-2.661 1.297 0 2.082 1.025 2.082 2.661 0 1.636-.777 2.661-2.083 2.661zm6.668-4.47c0 1.396.86 2.231 2.628 2.619l1.653.372c.801.182 1.148.462 1.148.925 0 .603-.644 1.017-1.578 1.017-.959 0-1.545-.372-1.727-1h-2.347c.166 1.718 1.62 2.702 4.024 2.702 2.388 0 4.016-1.174 4.016-2.975 0-1.355-.793-2.099-2.561-2.487l-1.71-.372c-.844-.19-1.232-.479-1.232-.942 0-.595.636-1 1.496-1 .892 0 1.446.372 1.57.975h2.222c-.132-1.718-1.495-2.685-3.809-2.685-2.272 0-3.793 1.148-3.793 2.851z" fill="#7D8893"/><g clip-path="url(#clip1)"><path d="M9.313 162.818h1.57L6.465 150.84H4.99L.573 162.818h1.569l1.203-3.429H8.11l1.203 3.429zm-3.652-10.044h.133l1.876 5.345H3.785l1.876-5.345zm7.238-1.221v2.316h-1.444v1.196H12.9v5.428c0 1.71.74 2.391 2.582 2.391.282 0 .556-.033.838-.083v-1.204a6.008 6.008 0 01-.664.034c-.93 0-1.328-.449-1.328-1.503v-5.063h1.992v-1.196h-1.992v-2.316H12.9zm6.176 0v2.316h-1.444v1.196h1.444v5.428c0 1.71.739 2.391 2.582 2.391.282 0 .556-.033.838-.083v-1.204a6.008 6.008 0 01-.664.034c-.93 0-1.328-.449-1.328-1.503v-5.063h1.992v-1.196h-1.992v-2.316h-1.428zm5.578 11.265h1.428v-5.545c0-1.262.988-2.175 2.35-2.175.281 0 .796.05.912.083v-1.428a6.119 6.119 0 00-.714-.041c-1.187 0-2.216.614-2.482 1.486h-.132v-1.329h-1.362v8.949zm8.965.157c1.195 0 2.175-.523 2.756-1.477h.133v1.32h1.361v-6.126c0-1.86-1.22-2.98-3.403-2.98-1.91 0-3.32.946-3.511 2.382h1.444c.2-.706.946-1.112 2.017-1.112 1.337 0 2.025.606 2.025 1.71v.813l-2.581.158c-2.084.124-3.262 1.046-3.262 2.648 0 1.635 1.286 2.664 3.021 2.664zm.266-1.253c-1.038 0-1.81-.531-1.81-1.444 0-.897.598-1.37 1.96-1.461l2.406-.158v.822c0 1.278-1.087 2.241-2.556 2.241zm14.028-5.113c-.249-1.594-1.577-2.897-3.752-2.897-2.507 0-4.1 1.809-4.1 4.598 0 2.847 1.602 4.665 4.108 4.665 2.15 0 3.487-1.212 3.744-2.855h-1.444c-.266 1.013-1.104 1.569-2.308 1.569-1.594 0-2.623-1.312-2.623-3.379 0-2.025 1.013-3.312 2.623-3.312 1.287 0 2.075.722 2.308 1.611h1.444zm2.872-5.056v2.316H49.34v1.196h1.444v5.428c0 1.71.739 2.391 2.582 2.391.282 0 .556-.033.838-.083v-1.204a6.008 6.008 0 01-.664.034c-.93 0-1.328-.449-1.328-1.503v-5.063h1.992v-1.196h-1.992v-2.316h-1.428zm6.325.59a.999.999 0 00.996-.996.999.999 0 00-.996-.996.999.999 0 00-.996.996c0 .548.449.996.996.996zm-.714 10.675h1.428v-8.949h-1.428v8.949zm11.456-8.949h-1.528l-2.448 7.371h-.133l-2.449-7.371h-1.527l3.312 8.949h1.46l3.313-8.949zm7.504 6.633c-.374.788-1.154 1.212-2.308 1.212-1.52 0-2.507-1.121-2.582-2.889v-.066h6.433v-.548c0-2.781-1.469-4.499-3.884-4.499-2.457 0-4.034 1.826-4.034 4.64 0 2.83 1.552 4.623 4.034 4.623 1.959 0 3.353-.946 3.768-2.473h-1.427zm-2.358-5.529c1.42 0 2.366 1.046 2.399 2.632h-4.93c.107-1.586 1.103-2.632 2.531-2.632zm6.143 7.845h1.427v-5.296c0-1.569.922-2.524 2.35-2.524 1.427 0 2.108.764 2.108 2.374v5.446h1.428v-5.794c0-2.125-1.121-3.312-3.13-3.312-1.37 0-2.241.581-2.69 1.569h-.132v-1.412H79.14v8.949zm15.854-2.316c-.373.788-1.154 1.212-2.308 1.212-1.519 0-2.506-1.121-2.581-2.889v-.066h6.433v-.548c0-2.781-1.47-4.499-3.885-4.499-2.457 0-4.034 1.826-4.034 4.64 0 2.83 1.552 4.623 4.034 4.623 1.96 0 3.354-.946 3.769-2.473h-1.428zm-2.357-5.529c1.42 0 2.365 1.046 2.399 2.632h-4.931c.108-1.586 1.104-2.632 2.532-2.632zm5.935 1.345c0 1.295.763 2.017 2.44 2.424l1.536.373c.954.233 1.419.648 1.419 1.262 0 .822-.863 1.395-2.067 1.395-1.145 0-1.859-.482-2.1-1.237h-1.469c.158 1.486 1.527 2.44 3.52 2.44 2.033 0 3.586-1.104 3.586-2.706 0-1.286-.814-2.017-2.499-2.424l-1.378-.332c-1.054-.257-1.552-.639-1.552-1.253 0-.797.83-1.336 1.892-1.336 1.079 0 1.777.473 1.968 1.187h1.411c-.191-1.47-1.494-2.399-3.37-2.399-1.901 0-3.337 1.12-3.337 2.606zm8.732 0c0 1.295.764 2.017 2.441 2.424l1.535.373c.955.233 1.42.648 1.42 1.262 0 .822-.864 1.395-2.067 1.395-1.146 0-1.86-.482-2.1-1.237h-1.47c.158 1.486 1.528 2.44 3.52 2.44 2.034 0 3.586-1.104 3.586-2.706 0-1.286-.814-2.017-2.499-2.424l-1.378-.332c-1.054-.257-1.552-.639-1.552-1.253 0-.797.83-1.336 1.893-1.336 1.079 0 1.776.473 1.967 1.187h1.411c-.191-1.47-1.494-2.399-3.37-2.399-1.901 0-3.337 1.12-3.337 2.606z" fill="#7D8893"/><g clip-path="url(#clip2)"><path d="M236.831 163.137c2.457 0 4.2-1.718 4.2-4.125 0-2.324-1.652-4.01-3.935-4.01-1.428 0-2.598.681-3.187 1.843h-.133c.05-3.254 1.212-4.914 3.204-4.914 1.212 0 2.092.623 2.341 1.735h1.535c-.307-1.859-1.743-3.063-3.926-3.063-2.83 0-4.607 2.357-4.607 6.475 0 4.034 1.901 6.059 4.508 6.059zm-.017-1.311c-1.536 0-2.706-1.212-2.706-2.814 0-1.586 1.137-2.715 2.723-2.715 1.585 0 2.689 1.129 2.689 2.765 0 1.568-1.17 2.764-2.706 2.764z" fill="#6E7CFB"/></g></g><g clip-path="url(#clip3)"><path d="M.955 194.529c.157 2.066 1.909 3.411 4.449 3.411 2.74 0 4.474-1.403 4.474-3.602 0-1.76-.996-2.723-3.478-3.346l-1.254-.332c-1.651-.423-2.307-.962-2.307-1.9 0-1.212 1.054-2.009 2.648-2.009 1.494 0 2.507.73 2.714 1.959h1.503c-.125-1.934-1.851-3.312-4.167-3.312-2.532 0-4.234 1.378-4.234 3.411 0 1.702.938 2.681 3.105 3.229l1.535.399c1.652.415 2.4 1.062 2.4 2.083 0 1.187-1.188 2.059-2.798 2.059-1.702 0-2.897-.797-3.08-2.05H.955zm11.978-7.546a.999.999 0 00.996-.996.999.999 0 00-.996-.996.999.999 0 00-.996.996c0 .548.448.996.996.996zm-.714 10.675h1.428v-8.948h-1.428v8.948zm4.15 0h1.428v-5.296c0-1.569.921-2.523 2.349-2.523 1.428 0 2.108.763 2.108 2.374v5.445h1.428v-5.794c0-2.125-1.12-3.312-3.13-3.312-1.369 0-2.24.581-2.689 1.569h-.133v-1.411h-1.36v8.948zm17.332-6.209c-.249-1.594-1.577-2.897-3.752-2.897-2.507 0-4.1 1.81-4.1 4.599 0 2.847 1.602 4.665 4.108 4.665 2.15 0 3.487-1.212 3.744-2.856h-1.444c-.266 1.013-1.104 1.569-2.308 1.569-1.594 0-2.623-1.311-2.623-3.378 0-2.026 1.013-3.312 2.623-3.312 1.287 0 2.075.722 2.308 1.61H33.7zm8.035 3.893c-.373.789-1.153 1.212-2.307 1.212-1.52 0-2.507-1.121-2.582-2.889v-.066h6.433v-.548c0-2.781-1.469-4.499-3.885-4.499-2.457 0-4.034 1.826-4.034 4.64 0 2.831 1.553 4.624 4.035 4.624 1.959 0 3.353-.947 3.768-2.474h-1.428zm-2.357-5.528c1.42 0 2.366 1.046 2.399 2.631h-4.93c.107-1.585 1.103-2.631 2.53-2.631zm6.143 7.844h1.427v-5.545c0-1.262.988-2.175 2.35-2.175.282 0 .796.05.912.083v-1.427a6.102 6.102 0 00-.713-.042c-1.188 0-2.217.614-2.482 1.486h-.133v-1.328h-1.361v8.948zm7.221-10.675a.999.999 0 00.996-.996.999.999 0 00-.996-.996.999.999 0 00-.996.996c0 .548.448.996.996.996zm-.714 10.675h1.428v-8.948h-1.428v8.948zm4.748-11.264v2.316h-1.444v1.195h1.444v5.429c0 1.71.74 2.39 2.582 2.39.282 0 .556-.033.838-.083v-1.203a6.006 6.006 0 01-.664.033c-.93 0-1.328-.448-1.328-1.502v-5.064h1.992v-1.195h-1.992v-2.316h-1.428zm6.342 14.501c1.586 0 2.3-.614 3.063-2.689l3.495-9.496h-1.52l-2.448 7.363h-.133l-2.457-7.363h-1.544l3.312 8.956-.166.532c-.373 1.079-.822 1.469-1.643 1.469-.2 0-.424-.009-.598-.042v1.22c.2.034.448.05.64.05z" fill="#7D8893"/><g clip-path="url(#clip4)"><path d="M236.673 197.986c2.54 0 4.316-1.436 4.316-3.486 0-1.561-.988-2.773-2.49-3.055v-.133c1.237-.34 2.001-1.361 2.001-2.673 0-1.868-1.586-3.196-3.827-3.196-2.241 0-3.827 1.328-3.827 3.196 0 1.303.78 2.341 2.001 2.673v.133c-1.503.282-2.491 1.494-2.491 3.055 0 2.05 1.777 3.486 4.317 3.486zm0-7.172c-1.411 0-2.358-.814-2.358-2.034 0-1.237.938-2.058 2.358-2.058 1.419 0 2.357.821 2.357 2.058 0 1.22-.946 2.034-2.357 2.034zm0 5.894c-1.66 0-2.806-.947-2.806-2.316 0-1.37 1.146-2.316 2.806-2.316 1.66 0 2.806.946 2.806 2.316 0 1.369-1.146 2.316-2.806 2.316z" fill="#6E7CFB"/></g></g><g clip-path="url(#clip5)"><path d="M.955 229.369c.157 2.067 1.909 3.412 4.449 3.412 2.74 0 4.474-1.403 4.474-3.603 0-1.76-.996-2.723-3.478-3.345l-1.254-.332c-1.651-.424-2.307-.963-2.307-1.901 0-1.212 1.054-2.009 2.648-2.009 1.494 0 2.507.731 2.714 1.959h1.503c-.125-1.934-1.851-3.312-4.167-3.312-2.532 0-4.234 1.378-4.234 3.412 0 1.701.938 2.681 3.105 3.229l1.535.398c1.652.415 2.4 1.063 2.4 2.084 0 1.187-1.188 2.058-2.798 2.058-1.702 0-2.897-.797-3.08-2.05H.955zm11.314 3.129h1.427v-5.296c0-1.51.88-2.523 2.482-2.523 1.353 0 2.067.789 2.067 2.374v5.445h1.428v-5.794c0-2.1-1.195-3.312-3.088-3.312-1.37 0-2.308.581-2.756 1.569h-.133v-4.964H12.27v12.501zm12.5.158c1.196 0 2.175-.523 2.756-1.478h.133v1.32h1.361v-6.126c0-1.859-1.22-2.98-3.403-2.98-1.909 0-3.32.947-3.511 2.383h1.444c.2-.706.947-1.113 2.017-1.113 1.337 0 2.026.606 2.026 1.71v.814l-2.582.158c-2.083.124-3.262 1.045-3.262 2.647 0 1.636 1.287 2.665 3.021 2.665zm.266-1.253c-1.037 0-1.81-.532-1.81-1.445 0-.896.598-1.369 1.96-1.461l2.407-.157v.821c0 1.279-1.088 2.242-2.557 2.242zm6.624 1.095h1.428v-5.545c0-1.261.988-2.174 2.349-2.174.282 0 .797.049.913.083v-1.428a6.102 6.102 0 00-.714-.042c-1.187 0-2.216.615-2.482 1.486h-.133v-1.328h-1.36v8.948zm12.153-2.316c-.374.789-1.154 1.212-2.308 1.212-1.52 0-2.507-1.12-2.582-2.888v-.067h6.434v-.548c0-2.78-1.47-4.499-3.885-4.499-2.457 0-4.034 1.827-4.034 4.64 0 2.831 1.552 4.624 4.034 4.624 1.959 0 3.353-.946 3.768-2.474h-1.427zm-2.358-5.528c1.42 0 2.366 1.046 2.399 2.631h-4.93c.107-1.585 1.103-2.631 2.531-2.631zm9.455 8.002c1.236 0 2.299-.589 2.864-1.585h.132v1.427h1.362v-12.501h-1.428v4.964h-.125c-.506-.979-1.56-1.569-2.805-1.569-2.275 0-3.76 1.827-3.76 4.632 0 2.814 1.469 4.632 3.76 4.632zm.332-7.977c1.618 0 2.631 1.295 2.631 3.345 0 2.067-1.004 3.345-2.631 3.345-1.636 0-2.615-1.253-2.615-3.345 0-2.083.988-3.345 2.615-3.345zm12.343-2.856a.999.999 0 00.996-.996 1 1 0 00-.996-.996 1 1 0 00-.996.996c0 .548.448.996.996.996zm-.714 10.675h1.428v-8.948H62.87v8.948zm4.15 0h1.428v-5.296c0-1.568.922-2.523 2.35-2.523 1.427 0 2.108.764 2.108 2.374v5.445h1.427v-5.794c0-2.125-1.12-3.312-3.129-3.312-1.37 0-2.241.581-2.69 1.569h-.132v-1.411H67.02v8.948zm10.526-11.264v2.316h-1.444v1.195h1.444v5.429c0 1.71.739 2.391 2.581 2.391.283 0 .557-.034.839-.083v-1.204a6.003 6.003 0 01-.664.033c-.93 0-1.328-.448-1.328-1.502v-5.064h1.992v-1.195h-1.992v-2.316h-1.428zm11.372 8.948c-.374.789-1.154 1.212-2.308 1.212-1.519 0-2.507-1.12-2.581-2.888v-.067h6.433v-.548c0-2.78-1.47-4.499-3.885-4.499-2.457 0-4.034 1.827-4.034 4.64 0 2.831 1.552 4.624 4.034 4.624 1.96 0 3.354-.946 3.769-2.474h-1.428zm-2.358-5.528c1.42 0 2.366 1.046 2.4 2.631h-4.931c.108-1.585 1.104-2.631 2.532-2.631zm6.143 7.844h1.428v-5.545c0-1.261.988-2.174 2.349-2.174.282 0 .797.049.913.083v-1.428a6.105 6.105 0 00-.714-.042c-1.187 0-2.216.615-2.482 1.486h-.133v-1.328h-1.36v8.948zm12.152-2.316c-.373.789-1.153 1.212-2.307 1.212-1.519 0-2.507-1.12-2.582-2.888v-.067h6.433v-.548c0-2.78-1.469-4.499-3.884-4.499-2.457 0-4.034 1.827-4.034 4.64 0 2.831 1.552 4.624 4.034 4.624 1.959 0 3.353-.946 3.768-2.474h-1.428zm-2.357-5.528c1.419 0 2.366 1.046 2.399 2.631h-4.93c.107-1.585 1.103-2.631 2.531-2.631zm5.935 1.345c0 1.295.764 2.017 2.441 2.424l1.535.373c.955.233 1.42.648 1.42 1.262 0 .822-.864 1.394-2.067 1.394-1.146 0-1.86-.481-2.1-1.236h-1.47c.158 1.485 1.528 2.44 3.52 2.44 2.034 0 3.586-1.104 3.586-2.706 0-1.287-.814-2.017-2.499-2.424l-1.378-.332c-1.054-.257-1.552-.639-1.552-1.253 0-.797.83-1.337 1.893-1.337 1.079 0 1.776.473 1.967 1.187h1.411c-.191-1.469-1.494-2.399-3.37-2.399-1.901 0-3.337 1.121-3.337 2.607zm9.621-4.765v2.316h-1.445v1.195h1.445v5.429c0 1.71.738 2.391 2.581 2.391.282 0 .556-.034.839-.083v-1.204a6.012 6.012 0 01-.664.033c-.93 0-1.329-.448-1.329-1.502v-5.064h1.993v-1.195h-1.993v-2.316h-1.427z" fill="#7D8893"/><g clip-path="url(#clip6)"><path d="M236.831 232.818c2.457 0 4.2-1.718 4.2-4.126 0-2.324-1.652-4.009-3.935-4.009-1.428 0-2.598.681-3.187 1.843h-.133c.05-3.254 1.212-4.914 3.204-4.914 1.212 0 2.092.622 2.341 1.735h1.535c-.307-1.86-1.743-3.063-3.926-3.063-2.83 0-4.607 2.357-4.607 6.474 0 4.034 1.901 6.06 4.508 6.06zm-.017-1.312c-1.536 0-2.706-1.212-2.706-2.814 0-1.585 1.137-2.714 2.723-2.714 1.585 0 2.689 1.129 2.689 2.764 0 1.569-1.17 2.764-2.706 2.764z" fill="#6E7CFB"/></g></g><g clip-path="url(#clip7)"><path d="M3.021 267.339v-11.978H1.527v11.978h1.494zm2.873 0H7.32v-5.296c0-1.569.922-2.524 2.35-2.524 1.427 0 2.108.764 2.108 2.374v5.446h1.428v-5.794c0-2.125-1.121-3.312-3.13-3.312-1.37 0-2.241.581-2.69 1.569h-.132v-1.412H5.894v8.949zm10.525-11.265v2.316h-1.444v1.196h1.444v5.428c0 1.71.739 2.391 2.581 2.391.283 0 .557-.033.839-.083v-1.204a6.01 6.01 0 01-.664.034c-.93 0-1.328-.449-1.328-1.503v-5.063h1.992v-1.196h-1.992v-2.316h-1.428zm11.372 8.949c-.373.788-1.154 1.212-2.308 1.212-1.519 0-2.506-1.121-2.581-2.889v-.066h6.433v-.548c0-2.781-1.47-4.499-3.885-4.499-2.457 0-4.034 1.826-4.034 4.64 0 2.83 1.552 4.623 4.034 4.623 1.96 0 3.354-.946 3.769-2.473H27.79zm-2.357-5.529c1.419 0 2.365 1.046 2.398 2.632h-4.93c.108-1.586 1.104-2.632 2.532-2.632zm6.225 7.845h1.428v-12.501h-1.428v12.501zm10.127-2.316c-.373.788-1.154 1.212-2.308 1.212-1.519 0-2.506-1.121-2.581-2.889v-.066h6.433v-.548c0-2.781-1.47-4.499-3.885-4.499-2.457 0-4.034 1.826-4.034 4.64 0 2.83 1.552 4.623 4.034 4.623 1.96 0 3.354-.946 3.769-2.473h-1.428zm-2.357-5.529c1.42 0 2.365 1.046 2.399 2.632h-4.931c.108-1.586 1.104-2.632 2.532-2.632zm9.828 11.281c2.44 0 3.984-1.278 3.984-3.279v-9.106H51.88v1.42h-.133c-.515-.963-1.619-1.577-2.872-1.577-2.3 0-3.752 1.818-3.752 4.499 0 2.681 1.436 4.474 3.752 4.474 1.228 0 2.241-.556 2.806-1.544h.133v1.76c0 1.319-.955 2.108-2.557 2.108-1.287 0-2.084-.473-2.241-1.204h-1.511c.216 1.478 1.594 2.449 3.752 2.449zm-.067-4.831c-1.66 0-2.59-1.262-2.59-3.212 0-1.951.93-3.213 2.59-3.213 1.652 0 2.657 1.262 2.657 3.213 0 1.95-.996 3.212-2.657 3.212zm12.667-.921c-.373.788-1.153 1.212-2.307 1.212-1.52 0-2.507-1.121-2.582-2.889v-.066h6.433v-.548c0-2.781-1.469-4.499-3.884-4.499-2.457 0-4.035 1.826-4.035 4.64 0 2.83 1.553 4.623 4.035 4.623 1.959 0 3.353-.946 3.768-2.473h-1.428zm-2.357-5.529c1.42 0 2.366 1.046 2.399 2.632h-4.93c.107-1.586 1.103-2.632 2.531-2.632zm6.143 7.845h1.427v-5.296c0-1.569.922-2.524 2.35-2.524 1.427 0 2.108.764 2.108 2.374v5.446h1.428v-5.794c0-2.125-1.121-3.312-3.13-3.312-1.37 0-2.241.581-2.69 1.569h-.132v-1.412h-1.361v8.949zm17.332-6.209c-.25-1.594-1.578-2.897-3.752-2.897-2.507 0-4.1 1.809-4.1 4.598 0 2.847 1.601 4.665 4.108 4.665 2.15 0 3.486-1.212 3.744-2.855H81.53c-.265 1.013-1.104 1.569-2.307 1.569-1.594 0-2.623-1.312-2.623-3.379 0-2.025 1.012-3.312 2.623-3.312 1.286 0 2.075.722 2.307 1.611h1.445zm8.035 3.893c-.374.788-1.154 1.212-2.308 1.212-1.519 0-2.507-1.121-2.581-2.889v-.066h6.433v-.548c0-2.781-1.47-4.499-3.885-4.499-2.457 0-4.034 1.826-4.034 4.64 0 2.83 1.552 4.623 4.034 4.623 1.959 0 3.353-.946 3.769-2.473H91.01zm-2.358-5.529c1.42 0 2.366 1.046 2.4 2.632H86.12c.108-1.586 1.104-2.632 2.531-2.632z" fill="#7D8893"/><g clip-path="url(#clip8)"><path d="M236.673 267.667c2.54 0 4.316-1.437 4.316-3.487 0-1.56-.988-2.772-2.49-3.055v-.132c1.237-.341 2.001-1.362 2.001-2.673 0-1.868-1.586-3.196-3.827-3.196-2.241 0-3.827 1.328-3.827 3.196 0 1.303.78 2.341 2.001 2.673v.132c-1.503.283-2.491 1.495-2.491 3.055 0 2.05 1.777 3.487 4.317 3.487zm0-7.172c-1.411 0-2.358-.814-2.358-2.034 0-1.237.938-2.059 2.358-2.059 1.419 0 2.357.822 2.357 2.059 0 1.22-.946 2.034-2.357 2.034zm0 5.893c-1.66 0-2.806-.946-2.806-2.316 0-1.369 1.146-2.316 2.806-2.316 1.66 0 2.806.947 2.806 2.316 0 1.37-1.146 2.316-2.806 2.316z" fill="#6E7CFB"/></g></g><g clip-path="url(#clip9)"><path d="M9.313 302.179h1.57l-4.417-11.978H4.99L.573 302.179h1.569l1.203-3.428H8.11l1.203 3.428zm-3.652-10.044h.133l1.876 5.346H3.785l1.876-5.346zm7.139 10.044h1.427v-5.545c0-1.262.905-2.274 2.076-2.274 1.129 0 1.867.68 1.867 1.743v6.076h1.428v-5.752c0-1.138.83-2.067 2.075-2.067 1.262 0 1.885.647 1.885 1.967v5.852h1.427v-6.184c0-1.876-1.02-2.922-2.847-2.922-1.237 0-2.258.623-2.74 1.569h-.132c-.415-.93-1.262-1.569-2.473-1.569-1.196 0-2.092.573-2.5 1.569h-.132v-1.411H12.8v8.948zm19.241.158c2.266 0 3.752-1.835 3.752-4.632 0-2.814-1.478-4.632-3.752-4.632-1.228 0-2.316.606-2.806 1.569h-.133v-4.964h-1.427v12.501h1.361v-1.428h.133c.564.996 1.627 1.586 2.872 1.586zm-.332-7.977c1.635 0 2.606 1.253 2.606 3.345 0 2.092-.97 3.345-2.606 3.345-1.627 0-2.64-1.278-2.64-3.345s1.013-3.345 2.64-3.345zm7.072-2.856a.999.999 0 00.996-.996.999.999 0 00-.996-.996.999.999 0 00-.996.996c0 .548.448.996.996.996zm-.714 10.675h1.428v-8.948h-1.428v8.948zm4.748-11.264v2.316h-1.444v1.195h1.444v5.429c0 1.71.74 2.39 2.582 2.39.282 0 .556-.033.838-.083v-1.203a6.006 6.006 0 01-.664.033c-.93 0-1.328-.448-1.328-1.502v-5.064h1.992v-1.195h-1.992v-2.316h-1.428zm6.326.589a.999.999 0 00.996-.996.999.999 0 00-.996-.996.999.999 0 00-.996.996c0 .548.448.996.996.996zm-.714 10.675h1.428v-8.948h-1.428v8.948zm7.827.158c2.549 0 4.126-1.76 4.126-4.632 0-2.881-1.577-4.632-4.126-4.632-2.548 0-4.125 1.751-4.125 4.632 0 2.872 1.577 4.632 4.125 4.632zm0-1.287c-1.693 0-2.648-1.228-2.648-3.345 0-2.125.955-3.345 2.648-3.345 1.694 0 2.648 1.22 2.648 3.345 0 2.117-.954 3.345-2.648 3.345zm6.367 1.129h1.428v-5.296c0-1.569.921-2.523 2.349-2.523 1.428 0 2.108.763 2.108 2.374v5.445h1.428v-5.794c0-2.125-1.12-3.312-3.13-3.312-1.369 0-2.24.581-2.689 1.569h-.133v-1.411h-1.36v8.948zm9.72-6.5c0 1.295.764 2.018 2.44 2.424l1.536.374c.955.232 1.42.647 1.42 1.262 0 .821-.863 1.394-2.067 1.394-1.146 0-1.86-.481-2.1-1.237H72.1c.158 1.486 1.528 2.441 3.52 2.441 2.034 0 3.586-1.104 3.586-2.706 0-1.287-.813-2.017-2.499-2.424l-1.377-.332c-1.055-.258-1.553-.639-1.553-1.254 0-.797.83-1.336 1.893-1.336 1.079 0 1.776.473 1.967 1.187h1.411c-.19-1.469-1.494-2.399-3.37-2.399-1.9 0-3.337 1.121-3.337 2.606z" fill="#7D8893"/><g clip-path="url(#clip10)"><path d="M227.658 302.225h1.494v-11.978h-1.485l-3.188 2.291v1.577l3.046-2.208h.133v10.318zm9.098.282c2.689 0 4.233-2.275 4.233-6.251 0-3.967-1.569-6.292-4.233-6.292-2.681 0-4.25 2.316-4.25 6.267 0 3.985 1.552 6.276 4.25 6.276zm0-1.303c-1.768 0-2.748-1.768-2.748-4.973 0-3.162.996-4.955 2.748-4.955 1.751 0 2.731 1.776 2.731 4.955 0 3.213-.963 4.973-2.731 4.973z" fill="#6E7CFB"/></g></g><g clip-path="url(#clip11)"><path d="M3.021 337.019v-5.188h5.305v-1.328H3.02v-4.117H8.8v-1.345H1.527v11.978h1.494zm15.29-8.948h-1.427v5.296c0 1.569-.864 2.507-2.44 2.507-1.428 0-2.026-.747-2.026-2.358v-5.445H10.99v5.794c0 2.117 1.046 3.312 3.055 3.312 1.37 0 2.324-.564 2.772-1.561h.133v1.403h1.361v-8.948zm2.69 8.948h1.428v-5.296c0-1.568.921-2.523 2.349-2.523 1.428 0 2.108.764 2.108 2.374v5.445h1.428v-5.794c0-2.125-1.12-3.312-3.13-3.312-1.37 0-2.24.581-2.689 1.569h-.133v-1.411h-1.361v8.948z" fill="#7D8893"/><g clip-path="url(#clip12)"><path d="M227.658 337.065h1.494v-11.978h-1.485l-3.188 2.291v1.577l3.046-2.208h.133v10.318zm9.098.282c2.689 0 4.233-2.274 4.233-6.25 0-3.968-1.569-6.292-4.233-6.292-2.681 0-4.25 2.316-4.25 6.267 0 3.984 1.552 6.275 4.25 6.275zm0-1.303c-1.768 0-2.748-1.768-2.748-4.972 0-3.163.996-4.956 2.748-4.956 1.751 0 2.731 1.777 2.731 4.956 0 3.212-.963 4.972-2.731 4.972z" fill="#6E7CFB"/></g></g></g><rect x="288.019" y="136.044" width="10" height="200" rx="2" fill="url(#paint0_linear)"/><path d="M304.201 207.915h27.65a2 2 0 012 2v13.154a2 2 0 01-2 2h-27.65l-10.041-7.787a1 1 0 010-1.58l10.041-7.787z" fill="#898989"/><path d="M308.129 220.274c1.968 0 3.117-1.623 3.117-4.424 0-2.807-1.166-4.442-3.117-4.442-1.963 0-3.129 1.635-3.129 4.424 0 2.813 1.154 4.442 3.129 4.442zm0-1.09c-1.149 0-1.805-1.172-1.805-3.352 0-2.15.668-3.328 1.805-3.328 1.136 0 1.793 1.166 1.793 3.328 0 2.186-.645 3.352-1.793 3.352zm5.086 3.082l.972-3.44h-1.318l-.545 3.44h.891zm5.461-1.992c1.968 0 3.117-1.623 3.117-4.424 0-2.807-1.166-4.442-3.117-4.442-1.963 0-3.129 1.635-3.129 4.424 0 2.813 1.154 4.442 3.129 4.442zm0-1.09c-1.149 0-1.805-1.172-1.805-3.352 0-2.15.668-3.328 1.805-3.328 1.136 0 1.793 1.166 1.793 3.328 0 2.186-.645 3.352-1.793 3.352zm7.839 1.09c1.881 0 3.182-1.014 3.182-2.473 0-1.09-.715-1.945-1.799-2.15v-.1c.891-.228 1.453-.949 1.453-1.869 0-1.33-1.177-2.274-2.836-2.274-1.658 0-2.836.944-2.836 2.274 0 .914.575 1.646 1.454 1.869v.1c-1.084.216-1.793 1.072-1.793 2.156 0 1.459 1.295 2.467 3.175 2.467zm0-5.127c-.92 0-1.541-.539-1.541-1.342 0-.815.616-1.359 1.541-1.359.926 0 1.547.544 1.547 1.359 0 .803-.627 1.342-1.547 1.342zm0 4.084c-1.084 0-1.834-.627-1.834-1.53 0-.902.75-1.523 1.834-1.523s1.834.621 1.834 1.523c0 .903-.75 1.53-1.834 1.53z" fill="#EFF0F3"/><path d="M273.305 100v-9.864h-1.231V100h1.231zm2.365 0h1.176v-4.361c0-1.292.758-2.078 1.934-2.078s1.737.628 1.737 1.955V100h1.175v-4.772c0-1.75-.922-2.727-2.577-2.727-1.128 0-1.845.478-2.215 1.292h-.109v-1.162h-1.121V100zm8.668-9.276v1.907h-1.19v.984h1.19v4.47c0 1.41.608 1.97 2.126 1.97.232 0 .458-.028.69-.069v-.99a4.96 4.96 0 01-.547.026c-.765 0-1.093-.369-1.093-1.237v-4.17h1.64v-.984h-1.64v-1.907h-1.176zm9.365 7.369c-.307.65-.95.998-1.9.998-1.251 0-2.065-.923-2.126-2.38v-.054h5.298v-.45c0-2.291-1.21-3.706-3.2-3.706-2.023 0-3.322 1.504-3.322 3.821 0 2.331 1.278 3.808 3.322 3.808 1.614 0 2.762-.78 3.104-2.037h-1.176zm-1.941-4.553c1.169 0 1.948.861 1.975 2.167h-4.06c.089-1.306.909-2.167 2.085-2.167zm5.058 6.46h1.176v-4.566c0-1.04.814-1.791 1.935-1.791.232 0 .656.04.752.068v-1.176a5.044 5.044 0 00-.588-.034c-.978 0-1.825.506-2.044 1.224h-.11V92.63h-1.121V100zm10.008-1.907c-.307.65-.95.998-1.9.998-1.251 0-2.065-.923-2.126-2.38v-.054h5.298v-.45c0-2.291-1.21-3.706-3.2-3.706-2.023 0-3.322 1.504-3.322 3.821 0 2.331 1.278 3.808 3.322 3.808 1.614 0 2.762-.78 3.104-2.037h-1.176zm-1.941-4.553c1.169 0 1.948.861 1.975 2.167h-4.06c.089-1.306.909-2.167 2.085-2.167zm4.887 1.107c0 1.067.629 1.662 2.01 1.997l1.265.307c.786.192 1.169.533 1.169 1.04 0 .676-.711 1.148-1.702 1.148-.944 0-1.532-.397-1.73-1.019h-1.21c.13 1.224 1.258 2.01 2.899 2.01 1.674 0 2.953-.91 2.953-2.229 0-1.06-.67-1.66-2.058-1.996l-1.135-.273c-.868-.212-1.278-.526-1.278-1.032 0-.657.684-1.101 1.559-1.101.888 0 1.463.39 1.62.978h1.162c-.157-1.21-1.231-1.976-2.776-1.976-1.565 0-2.748.923-2.748 2.146zm7.923-3.923v1.907h-1.189v.984h1.189v4.47c0 1.41.609 1.97 2.126 1.97.233 0 .458-.028.691-.069v-.99c-.219.02-.335.026-.547.026-.766 0-1.094-.369-1.094-1.237v-4.17h1.641v-.984h-1.641v-1.907h-1.176zm-50.292 26.508c2.099 0 3.657-1.169 3.986-2.98h-1.251c-.315 1.142-1.361 1.846-2.735 1.846-1.9 0-3.09-1.552-3.09-4.027 0-2.474 1.19-4.033 3.083-4.033 1.361 0 2.414.8 2.742 2.071h1.251c-.294-1.9-1.914-3.206-3.993-3.206-2.679 0-4.347 1.983-4.347 5.168 0 3.179 1.675 5.161 4.354 5.161zm8.928-.102c2.099 0 3.397-1.449 3.397-3.815 0-2.372-1.298-3.814-3.397-3.814-2.099 0-3.397 1.442-3.397 3.814 0 2.366 1.298 3.815 3.397 3.815zm0-1.06c-1.395 0-2.181-1.011-2.181-2.755 0-1.75.786-2.754 2.181-2.754s2.181 1.004 2.181 2.754c0 1.744-.786 2.755-2.181 2.755zm5.243.93h1.176v-4.566c0-1.039.813-1.791 1.935-1.791.232 0 .656.041.751.068v-1.176a5.15 5.15 0 00-.587-.034c-.978 0-1.826.506-2.044 1.224h-.11v-1.094h-1.121V117zm10.008-1.907c-.308.649-.95.998-1.9.998-1.251 0-2.065-.923-2.126-2.379v-.055h5.297v-.451c0-2.29-1.209-3.705-3.199-3.705-2.023 0-3.322 1.504-3.322 3.821 0 2.331 1.278 3.808 3.322 3.808 1.614 0 2.762-.779 3.104-2.037h-1.176zm-1.941-4.553c1.169 0 1.948.861 1.975 2.167h-4.06c.088-1.306.909-2.167 2.085-2.167zm5.127 6.46h1.175v-10.295h-1.175V117zm5.509.13c.985 0 1.791-.431 2.27-1.217h.109V117h1.121v-5.045c0-1.531-1.005-2.454-2.802-2.454-1.573 0-2.735.779-2.892 1.962h1.189c.164-.581.78-.916 1.662-.916 1.1 0 1.668.499 1.668 1.408v.67l-2.126.13c-1.716.102-2.687.861-2.687 2.181 0 1.346 1.06 2.194 2.488 2.194zm.219-1.032c-.854 0-1.49-.438-1.49-1.19 0-.738.492-1.128 1.613-1.203l1.983-.13v.677c0 1.053-.896 1.846-2.106 1.846zm5.947-8.374v1.907h-1.189v.984h1.189v4.471c0 1.408.609 1.969 2.126 1.969.233 0 .458-.028.691-.069v-.991a4.85 4.85 0 01-.547.027c-.766 0-1.094-.369-1.094-1.237v-4.17h1.641v-.984h-1.641v-1.907h-1.176zm5.209.485a.823.823 0 00.821-.82.824.824 0 00-.821-.821c-.451 0-.82.37-.82.821 0 .451.369.82.82.82zm-.588 8.791h1.176v-7.369h-1.176V117zm6.447.13c2.098 0 3.397-1.449 3.397-3.815 0-2.372-1.299-3.814-3.397-3.814-2.099 0-3.398 1.442-3.398 3.814 0 2.366 1.299 3.815 3.398 3.815zm0-1.06c-1.395 0-2.181-1.011-2.181-2.755 0-1.75.786-2.754 2.181-2.754 1.394 0 2.18 1.004 2.18 2.754 0 1.744-.786 2.755-2.18 2.755zm5.243.93h1.176v-4.361c0-1.292.758-2.078 1.934-2.078s1.737.628 1.737 1.955V117h1.175v-4.771c0-1.75-.923-2.728-2.577-2.728-1.128 0-1.846.478-2.215 1.292h-.109v-1.162h-1.121V117zM282.052 235.837c1.89 0 2.975-1.598 2.975-4.392 0-2.788-1.103-4.421-2.975-4.421-1.884 0-2.986 1.627-2.986 4.403 0 2.8 1.09 4.41 2.986 4.41zm0-.916c-1.242 0-1.931-1.242-1.931-3.494 0-2.222.7-3.482 1.931-3.482s1.919 1.249 1.919 3.482c0 2.258-.677 3.494-1.919 3.494zM281.568 147h1.05v-8.417h-1.044l-2.24 1.61v1.109l2.141-1.552h.093V147zM277.687 337.158v-.951h-3.826v.951h3.826zm3.856 2.91h1.05v-8.416h-1.045l-2.239 1.61v1.108l2.14-1.552h.094v7.25z" fill="#A7B0BA"/><g clip-path="url(#clip13)"><path d="M344 5a5 5 0 015-5h238a5 5 0 015 5v88a5 5 0 01-5 5H349a5 5 0 01-5-5V5z" fill="#fff"/><path d="M385.341 59.295l.072.29.29.072 7.662 1.916a10.726 10.726 0 018.137 10.423c0 .28-.227.506-.502.506h-46a.503.503 0 01-.502-.502c0-4.944 3.344-9.229 8.135-10.427 0 0 0 0 0 0l7.662-1.916.289-.073.073-.29.442-1.765.131-.523-.532-.089c-5.245-.876-7.881-2.442-7.958-2.488a.504.504 0 01-.243-.404.508.508 0 01.202-.427h0l.004-.004c.171-.13 3.795-3.242 3.795-13.594 0-10.913 7.983-14.502 11.502-14.502 1.417 0 2.339.15 3.067.443.723.291 1.297.74 1.997 1.417l.145.14H384c.898 0 1.667.244 2.325.723.663.482 1.241 1.222 1.716 2.253.957 2.073 1.461 5.237 1.461 9.526 0 10.27 3.566 13.412 3.797 13.597a.517.517 0 01.196.432.502.502 0 01-.238.401h0c-.091.053-2.754 1.607-7.958 2.483l-.53.09.13.522.442 1.77z" fill="#FFBC58" fill-opacity=".5" stroke="#FBA21C" stroke-width=".995"/><path fill="#FFBC58" fill-opacity=".4" d="M412 0h180v98H412z"/><path d="M425.246 23v-3.865h3.994v-1.626h-3.994v-2.634h4.375v-1.694h-6.43V23h2.055zm10.928-2.116c-.211.51-.748.796-1.531.796-1.034 0-1.687-.715-1.715-1.858v-.102h5.152v-.592c0-2.368-1.307-3.783-3.518-3.783-2.232 0-3.607 1.51-3.607 3.946 0 2.423 1.347 3.866 3.634 3.866 1.837 0 3.137-.878 3.429-2.273h-1.844zm-1.606-4.063c.926 0 1.525.64 1.565 1.667h-3.198c.068-1.007.715-1.667 1.633-1.667zM439.706 23h1.98v-4.518c0-.858.551-1.484 1.327-1.484.776 0 1.239.463 1.239 1.266V23h1.905v-4.607c0-.81.517-1.395 1.32-1.395.837 0 1.252.45 1.252 1.354V23h1.98v-5.144c0-1.545-.932-2.511-2.429-2.511-1.048 0-1.912.55-2.259 1.381h-.123c-.299-.857-1.02-1.381-2.075-1.381-.987 0-1.769.524-2.076 1.381h-.122v-1.218h-1.919V23zm14.984.116c.973 0 1.79-.415 2.178-1.11h.122V23h1.919v-5.117c0-1.6-1.123-2.538-3.11-2.538-1.885 0-3.157.864-3.286 2.238h1.823c.164-.47.64-.72 1.354-.72.817 0 1.266.373 1.266 1.02v.62l-1.817.108c-1.864.109-2.905.898-2.905 2.252 0 1.368 1.013 2.253 2.456 2.253zm.653-1.45c-.687 0-1.17-.347-1.17-.925 0-.551.415-.871 1.266-.926l1.517-.102v.558c0 .79-.694 1.395-1.613 1.395zm5.58 1.334h1.98V12.643h-1.98V23zm8.894-2.116c-.211.51-.748.796-1.531.796-1.034 0-1.688-.715-1.715-1.858v-.102h5.151v-.592c0-2.368-1.306-3.783-3.518-3.783-2.232 0-3.606 1.51-3.606 3.946 0 2.423 1.347 3.866 3.634 3.866 1.837 0 3.137-.878 3.429-2.273h-1.844zm-1.606-4.063c.926 0 1.524.64 1.565 1.667h-3.198c.068-1.007.714-1.667 1.633-1.667zM423.034 42.95h1.184c0-1.163.783-1.932 1.96-1.932 1.157 0 1.858.776 1.858 1.817 0 .864-.368 1.374-1.62 2.728l-3.32 3.593V50h6.355v-1.102h-4.654v-.11l2.232-2.306c1.769-1.83 2.259-2.647 2.259-3.777 0-1.592-1.313-2.756-3.028-2.756-1.878 0-3.226 1.252-3.226 3.001zM433.867 50h1.225v-9.82h-1.218l-2.613 1.879v1.293l2.498-1.81h.108V50zm8.724 2.654c1.3 0 1.885-.504 2.511-2.205l2.865-7.785h-1.245l-2.008 6.036h-.109l-2.014-6.036h-1.265l2.715 7.343-.136.435c-.307.885-.674 1.205-1.348 1.205-.163 0-.347-.007-.49-.034v1c.164.027.368.04.524.04zm11.527-4.553c-.306.647-.945.994-1.891.994-1.246 0-2.055-.919-2.117-2.368v-.054h5.274v-.45c0-2.28-1.204-3.688-3.184-3.688-2.015 0-3.308 1.497-3.308 3.804 0 2.32 1.273 3.79 3.308 3.79 1.605 0 2.749-.776 3.089-2.027h-1.171zm-1.932-4.532c1.164 0 1.939.858 1.966 2.158h-4.042c.089-1.3.905-2.157 2.076-2.157zm7.077 6.56c.98 0 1.783-.428 2.259-1.211h.109V50h1.116v-5.022c0-1.524-1-2.443-2.79-2.443-1.565 0-2.722.776-2.878 1.953h1.184c.163-.578.775-.912 1.653-.912 1.096 0 1.66.497 1.66 1.402v.667l-2.116.13c-1.708.101-2.674.857-2.674 2.17 0 1.34 1.055 2.184 2.477 2.184zm.218-1.027c-.851 0-1.484-.436-1.484-1.184 0-.735.49-1.123 1.606-1.198l1.973-.13v.674c0 1.048-.891 1.838-2.095 1.838zm5.43.898h1.17v-4.546c0-1.034.81-1.782 1.926-1.782.231 0 .653.04.748.068v-1.17a5.01 5.01 0 00-.585-.035c-.973 0-1.817.504-2.034 1.218h-.109v-1.089h-1.116V50zm5.001-5.328c0 1.061.626 1.653 2.001 1.987l1.259.306c.782.19 1.163.53 1.163 1.034 0 .674-.707 1.144-1.694 1.144-.939 0-1.524-.395-1.722-1.014h-1.204c.129 1.218 1.252 2 2.885 2 1.667 0 2.94-.905 2.94-2.218 0-1.055-.667-1.654-2.048-1.987l-1.13-.272c-.864-.211-1.272-.524-1.272-1.028 0-.653.68-1.095 1.551-1.095.885 0 1.456.387 1.613.973h1.157c-.157-1.205-1.225-1.967-2.763-1.967-1.558 0-2.736.919-2.736 2.137zm8.207 7.825l1.068-3.872h-1.3l-.646 3.872h.878zm-48.783 13.4h-4.859v-3.375h4.607v-1.088h-4.607v-3.15h4.859V57.18h-6.084V67h6.084v-1.102zm8.002-6.233h-1.17v4.342c0 1.286-.708 2.055-2.001 2.055-1.171 0-1.66-.613-1.66-1.933v-4.464h-1.171v4.75c0 1.735.858 2.715 2.504 2.715 1.123 0 1.906-.462 2.273-1.279h.109V67h1.116v-7.336zM439.543 67h1.17v-4.546c0-1.034.81-1.782 1.926-1.782.231 0 .653.04.748.068v-1.17a5.01 5.01 0 00-.585-.035c-.973 0-1.817.504-2.034 1.218h-.109v-1.089h-1.116V67zm8.118.13c2.089 0 3.382-1.443 3.382-3.798 0-2.361-1.293-3.797-3.382-3.797-2.089 0-3.382 1.436-3.382 3.797 0 2.355 1.293 3.797 3.382 3.797zm0-1.055c-1.388 0-2.171-1.008-2.171-2.743 0-1.742.783-2.742 2.171-2.742s2.17 1 2.17 2.742c0 1.735-.782 2.743-2.17 2.743zm8.791-6.54c-1 0-1.878.51-2.347 1.354h-.109v-1.225h-1.116v9.786h1.17v-3.552h.109c.402.775 1.246 1.231 2.293 1.231 1.865 0 3.083-1.504 3.083-3.797 0-2.307-1.211-3.797-3.083-3.797zm-.279 6.54c-1.32 0-2.157-1.062-2.157-2.743 0-1.687.837-2.742 2.164-2.742 1.341 0 2.144 1.027 2.144 2.742s-.803 2.743-2.151 2.743zm10.058-.974c-.306.647-.946.994-1.892.994-1.245 0-2.055-.919-2.116-2.368v-.054h5.274v-.45c0-2.28-1.205-3.688-3.185-3.688-2.014 0-3.307 1.497-3.307 3.804 0 2.32 1.272 3.79 3.307 3.79 1.606 0 2.749-.776 3.089-2.028h-1.17zm-1.933-4.532c1.164 0 1.94.858 1.967 2.158h-4.042c.088-1.3.905-2.157 2.075-2.157zm7.077 6.56c.98 0 1.783-.428 2.26-1.211h.108V67h1.116v-5.022c0-1.524-1-2.443-2.79-2.443-1.565 0-2.721.776-2.878 1.953h1.184c.163-.578.776-.912 1.654-.912 1.095 0 1.66.497 1.66 1.402v.667l-2.116.13c-1.708.101-2.675.857-2.675 2.17 0 1.34 1.055 2.184 2.477 2.184zm.218-1.027c-.851 0-1.483-.436-1.483-1.184 0-.735.49-1.123 1.606-1.198l1.973-.13v.674c0 1.048-.891 1.838-2.096 1.838zm5.43.898h1.171v-4.341c0-1.286.755-2.07 1.925-2.07 1.171 0 1.729.627 1.729 1.947V67h1.17v-4.75c0-1.742-.918-2.715-2.565-2.715-1.123 0-1.837.477-2.205 1.286h-.109v-1.157h-1.116V67zm8.084 2.09l3.539-12.338h-.994l-3.538 12.337h.993zm8.799-1.859c2.089 0 3.64-1.163 3.967-2.966h-1.245c-.313 1.136-1.354 1.837-2.722 1.837-1.892 0-3.076-1.545-3.076-4.008 0-2.464 1.184-4.015 3.069-4.015 1.354 0 2.402.796 2.729 2.062h1.245c-.293-1.892-1.905-3.192-3.974-3.192-2.667 0-4.328 1.974-4.328 5.145 0 3.164 1.667 5.137 4.335 5.137zm7.914-.102c.98 0 1.783-.428 2.259-1.211h.109V67h1.116v-5.022c0-1.524-1-2.443-2.79-2.443-1.565 0-2.722.776-2.879 1.953h1.185c.163-.578.775-.912 1.653-.912 1.096 0 1.66.497 1.66 1.402v.667l-2.116.13c-1.708.101-2.674.857-2.674 2.17 0 1.34 1.055 2.184 2.477 2.184zm.218-1.027c-.851 0-1.484-.436-1.484-1.184 0-.735.49-1.123 1.606-1.198l1.973-.13v.674c0 1.048-.891 1.838-2.095 1.838zm7.471 1.027c.98 0 1.783-.428 2.259-1.211h.109V67h1.116v-5.022c0-1.524-1-2.443-2.79-2.443-1.565 0-2.722.776-2.878 1.953h1.184c.163-.578.776-.912 1.653-.912 1.096 0 1.661.497 1.661 1.402v.667l-2.116.13c-1.708.101-2.675.857-2.675 2.17 0 1.34 1.055 2.184 2.477 2.184zm.218-1.027c-.851 0-1.483-.436-1.483-1.184 0-.735.489-1.123 1.605-1.198l1.974-.13v.674c0 1.048-.892 1.838-2.096 1.838zm11.364-6.438h-1.171v4.342c0 1.286-.707 2.055-2 2.055-1.171 0-1.66-.613-1.66-1.933v-4.464h-1.171v4.75c0 1.735.858 2.715 2.504 2.715 1.123 0 1.906-.462 2.273-1.279h.109V67h1.116v-7.336zm8.274 2.246c-.204-1.306-1.292-2.375-3.075-2.375-2.055 0-3.362 1.484-3.362 3.77 0 2.334 1.314 3.824 3.369 3.824 1.762 0 2.858-.993 3.068-2.34h-1.184c-.217.83-.905 1.286-1.891 1.286-1.307 0-2.151-1.076-2.151-2.77 0-1.66.831-2.715 2.151-2.715 1.054 0 1.701.592 1.891 1.32h1.184zm3.77 5.22c.98 0 1.783-.43 2.26-1.212h.108V67h1.116v-5.022c0-1.524-1-2.443-2.79-2.443-1.565 0-2.721.776-2.878 1.953h1.184c.163-.578.776-.912 1.654-.912 1.095 0 1.66.497 1.66 1.402v.667l-2.116.13c-1.708.101-2.675.857-2.675 2.17 0 1.34 1.055 2.184 2.477 2.184zm.218-1.028c-.851 0-1.483-.436-1.483-1.184 0-.735.49-1.123 1.606-1.198l1.973-.13v.674c0 1.048-.891 1.838-2.096 1.838zm5.26-4.43c0 1.061.626 1.653 2.001 1.987l1.259.306c.782.19 1.163.53 1.163 1.034 0 .674-.707 1.144-1.694 1.144-.939 0-1.524-.395-1.722-1.014h-1.204c.129 1.218 1.252 2 2.885 2 1.667 0 2.94-.905 2.94-2.218 0-1.055-.667-1.654-2.049-1.987l-1.129-.272c-.864-.211-1.273-.524-1.273-1.028 0-.653.681-1.095 1.552-1.095.884 0 1.456.387 1.613.973h1.156c-.156-1.205-1.224-1.967-2.762-1.967-1.559 0-2.736.919-2.736 2.137zm8.077-3.423c.45 0 .817-.367.817-.817a.819.819 0 00-.817-.816.819.819 0 00-.816.816c0 .45.367.817.816.817zM546.105 67h1.171v-7.336h-1.171V67zm5.444.13c.98 0 1.783-.43 2.259-1.212h.109V67h1.116v-5.022c0-1.524-1-2.443-2.79-2.443-1.565 0-2.722.776-2.878 1.953h1.184c.163-.578.775-.912 1.653-.912 1.096 0 1.661.497 1.661 1.402v.667l-2.117.13c-1.708.101-2.674.857-2.674 2.17 0 1.34 1.055 2.184 2.477 2.184zm.218-1.028c-.851 0-1.484-.436-1.484-1.184 0-.735.49-1.123 1.606-1.198l1.974-.13v.674c0 1.048-.892 1.838-2.096 1.838zm5.43.898h1.17v-4.341c0-1.286.756-2.07 1.926-2.07 1.171 0 1.729.627 1.729 1.947V67h1.17v-4.75c0-1.742-.919-2.715-2.565-2.715-1.123 0-1.838.477-2.205 1.286h-.109v-1.157h-1.116V67zm12.555-3.396v-1.109h-4.464v1.11h4.464zM429.635 84h1.286l-3.62-9.82h-1.211L422.47 84h1.286l.986-2.81h3.906l.987 2.81zm-2.994-8.234h.109l1.538 4.382h-3.185l1.538-4.382zM432.493 84h1.17v-4.546c0-1.034.742-1.864 1.702-1.864.925 0 1.531.558 1.531 1.429V84h1.17v-4.716c0-.932.681-1.694 1.701-1.694 1.035 0 1.545.53 1.545 1.613V84h1.17v-5.07c0-1.537-.837-2.395-2.334-2.395-1.014 0-1.851.51-2.245 1.286h-.109c-.34-.762-1.034-1.286-2.028-1.286-.98 0-1.715.47-2.048 1.286h-.109v-1.156h-1.116V84zm16.985-1.898c-.307.646-.946.993-1.892.993-1.245 0-2.055-.919-2.116-2.368v-.055h5.273v-.449c0-2.28-1.204-3.688-3.184-3.688-2.015 0-3.307 1.497-3.307 3.804 0 2.32 1.272 3.79 3.307 3.79 1.606 0 2.749-.776 3.089-2.028h-1.17zm-1.933-4.532c1.164 0 1.939.857 1.967 2.157h-4.042c.088-1.3.905-2.157 2.075-2.157zm5.036 6.43h1.17v-4.546c0-1.034.81-1.782 1.926-1.782.231 0 .653.04.748.068v-1.17a5.01 5.01 0 00-.585-.035c-.973 0-1.817.504-2.035 1.218h-.108v-1.088h-1.116V84zm5.92-8.75a.819.819 0 00.816-.817.819.819 0 00-.816-.817.82.82 0 00-.817.817c0 .449.368.816.817.816zm-.585 8.75h1.17v-7.335h-1.17V84zm9.472-5.09c-.204-1.306-1.293-2.375-3.076-2.375-2.055 0-3.362 1.484-3.362 3.77 0 2.334 1.314 3.824 3.369 3.824 1.762 0 2.858-.993 3.069-2.34h-1.184c-.218.83-.905 1.286-1.892 1.286-1.307 0-2.15-1.076-2.15-2.77 0-1.66.83-2.715 2.15-2.715 1.055 0 1.701.592 1.892 1.32h1.184zm3.77 5.22c.979 0 1.782-.43 2.259-1.212h.109V84h1.116v-5.022c0-1.524-1.001-2.443-2.79-2.443-1.565 0-2.722.776-2.879 1.953h1.184c.164-.578.776-.912 1.654-.912 1.095 0 1.66.497 1.66 1.402v.667l-2.116.13c-1.708.101-2.674.857-2.674 2.17 0 1.34 1.054 2.184 2.477 2.184zm.217-1.028c-.85 0-1.483-.436-1.483-1.184 0-.735.49-1.123 1.606-1.198l1.973-.13v.674c0 1.048-.891 1.838-2.096 1.838zm5.431.898h1.17v-4.341c0-1.287.755-2.07 1.926-2.07 1.17 0 1.728.627 1.728 1.947V84h1.171v-4.75c0-1.742-.919-2.715-2.566-2.715-1.123 0-1.837.477-2.205 1.286h-.108v-1.156h-1.116V84z" fill="#505962"/><path d="M349 .995h238v-1.99H349v1.99zM591.005 5v88h1.99V5h-1.99zM587 97.005H349v1.99h238v-1.99zM344.995 93V5h-1.99v88h1.99zM349 97.005A4.005 4.005 0 01344.995 93h-1.99A5.995 5.995 0 00349 98.995v-1.99zM591.005 93A4.005 4.005 0 01587 97.005v1.99A5.995 5.995 0 00592.995 93h-1.99zM587 .995A4.005 4.005 0 01591.005 5h1.99A5.995 5.995 0 00587-.995v1.99zM349-.995A5.995 5.995 0 00343.005 5h1.99A4.005 4.005 0 01349 .995v-1.99z" fill="#FFBC58"/><path d="M347.941 124.569h2.041l2.223 4.363h2.826l-2.512-4.735c1.372-.537 2.165-1.859 2.165-3.388 0-2.355-1.611-3.801-4.231-3.801h-5.007v11.924h2.495v-4.363zm0-5.611h2.165c1.24 0 2.016.727 2.016 1.884 0 1.182-.735 1.868-1.991 1.868h-2.19v-3.752zm11.461 10.114c1.182 0 2.173-.504 2.644-1.347h.149v1.207h2.33v-6.214c0-1.942-1.363-3.082-3.776-3.082-2.289 0-3.834 1.049-3.991 2.718h2.214c.199-.57.777-.876 1.645-.876.991 0 1.537.455 1.537 1.24v.752l-2.207.132c-2.264.132-3.528 1.091-3.528 2.735 0 1.661 1.231 2.735 2.983 2.735zm.793-1.76c-.834 0-1.421-.421-1.421-1.124 0-.669.504-1.057 1.537-1.123l1.843-.124v.677c0 .959-.843 1.694-1.959 1.694zm7.379-9.651v2.256h-1.421v1.826h1.421v4.735c0 1.768.876 2.487 3.09 2.487.463 0 .909-.05 1.207-.108v-1.776a5.661 5.661 0 01-.711.041c-.818 0-1.181-.38-1.181-1.198v-4.181h1.892v-1.826h-1.892v-2.256h-2.405zm7.528.777c.743 0 1.355-.595 1.355-1.339a1.35 1.35 0 00-1.355-1.347c-.744 0-1.364.595-1.364 1.347 0 .744.62 1.339 1.364 1.339zm-1.207 10.494h2.405v-9.098h-2.405v9.098zm4.842 0h2.405v-5.264c0-1.231.686-2.024 1.801-2.024 1.14 0 1.678.669 1.678 1.95v5.338h2.404v-5.884c0-2.173-1.091-3.412-3.115-3.412-1.347 0-2.272.636-2.694 1.661h-.149v-1.463h-2.33v9.098zm14.642 3.445c2.752 0 4.495-1.338 4.495-3.462v-9.081h-2.33v1.454h-.149c-.487-.991-1.537-1.603-2.768-1.603-2.313 0-3.735 1.802-3.735 4.619 0 2.727 1.413 4.495 3.686 4.495 1.28 0 2.239-.52 2.743-1.479h.149v1.694c0 1.05-.752 1.661-2.041 1.661-1.041 0-1.719-.363-1.843-.942h-2.38c.149 1.595 1.752 2.644 4.173 2.644zm.033-5.42c-1.305 0-2.049-1.025-2.049-2.661 0-1.636.752-2.661 2.049-2.661 1.298 0 2.083 1.025 2.083 2.661 0 1.636-.777 2.661-2.083 2.661zm6.668-4.47c0 1.396.86 2.231 2.628 2.619l1.653.372c.801.182 1.148.462 1.148.925 0 .603-.644 1.017-1.578 1.017-.959 0-1.545-.372-1.727-1h-2.347c.166 1.718 1.62 2.702 4.024 2.702 2.388 0 4.016-1.174 4.016-2.975 0-1.355-.793-2.099-2.561-2.487l-1.711-.372c-.843-.19-1.231-.479-1.231-.942 0-.595.636-1 1.496-1 .892 0 1.446.372 1.57.975h2.222c-.132-1.718-1.495-2.685-3.809-2.685-2.272 0-3.793 1.148-3.793 2.851z" fill="#7D8893"/><g clip-path="url(#clip14)"><path d="M353.313 163.818h1.569l-4.416-11.978h-1.477l-4.416 11.978h1.569l1.203-3.429h4.765l1.203 3.429zm-3.652-10.044h.133l1.876 5.345h-3.885l1.876-5.345zm7.238-1.221v2.316h-1.444v1.196h1.444v5.428c0 1.71.739 2.391 2.582 2.391.282 0 .556-.033.838-.083v-1.204a5.992 5.992 0 01-.664.034c-.929 0-1.328-.449-1.328-1.503v-5.063h1.992v-1.196h-1.992v-2.316h-1.428zm6.176 0v2.316h-1.444v1.196h1.444v5.428c0 1.71.739 2.391 2.582 2.391.282 0 .556-.033.838-.083v-1.204a6.016 6.016 0 01-.664.034c-.93 0-1.328-.449-1.328-1.503v-5.063h1.992v-1.196h-1.992v-2.316h-1.428zm5.578 11.265h1.428v-5.545c0-1.262.988-2.175 2.349-2.175.282 0 .797.05.913.083v-1.428a6.103 6.103 0 00-.714-.041c-1.187 0-2.216.614-2.482 1.486h-.132v-1.329h-1.362v8.949zm8.965.157c1.195 0 2.175-.523 2.756-1.477h.133v1.32h1.361v-6.126c0-1.86-1.22-2.98-3.403-2.98-1.909 0-3.32.946-3.511 2.382h1.444c.199-.706.946-1.112 2.017-1.112 1.336 0 2.025.606 2.025 1.71v.813l-2.581.158c-2.084.124-3.262 1.046-3.262 2.648 0 1.635 1.286 2.664 3.021 2.664zm.266-1.253c-1.038 0-1.81-.531-1.81-1.444 0-.897.598-1.37 1.959-1.461l2.407-.158v.822c0 1.278-1.087 2.241-2.556 2.241zm14.028-5.113c-.249-1.594-1.577-2.897-3.752-2.897-2.507 0-4.1 1.809-4.1 4.598 0 2.847 1.602 4.665 4.108 4.665 2.15 0 3.487-1.212 3.744-2.855h-1.444c-.266 1.013-1.104 1.569-2.308 1.569-1.594 0-2.623-1.312-2.623-3.379 0-2.025 1.013-3.312 2.623-3.312 1.287 0 2.075.722 2.308 1.611h1.444zm2.872-5.056v2.316h-1.444v1.196h1.444v5.428c0 1.71.739 2.391 2.582 2.391.282 0 .556-.033.838-.083v-1.204a6.016 6.016 0 01-.664.034c-.93 0-1.328-.449-1.328-1.503v-5.063h1.992v-1.196h-1.992v-2.316h-1.428zm6.325.59a.999.999 0 00.996-.996.999.999 0 00-.996-.996 1 1 0 00-.996.996 1 1 0 00.996.996zm-.713 10.675h1.427v-8.949h-1.427v8.949zm11.455-8.949h-1.528l-2.448 7.371h-.133l-2.449-7.371h-1.527l3.312 8.949h1.461l3.312-8.949zm7.503 6.633c-.373.788-1.153 1.212-2.307 1.212-1.519 0-2.507-1.121-2.582-2.889v-.066h6.433v-.548c0-2.781-1.469-4.499-3.884-4.499-2.457 0-4.035 1.826-4.035 4.64 0 2.83 1.553 4.623 4.035 4.623 1.959 0 3.353-.946 3.768-2.473h-1.428zm-2.357-5.529c1.42 0 2.366 1.046 2.399 2.632h-4.931c.108-1.586 1.104-2.632 2.532-2.632zm6.143 7.845h1.427v-5.296c0-1.569.922-2.524 2.35-2.524 1.427 0 2.108.764 2.108 2.374v5.446h1.428v-5.794c0-2.125-1.121-3.312-3.13-3.312-1.369 0-2.241.581-2.689 1.569h-.133v-1.412h-1.361v8.949zm15.854-2.316c-.373.788-1.154 1.212-2.307 1.212-1.52 0-2.507-1.121-2.582-2.889v-.066h6.433v-.548c0-2.781-1.469-4.499-3.885-4.499-2.457 0-4.034 1.826-4.034 4.64 0 2.83 1.552 4.623 4.034 4.623 1.959 0 3.354-.946 3.769-2.473h-1.428zm-2.357-5.529c1.419 0 2.365 1.046 2.399 2.632h-4.931c.108-1.586 1.104-2.632 2.532-2.632zm5.935 1.345c0 1.295.763 2.017 2.44 2.424l1.536.373c.954.233 1.419.648 1.419 1.262 0 .822-.863 1.395-2.067 1.395-1.145 0-1.859-.482-2.1-1.237h-1.469c.158 1.486 1.527 2.44 3.52 2.44 2.033 0 3.586-1.104 3.586-2.706 0-1.286-.814-2.017-2.499-2.424l-1.378-.332c-1.054-.257-1.552-.639-1.552-1.253 0-.797.83-1.336 1.892-1.336 1.079 0 1.777.473 1.968 1.187h1.411c-.191-1.47-1.494-2.399-3.37-2.399-1.901 0-3.337 1.12-3.337 2.606zm8.732 0c0 1.295.764 2.017 2.441 2.424l1.535.373c.955.233 1.42.648 1.42 1.262 0 .822-.864 1.395-2.067 1.395-1.146 0-1.86-.482-2.1-1.237h-1.47c.158 1.486 1.528 2.44 3.52 2.44 2.034 0 3.586-1.104 3.586-2.706 0-1.286-.814-2.017-2.499-2.424l-1.378-.332c-1.054-.257-1.552-.639-1.552-1.253 0-.797.83-1.336 1.893-1.336 1.079 0 1.776.473 1.967 1.187h1.411c-.191-1.47-1.494-2.399-3.37-2.399-1.901 0-3.337 1.12-3.337 2.606z" fill="#7D8893"/><g clip-path="url(#clip15)"><path d="M580.831 164.137c2.457 0 4.2-1.718 4.2-4.125 0-2.324-1.652-4.01-3.935-4.01-1.428 0-2.598.681-3.187 1.843h-.133c.05-3.254 1.212-4.914 3.204-4.914 1.212 0 2.092.623 2.341 1.735h1.535c-.307-1.859-1.743-3.063-3.926-3.063-2.83 0-4.607 2.357-4.607 6.475 0 4.034 1.901 6.059 4.508 6.059zm-.017-1.311c-1.536 0-2.706-1.212-2.706-2.814 0-1.586 1.137-2.715 2.723-2.715 1.585 0 2.689 1.129 2.689 2.765 0 1.568-1.17 2.764-2.706 2.764z" fill="#FBA21C"/></g></g><g clip-path="url(#clip16)"><path d="M344.955 195.529c.157 2.066 1.909 3.411 4.449 3.411 2.739 0 4.474-1.403 4.474-3.602 0-1.76-.996-2.723-3.478-3.346l-1.254-.332c-1.651-.423-2.307-.962-2.307-1.9 0-1.212 1.054-2.009 2.648-2.009 1.494 0 2.507.73 2.714 1.959h1.503c-.125-1.934-1.851-3.312-4.167-3.312-2.532 0-4.234 1.378-4.234 3.411 0 1.702.938 2.681 3.105 3.229l1.535.399c1.652.415 2.399 1.062 2.399 2.083 0 1.187-1.187 2.059-2.797 2.059-1.702 0-2.897-.797-3.08-2.05h-1.51zm11.978-7.546a1 1 0 00.996-.996 1 1 0 00-.996-.996.999.999 0 00-.996.996c0 .548.448.996.996.996zm-.714 10.675h1.427v-8.948h-1.427v8.948zm4.15 0h1.428v-5.296c0-1.569.921-2.523 2.349-2.523 1.428 0 2.108.763 2.108 2.374v5.445h1.428v-5.794c0-2.125-1.12-3.312-3.129-3.312-1.37 0-2.241.581-2.69 1.569h-.133v-1.411h-1.361v8.948zm17.332-6.209c-.249-1.594-1.577-2.897-3.752-2.897-2.507 0-4.1 1.81-4.1 4.599 0 2.847 1.602 4.665 4.109 4.665 2.149 0 3.486-1.212 3.743-2.856h-1.444c-.266 1.013-1.104 1.569-2.308 1.569-1.594 0-2.623-1.311-2.623-3.378 0-2.026 1.013-3.312 2.623-3.312 1.287 0 2.075.722 2.308 1.61h1.444zm8.035 3.893c-.373.789-1.153 1.212-2.307 1.212-1.519 0-2.507-1.121-2.582-2.889v-.066h6.433v-.548c0-2.781-1.469-4.499-3.884-4.499-2.458 0-4.035 1.826-4.035 4.64 0 2.831 1.553 4.624 4.035 4.624 1.958 0 3.353-.947 3.768-2.474h-1.428zm-2.357-5.528c1.419 0 2.366 1.046 2.399 2.631h-4.931c.108-1.585 1.104-2.631 2.532-2.631zm6.142 7.844h1.428v-5.545c0-1.262.988-2.175 2.349-2.175.283 0 .797.05.913.083v-1.427a6.085 6.085 0 00-.713-.042c-1.187 0-2.217.614-2.482 1.486h-.133v-1.328h-1.362v8.948zm7.222-10.675a.999.999 0 00.996-.996.999.999 0 00-.996-.996.999.999 0 00-.996.996c0 .548.448.996.996.996zm-.714 10.675h1.428v-8.948h-1.428v8.948zm4.748-11.264v2.316h-1.444v1.195h1.444v5.429c0 1.71.739 2.39 2.582 2.39.282 0 .556-.033.838-.083v-1.203a5.988 5.988 0 01-.664.033c-.929 0-1.328-.448-1.328-1.502v-5.064h1.992v-1.195h-1.992v-2.316h-1.428zm6.342 14.501c1.586 0 2.299-.614 3.063-2.689l3.495-9.496h-1.519l-2.449 7.363h-.133l-2.457-7.363h-1.544l3.312 8.956-.166.532c-.373 1.079-.822 1.469-1.643 1.469-.2 0-.424-.009-.598-.042v1.22c.199.034.448.05.639.05z" fill="#7D8893"/><g clip-path="url(#clip17)"><path d="M580.673 198.986c2.54 0 4.316-1.436 4.316-3.486 0-1.561-.988-2.773-2.49-3.055v-.133c1.237-.34 2.001-1.361 2.001-2.673 0-1.868-1.586-3.196-3.827-3.196-2.241 0-3.827 1.328-3.827 3.196 0 1.303.78 2.341 2.001 2.673v.133c-1.503.282-2.491 1.494-2.491 3.055 0 2.05 1.777 3.486 4.317 3.486zm0-7.172c-1.411 0-2.358-.814-2.358-2.034 0-1.237.938-2.058 2.358-2.058 1.419 0 2.357.821 2.357 2.058 0 1.22-.946 2.034-2.357 2.034zm0 5.894c-1.66 0-2.806-.947-2.806-2.316 0-1.37 1.146-2.316 2.806-2.316 1.66 0 2.806.946 2.806 2.316 0 1.369-1.146 2.316-2.806 2.316z" fill="#FBA21C"/></g></g><g clip-path="url(#clip18)"><path d="M344.955 230.369c.157 2.067 1.909 3.412 4.449 3.412 2.739 0 4.474-1.403 4.474-3.603 0-1.76-.996-2.723-3.478-3.345l-1.254-.332c-1.651-.424-2.307-.963-2.307-1.901 0-1.212 1.054-2.009 2.648-2.009 1.494 0 2.507.731 2.714 1.959h1.503c-.125-1.934-1.851-3.312-4.167-3.312-2.532 0-4.234 1.378-4.234 3.412 0 1.701.938 2.681 3.105 3.229l1.535.398c1.652.415 2.399 1.063 2.399 2.084 0 1.187-1.187 2.058-2.797 2.058-1.702 0-2.897-.797-3.08-2.05h-1.51zm11.314 3.129h1.427v-5.296c0-1.51.88-2.523 2.482-2.523 1.353 0 2.067.789 2.067 2.374v5.445h1.428v-5.794c0-2.1-1.195-3.312-3.088-3.312-1.37 0-2.308.581-2.756 1.569h-.133v-4.964h-1.427v12.501zm12.501.158c1.195 0 2.174-.523 2.755-1.478h.133v1.32h1.362v-6.126c0-1.859-1.221-2.98-3.404-2.98-1.909 0-3.32.947-3.511 2.383h1.444c.2-.706.947-1.113 2.017-1.113 1.337 0 2.026.606 2.026 1.71v.814l-2.582.158c-2.083.124-3.262 1.045-3.262 2.647 0 1.636 1.287 2.665 3.022 2.665zm.265-1.253c-1.037 0-1.809-.532-1.809-1.445 0-.896.597-1.369 1.959-1.461l2.407-.157v.821c0 1.279-1.088 2.242-2.557 2.242zm6.624 1.095h1.428v-5.545c0-1.261.988-2.174 2.349-2.174.282 0 .797.049.913.083v-1.428a6.09 6.09 0 00-.714-.042c-1.187 0-2.216.615-2.482 1.486h-.132v-1.328h-1.362v8.948zm12.153-2.316c-.374.789-1.154 1.212-2.308 1.212-1.519 0-2.507-1.12-2.582-2.888v-.067h6.433v-.548c0-2.78-1.469-4.499-3.884-4.499-2.457 0-4.034 1.827-4.034 4.64 0 2.831 1.552 4.624 4.034 4.624 1.959 0 3.353-.946 3.768-2.474h-1.427zm-2.358-5.528c1.42 0 2.366 1.046 2.399 2.631h-4.931c.108-1.585 1.104-2.631 2.532-2.631zm9.455 8.002c1.237 0 2.299-.589 2.863-1.585h.133v1.427h1.362v-12.501h-1.428v4.964h-.125c-.506-.979-1.56-1.569-2.805-1.569-2.275 0-3.761 1.827-3.761 4.632 0 2.814 1.47 4.632 3.761 4.632zm.332-7.977c1.618 0 2.631 1.295 2.631 3.345 0 2.067-1.004 3.345-2.631 3.345-1.636 0-2.615-1.253-2.615-3.345 0-2.083.988-3.345 2.615-3.345zm12.343-2.856a.999.999 0 00.996-.996 1 1 0 00-.996-.996 1 1 0 00-.996.996c0 .548.448.996.996.996zm-.714 10.675h1.428v-8.948h-1.428v8.948zm4.151 0h1.427v-5.296c0-1.568.922-2.523 2.349-2.523 1.428 0 2.109.764 2.109 2.374v5.445h1.427v-5.794c0-2.125-1.12-3.312-3.129-3.312-1.37 0-2.241.581-2.689 1.569h-.133v-1.411h-1.361v8.948zm10.525-11.264v2.316h-1.444v1.195h1.444v5.429c0 1.71.739 2.391 2.581 2.391.283 0 .557-.034.839-.083v-1.204a6.012 6.012 0 01-.664.033c-.93 0-1.328-.448-1.328-1.502v-5.064h1.992v-1.195h-1.992v-2.316h-1.428zm11.372 8.948c-.374.789-1.154 1.212-2.308 1.212-1.519 0-2.506-1.12-2.581-2.888v-.067h6.433v-.548c0-2.78-1.469-4.499-3.885-4.499-2.457 0-4.034 1.827-4.034 4.64 0 2.831 1.552 4.624 4.034 4.624 1.959 0 3.354-.946 3.769-2.474h-1.428zm-2.357-5.528c1.419 0 2.365 1.046 2.398 2.631h-4.93c.108-1.585 1.104-2.631 2.532-2.631zm6.142 7.844h1.428v-5.545c0-1.261.988-2.174 2.349-2.174.282 0 .797.049.913.083v-1.428a6.103 6.103 0 00-.714-.042c-1.187 0-2.216.615-2.482 1.486h-.133v-1.328h-1.361v8.948zm12.152-2.316c-.373.789-1.153 1.212-2.307 1.212-1.519 0-2.507-1.12-2.582-2.888v-.067h6.433v-.548c0-2.78-1.469-4.499-3.884-4.499-2.457 0-4.035 1.827-4.035 4.64 0 2.831 1.553 4.624 4.035 4.624 1.959 0 3.353-.946 3.768-2.474h-1.428zm-2.357-5.528c1.419 0 2.366 1.046 2.399 2.631h-4.931c.108-1.585 1.104-2.631 2.532-2.631zm5.935 1.345c0 1.295.764 2.017 2.441 2.424l1.535.373c.955.233 1.42.648 1.42 1.262 0 .822-.864 1.394-2.067 1.394-1.146 0-1.86-.481-2.1-1.236h-1.47c.158 1.485 1.528 2.44 3.52 2.44 2.034 0 3.586-1.104 3.586-2.706 0-1.287-.814-2.017-2.499-2.424l-1.378-.332c-1.054-.257-1.552-.639-1.552-1.253 0-.797.83-1.337 1.893-1.337 1.079 0 1.776.473 1.967 1.187h1.411c-.191-1.469-1.494-2.399-3.37-2.399-1.901 0-3.337 1.121-3.337 2.607zm9.621-4.765v2.316h-1.445v1.195h1.445v5.429c0 1.71.738 2.391 2.581 2.391.282 0 .556-.034.839-.083v-1.204a6.012 6.012 0 01-.664.033c-.93 0-1.329-.448-1.329-1.502v-5.064h1.993v-1.195h-1.993v-2.316h-1.427z" fill="#7D8893"/><g clip-path="url(#clip19)"><path d="M580.897 233.826c2.449 0 4.117-1.693 4.117-4.159 0-2.374-1.66-3.951-3.669-3.951-1.195 0-2.083.366-2.664 1.088h-.133l.373-3.902h5.479v-1.336h-6.649l-.689 6.848h1.403c.473-.888 1.369-1.411 2.507-1.411 1.51 0 2.548 1.087 2.548 2.706 0 1.677-1.038 2.806-2.606 2.806-1.412 0-2.441-.855-2.574-2.134h-1.469c.133 2.051 1.76 3.445 4.026 3.445z" fill="#FBA21C"/></g></g><g clip-path="url(#clip20)"><path d="M347.021 268.339v-11.978h-1.494v11.978h1.494zm2.873 0h1.427v-5.296c0-1.569.922-2.524 2.349-2.524 1.428 0 2.109.764 2.109 2.374v5.446h1.428v-5.794c0-2.125-1.121-3.312-3.13-3.312-1.369 0-2.241.581-2.689 1.569h-.133v-1.412h-1.361v8.949zm10.525-11.265v2.316h-1.444v1.196h1.444v5.428c0 1.71.739 2.391 2.581 2.391.283 0 .557-.033.839-.083v-1.204a6.016 6.016 0 01-.664.034c-.93 0-1.328-.449-1.328-1.503v-5.063h1.992v-1.196h-1.992v-2.316h-1.428zm11.372 8.949c-.374.788-1.154 1.212-2.308 1.212-1.519 0-2.506-1.121-2.581-2.889v-.066h6.433v-.548c0-2.781-1.469-4.499-3.885-4.499-2.457 0-4.034 1.826-4.034 4.64 0 2.83 1.552 4.623 4.034 4.623 1.959 0 3.354-.946 3.769-2.473h-1.428zm-2.357-5.529c1.419 0 2.365 1.046 2.399 2.632h-4.931c.108-1.586 1.104-2.632 2.532-2.632zm6.225 7.845h1.428v-12.501h-1.428v12.501zm10.127-2.316c-.373.788-1.154 1.212-2.307 1.212-1.52 0-2.507-1.121-2.582-2.889v-.066h6.433v-.548c0-2.781-1.469-4.499-3.885-4.499-2.457 0-4.034 1.826-4.034 4.64 0 2.83 1.552 4.623 4.034 4.623 1.959 0 3.354-.946 3.769-2.473h-1.428zm-2.357-5.529c1.419 0 2.365 1.046 2.399 2.632h-4.931c.108-1.586 1.104-2.632 2.532-2.632zm9.828 11.281c2.44 0 3.984-1.278 3.984-3.279v-9.106h-1.361v1.42h-.133c-.515-.963-1.619-1.577-2.872-1.577-2.299 0-3.752 1.818-3.752 4.499 0 2.681 1.436 4.474 3.752 4.474 1.229 0 2.241-.556 2.806-1.544h.132v1.76c0 1.319-.954 2.108-2.556 2.108-1.287 0-2.084-.473-2.241-1.204h-1.511c.216 1.478 1.594 2.449 3.752 2.449zm-.067-4.831c-1.66 0-2.589-1.262-2.589-3.212 0-1.951.929-3.213 2.589-3.213 1.652 0 2.657 1.262 2.657 3.213 0 1.95-.996 3.212-2.657 3.212zm12.667-.921c-.373.788-1.153 1.212-2.307 1.212-1.519 0-2.507-1.121-2.582-2.889v-.066h6.433v-.548c0-2.781-1.469-4.499-3.884-4.499-2.457 0-4.035 1.826-4.035 4.64 0 2.83 1.553 4.623 4.035 4.623 1.959 0 3.353-.946 3.768-2.473h-1.428zm-2.357-5.529c1.419 0 2.366 1.046 2.399 2.632h-4.931c.108-1.586 1.104-2.632 2.532-2.632zm6.143 7.845h1.427v-5.296c0-1.569.922-2.524 2.349-2.524 1.428 0 2.109.764 2.109 2.374v5.446h1.428v-5.794c0-2.125-1.121-3.312-3.13-3.312-1.369 0-2.241.581-2.689 1.569h-.133v-1.412h-1.361v8.949zm17.332-6.209c-.249-1.594-1.578-2.897-3.752-2.897-2.507 0-4.101 1.809-4.101 4.598 0 2.847 1.602 4.665 4.109 4.665 2.15 0 3.486-1.212 3.744-2.855h-1.445c-.265 1.013-1.104 1.569-2.307 1.569-1.594 0-2.623-1.312-2.623-3.379 0-2.025 1.012-3.312 2.623-3.312 1.286 0 2.075.722 2.307 1.611h1.445zm8.035 3.893c-.374.788-1.154 1.212-2.308 1.212-1.519 0-2.507-1.121-2.581-2.889v-.066h6.433v-.548c0-2.781-1.47-4.499-3.885-4.499-2.457 0-4.034 1.826-4.034 4.64 0 2.83 1.552 4.623 4.034 4.623 1.959 0 3.353-.946 3.769-2.473h-1.428zm-2.358-5.529c1.42 0 2.366 1.046 2.399 2.632h-4.93c.108-1.586 1.104-2.632 2.531-2.632z" fill="#7D8893"/><g clip-path="url(#clip21)"><path d="M580.673 268.667c2.54 0 4.316-1.437 4.316-3.487 0-1.56-.988-2.772-2.49-3.055v-.132c1.237-.341 2.001-1.362 2.001-2.673 0-1.868-1.586-3.196-3.827-3.196-2.241 0-3.827 1.328-3.827 3.196 0 1.303.78 2.341 2.001 2.673v.132c-1.503.283-2.491 1.495-2.491 3.055 0 2.05 1.777 3.487 4.317 3.487zm0-7.172c-1.411 0-2.358-.814-2.358-2.034 0-1.237.938-2.059 2.358-2.059 1.419 0 2.357.822 2.357 2.059 0 1.22-.946 2.034-2.357 2.034zm0 5.893c-1.66 0-2.806-.946-2.806-2.316 0-1.369 1.146-2.316 2.806-2.316 1.66 0 2.806.947 2.806 2.316 0 1.37-1.146 2.316-2.806 2.316z" fill="#FBA21C"/></g></g><g clip-path="url(#clip22)"><path d="M353.313 303.179h1.569l-4.416-11.978h-1.477l-4.416 11.978h1.569l1.203-3.428h4.765l1.203 3.428zm-3.652-10.044h.133l1.876 5.346h-3.885l1.876-5.346zm7.139 10.044h1.428v-5.545c0-1.262.904-2.274 2.075-2.274 1.129 0 1.867.68 1.867 1.743v6.076h1.428v-5.752c0-1.138.83-2.067 2.075-2.067 1.262 0 1.885.647 1.885 1.967v5.852h1.427v-6.184c0-1.876-1.021-2.922-2.847-2.922-1.237 0-2.258.623-2.739 1.569h-.133c-.415-.93-1.262-1.569-2.474-1.569-1.195 0-2.091.573-2.498 1.569h-.133v-1.411H356.8v8.948zm19.241.158c2.266 0 3.752-1.835 3.752-4.632 0-2.814-1.478-4.632-3.752-4.632-1.229 0-2.316.606-2.806 1.569h-.132v-4.964h-1.428v12.501h1.361v-1.428h.133c.564.996 1.627 1.586 2.872 1.586zm-.332-7.977c1.635 0 2.606 1.253 2.606 3.345 0 2.092-.971 3.345-2.606 3.345-1.627 0-2.64-1.278-2.64-3.345s1.013-3.345 2.64-3.345zm7.072-2.856a.999.999 0 00.996-.996.999.999 0 00-.996-.996.999.999 0 00-.996.996c0 .548.448.996.996.996zm-.714 10.675h1.428v-8.948h-1.428v8.948zm4.748-11.264v2.316h-1.444v1.195h1.444v5.429c0 1.71.739 2.39 2.582 2.39.282 0 .556-.033.838-.083v-1.203a5.988 5.988 0 01-.664.033c-.929 0-1.328-.448-1.328-1.502v-5.064h1.992v-1.195h-1.992v-2.316h-1.428zm6.326.589a1 1 0 00.996-.996 1 1 0 00-.996-.996.999.999 0 00-.996.996c0 .548.448.996.996.996zm-.714 10.675h1.427v-8.948h-1.427v8.948zm7.827.158c2.549 0 4.126-1.76 4.126-4.632 0-2.881-1.577-4.632-4.126-4.632-2.548 0-4.125 1.751-4.125 4.632 0 2.872 1.577 4.632 4.125 4.632zm0-1.287c-1.693 0-2.648-1.228-2.648-3.345 0-2.125.955-3.345 2.648-3.345 1.694 0 2.648 1.22 2.648 3.345 0 2.117-.954 3.345-2.648 3.345zm6.367 1.129h1.428v-5.296c0-1.569.921-2.523 2.349-2.523 1.428 0 2.108.763 2.108 2.374v5.445h1.428v-5.794c0-2.125-1.121-3.312-3.129-3.312-1.37 0-2.242.581-2.69 1.569h-.133v-1.411h-1.361v8.948zm9.72-6.5c0 1.295.764 2.018 2.441 2.424l1.535.374c.955.232 1.42.647 1.42 1.262 0 .821-.863 1.394-2.067 1.394-1.146 0-1.859-.481-2.1-1.237h-1.469c.157 1.486 1.527 2.441 3.519 2.441 2.034 0 3.586-1.104 3.586-2.706 0-1.287-.813-2.017-2.498-2.424l-1.378-.332c-1.055-.258-1.553-.639-1.553-1.254 0-.797.83-1.336 1.893-1.336 1.079 0 1.776.473 1.967 1.187h1.411c-.191-1.469-1.494-2.399-3.37-2.399-1.901 0-3.337 1.121-3.337 2.606z" fill="#7D8893"/><g clip-path="url(#clip23)"><path d="M580.831 303.499c2.457 0 4.2-1.719 4.2-4.126 0-2.324-1.652-4.009-3.935-4.009-1.428 0-2.598.68-3.187 1.843h-.133c.05-3.254 1.212-4.915 3.204-4.915 1.212 0 2.092.623 2.341 1.735h1.535c-.307-1.859-1.743-3.063-3.926-3.063-2.83 0-4.607 2.358-4.607 6.475 0 4.034 1.901 6.06 4.508 6.06zm-.017-1.312c-1.536 0-2.706-1.212-2.706-2.814 0-1.585 1.137-2.714 2.723-2.714 1.585 0 2.689 1.129 2.689 2.764 0 1.569-1.17 2.764-2.706 2.764z" fill="#FBA21C"/></g></g><g clip-path="url(#clip24)"><path d="M347.021 338.019v-5.188h5.305v-1.328h-5.305v-4.117h5.778v-1.345h-7.272v11.978h1.494zm15.291-8.948h-1.428v5.296c0 1.569-.863 2.507-2.441 2.507-1.427 0-2.025-.747-2.025-2.358v-5.445h-1.428v5.794c0 2.117 1.046 3.312 3.055 3.312 1.37 0 2.324-.564 2.772-1.561h.133v1.403h1.362v-8.948zm2.689 8.948h1.428v-5.296c0-1.568.921-2.523 2.349-2.523 1.428 0 2.108.764 2.108 2.374v5.445h1.428v-5.794c0-2.125-1.121-3.312-3.129-3.312-1.37 0-2.242.581-2.69 1.569h-.133v-1.411h-1.361v8.948z" fill="#7D8893"/><g clip-path="url(#clip25)"><path d="M580.673 338.347c2.54 0 4.316-1.436 4.316-3.486 0-1.561-.988-2.773-2.49-3.055v-.133c1.237-.34 2.001-1.361 2.001-2.673 0-1.867-1.586-3.195-3.827-3.195-2.241 0-3.827 1.328-3.827 3.195 0 1.304.78 2.341 2.001 2.673v.133c-1.503.282-2.491 1.494-2.491 3.055 0 2.05 1.777 3.486 4.317 3.486zm0-7.172c-1.411 0-2.358-.813-2.358-2.033 0-1.237.938-2.059 2.358-2.059 1.419 0 2.357.822 2.357 2.059 0 1.22-.946 2.033-2.357 2.033zm0 5.894c-1.66 0-2.806-.946-2.806-2.316 0-1.37 1.146-2.316 2.806-2.316 1.66 0 2.806.946 2.806 2.316 0 1.37-1.146 2.316-2.806 2.316z" fill="#FBA21C"/></g></g></g><defs><clipPath id="clip0"><path fill="#fff" d="M0 0h248v340.974H0z"/></clipPath><clipPath id="clip1"><path fill="#fff" transform="translate(0 146.863)" d="M0 0h245.042v19.909H0z"/></clipPath><clipPath id="clip2"><path fill="#fff" transform="translate(220.156 146.863)" d="M0 0h24.886v19.909H0z"/></clipPath><clipPath id="clip3"><path fill="#fff" transform="translate(0 181.704)" d="M0 0h245.042v19.909H0z"/></clipPath><clipPath id="clip4"><path fill="#fff" transform="translate(220.156 181.704)" d="M0 0h24.886v19.909H0z"/></clipPath><clipPath id="clip5"><path fill="#fff" transform="translate(0 216.544)" d="M0 0h245.042v19.909H0z"/></clipPath><clipPath id="clip6"><path fill="#fff" transform="translate(220.156 216.544)" d="M0 0h24.886v19.909H0z"/></clipPath><clipPath id="clip7"><path fill="#fff" transform="translate(0 251.384)" d="M0 0h245.042v19.909H0z"/></clipPath><clipPath id="clip8"><path fill="#fff" transform="translate(220.156 251.384)" d="M0 0h24.886v19.909H0z"/></clipPath><clipPath id="clip9"><path fill="#fff" transform="translate(0 286.225)" d="M0 0h245.042v19.909H0z"/></clipPath><clipPath id="clip10"><path fill="#fff" transform="translate(220.156 286.225)" d="M0 0h24.886v19.909H0z"/></clipPath><clipPath id="clip11"><path fill="#fff" transform="translate(0 321.065)" d="M0 0h245.042v19.909H0z"/></clipPath><clipPath id="clip12"><path fill="#fff" transform="translate(220.156 321.065)" d="M0 0h24.886v19.909H0z"/></clipPath><clipPath id="clip13"><path fill="#fff" transform="translate(344)" d="M0 0h248v341.974H0z"/></clipPath><clipPath id="clip14"><path fill="#fff" transform="translate(344 147.863)" d="M0 0h245.042v19.909H0z"/></clipPath><clipPath id="clip15"><path fill="#fff" transform="translate(564.156 147.863)" d="M0 0h24.886v19.909H0z"/></clipPath><clipPath id="clip16"><path fill="#fff" transform="translate(344 182.704)" d="M0 0h245.042v19.909H0z"/></clipPath><clipPath id="clip17"><path fill="#fff" transform="translate(564.156 182.704)" d="M0 0h24.886v19.909H0z"/></clipPath><clipPath id="clip18"><path fill="#fff" transform="translate(344 217.544)" d="M0 0h245.042v19.909H0z"/></clipPath><clipPath id="clip19"><path fill="#fff" transform="translate(564.156 217.544)" d="M0 0h24.886v19.909H0z"/></clipPath><clipPath id="clip20"><path fill="#fff" transform="translate(344 252.384)" d="M0 0h245.042v19.909H0z"/></clipPath><clipPath id="clip21"><path fill="#fff" transform="translate(564.156 252.384)" d="M0 0h24.886v19.909H0z"/></clipPath><clipPath id="clip22"><path fill="#fff" transform="translate(344 287.225)" d="M0 0h245.042v19.909H0z"/></clipPath><clipPath id="clip23"><path fill="#fff" transform="translate(564.156 287.225)" d="M0 0h24.886v19.909H0z"/></clipPath><clipPath id="clip24"><path fill="#fff" transform="translate(344 322.065)" d="M0 0h245.042v19.909H0z"/></clipPath><clipPath id="clip25"><path fill="#fff" transform="translate(564.156 322.065)" d="M0 0h24.886v19.909H0z"/></clipPath><linearGradient id="paint0_linear" x1="293.019" y1="136.044" x2="293.019" y2="336.044" gradientUnits="userSpaceOnUse"><stop stop-color="#04CB00"/><stop offset=".521" stop-color="#FFD600"/><stop offset="1" stop-color="#C21700"/></linearGradient></defs></svg>