<svg width="50" height="49" fill="none" xmlns="http://www.w3.org/2000/svg"><path d="M30.869 27.326l-.05.104v2.697c0 .955.547 1.83 1.406 2.246l15.678 7.617.038.025a3.746 3.746 0 01.737.71c.407.518.817 1.311.817 2.424V47.407h0a1.491 1.491 0 01-.021.165 1.516 1.516 0 01-.135.407.926.926 0 01-.304.356c-.131.088-.324.162-.62.162H1.578c-.294 0-.486-.074-.616-.161a.934.934 0 01-.306-.357 1.528 1.528 0 01-.158-.573v0-.002 0-.002 0-.005 0V43.148c0-1.112.411-1.905.82-2.423a3.754 3.754 0 01.74-.71l.038-.026 15.672-7.617a2.499 2.499 0 001.406-2.246V27.43l-.05-.104-2.923-6.001-.063-.129-.118-.074h-.001 0l-.012-.008a2.985 2.985 0 01-.312-.262 4.85 4.85 0 01-.787-1.012c-.55-.92-1.1-2.425-1.037-4.736.13-.112.268-.276.38-.51.246-.51.364-1.32.139-2.62-.439-2.53-.833-4.853.913-6.734l.005-.004a5.895 5.895 0 01.599-.371 7.555 7.555 0 011.824-.694l.102-.024.083-.063-.301-.397.301.397h0l.002-.002.003-.002.012-.01a4.72 4.72 0 00.186-.15c.121-.1.288-.243.47-.415.356-.336.808-.815 1.084-1.32.174-.32.618-.748 1.272-1.1.643-.345 1.433-.587 2.247-.587h3.545c.816 0 1.625.242 2.286.59.675.354 1.128.781 1.296 1.094l.001.002c.276.506.728.985 1.084 1.321a9.833 9.833 0 00.656.566l.012.009.003.002.001.001h0l.302-.396-.301.397.084.064.103.024c.777.182 1.397.46 1.82.69a5.795 5.795 0 01.599.372l.007.005c1.746 1.881 1.352 4.205.913 6.736-.225 1.3-.107 2.108.138 2.618.113.235.25.399.381.51.063 2.312-.488 3.817-1.037 4.737a4.85 4.85 0 01-.788 1.011 3.004 3.004 0 01-.311.263l-.01.007h-.002 0v.001l-.12.074-.062.129-2.923 6.001z" fill="#6E7CFB" fill-opacity=".5" stroke="#6E7CFB" stroke-width=".995"/></svg>