<svg width="48" height="49" viewBox="0 0 48 49" fill="none" xmlns="http://www.w3.org/2000/svg">
<path d="M30.7491 27.6561H30.423L30.9189 26.8883C30.9614 26.8226 31.003 26.7441 31.042 26.6615C31.0427 26.6592 31.0434 26.6567 31.0442 26.6541C31.0464 26.6471 31.0493 26.6382 31.053 26.628C31.0566 26.618 31.0619 26.6047 31.069 26.5894L31.0691 26.5891C31.503 25.6559 32.0225 24.753 32.5304 23.8703C32.7018 23.5724 32.8719 23.2768 33.037 22.9831C33.1155 22.8434 33.2087 22.7198 33.2895 22.6174C33.3198 22.5791 33.3471 22.5452 33.3726 22.5135C33.4222 22.4518 33.4649 22.3988 33.5083 22.3395L33.5083 22.3394C34.863 20.4907 35.5081 18.4873 35.3478 16.297L35.3478 16.2969C35.3252 15.9871 35.2601 15.7441 35.1589 15.6183C34.4927 14.7903 34.6423 13.8899 34.7532 13.2224C34.7638 13.1587 34.774 13.0972 34.7832 13.0381C35.026 11.4644 35.1249 9.95275 34.7331 8.46444L35.2144 8.33772L34.7331 8.46443C34.4911 7.54529 34.1176 6.77468 33.5628 6.176C33.012 5.58163 32.2573 5.12925 31.2045 4.88314L30.7491 27.6561ZM30.7491 27.6561C30.7047 27.8682 30.6676 28.0974 30.659 28.3133C30.6421 28.7378 30.6461 29.1579 30.65 29.5637L30.6506 29.6304C30.6547 30.0611 30.6573 30.4767 30.6363 30.8927L30.6363 30.8928C30.6202 31.2123 30.6791 31.5177 30.8738 31.7841C31.0582 32.0366 31.3241 32.1967 31.5999 32.3184L31.5999 32.3185C31.6949 32.3604 31.7903 32.4025 31.886 32.4448C36.3688 34.4234 41.6535 36.7559 45.5248 39.3908C46.8277 40.2777 47.4997 41.3055 47.4921 42.6484C47.4896 43.0734 47.4933 43.4887 47.4969 43.8998C47.5028 44.5773 47.5087 45.2434 47.4871 45.9217C47.4661 46.5784 47.2289 47.0775 46.8431 47.4174C46.4521 47.7618 45.8603 47.9847 45.0613 47.9876C38.5898 48.0114 30.9017 48.0007 24.4132 47.9917L24.2931 47.9915H24.293C24.2668 47.9915 24.2172 47.9889 24.1793 47.9844C24.168 47.983 24.163 47.9821 24.163 47.9821C24.163 47.9822 24.1672 47.9829 24.1745 47.9849C24.1782 47.9859 24.216 47.9954 24.2632 48.0213C24.2706 48.0253 24.2809 48.0312 24.293 48.0391C24.293 48.0391 24.293 48.0391 24.2931 48.0391C24.3189 48.0559 24.3532 48.0819 24.3873 48.1197C24.4403 48.1783 24.5135 48.2904 24.5135 48.4485H24.2925H24.0158H23.7219H23.5181C23.5181 48.2751 23.6054 48.1583 23.6589 48.104C23.6806 48.082 23.7021 48.0644 23.7213 48.0506C23.7213 48.0506 23.7214 48.0505 23.7214 48.0505C23.7482 48.0313 23.7706 48.0194 23.783 48.0132C23.826 47.9915 23.8599 47.9835 23.8634 47.9826L23.8637 47.9825C23.8749 47.9798 23.872 47.9813 23.8475 47.984C23.8033 47.9889 23.7481 47.9916 23.7213 47.9916H23.7212L23.6823 47.9917C17.1769 48.0008 9.44292 48.0117 2.94446 47.9879C2.14527 47.985 1.55218 47.7621 1.16002 47.4174C0.773094 47.0773 0.535194 46.5783 0.514237 45.9222L0.0167711 45.9381L0.514237 45.9222C0.492188 45.2321 0.496886 44.5526 0.50166 43.8619C0.504419 43.4628 0.507204 43.06 0.504867 42.6493C0.497303 41.3065 1.16916 40.2795 2.4722 39.3927C6.33575 36.7631 11.6069 34.4366 16.0841 32.4605C16.1889 32.4142 16.2933 32.3681 16.3972 32.3223L16.1961 31.867L30.7491 27.6561ZM24.0253 0.999086L24.0171 0.99895C21.3431 0.954543 18.8587 2.11076 17.7076 4.1959C17.6265 4.34283 17.5092 4.48556 17.3776 4.6015C17.2498 4.71401 17.0719 4.83358 16.8602 4.88303M24.0253 0.999086L16.747 4.39835M24.0253 0.999086L24.0335 0.998953M24.0253 0.999086L24.0335 0.998953M16.8602 4.88303L16.747 4.39835M16.8602 4.88303C16.8602 4.88302 16.8602 4.88301 16.8603 4.883L16.747 4.39835M16.8602 4.88303C15.8074 5.12912 15.0534 5.58141 14.5032 6.17565C13.949 6.77423 13.5759 7.54483 13.3338 8.46424M16.747 4.39835C14.4696 4.93066 13.3651 6.39073 12.8525 8.3375M13.3338 8.46424C13.3338 8.46423 13.3338 8.46423 13.3338 8.46423L12.8525 8.3375M13.3338 8.46424C12.942 9.95237 13.042 11.4636 13.285 13.0377L13.285 13.0377C13.2942 13.0973 13.3045 13.1592 13.3151 13.2233C13.426 13.8903 13.5756 14.7899 12.9097 15.6175L12.8525 8.3375M13.3338 8.46424L12.8525 8.3375M24.0335 0.998953C26.761 0.954421 29.2009 2.10987 30.3524 4.1959M24.0335 0.998953L30.3524 4.1959M30.3524 4.1959C30.4347 4.34506 30.5545 4.48824 30.687 4.60351C30.8156 4.71545 30.994 4.83396 31.2044 4.88311L30.3524 4.1959ZM12.7211 16.2953C12.5607 18.4855 13.2059 20.4871 14.5607 22.3359C14.6043 22.3955 14.6474 22.4486 14.6982 22.5112C14.7227 22.5414 14.749 22.5739 14.7781 22.6104L12.7211 16.2953ZM12.7211 16.2953C12.7438 15.9852 12.8085 15.7433 12.9096 15.6175L12.7211 16.2953ZM31.0646 26.6127L31.0631 26.6161C31.0636 26.615 31.0641 26.6139 31.0646 26.6127Z" fill="#6E7CFB" fill-opacity="0.1" stroke="#6E7CFB" stroke-width="0.995439"/>
</svg>
