<svg width="582" height="191" fill="none" xmlns="http://www.w3.org/2000/svg"><g clip-path="url(#clip0)"><g clip-path="url(#clip1)"><g clip-path="url(#clip2)"><path d="M35.967 58.108c1.898 0 2.988-1.605 2.988-4.412 0-2.8-1.107-4.441-2.988-4.441-1.893 0-3 1.634-3 4.423 0 2.813 1.096 4.43 3 4.43zm0-.92c-1.248 0-1.94-1.248-1.94-3.51 0-2.232.703-3.498 1.94-3.498 1.236 0 1.928 1.254 1.928 3.498 0 2.268-.68 3.51-1.928 3.51zm5.988-3.908c1.143 0 1.834-.744 1.834-1.992 0-1.23-.697-1.987-1.834-1.987s-1.84.756-1.84 1.987c0 1.242.692 1.992 1.84 1.992zm.38 4.629l5.843-8.455h-.955l-5.842 8.455h.955zm-.38-5.397c-.592 0-.932-.445-.932-1.218 0-.768.34-1.22.932-1.22.586 0 .926.452.926 1.22 0 .767-.334 1.218-.926 1.218zm5.654 5.479c1.143 0 1.834-.744 1.834-1.992 0-1.23-.697-1.987-1.834-1.987-1.136 0-1.84.756-1.84 1.987 0 1.242.698 1.992 1.84 1.992zm0-.768c-.591 0-.925-.445-.925-1.218 0-.768.334-1.22.925-1.22.592 0 .926.452.926 1.22 0 .767-.334 1.218-.926 1.218z" fill="#000"/><path d="M41 60.909v5" stroke="#C2CBD3"/></g><g clip-path="url(#clip3)"><path d="M154.51 51.839h1.019c0-1.002.674-1.665 1.688-1.665.996 0 1.599.668 1.599 1.565 0 .744-.316 1.184-1.394 2.35l-2.86 3.093v.727h5.473v-.95h-4.008v-.093l1.922-1.986c1.524-1.577 1.946-2.28 1.946-3.252 0-1.371-1.131-2.373-2.608-2.373-1.617 0-2.777 1.078-2.777 2.584zm10.119 6.269c1.728 0 2.906-1.195 2.906-2.935 0-1.676-1.172-2.79-2.59-2.79-.843 0-1.47.258-1.881.768h-.093l.263-2.754h3.868v-.943h-4.694l-.486 4.834h.99c.334-.627.967-.996 1.77-.996 1.066 0 1.798.767 1.798 1.91 0 1.183-.732 1.98-1.839 1.98-.996 0-1.723-.603-1.817-1.506h-1.037c.094 1.448 1.242 2.432 2.842 2.432zm5.889-4.828c1.142 0 1.834-.744 1.834-1.992 0-1.23-.698-1.987-1.834-1.987-1.137 0-1.84.756-1.84 1.987 0 1.242.691 1.992 1.84 1.992zm.38 4.629l5.842-8.455h-.955l-5.842 8.455h.955zm-.38-5.397c-.592 0-.932-.445-.932-1.218 0-.768.34-1.22.932-1.22.586 0 .925.452.925 1.22 0 .767-.334 1.218-.925 1.218zm5.654 5.479c1.142 0 1.834-.744 1.834-1.992 0-1.23-.697-1.987-1.834-1.987s-1.84.756-1.84 1.987c0 1.242.697 1.992 1.84 1.992zm0-.768c-.592 0-.926-.445-.926-1.218 0-.768.334-1.22.926-1.22.592 0 .926.452.926 1.22 0 .767-.334 1.218-.926 1.218z" fill="#000"/><path d="M166 60.909v5" stroke="#C2CBD3"/></g><g clip-path="url(#clip4)"><path fill="#FAFAFC" d="M241 46.909h100v19H241z"/><path d="M282.223 58.108c1.728 0 2.906-1.195 2.906-2.935 0-1.676-1.172-2.79-2.59-2.79-.844 0-1.471.258-1.881.768h-.094l.264-2.754h3.867v-.943h-4.693l-.486 4.834h.99c.334-.627.967-.996 1.769-.996 1.067 0 1.799.767 1.799 1.91 0 1.183-.732 1.98-1.84 1.98-.996 0-1.722-.603-1.816-1.506h-1.037c.094 1.448 1.242 2.432 2.842 2.432zm7.459 0c1.898 0 2.988-1.605 2.988-4.412 0-2.8-1.108-4.441-2.988-4.441-1.893 0-3 1.634-3 4.423 0 2.813 1.095 4.43 3 4.43zm0-.92c-1.248 0-1.94-1.248-1.94-3.51 0-2.232.703-3.498 1.94-3.498 1.236 0 1.927 1.254 1.927 3.498 0 2.268-.679 3.51-1.927 3.51zm5.988-3.908c1.142 0 1.834-.744 1.834-1.992 0-1.23-.697-1.987-1.834-1.987s-1.84.756-1.84 1.987c0 1.242.691 1.992 1.84 1.992zm.381 4.629l5.842-8.455h-.955l-5.842 8.455h.955zm-.381-5.397c-.592 0-.932-.445-.932-1.218 0-.768.34-1.22.932-1.22.586 0 .926.452.926 1.22 0 .767-.334 1.218-.926 1.218zm5.654 5.479c1.143 0 1.834-.744 1.834-1.992 0-1.23-.697-1.987-1.834-1.987-1.136 0-1.84.756-1.84 1.987 0 1.242.698 1.992 1.84 1.992zm0-.768c-.592 0-.926-.445-.926-1.218 0-.768.334-1.22.926-1.22.592 0 .926.452.926 1.22 0 .767-.334 1.218-.926 1.218z" fill="#000"/><path d="M291 60.909v5" stroke="#C2CBD3"/></g><g clip-path="url(#clip5)"><path d="M405.178 57.909h1.107l3.762-7.477v-.978h-5.596v.943h4.524v.082l-3.797 7.43zm9.187.199c1.729 0 2.906-1.195 2.906-2.935 0-1.676-1.171-2.79-2.589-2.79-.844 0-1.471.258-1.881.768h-.094l.264-2.754h3.867v-.943h-4.693l-.487 4.834h.99c.334-.627.967-.996 1.77-.996 1.066 0 1.799.767 1.799 1.91 0 1.183-.733 1.98-1.84 1.98-.996 0-1.723-.603-1.816-1.506h-1.038c.094 1.448 1.243 2.432 2.842 2.432zm5.889-4.828c1.142 0 1.834-.744 1.834-1.992 0-1.23-.697-1.987-1.834-1.987s-1.84.756-1.84 1.987c0 1.242.691 1.992 1.84 1.992zm.381 4.629l5.842-8.455h-.956l-5.841 8.455h.955zm-.381-5.397c-.592 0-.932-.445-.932-1.218 0-.768.34-1.22.932-1.22.586 0 .926.452.926 1.22 0 .767-.334 1.218-.926 1.218zm5.654 5.479c1.143 0 1.834-.744 1.834-1.992 0-1.23-.697-1.987-1.834-1.987s-1.84.756-1.84 1.987c0 1.242.698 1.992 1.84 1.992zm0-.768c-.592 0-.926-.445-.926-1.218 0-.768.334-1.22.926-1.22.592 0 .926.452.926 1.22 0 .767-.334 1.218-.926 1.218z" fill="#000"/><path d="M416 60.909v5" stroke="#C2CBD3"/></g><g clip-path="url(#clip6)"><path d="M528.566 57.909h1.055v-8.455h-1.049l-2.25 1.617v1.113l2.151-1.558h.093v7.283zm6.422.199c1.899 0 2.989-1.605 2.989-4.412 0-2.8-1.108-4.441-2.989-4.441-1.892 0-3 1.634-3 4.423 0 2.813 1.096 4.43 3 4.43zm0-.92c-1.248 0-1.939-1.248-1.939-3.51 0-2.232.703-3.498 1.939-3.498 1.237 0 1.928 1.254 1.928 3.498 0 2.268-.68 3.51-1.928 3.51zm7.559.92c1.898 0 2.988-1.605 2.988-4.412 0-2.8-1.107-4.441-2.988-4.441-1.893 0-3 1.634-3 4.423 0 2.813 1.096 4.43 3 4.43zm0-.92c-1.248 0-1.94-1.248-1.94-3.51 0-2.232.704-3.498 1.94-3.498s1.928 1.254 1.928 3.498c0 2.268-.68 3.51-1.928 3.51zm5.988-3.908c1.143 0 1.834-.744 1.834-1.992 0-1.23-.697-1.987-1.834-1.987s-1.84.756-1.84 1.987c0 1.242.692 1.992 1.84 1.992zm.381 4.629l5.842-8.455h-.955l-5.842 8.455h.955zm-.381-5.397c-.592 0-.931-.445-.931-1.218 0-.768.339-1.22.931-1.22.586 0 .926.452.926 1.22 0 .767-.334 1.218-.926 1.218zm5.654 5.479c1.143 0 1.834-.744 1.834-1.992 0-1.23-.697-1.987-1.834-1.987-1.136 0-1.839.756-1.839 1.987 0 1.242.697 1.992 1.839 1.992zm0-.768c-.591 0-.925-.445-.925-1.218 0-.768.334-1.22.925-1.22.592 0 .926.452.926 1.22 0 .767-.334 1.218-.926 1.218z" fill="#000"/><path d="M541 60.909v5" stroke="#C2CBD3"/></g></g><g clip-path="url(#clip7)"><rect x="16" y="72" width="550" height="5" rx="2.5" fill="#D3DAE0"/></g><g clip-path="url(#clip8)"><g clip-path="url(#clip9)"><path d="M41 83.909v5" stroke="#C2CBD3"/><path d="M9.846 101.909l3.117-8.455h-1.107l-2.485 7.09h-.094l-2.484-7.09H5.686l3.117 8.455h1.043zm8.068-1.635c-.264.557-.814.856-1.629.856-1.072 0-1.77-.791-1.822-2.04v-.046h4.54v-.387c0-1.963-1.036-3.176-2.741-3.176-1.735 0-2.848 1.29-2.848 3.276 0 1.998 1.096 3.263 2.848 3.263 1.383 0 2.367-.668 2.66-1.746h-1.008zm-1.664-3.902c1.002 0 1.67.738 1.693 1.857h-3.48c.076-1.119.78-1.857 1.787-1.857zm4.336 5.537h1.008v-3.914c0-.89.697-1.535 1.658-1.535.2 0 .563.035.645.058V95.51a4.324 4.324 0 00-.504-.029c-.838 0-1.565.434-1.752 1.049h-.094v-.938h-.961v6.317zm5.11 2.285c1.118 0 1.622-.434 2.161-1.898l2.467-6.704h-1.072l-1.729 5.198h-.093l-1.735-5.198h-1.09l2.338 6.323-.117.375c-.264.761-.58 1.037-1.16 1.037-.14 0-.299-.006-.422-.03v.862c.14.023.317.035.451.035zm14.472-8.602H39.16v3.739c0 1.107-.61 1.769-1.722 1.769-1.008 0-1.43-.527-1.43-1.664v-3.844H35v4.09c0 1.494.738 2.338 2.156 2.338.967 0 1.64-.398 1.957-1.101h.094v.99h.961v-6.317zm1.898 6.317h1.008V98.17c0-1.107.65-1.78 1.658-1.78s1.489.538 1.489 1.675v3.844h1.008v-4.09c0-1.5-.791-2.338-2.21-2.338-.966 0-1.581.41-1.898 1.108h-.094v-.997h-.96v6.317zm7.067 0h1.008v-8.824h-1.008v8.824zm3.492-7.535a.705.705 0 00.703-.703.705.705 0 00-.703-.704.705.705 0 00-.703.704c0 .386.316.703.703.703zm-.504 7.535h1.008v-6.317H52.12v6.317zm4.09-3.557h-.094v-5.267H55.11v8.824h1.008v-2.397l.604-.562 2.367 2.959h1.283l-2.9-3.61 2.719-2.707h-1.237l-2.742 2.76zm9.246 1.922c-.264.557-.814.856-1.629.856-1.072 0-1.77-.791-1.822-2.04v-.046h4.54v-.387c0-1.963-1.036-3.176-2.741-3.176-1.735 0-2.848 1.29-2.848 3.276 0 1.998 1.096 3.263 2.848 3.263 1.383 0 2.367-.668 2.66-1.746h-1.008zm-1.664-3.902c1.002 0 1.67.738 1.693 1.857h-3.48c.076-1.119.78-1.857 1.787-1.857zm4.395 5.537h1.007v-8.824h-1.007v8.824zm3.503 2.285c1.12 0 1.623-.434 2.162-1.898l2.467-6.704h-1.072l-1.729 5.198h-.093l-1.735-5.198h-1.09l2.338 6.323-.117.375c-.263.761-.58 1.037-1.16 1.037-.14 0-.299-.006-.422-.03v.862c.14.023.317.035.451.035zm-66.199 3.764v1.634h-1.02v.844h1.02v3.832c0 1.207.522 1.688 1.822 1.688.2 0 .393-.024.592-.059v-.85a4.157 4.157 0 01-.468.024c-.657 0-.938-.316-.938-1.061v-3.574h1.406v-.844H6.5v-1.634H5.492zm6.44 8.062c1.798 0 2.912-1.242 2.912-3.269 0-2.034-1.114-3.27-2.912-3.27-1.8 0-2.912 1.236-2.912 3.27 0 2.027 1.113 3.269 2.912 3.269zm0-.908c-1.196 0-1.87-.867-1.87-2.361 0-1.5.674-2.362 1.87-2.362 1.195 0 1.869.862 1.869 2.362 0 1.494-.674 2.361-1.87 2.361zm10.218.908c.873 0 1.623-.416 2.022-1.119h.094v1.008h.96v-8.824H24.22v3.504h-.088c-.358-.692-1.102-1.108-1.98-1.108-1.606 0-2.655 1.289-2.655 3.27 0 1.986 1.037 3.269 2.654 3.269zm.235-5.631c1.142 0 1.857.914 1.857 2.362 0 1.459-.709 2.361-1.857 2.361-1.155 0-1.846-.885-1.846-2.361 0-1.471.697-2.362 1.846-2.362zm6.556 5.631c.844 0 1.536-.369 1.946-1.043h.093v.932h.961v-4.324c0-1.313-.86-2.104-2.402-2.104-1.348 0-2.344.668-2.479 1.682h1.02c.14-.498.668-.785 1.424-.785.943 0 1.43.427 1.43 1.207v.574l-1.823.111c-1.47.088-2.302.738-2.302 1.869 0 1.155.908 1.881 2.132 1.881zm.188-.885c-.733 0-1.277-.375-1.277-1.019 0-.633.421-.967 1.382-1.031l1.7-.112v.58c0 .903-.768 1.582-1.805 1.582zm5.098-7.177v1.634h-1.02v.844h1.02v3.832c0 1.207.521 1.688 1.822 1.688.199 0 .392-.024.592-.059v-.85a4.157 4.157 0 01-.47.024c-.655 0-.937-.316-.937-1.061v-3.574h1.407v-.844h-1.407v-1.634h-1.007zm8.027 6.316c-.264.557-.814.856-1.629.856-1.072 0-1.77-.791-1.822-2.04v-.046h4.54v-.387c0-1.963-1.036-3.176-2.741-3.176-1.735 0-2.848 1.289-2.848 3.275 0 1.999 1.096 3.264 2.848 3.264 1.382 0 2.367-.668 2.66-1.746h-1.008zm-1.664-3.902c1.002 0 1.67.738 1.693 1.857h-3.48c.076-1.119.779-1.857 1.787-1.857zm9.48 5.648c.844 0 1.535-.369 1.946-1.043h.093v.932h.961v-4.324c0-1.313-.861-2.104-2.402-2.104-1.348 0-2.344.668-2.478 1.682h1.019c.14-.498.668-.785 1.424-.785.943 0 1.43.427 1.43 1.207v.574l-1.823.111c-1.47.088-2.303.738-2.303 1.869 0 1.155.909 1.881 2.133 1.881zm.188-.885c-.733 0-1.278-.375-1.278-1.019 0-.633.422-.967 1.383-1.031l1.7-.112v.58c0 .903-.768 1.582-1.805 1.582zm7.277 3.2c1.723 0 2.813-.903 2.813-2.315v-6.428h-.961v1.002h-.094c-.363-.679-1.143-1.113-2.027-1.113-1.623 0-2.649 1.283-2.649 3.176 0 1.892 1.014 3.158 2.649 3.158.867 0 1.582-.393 1.98-1.09h.094v1.242c0 .932-.674 1.489-1.805 1.489-.908 0-1.47-.334-1.582-.85h-1.066c.152 1.043 1.125 1.729 2.648 1.729zm-.047-3.411c-1.172 0-1.828-.89-1.828-2.267 0-1.377.656-2.268 1.828-2.268 1.166 0 1.875.891 1.875 2.268 0 1.377-.703 2.267-1.875 2.267zm6.516 1.096c.844 0 1.535-.369 1.945-1.043h.094v.932h.96v-4.324c0-1.313-.86-2.104-2.401-2.104-1.348 0-2.344.668-2.479 1.682h1.02c.14-.498.667-.785 1.423-.785.944 0 1.43.427 1.43 1.207v.574l-1.822.111c-1.47.088-2.303.738-2.303 1.869 0 1.155.908 1.881 2.133 1.881zm.187-.885c-.732 0-1.277-.375-1.277-1.019 0-.633.422-.967 1.383-1.031l1.7-.112v.58c0 .903-.769 1.582-1.806 1.582zm5.203-6.761a.706.706 0 00.704-.703.706.706 0 00-.704-.704.706.706 0 00-.703.704c0 .386.317.703.703.703zm-.503 7.535h1.007v-6.317h-1.007v6.317zm2.93 0h1.007v-3.738c0-1.108.65-1.782 1.658-1.782s1.489.539 1.489 1.676v3.844h1.007v-4.09c0-1.5-.79-2.338-2.209-2.338-.966 0-1.582.41-1.898 1.108h-.094v-.997h-.96v6.317z" fill="#7D8893"/></g><g clip-path="url(#clip10)"><path d="M166 83.909v5" stroke="#C2CBD3"/><path d="M136.832 93.454h-1.055v5.549c0 1.804 1.26 3.105 3.358 3.105 2.097 0 3.357-1.301 3.357-3.105v-5.55h-1.054v5.48c0 1.277-.838 2.202-2.303 2.202-1.465 0-2.303-.925-2.303-2.203v-5.478zm7.676 8.455h1.008V98.17c0-1.107.65-1.78 1.658-1.78s1.488.538 1.488 1.675v3.844h1.008v-4.09c0-1.5-.791-2.338-2.209-2.338-.967 0-1.582.41-1.899 1.108h-.093v-.997h-.961v6.317zm7.066 0h1.008v-8.824h-1.008v8.824zm3.492-7.535a.706.706 0 00.704-.703.706.706 0 00-.704-.704.706.706 0 00-.703.704c0 .386.317.703.703.703zm-.504 7.535h1.008v-6.317h-1.008v6.317zm4.09-3.557h-.093v-5.267h-1.008v8.824h1.008v-2.397l.603-.562 2.367 2.959h1.283l-2.9-3.61 2.719-2.707h-1.236l-2.743 2.76zm9.246 1.922c-.263.557-.814.856-1.628.856-1.073 0-1.77-.791-1.823-2.04v-.046h4.541v-.387c0-1.963-1.037-3.176-2.742-3.176-1.734 0-2.848 1.29-2.848 3.276 0 1.998 1.096 3.263 2.848 3.263 1.383 0 2.367-.668 2.66-1.746h-1.008zm-1.664-3.902c1.002 0 1.67.738 1.694 1.857h-3.481c.076-1.119.78-1.857 1.787-1.857zm4.395 5.537h1.008v-8.824h-1.008v8.824zm3.504 2.285c1.119 0 1.623-.434 2.162-1.898l2.467-6.704h-1.073l-1.728 5.198h-.094l-1.734-5.198h-1.09l2.338 6.323-.117.375c-.264.761-.58 1.037-1.16 1.037-.141 0-.299-.006-.422-.03v.862c.14.023.316.035.451.035zm9.785-10.236v1.634h-1.02v.844h1.02v3.832c0 1.207.521 1.688 1.822 1.688.199 0 .393-.024.592-.059v-.85a4.151 4.151 0 01-.469.024c-.656 0-.937-.316-.937-1.061v-3.574h1.406v-.844h-1.406v-1.634h-1.008zm6.439 8.062c1.799 0 2.913-1.242 2.913-3.27 0-2.033-1.114-3.269-2.913-3.269-1.798 0-2.912 1.236-2.912 3.27 0 2.027 1.114 3.269 2.912 3.269zm0-.908c-1.195 0-1.869-.867-1.869-2.361 0-1.5.674-2.362 1.869-2.362 1.196 0 1.87.862 1.87 2.362 0 1.494-.674 2.361-1.87 2.361zm-50.578 14.908c.873 0 1.623-.416 2.022-1.119h.094v1.008h.96v-8.824h-1.007v3.504h-.088c-.358-.692-1.102-1.108-1.981-1.108-1.605 0-2.654 1.289-2.654 3.27 0 1.986 1.037 3.269 2.654 3.269zm.235-5.631c1.142 0 1.857.914 1.857 2.362 0 1.459-.709 2.361-1.857 2.361-1.155 0-1.846-.885-1.846-2.361 0-1.471.697-2.362 1.846-2.362zm6.556 5.631c.844 0 1.535-.369 1.946-1.043h.093v.932h.961v-4.324c0-1.313-.861-2.104-2.402-2.104-1.348 0-2.344.668-2.479 1.682h1.02c.141-.498.668-.785 1.424-.785.943 0 1.429.427 1.429 1.207v.574l-1.822.111c-1.47.088-2.302.738-2.302 1.869 0 1.155.908 1.881 2.132 1.881zm.188-.885c-.733 0-1.278-.375-1.278-1.019 0-.633.422-.967 1.383-1.031l1.699-.112v.58c0 .903-.767 1.582-1.804 1.582zm5.097-7.177v1.634h-1.019v.844h1.019v3.832c0 1.207.522 1.688 1.823 1.688.199 0 .392-.024.592-.059v-.85a4.175 4.175 0 01-.469.024c-.656 0-.938-.316-.938-1.061v-3.574h1.407v-.844h-1.407v-1.634h-1.008zm8.028 6.316c-.264.557-.815.856-1.629.856-1.072 0-1.77-.791-1.822-2.04v-.046h4.541v-.387c0-1.963-1.037-3.176-2.743-3.176-1.734 0-2.847 1.289-2.847 3.275 0 1.999 1.096 3.264 2.847 3.264 1.383 0 2.368-.668 2.661-1.746h-1.008zm-1.664-3.902c1.002 0 1.67.738 1.693 1.857h-3.48c.076-1.119.779-1.857 1.787-1.857zm9.48 5.648c.844 0 1.535-.369 1.946-1.043h.093v.932h.961v-4.324c0-1.313-.861-2.104-2.402-2.104-1.348 0-2.344.668-2.479 1.682h1.02c.141-.498.668-.785 1.424-.785.943 0 1.429.427 1.429 1.207v.574l-1.822.111c-1.471.088-2.303.738-2.303 1.869 0 1.155.909 1.881 2.133 1.881zm.188-.885c-.733 0-1.278-.375-1.278-1.019 0-.633.422-.967 1.383-1.031l1.699-.112v.58c0 .903-.767 1.582-1.804 1.582zm7.277 3.2c1.723 0 2.813-.903 2.813-2.315v-6.428h-.961v1.002h-.094c-.363-.679-1.143-1.113-2.027-1.113-1.624 0-2.649 1.283-2.649 3.176 0 1.892 1.014 3.158 2.649 3.158.867 0 1.582-.393 1.98-1.09h.094v1.242c0 .932-.674 1.489-1.805 1.489-.908 0-1.471-.334-1.582-.85h-1.066c.152 1.043 1.125 1.729 2.648 1.729zm-.047-3.411c-1.172 0-1.828-.89-1.828-2.267 0-1.377.656-2.268 1.828-2.268 1.166 0 1.875.891 1.875 2.268 0 1.377-.703 2.267-1.875 2.267zm6.516 1.096c.844 0 1.535-.369 1.945-1.043h.094v.932h.961v-4.324c0-1.313-.862-2.104-2.403-2.104-1.347 0-2.343.668-2.478 1.682h1.019c.141-.498.668-.785 1.424-.785.944 0 1.43.427 1.43 1.207v.574l-1.822.111c-1.471.088-2.303.738-2.303 1.869 0 1.155.908 1.881 2.133 1.881zm.187-.885c-.732 0-1.277-.375-1.277-1.019 0-.633.422-.967 1.383-1.031l1.699-.112v.58c0 .903-.768 1.582-1.805 1.582zm5.203-6.761a.706.706 0 00.704-.703.706.706 0 00-.704-.704.706.706 0 00-.703.704c0 .386.317.703.703.703zm-.503 7.535h1.007v-6.317h-1.007v6.317zm2.929 0h1.008v-3.738c0-1.108.65-1.782 1.658-1.782s1.489.539 1.489 1.676v3.844h1.007v-4.09c0-1.5-.791-2.338-2.209-2.338-.966 0-1.582.41-1.898 1.108h-.094v-.997h-.961v6.317z" fill="#7D8893"/></g><g clip-path="url(#clip11)"><path d="M291 83.909v5" stroke="#C2CBD3"/><path d="M254.625 101.909v-6.557h.094l4.588 6.557h1.025v-8.455h-1.043v6.58h-.094l-4.588-6.58h-1.025v8.455h1.043zm11.918-1.635c-.264.557-.814.856-1.629.856-1.072 0-1.769-.791-1.822-2.04v-.046h4.541v-.387c0-1.963-1.037-3.176-2.742-3.176-1.735 0-2.848 1.29-2.848 3.276 0 1.998 1.096 3.263 2.848 3.263 1.382 0 2.367-.668 2.66-1.746h-1.008zm-1.664-3.902c1.002 0 1.67.738 1.693 1.857h-3.48c.076-1.119.779-1.857 1.787-1.857zm4.863-1.998a.705.705 0 00.703-.703.705.705 0 00-.703-.704.705.705 0 00-.703.704c0 .386.316.703.703.703zm-.504 7.535h1.008v-6.317h-1.008v6.317zm3.352-7.951v1.634h-1.02v.844h1.02v3.832c0 1.207.521 1.688 1.822 1.688.199 0 .393-.024.592-.059v-.85a4.163 4.163 0 01-.469.024c-.656 0-.937-.316-.937-1.061v-3.574h1.406v-.844h-1.406v-1.634h-1.008zm3.996 7.951h1.008V98.17c0-1.066.621-1.78 1.752-1.78.955 0 1.459.556 1.459 1.675v3.844h1.007v-4.09c0-1.483-.843-2.338-2.179-2.338-.967 0-1.629.41-1.945 1.108h-.094v-3.504h-1.008v8.824zm11.25-1.635c-.264.557-.815.856-1.629.856-1.072 0-1.769-.791-1.822-2.04v-.046h4.541v-.387c0-1.963-1.037-3.176-2.742-3.176-1.735 0-2.848 1.29-2.848 3.276 0 1.998 1.096 3.263 2.848 3.263 1.382 0 2.367-.668 2.66-1.746h-1.008zm-1.664-3.902c1.002 0 1.67.738 1.693 1.857h-3.48c.076-1.119.779-1.857 1.787-1.857zm4.336 5.537h1.008v-3.914c0-.89.697-1.535 1.658-1.535.199 0 .562.035.644.058V95.51a4.314 4.314 0 00-.504-.029c-.837 0-1.564.434-1.752 1.049h-.093v-.938h-.961v6.317zm8.015 0h1.008v-8.824h-1.008v8.824zm3.493-7.535a.706.706 0 00.703-.703.706.706 0 00-.703-.704.706.706 0 00-.704.704c0 .386.317.703.704.703zm-.504 7.535h1.008v-6.317h-1.008v6.317zm4.09-3.557h-.094v-5.267H304.5v8.824h1.008v-2.397l.603-.562 2.368 2.959h1.283l-2.901-3.61 2.719-2.707h-1.236l-2.742 2.76zm9.246 1.922c-.264.557-.815.856-1.629.856-1.073 0-1.77-.791-1.823-2.04v-.046h4.542v-.387c0-1.963-1.038-3.176-2.743-3.176-1.734 0-2.847 1.29-2.847 3.276 0 1.998 1.095 3.263 2.847 3.263 1.383 0 2.367-.668 2.66-1.746h-1.007zm-1.664-3.902c1.002 0 1.67.738 1.693 1.857h-3.481c.077-1.119.78-1.857 1.788-1.857zm4.394 5.537h1.008v-8.824h-1.008v8.824zm3.504 2.285c1.119 0 1.623-.434 2.162-1.898l2.467-6.704h-1.072l-1.729 5.198h-.094l-1.734-5.198h-1.09l2.338 6.323-.117.375c-.264.761-.58 1.037-1.16 1.037-.141 0-.299-.006-.422-.03v.862c.14.023.316.035.451.035zm-61.465 11.715h1.008v-3.738c0-1.108.65-1.782 1.658-1.782s1.488.539 1.488 1.676v3.844h1.008v-4.09c0-1.5-.791-2.338-2.209-2.338-.966 0-1.582.41-1.898 1.108h-.094v-.997h-.961v6.317zm9.604.111c1.799 0 2.912-1.242 2.912-3.269 0-2.034-1.113-3.27-2.912-3.27s-2.912 1.236-2.912 3.27c0 2.027 1.113 3.269 2.912 3.269zm0-.908c-1.196 0-1.869-.867-1.869-2.361 0-1.5.673-2.362 1.869-2.362 1.195 0 1.869.862 1.869 2.362 0 1.494-.674 2.361-1.869 2.361zm4.494.797h1.008v-3.914c0-.891.697-1.535 1.658-1.535.199 0 .562.035.644.058v-1.008a4.453 4.453 0 00-.504-.029c-.837 0-1.564.434-1.751 1.049h-.094v-.938h-.961v6.317zm13.066-6.317h-1.008v3.739c0 1.107-.609 1.769-1.722 1.769-1.008 0-1.43-.527-1.43-1.664v-3.844h-1.008v4.09c0 1.494.739 2.338 2.157 2.338.966 0 1.64-.398 1.957-1.101h.093v.99h.961v-6.317zm1.899 6.317h1.008v-3.738c0-1.108.65-1.782 1.658-1.782s1.488.539 1.488 1.676v3.844h1.008v-4.09c0-1.5-.791-2.338-2.209-2.338-.967 0-1.582.41-1.899 1.108h-.093v-.997h-.961v6.317zm7.066 0h1.008v-8.824h-1.008v8.824zm3.492-7.535a.705.705 0 00.703-.703.705.705 0 00-.703-.704.706.706 0 00-.703.704c0 .386.317.703.703.703zm-.504 7.535h1.008v-6.317h-1.008v6.317zm4.09-3.557h-.094v-5.267h-1.007v8.824h1.007v-2.397l.604-.562 2.367 2.959h1.283l-2.9-3.61 2.719-2.707h-1.237l-2.742 2.76zm9.246 1.922c-.263.557-.814.856-1.629.856-1.072 0-1.769-.791-1.822-2.04v-.046h4.541v-.387c0-1.963-1.037-3.176-2.742-3.176-1.734 0-2.848 1.289-2.848 3.275 0 1.999 1.096 3.264 2.848 3.264 1.383 0 2.367-.668 2.66-1.746h-1.008zm-1.664-3.902c1.002 0 1.67.738 1.694 1.857h-3.481c.076-1.119.779-1.857 1.787-1.857zm4.395 5.537h1.008v-8.824h-1.008v8.824zm3.504 2.285c1.119 0 1.623-.434 2.162-1.898l2.467-6.704h-1.073l-1.728 5.198h-.094l-1.734-5.198h-1.09l2.338 6.323-.117.375c-.264.761-.581 1.037-1.161 1.037-.14 0-.298-.006-.421-.03v.862c.14.023.316.035.451.035z" fill="#7D8893"/></g><g clip-path="url(#clip12)"><path d="M416 83.909v5" stroke="#C2CBD3"/><path d="M398.645 100.96h-4.079v-7.506h-1.054v8.455h5.133v-.949zm2.085-6.586a.706.706 0 00.704-.703.706.706 0 00-.704-.704.706.706 0 00-.703.704c0 .386.317.703.703.703zm-.503 7.535h1.007v-6.317h-1.007v6.317zm4.089-3.557h-.093v-5.267h-1.008v8.824h1.008v-2.397l.603-.562 2.367 2.959h1.284l-2.901-3.61 2.719-2.707h-1.236l-2.743 2.76zm9.246 1.922c-.263.557-.814.856-1.628.856-1.073 0-1.77-.791-1.823-2.04v-.046h4.541v-.387c0-1.963-1.037-3.176-2.742-3.176-1.734 0-2.848 1.29-2.848 3.276 0 1.998 1.096 3.263 2.848 3.263 1.383 0 2.367-.668 2.66-1.746h-1.008zm-1.664-3.902c1.002 0 1.67.738 1.694 1.857h-3.481c.077-1.119.78-1.857 1.787-1.857zm4.395 5.537h1.008v-8.824h-1.008v8.824zm3.504 2.285c1.119 0 1.623-.434 2.162-1.898l2.467-6.704h-1.072l-1.729 5.198h-.094l-1.734-5.198h-1.09l2.338 6.323-.117.375c-.264.761-.58 1.037-1.16 1.037-.141 0-.299-.006-.422-.03v.862c.14.023.316.035.451.035zm9.785-10.236v1.634h-1.02v.844h1.02v3.832c0 1.207.522 1.688 1.822 1.688.2 0 .393-.024.592-.059v-.85a4.151 4.151 0 01-.469.024c-.656 0-.937-.316-.937-1.061v-3.574h1.406v-.844h-1.406v-1.634h-1.008zm6.439 8.062c1.799 0 2.913-1.242 2.913-3.27 0-2.033-1.114-3.269-2.913-3.269-1.798 0-2.912 1.236-2.912 3.27 0 2.027 1.114 3.269 2.912 3.269zm0-.908c-1.195 0-1.869-.867-1.869-2.361 0-1.5.674-2.362 1.869-2.362 1.196 0 1.87.862 1.87 2.362 0 1.494-.674 2.361-1.87 2.361zm-46.242 14.908c.873 0 1.623-.416 2.022-1.119h.094v1.008h.96v-8.824h-1.007v3.504h-.088c-.358-.692-1.102-1.108-1.981-1.108-1.605 0-2.654 1.289-2.654 3.27 0 1.986 1.037 3.269 2.654 3.269zm.235-5.631c1.142 0 1.857.914 1.857 2.362 0 1.459-.709 2.361-1.857 2.361-1.155 0-1.846-.885-1.846-2.361 0-1.471.697-2.362 1.846-2.362zm6.556 5.631c.844 0 1.535-.369 1.946-1.043h.093v.932h.961v-4.324c0-1.313-.861-2.104-2.402-2.104-1.348 0-2.344.668-2.479 1.682h1.02c.141-.498.668-.785 1.424-.785.943 0 1.429.427 1.429 1.207v.574l-1.822.111c-1.47.088-2.302.738-2.302 1.869 0 1.155.908 1.881 2.132 1.881zm.188-.885c-.733 0-1.278-.375-1.278-1.019 0-.633.422-.967 1.383-1.031l1.699-.112v.58c0 .903-.767 1.582-1.804 1.582zm5.097-7.177v1.634h-1.019v.844h1.019v3.832c0 1.207.522 1.688 1.823 1.688.199 0 .392-.024.592-.059v-.85a4.175 4.175 0 01-.469.024c-.656 0-.938-.316-.938-1.061v-3.574h1.407v-.844h-1.407v-1.634h-1.008zm8.028 6.316c-.264.557-.815.856-1.629.856-1.072 0-1.77-.791-1.822-2.04v-.046h4.541v-.387c0-1.963-1.037-3.176-2.743-3.176-1.734 0-2.847 1.289-2.847 3.275 0 1.999 1.096 3.264 2.847 3.264 1.383 0 2.368-.668 2.661-1.746h-1.008zm-1.664-3.902c1.002 0 1.67.738 1.693 1.857h-3.48c.076-1.119.779-1.857 1.787-1.857zm9.48 5.648c.844 0 1.535-.369 1.946-1.043h.093v.932h.961v-4.324c0-1.313-.861-2.104-2.402-2.104-1.348 0-2.344.668-2.479 1.682h1.02c.141-.498.668-.785 1.424-.785.943 0 1.429.427 1.429 1.207v.574l-1.822.111c-1.471.088-2.303.738-2.303 1.869 0 1.155.909 1.881 2.133 1.881zm.188-.885c-.733 0-1.278-.375-1.278-1.019 0-.633.422-.967 1.383-1.031l1.699-.112v.58c0 .903-.767 1.582-1.804 1.582zm7.277 3.2c1.723 0 2.813-.903 2.813-2.315v-6.428h-.961v1.002h-.094c-.363-.679-1.143-1.113-2.027-1.113-1.624 0-2.649 1.283-2.649 3.176 0 1.892 1.014 3.158 2.649 3.158.867 0 1.582-.393 1.98-1.09h.094v1.242c0 .932-.674 1.489-1.805 1.489-.908 0-1.471-.334-1.582-.85h-1.066c.152 1.043 1.125 1.729 2.648 1.729zm-.047-3.411c-1.172 0-1.828-.89-1.828-2.267 0-1.377.656-2.268 1.828-2.268 1.166 0 1.875.891 1.875 2.268 0 1.377-.703 2.267-1.875 2.267zm6.516 1.096c.844 0 1.535-.369 1.945-1.043h.094v.932h.961v-4.324c0-1.313-.862-2.104-2.403-2.104-1.347 0-2.343.668-2.478 1.682h1.019c.141-.498.668-.785 1.424-.785.944 0 1.43.427 1.43 1.207v.574l-1.822.111c-1.471.088-2.303.738-2.303 1.869 0 1.155.908 1.881 2.133 1.881zm.187-.885c-.732 0-1.277-.375-1.277-1.019 0-.633.422-.967 1.383-1.031l1.699-.112v.58c0 .903-.768 1.582-1.805 1.582zm5.203-6.761a.706.706 0 00.704-.703.706.706 0 00-.704-.704.706.706 0 00-.703.704c0 .386.317.703.703.703zm-.503 7.535h1.007v-6.317h-1.007v6.317zm2.929 0h1.008v-3.738c0-1.108.65-1.782 1.658-1.782s1.489.539 1.489 1.676v3.844h1.007v-4.09c0-1.5-.791-2.338-2.209-2.338-.966 0-1.582.41-1.898 1.108h-.094v-.997h-.961v6.317z" fill="#7D8893"/></g><g clip-path="url(#clip13)"><path d="M541 83.909v5" stroke="#C2CBD3"/><path d="M515.16 101.909l3.117-8.455h-1.107l-2.484 7.09h-.094l-2.485-7.09H511l3.117 8.455h1.043zm8.069-1.635c-.264.557-.815.856-1.629.856-1.073 0-1.77-.791-1.823-2.04v-.046h4.541v-.387c0-1.963-1.037-3.176-2.742-3.176-1.734 0-2.847 1.29-2.847 3.276 0 1.998 1.095 3.263 2.847 3.263 1.383 0 2.367-.668 2.66-1.746h-1.007zm-1.665-3.902c1.002 0 1.67.738 1.694 1.857h-3.481c.077-1.119.78-1.857 1.787-1.857zm4.336 5.537h1.008v-3.914c0-.89.697-1.535 1.658-1.535.2 0 .563.035.645.058V95.51a4.327 4.327 0 00-.504-.029c-.838 0-1.564.434-1.752 1.049h-.094v-.938h-.961v6.317zm5.11 2.285c1.119 0 1.623-.434 2.162-1.898l2.467-6.704h-1.073l-1.728 5.198h-.094l-1.734-5.198h-1.09l2.338 6.323-.117.375c-.264.761-.58 1.037-1.161 1.037-.14 0-.298-.006-.421-.03v.862c.14.023.316.035.451.035zm9.422-2.285h1.007v-8.824h-1.007v8.824zm3.492-7.535a.705.705 0 00.703-.703.705.705 0 00-.703-.704.705.705 0 00-.703.704c0 .386.316.703.703.703zm-.504 7.535h1.008v-6.317h-1.008v6.317zm4.09-3.557h-.094v-5.267h-1.008v8.824h1.008v-2.397l.604-.562 2.367 2.959h1.283l-2.9-3.61 2.718-2.707h-1.236l-2.742 2.76zm9.246 1.922c-.264.557-.815.856-1.629.856-1.072 0-1.77-.791-1.822-2.04v-.046h4.541v-.387c0-1.963-1.037-3.176-2.742-3.176-1.735 0-2.848 1.29-2.848 3.276 0 1.998 1.096 3.263 2.848 3.263 1.382 0 2.367-.668 2.66-1.746h-1.008zm-1.664-3.902c1.002 0 1.67.738 1.693 1.857h-3.48c.076-1.119.779-1.857 1.787-1.857zm4.394 5.537h1.008v-8.824h-1.008v8.824zm3.504 2.285c1.119 0 1.623-.434 2.162-1.898l2.467-6.704h-1.072l-1.729 5.198h-.093l-1.735-5.198h-1.09l2.338 6.323-.117.375c-.264.761-.58 1.037-1.16 1.037-.141 0-.299-.006-.422-.03v.862c.141.023.316.035.451.035zm-57.498 3.764v1.634h-1.019v.844h1.019v3.832c0 1.207.522 1.688 1.822 1.688.2 0 .393-.024.592-.059v-.85a4.146 4.146 0 01-.468.024c-.657 0-.938-.316-.938-1.061v-3.574h1.406v-.844H506.5v-1.634h-1.008zm6.44 8.062c1.798 0 2.912-1.242 2.912-3.269 0-2.034-1.114-3.27-2.912-3.27-1.799 0-2.912 1.236-2.912 3.27 0 2.027 1.113 3.269 2.912 3.269zm0-.908c-1.196 0-1.87-.867-1.87-2.361 0-1.5.674-2.362 1.87-2.362 1.195 0 1.869.862 1.869 2.362 0 1.494-.674 2.361-1.869 2.361zm10.218.908c.873 0 1.623-.416 2.022-1.119h.094v1.008h.961v-8.824h-1.008v3.504h-.088c-.358-.692-1.102-1.108-1.981-1.108-1.605 0-2.654 1.289-2.654 3.27 0 1.986 1.037 3.269 2.654 3.269zm.235-5.631c1.142 0 1.857.914 1.857 2.362 0 1.459-.709 2.361-1.857 2.361-1.155 0-1.846-.885-1.846-2.361 0-1.471.697-2.362 1.846-2.362zm6.556 5.631c.844 0 1.536-.369 1.946-1.043h.093v.932h.961v-4.324c0-1.313-.861-2.104-2.402-2.104-1.348 0-2.344.668-2.478 1.682h1.019c.141-.498.668-.785 1.424-.785.943 0 1.43.427 1.43 1.207v.574l-1.823.111c-1.47.088-2.302.738-2.302 1.869 0 1.155.908 1.881 2.132 1.881zm.188-.885c-.733 0-1.277-.375-1.277-1.019 0-.633.421-.967 1.382-1.031l1.7-.112v.58c0 .903-.768 1.582-1.805 1.582zm5.098-7.177v1.634h-1.02v.844h1.02v3.832c0 1.207.521 1.688 1.822 1.688.199 0 .392-.024.592-.059v-.85a4.163 4.163 0 01-.469.024c-.656 0-.938-.316-.938-1.061v-3.574h1.407v-.844h-1.407v-1.634h-1.007zm8.027 6.316c-.264.557-.815.856-1.629.856-1.072 0-1.77-.791-1.822-2.04v-.046h4.541v-.387c0-1.963-1.037-3.176-2.742-3.176-1.735 0-2.848 1.289-2.848 3.275 0 1.999 1.096 3.264 2.848 3.264 1.382 0 2.367-.668 2.66-1.746h-1.008zm-1.664-3.902c1.002 0 1.67.738 1.693 1.857h-3.48c.076-1.119.779-1.857 1.787-1.857zm9.48 5.648c.844 0 1.535-.369 1.946-1.043h.093v.932h.961v-4.324c0-1.313-.861-2.104-2.402-2.104-1.348 0-2.344.668-2.479 1.682h1.02c.141-.498.668-.785 1.424-.785.943 0 1.429.427 1.429 1.207v.574l-1.822.111c-1.47.088-2.302.738-2.302 1.869 0 1.155.908 1.881 2.132 1.881zm.188-.885c-.733 0-1.278-.375-1.278-1.019 0-.633.422-.967 1.383-1.031l1.699-.112v.58c0 .903-.767 1.582-1.804 1.582zm7.277 3.2c1.723 0 2.813-.903 2.813-2.315v-6.428h-.961v1.002h-.094c-.363-.679-1.143-1.113-2.027-1.113-1.623 0-2.649 1.283-2.649 3.176 0 1.892 1.014 3.158 2.649 3.158.867 0 1.582-.393 1.98-1.09h.094v1.242c0 .932-.674 1.489-1.805 1.489-.908 0-1.471-.334-1.582-.85h-1.066c.152 1.043 1.125 1.729 2.648 1.729zm-.047-3.411c-1.172 0-1.828-.89-1.828-2.267 0-1.377.656-2.268 1.828-2.268 1.166 0 1.875.891 1.875 2.268 0 1.377-.703 2.267-1.875 2.267zm6.516 1.096c.844 0 1.535-.369 1.945-1.043h.094v.932h.961v-4.324c0-1.313-.861-2.104-2.402-2.104-1.348 0-2.344.668-2.479 1.682h1.02c.14-.498.668-.785 1.423-.785.944 0 1.43.427 1.43 1.207v.574l-1.822.111c-1.471.088-2.303.738-2.303 1.869 0 1.155.908 1.881 2.133 1.881zm.187-.885c-.732 0-1.277-.375-1.277-1.019 0-.633.422-.967 1.383-1.031l1.699-.112v.58c0 .903-.767 1.582-1.805 1.582zm5.204-6.761a.706.706 0 00.703-.703.706.706 0 00-.703-.704.706.706 0 00-.704.704c0 .386.317.703.704.703zm-.504 7.535h1.007v-6.317h-1.007v6.317zm2.929 0h1.008v-3.738c0-1.108.651-1.782 1.658-1.782 1.008 0 1.489.539 1.489 1.676v3.844h1.007v-4.09c0-1.5-.791-2.338-2.209-2.338-.966 0-1.582.41-1.898 1.108h-.094v-.997h-.961v6.317z" fill="#7D8893"/></g></g><rect x="284.5" y="63.409" width="13" height="25" rx="1.5" fill="url(#paint0_linear)" stroke="#7D8893"/><path d="M288.5 72.409v7M291 70.909v10M293.5 72.409v7" stroke="#7D8893"/><path stroke="#CED0D7" d="M337.5 78v75"/><rect x="244.127" y="131" width="187" height="22" rx="4.977" fill="#EFF0F3"/><path d="M254.571 146v-3.622l2.986-4.795h-1.195l-2.269 3.739h-.094l-2.268-3.739h-1.196l2.986 4.795V146h1.05zm5.932.111c1.79 0 2.899-1.237 2.899-3.255 0-2.024-1.109-3.254-2.899-3.254-1.791 0-2.899 1.23-2.899 3.254 0 2.018 1.108 3.255 2.899 3.255zm0-.904c-1.19 0-1.861-.863-1.861-2.351 0-1.493.671-2.35 1.861-2.35s1.86.857 1.86 2.35c0 1.488-.67 2.351-1.86 2.351zm9.56-5.495h-1.004v3.722c0 1.102-.606 1.761-1.714 1.761-1.004 0-1.424-.525-1.424-1.656v-3.827h-1.003v4.072c0 1.487.735 2.327 2.147 2.327.962 0 1.633-.397 1.948-1.097h.093V146h.957v-6.288zm1.889 6.288h1.004v-3.896c0-.887.694-1.528 1.65-1.528.199 0 .56.035.642.058v-1.003a4.21 4.21 0 00-.502-.029c-.834 0-1.557.431-1.744 1.044h-.093v-.934h-.957V146zm10.983-6.398c-.857 0-1.61.437-2.012 1.16h-.093v-1.05h-.957v8.388h1.003v-3.045h.094c.344.665 1.067 1.056 1.965 1.056 1.598 0 2.642-1.289 2.642-3.255 0-1.977-1.038-3.254-2.642-3.254zm-.239 5.605c-1.131 0-1.849-.91-1.849-2.351 0-1.446.718-2.35 1.855-2.35 1.149 0 1.837.88 1.837 2.35 0 1.47-.688 2.351-1.843 2.351zm4.456.793h1.003v-3.896c0-.887.695-1.528 1.651-1.528.198 0 .56.035.642.058v-1.003a4.222 4.222 0 00-.502-.029c-.834 0-1.557.431-1.744 1.044h-.093v-.934h-.957V146zm8.539-1.627c-.262.554-.81.851-1.621.851-1.068 0-1.762-.787-1.814-2.03v-.046h4.52v-.385c0-1.954-1.032-3.161-2.73-3.161-1.726 0-2.834 1.283-2.834 3.26 0 1.989 1.09 3.249 2.834 3.249 1.377 0 2.357-.665 2.648-1.738h-1.003zm-1.656-3.885c.997 0 1.662.735 1.685 1.849h-3.464c.076-1.114.776-1.849 1.779-1.849zm9.332-.776h-1.073l-1.721 5.18h-.093l-1.721-5.18h-1.073l2.327 6.288h1.027l2.327-6.288zm1.866-1.213c.385 0 .7-.315.7-.7 0-.385-.315-.7-.7-.7a.702.702 0 00-.699.7c0 .385.315.7.699.7zm-.501 7.501h1.003v-6.288h-1.003V146zm5.5.111c1.791 0 2.899-1.237 2.899-3.255 0-2.024-1.108-3.254-2.899-3.254s-2.899 1.23-2.899 3.254c0 2.018 1.108 3.255 2.899 3.255zm0-.904c-1.19 0-1.861-.863-1.861-2.351 0-1.493.671-2.35 1.861-2.35s1.861.857 1.861 2.35c0 1.488-.671 2.351-1.861 2.351zm9.56-5.495h-1.003v3.722c0 1.102-.607 1.761-1.715 1.761-1.003 0-1.423-.525-1.423-1.656v-3.827h-1.004v4.072c0 1.487.735 2.327 2.147 2.327.962 0 1.633-.397 1.948-1.097h.093V146h.957v-6.288zm1.744 1.721c0 .91.536 1.417 1.715 1.703l1.079.263c.67.163.997.455.997.886 0 .578-.607.98-1.452.98-.805 0-1.307-.338-1.476-.869h-1.032c.11 1.044 1.073 1.715 2.473 1.715 1.429 0 2.519-.776 2.519-1.902 0-.904-.571-1.417-1.755-1.703l-.969-.233c-.74-.181-1.09-.449-1.09-.881 0-.56.583-.939 1.33-.939.758 0 1.248.333 1.382.834h.992c-.135-1.032-1.05-1.685-2.369-1.685-1.335 0-2.344.787-2.344 1.831zm12.832-1.831c-.858 0-1.61.437-2.013 1.16h-.093v-1.05h-.957v8.388h1.004v-3.045h.093c.344.665 1.067 1.056 1.966 1.056 1.598 0 2.642-1.289 2.642-3.255 0-1.977-1.038-3.254-2.642-3.254zm-.24 5.605c-1.131 0-1.849-.91-1.849-2.351 0-1.446.718-2.35 1.855-2.35 1.149 0 1.838.88 1.838 2.35 0 1.47-.689 2.351-1.844 2.351zm4.457.793h1.003v-3.896c0-.887.694-1.528 1.65-1.528.199 0 .56.035.642.058v-1.003a4.197 4.197 0 00-.502-.029c-.834 0-1.557.431-1.744 1.044h-.093v-.934h-.956V146zm8.539-1.627c-.263.554-.811.851-1.622.851-1.067 0-1.761-.787-1.814-2.03v-.046h4.52v-.385c0-1.954-1.032-3.161-2.729-3.161-1.727 0-2.835 1.283-2.835 3.26 0 1.989 1.091 3.249 2.835 3.249 1.376 0 2.356-.665 2.648-1.738h-1.003zm-1.657-3.885c.997 0 1.662.735 1.686 1.849h-3.465c.076-1.114.776-1.849 1.779-1.849zm6.643 5.623c.87 0 1.616-.414 2.013-1.114h.093V146h.957v-8.784h-1.004v3.488h-.087c-.356-.688-1.097-1.102-1.972-1.102-1.598 0-2.642 1.283-2.642 3.254 0 1.977 1.033 3.255 2.642 3.255zm.234-5.605c1.137 0 1.849.91 1.849 2.35 0 1.453-.706 2.351-1.849 2.351-1.149 0-1.838-.881-1.838-2.351 0-1.464.695-2.35 1.838-2.35zm5.302-2.007c.385 0 .7-.315.7-.7 0-.385-.315-.7-.7-.7-.385 0-.7.315-.7.7 0 .385.315.7.7.7zm-.502 7.501h1.003v-6.288h-1.003V146zm8.119-4.363c-.175-1.12-1.108-2.035-2.636-2.035-1.762 0-2.882 1.271-2.882 3.231 0 2 1.126 3.278 2.888 3.278 1.51 0 2.449-.852 2.63-2.007h-1.015c-.186.712-.776 1.103-1.621 1.103-1.12 0-1.843-.922-1.843-2.374 0-1.423.711-2.327 1.843-2.327.904 0 1.458.507 1.621 1.131h1.015zm2.018-3.552v1.627h-1.015v.84h1.015v3.815c0 1.201.519 1.68 1.814 1.68.198 0 .391-.024.589-.059v-.845a4.352 4.352 0 01-.466.023c-.654 0-.934-.315-.934-1.056v-3.558h1.4v-.84h-1.4v-1.627h-1.003zm4.445.414c.385 0 .7-.315.7-.7 0-.385-.315-.7-.7-.7-.385 0-.7.315-.7.7 0 .385.315.7.7.7zm-.502 7.501h1.003v-6.288h-1.003V146zm5.5.111c1.791 0 2.899-1.237 2.899-3.255 0-2.024-1.108-3.254-2.899-3.254-1.79 0-2.899 1.23-2.899 3.254 0 2.018 1.109 3.255 2.899 3.255zm0-.904c-1.19 0-1.86-.863-1.86-2.351 0-1.493.67-2.35 1.86-2.35s1.861.857 1.861 2.35c0 1.488-.671 2.351-1.861 2.351zm4.474.793h1.003v-3.721c0-1.103.648-1.773 1.651-1.773 1.003 0 1.481.536 1.481 1.668V146h1.003v-4.071c0-1.493-.787-2.327-2.198-2.327-.963 0-1.575.408-1.89 1.102h-.094v-.992h-.956V146zm15.375-2.91v-.951H390.6v.951h5.973zm7.11 3.108c1.72 0 2.893-1.19 2.893-2.922 0-1.668-1.167-2.776-2.578-2.776-.84 0-1.464.256-1.873.764h-.093l.263-2.741h3.849v-.94h-4.672l-.484 4.812h.986c.332-.624.962-.991 1.761-.991 1.062 0 1.791.764 1.791 1.901 0 1.179-.729 1.972-1.832 1.972-.991 0-1.714-.601-1.808-1.499h-1.032c.093 1.44 1.236 2.42 2.829 2.42zm7.471 0c1.785 0 3.033-1.009 3.033-2.449 0-1.097-.694-1.949-1.749-2.147v-.093c.869-.239 1.405-.957 1.405-1.878 0-1.313-1.114-2.246-2.689-2.246-1.574 0-2.688.933-2.688 2.246 0 .915.548 1.645 1.405 1.878v.093c-1.055.198-1.75 1.05-1.75 2.147 0 1.44 1.249 2.449 3.033 2.449zm0-5.039c-.991 0-1.656-.572-1.656-1.429 0-.869.659-1.447 1.656-1.447.998 0 1.657.578 1.657 1.447 0 .857-.665 1.429-1.657 1.429zm0 4.141c-1.166 0-1.971-.665-1.971-1.627 0-.963.805-1.628 1.971-1.628 1.167 0 1.972.665 1.972 1.628 0 .962-.805 1.627-1.972 1.627zm6.02-3.908c1.137 0 1.825-.741 1.825-1.983 0-1.225-.694-1.977-1.825-1.977-1.132 0-1.832.752-1.832 1.977 0 1.237.688 1.983 1.832 1.983zm.379 4.608l5.815-8.417h-.951L416.602 146h.951zm-.379-5.372c-.589 0-.928-.443-.928-1.213 0-.764.339-1.213.928-1.213.583 0 .921.449.921 1.213s-.332 1.213-.921 1.213zm5.628 5.454c1.138 0 1.826-.741 1.826-1.983 0-1.225-.694-1.978-1.826-1.978-1.131 0-1.831.753-1.831 1.978 0 1.236.694 1.983 1.831 1.983zm0-.764c-.589 0-.921-.444-.921-1.214 0-.764.332-1.213.921-1.213s.922.449.922 1.213-.333 1.214-.922 1.214z" fill="#505962"/><circle cx="337" cy="75" r="4" fill="#A7B0BA"/><path stroke="#A9DBFF" d="M201.5 74v100"/><circle cx="201.627" cy="74.5" r="5.5" fill="#A9DBFF"/><rect x="141.127" y="156" width="121" height="20" rx="4.977" fill="#A9DBFF"/><path d="M153.671 170h1.102l-3.103-8.417h-1.038L147.529 170h1.102l.846-2.409h3.348l.846 2.409zm-2.567-7.058h.094l1.318 3.757h-2.73l1.318-3.757zm5.541-.443c.385 0 .7-.315.7-.7 0-.385-.315-.7-.7-.7a.702.702 0 00-.699.7c0 .385.315.7.699.7zm-.501 7.501h1.003v-6.288h-1.003V170zm6.416-8.417V170h1.05v-3.004h2.117c1.581 0 2.706-1.114 2.706-2.689 0-1.604-1.102-2.724-2.694-2.724h-3.179zm1.05.934h1.854c1.219 0 1.89.635 1.89 1.79 0 1.114-.694 1.756-1.89 1.756h-1.854v-3.546zm6.416 7.483h1.003v-3.896c0-.887.694-1.528 1.65-1.528.199 0 .56.035.642.058v-1.003a4.197 4.197 0 00-.502-.029c-.834 0-1.557.431-1.744 1.044h-.093v-.934h-.956V170zm8.539-1.627c-.263.554-.811.851-1.622.851-1.067 0-1.761-.787-1.814-2.03v-.046h4.52v-.385c0-1.954-1.032-3.161-2.729-3.161-1.727 0-2.835 1.283-2.835 3.26 0 1.989 1.091 3.249 2.835 3.249 1.376 0 2.356-.665 2.648-1.738h-1.003zm-1.657-3.885c.997 0 1.662.735 1.686 1.849h-3.465c.076-1.114.776-1.849 1.779-1.849zm6.643 5.623c.87 0 1.616-.414 2.013-1.114h.093V170h.957v-8.784h-1.004v3.488h-.087c-.356-.688-1.097-1.102-1.972-1.102-1.598 0-2.642 1.283-2.642 3.254 0 1.977 1.033 3.255 2.642 3.255zm.234-5.605c1.137 0 1.849.91 1.849 2.35 0 1.453-.706 2.351-1.849 2.351-1.149 0-1.837-.881-1.837-2.351 0-1.464.694-2.35 1.837-2.35zm5.302-2.007c.385 0 .7-.315.7-.7 0-.385-.315-.7-.7-.7-.385 0-.7.315-.7.7 0 .385.315.7.7.7zm-.502 7.501h1.003v-6.288h-1.003V170zm8.119-4.363c-.175-1.12-1.108-2.035-2.636-2.035-1.762 0-2.882 1.271-2.882 3.231 0 2 1.126 3.278 2.888 3.278 1.51 0 2.449-.852 2.63-2.007h-1.015c-.186.712-.776 1.103-1.621 1.103-1.12 0-1.843-.922-1.843-2.374 0-1.423.711-2.327 1.843-2.327.904 0 1.458.507 1.621 1.131h1.015zm2.018-3.552v1.627h-1.015v.84h1.015v3.815c0 1.201.519 1.68 1.814 1.68.198 0 .391-.024.589-.059v-.845a4.352 4.352 0 01-.466.023c-.654 0-.934-.315-.934-1.056v-3.558h1.4v-.84h-1.4v-1.627h-1.003zm4.445.414c.385 0 .7-.315.7-.7 0-.385-.315-.7-.7-.7-.385 0-.7.315-.7.7 0 .385.315.7.7.7zm-.502 7.501h1.003v-6.288h-1.003V170zm5.5.111c1.791 0 2.899-1.237 2.899-3.255 0-2.024-1.108-3.254-2.899-3.254-1.79 0-2.899 1.23-2.899 3.254 0 2.018 1.109 3.255 2.899 3.255zm0-.904c-1.19 0-1.86-.863-1.86-2.351 0-1.493.67-2.35 1.86-2.35s1.861.857 1.861 2.35c0 1.488-.671 2.351-1.861 2.351zm4.474.793h1.003v-3.721c0-1.103.648-1.773 1.651-1.773 1.003 0 1.481.536 1.481 1.668V170h1.003v-4.071c0-1.493-.787-2.327-2.198-2.327-.963 0-1.575.408-1.89 1.102h-.094v-.992h-.956V170zm15.375-2.91v-.951h-5.973v.951h5.973zm4.258-3.133h1.014c0-.997.671-1.656 1.68-1.656.992 0 1.593.665 1.593 1.557 0 .741-.315 1.178-1.389 2.339l-2.846 3.08V170h5.448v-.945h-3.99v-.093l1.913-1.977c1.517-1.569 1.937-2.269 1.937-3.238 0-1.364-1.126-2.362-2.596-2.362-1.61 0-2.764 1.073-2.764 2.572zm10.073 6.241c1.72 0 2.893-1.19 2.893-2.922 0-1.668-1.167-2.776-2.578-2.776-.84 0-1.464.256-1.873.764h-.093l.262-2.741h3.85v-.94h-4.672l-.484 4.812h.986c.332-.624.962-.991 1.761-.991 1.062 0 1.791.764 1.791 1.901 0 1.179-.729 1.972-1.832 1.972-.991 0-1.715-.601-1.808-1.499h-1.032c.093 1.44 1.236 2.42 2.829 2.42zm5.861-4.806c1.138 0 1.826-.741 1.826-1.983 0-1.225-.694-1.977-1.826-1.977-1.131 0-1.831.752-1.831 1.977 0 1.237.688 1.983 1.831 1.983zm.38 4.608l5.815-8.417h-.951L247.635 170h.951zm-.38-5.372c-.589 0-.927-.443-.927-1.213 0-.764.338-1.213.927-1.213.584 0 .922.449.922 1.213s-.332 1.213-.922 1.213zm5.629 5.454c1.137 0 1.826-.741 1.826-1.983 0-1.225-.695-1.978-1.826-1.978-1.132 0-1.832.753-1.832 1.978 0 1.236.695 1.983 1.832 1.983zm0-.764c-.589 0-.922-.444-.922-1.214 0-.764.333-1.213.922-1.213s.921.449.921 1.213-.332 1.214-.921 1.214z" fill="#2E5882"/></g><defs><clipPath id="clip0"><path fill="#fff" d="M0 0h582v191H0z"/></clipPath><clipPath id="clip1"><rect x="-9" y="46.909" width="600" height="19" rx="5" fill="#fff"/></clipPath><clipPath id="clip2"><path fill="#fff" transform="translate(-9 46.909)" d="M0 0h100v19H0z"/></clipPath><clipPath id="clip3"><path fill="#fff" transform="translate(116 46.909)" d="M0 0h100v19H0z"/></clipPath><clipPath id="clip4"><path fill="#fff" transform="translate(241 46.909)" d="M0 0h100v19H0z"/></clipPath><clipPath id="clip5"><path fill="#fff" transform="translate(366 46.909)" d="M0 0h100v19H0z"/></clipPath><clipPath id="clip6"><path fill="#fff" transform="translate(491 46.909)" d="M0 0h100v19H0z"/></clipPath><clipPath id="clip7"><path fill="#fff" transform="translate(41 72)" d="M0 0h500v5H0z"/></clipPath><clipPath id="clip8"><rect x="-9" y="83.909" width="600" height="43" rx="5" fill="#fff"/></clipPath><clipPath id="clip9"><path fill="#fff" transform="translate(-9 83.909)" d="M0 0h100v35H0z"/></clipPath><clipPath id="clip10"><path fill="#fff" transform="translate(116 83.909)" d="M0 0h100v35H0z"/></clipPath><clipPath id="clip11"><path fill="#fff" transform="translate(241 83.909)" d="M0 0h100v35H0z"/></clipPath><clipPath id="clip12"><path fill="#fff" transform="translate(366 83.909)" d="M0 0h100v35H0z"/></clipPath><clipPath id="clip13"><path fill="#fff" transform="translate(491 83.909)" d="M0 0h100v35H0z"/></clipPath><linearGradient id="paint0_linear" x1="291" y1="62.909" x2="291" y2="88.909" gradientUnits="userSpaceOnUse"><stop stop-color="#F6F8FB"/><stop offset="1" stop-color="#E0E2E4"/></linearGradient></defs></svg>