<svg width="585" height="396" fill="none" xmlns="http://www.w3.org/2000/svg"><g clip-path="url(#clip0)"><g clip-path="url(#clip1)"><g clip-path="url(#clip2)"><g clip-path="url(#clip3)"><path d="M37.68 58.108c1.9 0 2.989-1.606 2.989-4.412 0-2.801-1.107-4.442-2.988-4.442-1.893 0-3 1.635-3 4.424 0 2.813 1.095 4.43 3 4.43zm0-.92c-1.247 0-1.939-1.248-1.939-3.51 0-2.232.703-3.498 1.94-3.498 1.236 0 1.927 1.254 1.927 3.498 0 2.268-.68 3.51-1.927 3.51zm5.989-3.908c1.143 0 1.834-.744 1.834-1.992 0-1.23-.697-1.987-1.834-1.987s-1.84.756-1.84 1.987c0 1.242.691 1.992 1.84 1.992zm.38 4.629l5.843-8.455h-.956l-5.841 8.455h.955zm-.38-5.397c-.592 0-.932-.445-.932-1.218 0-.768.34-1.22.932-1.22.586 0 .926.452.926 1.22 0 .767-.334 1.218-.926 1.218zm5.654 5.479c1.143 0 1.834-.744 1.834-1.992 0-1.23-.697-1.987-1.834-1.987-1.136 0-1.84.756-1.84 1.986 0 1.243.698 1.993 1.84 1.993zm0-.768c-.592 0-.925-.445-.925-1.219 0-.767.333-1.218.925-1.218.592 0 .926.45.926 1.218s-.334 1.22-.926 1.22z" fill="#000"/><path d="M42.714 60.909v5" stroke="#C2CBD3"/></g><g clip-path="url(#clip4)"><path d="M156.224 51.838h1.019c0-1.002.674-1.664 1.688-1.664.996 0 1.599.668 1.599 1.565 0 .744-.316 1.183-1.394 2.35l-2.86 3.093v.727h5.473v-.95h-4.008v-.093l1.922-1.987c1.524-1.576 1.945-2.279 1.945-3.252 0-1.37-1.13-2.373-2.607-2.373-1.617 0-2.777 1.079-2.777 2.584zm10.119 6.27c1.728 0 2.906-1.195 2.906-2.936 0-1.675-1.172-2.789-2.59-2.789-.844 0-1.471.258-1.881.768h-.093l.263-2.754h3.867v-.943h-4.693l-.486 4.834h.99c.334-.627.967-.996 1.77-.996 1.066 0 1.798.767 1.798 1.91 0 1.183-.732 1.98-1.84 1.98-.996 0-1.722-.603-1.816-1.506h-1.037c.094 1.447 1.242 2.432 2.842 2.432zm5.888-4.828c1.143 0 1.834-.744 1.834-1.992 0-1.23-.697-1.987-1.834-1.987-1.136 0-1.839.756-1.839 1.987 0 1.242.691 1.992 1.839 1.992zm.381 4.629l5.842-8.455h-.955l-5.842 8.455h.955zm-.381-5.397c-.591 0-.931-.445-.931-1.218 0-.768.34-1.22.931-1.22.586 0 .926.452.926 1.22 0 .767-.334 1.218-.926 1.218zm5.655 5.479c1.142 0 1.834-.744 1.834-1.992 0-1.23-.698-1.987-1.834-1.987-1.137 0-1.84.756-1.84 1.986 0 1.243.697 1.993 1.84 1.993zm0-.768c-.592 0-.926-.445-.926-1.219 0-.767.334-1.218.926-1.218.592 0 .926.45.926 1.218s-.334 1.22-.926 1.22z" fill="#000"/><path d="M167.714 60.909v5" stroke="#C2CBD3"/></g><g clip-path="url(#clip5)"><path d="M283.937 58.108c1.728 0 2.906-1.195 2.906-2.936 0-1.675-1.172-2.789-2.59-2.789-.844 0-1.471.258-1.881.768h-.094l.264-2.754h3.867v-.943h-4.693l-.487 4.834h.991c.334-.627.967-.996 1.769-.996 1.067 0 1.799.767 1.799 1.91 0 1.183-.732 1.98-1.84 1.98-.996 0-1.722-.603-1.816-1.506h-1.037c.093 1.447 1.242 2.432 2.842 2.432zm7.459 0c1.898 0 2.988-1.606 2.988-4.412 0-2.801-1.108-4.442-2.988-4.442-1.893 0-3 1.635-3 4.424 0 2.813 1.095 4.43 3 4.43zm0-.92c-1.249 0-1.94-1.248-1.94-3.51 0-2.232.703-3.498 1.94-3.498 1.236 0 1.927 1.254 1.927 3.498 0 2.268-.679 3.51-1.927 3.51zm5.988-3.908c1.142 0 1.834-.744 1.834-1.992 0-1.23-.697-1.987-1.834-1.987s-1.84.756-1.84 1.987c0 1.242.691 1.992 1.84 1.992zm.381 4.629l5.841-8.455h-.955l-5.841 8.455h.955zm-.381-5.397c-.592 0-.932-.445-.932-1.218 0-.768.34-1.22.932-1.22.586 0 .926.452.926 1.22 0 .767-.334 1.218-.926 1.218zm5.654 5.479c1.143 0 1.834-.744 1.834-1.992 0-1.23-.697-1.987-1.834-1.987s-1.84.756-1.84 1.986c0 1.243.698 1.993 1.84 1.993zm0-.768c-.592 0-.926-.445-.926-1.219 0-.767.334-1.218.926-1.218.592 0 .926.45.926 1.218s-.334 1.22-.926 1.22z" fill="#000"/><path d="M292.714 60.909v5" stroke="#C2CBD3"/></g><g clip-path="url(#clip6)"><path d="M406.892 57.909h1.107l3.762-7.477v-.978h-5.596v.943h4.523v.082l-3.796 7.43zm9.187.199c1.729 0 2.906-1.195 2.906-2.936 0-1.675-1.172-2.789-2.589-2.789-.844 0-1.471.258-1.881.768h-.094l.264-2.754h3.867v-.943h-4.694l-.486 4.834h.99c.334-.627.967-.996 1.77-.996 1.066 0 1.799.767 1.799 1.91 0 1.183-.733 1.98-1.84 1.98-.996 0-1.723-.603-1.817-1.506h-1.037c.094 1.447 1.242 2.432 2.842 2.432zm5.889-4.828c1.142 0 1.834-.744 1.834-1.992 0-1.23-.698-1.987-1.834-1.987-1.137 0-1.84.756-1.84 1.987 0 1.242.691 1.992 1.84 1.992zm.381 4.629l5.841-8.455h-.955l-5.841 8.455h.955zm-.381-5.397c-.592 0-.932-.445-.932-1.218 0-.768.34-1.22.932-1.22.586 0 .926.452.926 1.22 0 .767-.334 1.218-.926 1.218zm5.654 5.479c1.143 0 1.834-.744 1.834-1.992 0-1.23-.697-1.987-1.834-1.987s-1.84.756-1.84 1.986c0 1.243.697 1.993 1.84 1.993zm0-.768c-.592 0-.926-.445-.926-1.219 0-.767.334-1.218.926-1.218.592 0 .926.45.926 1.218s-.334 1.22-.926 1.22z" fill="#000"/><path d="M417.714 60.909v5" stroke="#C2CBD3"/></g><g clip-path="url(#clip7)"><path d="M530.28 57.909h1.055v-8.455h-1.049l-2.25 1.617v1.113l2.151-1.558h.093v7.283zm6.422.199c1.899 0 2.988-1.606 2.988-4.412 0-2.801-1.107-4.442-2.988-4.442-1.892 0-3 1.635-3 4.424 0 2.813 1.096 4.43 3 4.43zm0-.92c-1.248 0-1.939-1.248-1.939-3.51 0-2.232.703-3.498 1.939-3.498 1.236 0 1.928 1.254 1.928 3.498 0 2.268-.68 3.51-1.928 3.51zm7.559.92c1.898 0 2.988-1.606 2.988-4.412 0-2.801-1.107-4.442-2.988-4.442-1.893 0-3 1.635-3 4.424 0 2.813 1.095 4.43 3 4.43zm0-.92c-1.248 0-1.94-1.248-1.94-3.51 0-2.232.703-3.498 1.94-3.498 1.236 0 1.927 1.254 1.927 3.498 0 2.268-.679 3.51-1.927 3.51zm5.988-3.908c1.143 0 1.834-.744 1.834-1.992 0-1.23-.697-1.987-1.834-1.987s-1.84.756-1.84 1.987c0 1.242.692 1.992 1.84 1.992zm.381 4.629l5.842-8.455h-.955l-5.842 8.455h.955zm-.381-5.397c-.592 0-.932-.445-.932-1.218 0-.768.34-1.22.932-1.22.586 0 .926.452.926 1.22 0 .767-.334 1.218-.926 1.218zm5.654 5.479c1.143 0 1.834-.744 1.834-1.992 0-1.23-.697-1.987-1.834-1.987-1.136 0-1.84.756-1.84 1.986 0 1.243.698 1.993 1.84 1.993zm0-.768c-.591 0-.925-.445-.925-1.219 0-.767.334-1.218.925-1.218.592 0 .926.45.926 1.218s-.334 1.22-.926 1.22z" fill="#000"/><path d="M542.714 60.909v5" stroke="#C2CBD3"/></g></g><g clip-path="url(#clip8)"><rect x="17.714" y="72" width="550" height="5" rx="2.5" fill="#D3DAE0"/></g><g clip-path="url(#clip9)"><g clip-path="url(#clip10)"><path d="M42.714 83.909v5" stroke="#C2CBD3"/><path d="M11.56 101.909l3.117-8.455h-1.108l-2.484 7.089h-.094l-2.484-7.09H7.399l3.118 8.456h1.043zm8.068-1.635c-.264.557-.814.855-1.629.855-1.072 0-1.77-.791-1.822-2.039v-.047h4.54v-.386c0-1.963-1.036-3.176-2.741-3.176-1.735 0-2.848 1.289-2.848 3.275 0 1.998 1.096 3.264 2.848 3.264 1.382 0 2.367-.668 2.66-1.746h-1.008zm-1.664-3.902c1.002 0 1.67.738 1.693 1.857h-3.48c.076-1.12.78-1.857 1.787-1.857zm4.336 5.537h1.008v-3.914c0-.891.697-1.535 1.658-1.535.199 0 .562.035.644.058V95.51a4.326 4.326 0 00-.504-.029c-.837 0-1.564.434-1.752 1.049h-.093v-.938H22.3v6.317zm5.11 2.285c1.118 0 1.622-.434 2.161-1.899l2.467-6.703h-1.072l-1.729 5.198h-.093l-1.735-5.198h-1.09l2.338 6.323-.117.375c-.264.761-.58 1.037-1.16 1.037-.14 0-.299-.006-.422-.03v.862c.14.023.316.035.451.035zm14.472-8.602h-1.008v3.739c0 1.107-.61 1.769-1.723 1.769-1.007 0-1.43-.527-1.43-1.664v-3.844h-1.007v4.09c0 1.494.738 2.338 2.156 2.338.967 0 1.64-.398 1.957-1.102h.094v.991h.96v-6.317zm1.898 6.317h1.008V98.17c0-1.107.65-1.78 1.658-1.78s1.489.538 1.489 1.675v3.844h1.007v-4.09c0-1.5-.79-2.338-2.209-2.338-.966 0-1.582.41-1.898 1.107h-.094v-.996h-.96v6.317zm7.067 0h1.008v-8.825h-1.008v8.825zm3.492-7.535a.705.705 0 00.703-.704.705.705 0 00-.703-.703.705.705 0 00-.703.703c0 .387.316.704.703.704zm-.504 7.535h1.008v-6.317h-1.008v6.317zm4.09-3.557h-.094v-5.267h-1.008v8.824h1.008v-2.397l.604-.562 2.367 2.959h1.283l-2.9-3.61 2.718-2.707h-1.236l-2.742 2.76zm9.246 1.922c-.264.557-.815.855-1.629.855-1.072 0-1.77-.791-1.822-2.039v-.047h4.54v-.386c0-1.963-1.036-3.176-2.741-3.176-1.735 0-2.848 1.289-2.848 3.275 0 1.998 1.096 3.264 2.848 3.264 1.382 0 2.367-.668 2.66-1.746H67.17zm-1.664-3.902c1.002 0 1.67.738 1.693 1.857h-3.48c.076-1.12.779-1.857 1.787-1.857zm4.394 5.537h1.008v-8.825h-1.008v8.825zm3.504 2.285c1.12 0 1.623-.434 2.162-1.899l2.467-6.703h-1.072l-1.729 5.198h-.093l-1.735-5.198h-1.09l2.338 6.323-.117.375c-.264.761-.58 1.037-1.16 1.037a2.37 2.37 0 01-.422-.03v.862c.14.023.317.035.451.035zm-66.199 3.764v1.634h-1.02v.844h1.02v3.832c0 1.207.522 1.688 1.822 1.688.2 0 .393-.024.592-.059v-.85a4.157 4.157 0 01-.469.024c-.656 0-.937-.317-.937-1.061v-3.574H9.62v-.844H8.214v-1.634H7.206zm6.44 8.062c1.798 0 2.912-1.242 2.912-3.27 0-2.033-1.114-3.269-2.912-3.269-1.8 0-2.913 1.236-2.913 3.269 0 2.028 1.114 3.27 2.912 3.27zm0-.908c-1.196 0-1.87-.867-1.87-2.362 0-1.5.674-2.361 1.87-2.361 1.195 0 1.869.861 1.869 2.361 0 1.495-.674 2.362-1.87 2.362zm10.218.908c.873 0 1.623-.416 2.022-1.119h.094v1.008h.96v-8.825h-1.007v3.504h-.088c-.358-.691-1.102-1.107-1.98-1.107-1.606 0-2.655 1.289-2.655 3.269 0 1.987 1.037 3.27 2.654 3.27zm.235-5.631c1.142 0 1.857.914 1.857 2.361 0 1.459-.709 2.362-1.857 2.362-1.155 0-1.846-.885-1.846-2.362 0-1.47.697-2.361 1.846-2.361zm6.556 5.631c.844 0 1.535-.369 1.946-1.043h.093v.932h.961v-4.325c0-1.312-.861-2.103-2.402-2.103-1.348 0-2.344.668-2.479 1.682h1.02c.14-.498.668-.786 1.424-.786.943 0 1.43.428 1.43 1.207v.575l-1.823.111c-1.47.088-2.302.738-2.302 1.869 0 1.154.908 1.881 2.132 1.881zm.188-.885c-.733 0-1.278-.375-1.278-1.019 0-.633.422-.967 1.383-1.032l1.7-.111v.58c0 .903-.768 1.582-1.805 1.582zm5.097-7.177v1.634h-1.02v.844h1.02v3.832c0 1.207.522 1.688 1.823 1.688.199 0 .392-.024.592-.059v-.85a4.157 4.157 0 01-.47.024c-.655 0-.937-.317-.937-1.061v-3.574h1.407v-.844h-1.407v-1.634H35.94zm8.028 6.316c-.264.557-.815.855-1.63.855-1.071 0-1.769-.791-1.821-2.039v-.047h4.54v-.386c0-1.963-1.037-3.176-2.742-3.176-1.734 0-2.847 1.289-2.847 3.275 0 1.998 1.095 3.264 2.847 3.264 1.383 0 2.368-.668 2.66-1.746h-1.007zm-1.664-3.902c1.002 0 1.67.738 1.693 1.857h-3.48c.076-1.119.779-1.857 1.787-1.857zm9.48 5.648c.844 0 1.535-.369 1.946-1.043h.093v.932h.961v-4.325c0-1.312-.861-2.103-2.402-2.103-1.348 0-2.344.668-2.479 1.682h1.02c.14-.498.668-.786 1.424-.786.943 0 1.43.428 1.43 1.207v.575l-1.823.111c-1.47.088-2.303.738-2.303 1.869 0 1.154.909 1.881 2.133 1.881zm.188-.885c-.733 0-1.278-.375-1.278-1.019 0-.633.422-.967 1.383-1.032l1.7-.111v.58c0 .903-.768 1.582-1.805 1.582zm7.277 3.199c1.723 0 2.813-.902 2.813-2.314v-6.428H61.1v1.002h-.094c-.363-.679-1.143-1.113-2.027-1.113-1.624 0-2.649 1.283-2.649 3.176 0 1.892 1.014 3.158 2.648 3.158.868 0 1.583-.393 1.981-1.09h.094v1.242c0 .932-.674 1.489-1.805 1.489-.908 0-1.47-.334-1.582-.85h-1.066c.152 1.043 1.125 1.728 2.648 1.728zm-.047-3.41c-1.172 0-1.828-.89-1.828-2.267 0-1.377.656-2.268 1.828-2.268 1.166 0 1.875.891 1.875 2.268 0 1.377-.703 2.267-1.875 2.267zm6.516 1.096c.843 0 1.535-.369 1.945-1.043h.094v.932h.96v-4.325c0-1.312-.86-2.103-2.402-2.103-1.347 0-2.343.668-2.478 1.682h1.02c.14-.498.667-.786 1.423-.786.944 0 1.43.428 1.43 1.207v.575l-1.822.111c-1.471.088-2.303.738-2.303 1.869 0 1.154.908 1.881 2.133 1.881zm.187-.885c-.732 0-1.277-.375-1.277-1.019 0-.633.422-.967 1.383-1.032l1.699-.111v.58c0 .903-.768 1.582-1.805 1.582zm5.203-6.761a.706.706 0 00.703-.704.706.706 0 00-.703-.703.706.706 0 00-.703.703c0 .387.317.704.703.704zm-.504 7.535h1.008v-6.317h-1.007v6.317zm2.93 0h1.008v-3.739c0-1.107.65-1.781 1.658-1.781s1.489.539 1.489 1.676v3.844h1.007v-4.09c0-1.5-.79-2.338-2.209-2.338-.966 0-1.582.41-1.898 1.107h-.094v-.996h-.96v6.317z" fill="#7D8893"/></g><g clip-path="url(#clip11)"><path d="M167.714 83.909v5" stroke="#C2CBD3"/><path d="M138.546 93.454h-1.055v5.548c0 1.805 1.26 3.106 3.358 3.106 2.097 0 3.357-1.301 3.357-3.106v-5.548h-1.055v5.478c0 1.277-.838 2.203-2.302 2.203-1.465 0-2.303-.926-2.303-2.203v-5.478zm7.676 8.455h1.007V98.17c0-1.107.651-1.78 1.659-1.78s1.488.538 1.488 1.675v3.844h1.008v-4.09c0-1.5-.791-2.338-2.209-2.338-.967 0-1.582.41-1.899 1.107h-.093v-.996h-.961v6.317zm7.066 0h1.008v-8.825h-1.008v8.825zm3.492-7.535a.705.705 0 00.703-.704.705.705 0 00-.703-.703.706.706 0 00-.703.703c0 .387.317.704.703.704zm-.504 7.535h1.008v-6.317h-1.008v6.317zm4.09-3.557h-.094v-5.267h-1.007v8.824h1.007v-2.397l.604-.562 2.367 2.959h1.283l-2.9-3.61 2.719-2.707h-1.237l-2.742 2.76zm9.246 1.922c-.263.557-.814.855-1.629.855-1.072 0-1.769-.791-1.822-2.039v-.047h4.541v-.386c0-1.963-1.037-3.176-2.742-3.176-1.734 0-2.848 1.289-2.848 3.275 0 1.998 1.096 3.264 2.848 3.264 1.383 0 2.367-.668 2.66-1.746h-1.008zm-1.664-3.902c1.002 0 1.67.738 1.694 1.857h-3.481c.076-1.12.779-1.857 1.787-1.857zm4.395 5.537h1.008v-8.825h-1.008v8.825zm3.504 2.285c1.119 0 1.623-.434 2.162-1.899l2.467-6.703h-1.073l-1.728 5.198h-.094l-1.734-5.198h-1.09l2.338 6.323-.117.375c-.264.761-.581 1.037-1.161 1.037-.14 0-.298-.006-.421-.03v.862c.14.023.316.035.451.035zm9.785-10.237v1.635h-1.02v.844h1.02v3.832c0 1.207.521 1.688 1.822 1.688.199 0 .393-.024.592-.059v-.85a4.163 4.163 0 01-.469.024c-.656 0-.937-.317-.937-1.061v-3.574h1.406v-.844h-1.406v-1.635h-1.008zm6.439 8.063c1.799 0 2.912-1.242 2.912-3.27 0-2.033-1.113-3.269-2.912-3.269s-2.912 1.236-2.912 3.27c0 2.027 1.113 3.269 2.912 3.269zm0-.908c-1.195 0-1.869-.867-1.869-2.361 0-1.5.674-2.362 1.869-2.362 1.196 0 1.869.862 1.869 2.362 0 1.494-.673 2.361-1.869 2.361zm-50.578 14.908c.873 0 1.623-.416 2.022-1.119h.093v1.008h.961v-8.825h-1.007v3.504h-.088c-.358-.691-1.102-1.107-1.981-1.107-1.605 0-2.654 1.289-2.654 3.269 0 1.987 1.037 3.27 2.654 3.27zm.235-5.631c1.142 0 1.857.914 1.857 2.361 0 1.459-.709 2.362-1.857 2.362-1.155 0-1.846-.885-1.846-2.362 0-1.47.697-2.361 1.846-2.361zm6.556 5.631c.844 0 1.535-.369 1.945-1.043h.094v.932h.961v-4.325c0-1.312-.861-2.103-2.402-2.103-1.348 0-2.344.668-2.479 1.682h1.02c.14-.498.668-.786 1.424-.786.943 0 1.429.428 1.429 1.207v.575l-1.822.111c-1.471.088-2.303.738-2.303 1.869 0 1.154.909 1.881 2.133 1.881zm.188-.885c-.733 0-1.278-.375-1.278-1.019 0-.633.422-.967 1.383-1.032l1.699-.111v.58c0 .903-.767 1.582-1.804 1.582zm5.097-7.177v1.634h-1.019v.844h1.019v3.832c0 1.207.522 1.688 1.823 1.688.199 0 .392-.024.591-.059v-.85a4.146 4.146 0 01-.468.024c-.657 0-.938-.317-.938-1.061v-3.574h1.406v-.844h-1.406v-1.634h-1.008zm8.028 6.316c-.264.557-.815.855-1.629.855-1.072 0-1.77-.791-1.822-2.039v-.047h4.541v-.386c0-1.963-1.038-3.176-2.743-3.176-1.734 0-2.847 1.289-2.847 3.275 0 1.998 1.095 3.264 2.847 3.264 1.383 0 2.368-.668 2.66-1.746h-1.007zm-1.664-3.902c1.002 0 1.67.738 1.693 1.857h-3.48c.076-1.119.779-1.857 1.787-1.857zm9.48 5.648c.844 0 1.535-.369 1.945-1.043h.094v.932h.961v-4.325c0-1.312-.861-2.103-2.402-2.103-1.348 0-2.344.668-2.479 1.682h1.02c.14-.498.668-.786 1.424-.786.943 0 1.429.428 1.429 1.207v.575l-1.822.111c-1.471.088-2.303.738-2.303 1.869 0 1.154.908 1.881 2.133 1.881zm.188-.885c-.733 0-1.278-.375-1.278-1.019 0-.633.422-.967 1.383-1.032l1.699-.111v.58c0 .903-.767 1.582-1.804 1.582zm7.277 3.199c1.723 0 2.812-.902 2.812-2.314v-6.428h-.961v1.002h-.093c-.364-.679-1.143-1.113-2.028-1.113-1.623 0-2.648 1.283-2.648 3.176 0 1.892 1.014 3.158 2.648 3.158.868 0 1.582-.393 1.981-1.09h.094v1.242c0 .932-.674 1.489-1.805 1.489-.908 0-1.471-.334-1.582-.85h-1.067c.153 1.043 1.125 1.728 2.649 1.728zm-.047-3.41c-1.172 0-1.828-.89-1.828-2.267 0-1.377.656-2.268 1.828-2.268 1.166 0 1.875.891 1.875 2.268 0 1.377-.703 2.267-1.875 2.267zm6.516 1.096c.843 0 1.535-.369 1.945-1.043h.094v.932h.961v-4.325c0-1.312-.862-2.103-2.403-2.103-1.347 0-2.343.668-2.478 1.682h1.019c.141-.498.668-.786 1.424-.786.944 0 1.43.428 1.43 1.207v.575l-1.822.111c-1.471.088-2.303.738-2.303 1.869 0 1.154.908 1.881 2.133 1.881zm.187-.885c-.732 0-1.277-.375-1.277-1.019 0-.633.422-.967 1.383-1.032l1.699-.111v.58c0 .903-.768 1.582-1.805 1.582zm5.203-6.761a.705.705 0 00.703-.704.705.705 0 00-.703-.703.706.706 0 00-.703.703c0 .387.317.704.703.704zm-.504 7.535h1.008v-6.317h-1.008v6.317zm2.93 0h1.008v-3.739c0-1.107.65-1.781 1.658-1.781s1.488.539 1.488 1.676v3.844h1.008v-4.09c0-1.5-.791-2.338-2.209-2.338-.967 0-1.582.41-1.898 1.107h-.094v-.996h-.961v6.317z" fill="#7D8893"/></g><g clip-path="url(#clip12)"><path d="M292.714 83.909v5" stroke="#C2CBD3"/><path d="M256.339 101.909v-6.557h.094l4.588 6.557h1.025v-8.455h-1.043v6.58h-.094l-4.588-6.58h-1.025v8.455h1.043zm11.918-1.635c-.264.557-.815.855-1.629.855-1.072 0-1.77-.791-1.822-2.039v-.047h4.541v-.386c0-1.963-1.037-3.176-2.743-3.176-1.734 0-2.847 1.289-2.847 3.275 0 1.998 1.096 3.264 2.847 3.264 1.383 0 2.368-.668 2.661-1.746h-1.008zm-1.664-3.902c1.002 0 1.67.738 1.693 1.857h-3.48c.076-1.12.779-1.857 1.787-1.857zm4.863-1.998a.705.705 0 00.703-.704.705.705 0 00-.703-.703.705.705 0 00-.703.703c0 .387.316.704.703.704zm-.504 7.535h1.008v-6.317h-1.008v6.317zm3.352-7.952v1.635h-1.02v.844h1.02v3.832c0 1.207.521 1.688 1.822 1.688.199 0 .393-.024.592-.059v-.85a4.163 4.163 0 01-.469.024c-.656 0-.937-.317-.937-1.061v-3.574h1.406v-.844h-1.406v-1.635h-1.008zm3.996 7.952h1.008V98.17c0-1.066.621-1.78 1.752-1.78.955 0 1.459.556 1.459 1.675v3.844h1.007v-4.09c0-1.483-.843-2.338-2.179-2.338-.967 0-1.629.41-1.946 1.107h-.093v-3.503H278.3v8.824zm11.25-1.635c-.264.557-.815.855-1.629.855-1.072 0-1.77-.791-1.822-2.039v-.047h4.541v-.386c0-1.963-1.037-3.176-2.743-3.176-1.734 0-2.847 1.289-2.847 3.275 0 1.998 1.096 3.264 2.847 3.264 1.383 0 2.368-.668 2.661-1.746h-1.008zm-1.664-3.902c1.002 0 1.67.738 1.693 1.857h-3.48c.076-1.12.779-1.857 1.787-1.857zm4.336 5.537h1.007v-3.914c0-.891.698-1.535 1.659-1.535.199 0 .562.035.644.058V95.51a4.327 4.327 0 00-.504-.029c-.838 0-1.564.434-1.752 1.049h-.093v-.938h-.961v6.317zm8.015 0h1.008v-8.825h-1.008v8.825zm3.492-7.535a.706.706 0 00.704-.704.706.706 0 00-.704-.703.706.706 0 00-.703.703c0 .387.317.704.703.704zm-.503 7.535h1.007v-6.317h-1.007v6.317zm4.089-3.557h-.093v-5.267h-1.008v8.824h1.008v-2.397l.603-.562 2.367 2.959h1.284l-2.901-3.61 2.719-2.707h-1.236l-2.743 2.76zm9.247 1.922c-.264.557-.815.855-1.629.855-1.073 0-1.77-.791-1.823-2.039v-.047h4.541v-.386c0-1.963-1.037-3.176-2.742-3.176-1.734 0-2.847 1.289-2.847 3.275 0 1.998 1.095 3.264 2.847 3.264 1.383 0 2.367-.668 2.66-1.746h-1.007zm-1.665-3.902c1.002 0 1.67.738 1.694 1.857h-3.481c.077-1.12.78-1.857 1.787-1.857zm4.395 5.537h1.008v-8.825h-1.008v8.825zm3.504 2.285c1.119 0 1.623-.434 2.162-1.899l2.467-6.703h-1.072l-1.729 5.198h-.094l-1.734-5.198h-1.09l2.338 6.323-.117.375c-.264.761-.58 1.037-1.16 1.037-.141 0-.299-.006-.422-.03v.862c.14.023.316.035.451.035zm-61.465 11.715h1.008v-3.739c0-1.107.65-1.781 1.658-1.781s1.488.539 1.488 1.676v3.844h1.008v-4.09c0-1.5-.791-2.338-2.209-2.338-.967 0-1.582.41-1.898 1.107h-.094v-.996h-.961v6.317zm9.604.111c1.798 0 2.912-1.242 2.912-3.27 0-2.033-1.114-3.269-2.912-3.269-1.799 0-2.913 1.236-2.913 3.269 0 2.028 1.114 3.27 2.913 3.27zm0-.908c-1.196 0-1.87-.867-1.87-2.362 0-1.5.674-2.361 1.87-2.361 1.195 0 1.869.861 1.869 2.361 0 1.495-.674 2.362-1.869 2.362zm4.494.797h1.008v-3.914c0-.891.697-1.536 1.658-1.536.199 0 .562.036.644.059v-1.008a4.467 4.467 0 00-.504-.029c-.838 0-1.564.434-1.752 1.049h-.093v-.938h-.961v6.317zm13.066-6.317h-1.008v3.739c0 1.107-.609 1.769-1.722 1.769-1.008 0-1.43-.527-1.43-1.664v-3.844h-1.008v4.09c0 1.494.738 2.338 2.156 2.338.967 0 1.641-.398 1.957-1.102h.094v.991h.961v-6.317zm1.899 6.317h1.007v-3.739c0-1.107.651-1.781 1.659-1.781 1.007 0 1.488.539 1.488 1.676v3.844h1.008v-4.09c0-1.5-.791-2.338-2.209-2.338-.967 0-1.582.41-1.899 1.107h-.094v-.996h-.96v6.317zm7.066 0h1.008v-8.825h-1.008v8.825zm3.492-7.535a.705.705 0 00.703-.704.705.705 0 00-.703-.703.705.705 0 00-.703.703c0 .387.316.704.703.704zm-.504 7.535h1.008v-6.317h-1.008v6.317zm4.09-3.557h-.094v-5.268h-1.007v8.825h1.007v-2.397l.604-.562 2.367 2.959h1.283l-2.9-3.61 2.719-2.707h-1.237l-2.742 2.76zm9.246 1.922c-.263.557-.814.855-1.629.855-1.072 0-1.769-.791-1.822-2.039v-.047h4.541v-.386c0-1.963-1.037-3.176-2.742-3.176-1.735 0-2.848 1.289-2.848 3.275 0 1.998 1.096 3.264 2.848 3.264 1.383 0 2.367-.668 2.66-1.746h-1.008zm-1.664-3.902c1.002 0 1.67.738 1.693 1.857h-3.48c.076-1.119.779-1.857 1.787-1.857zm4.395 5.537h1.007v-8.825h-1.007v8.825zm3.504 2.285c1.119 0 1.623-.434 2.162-1.899l2.466-6.703h-1.072l-1.728 5.198h-.094l-1.734-5.198h-1.09l2.338 6.323-.118.375c-.263.761-.58 1.037-1.16 1.037-.14 0-.299-.006-.422-.03v.862c.141.023.317.035.452.035z" fill="#7D8893"/></g><g clip-path="url(#clip13)"><path d="M417.714 83.909v5" stroke="#C2CBD3"/><path d="M400.358 100.959h-4.078v-7.505h-1.054v8.455h5.132v-.95zm2.086-6.585a.705.705 0 00.703-.704.705.705 0 00-.703-.703.706.706 0 00-.703.703c0 .387.317.704.703.704zm-.504 7.535h1.008v-6.317h-1.008v6.317zm4.09-3.557h-.093v-5.267h-1.008v8.824h1.008v-2.397l.603-.562 2.367 2.959h1.283l-2.9-3.61 2.719-2.707h-1.237l-2.742 2.76zm9.246 1.922c-.263.557-.814.855-1.629.855-1.072 0-1.769-.791-1.822-2.039v-.047h4.541v-.386c0-1.963-1.037-3.176-2.742-3.176-1.734 0-2.848 1.289-2.848 3.275 0 1.998 1.096 3.264 2.848 3.264 1.383 0 2.367-.668 2.66-1.746h-1.008zm-1.664-3.902c1.002 0 1.67.738 1.694 1.857h-3.481c.076-1.12.779-1.857 1.787-1.857zm4.395 5.537h1.008v-8.825h-1.008v8.825zm3.504 2.285c1.119 0 1.623-.434 2.162-1.899l2.467-6.703h-1.073l-1.728 5.198h-.094l-1.734-5.198h-1.09l2.338 6.323-.117.375c-.264.761-.58 1.037-1.161 1.037-.14 0-.298-.006-.421-.03v.862c.14.023.316.035.451.035zm9.785-10.237v1.635h-1.02v.844h1.02v3.832c0 1.207.521 1.688 1.822 1.688.199 0 .393-.024.592-.059v-.85a4.163 4.163 0 01-.469.024c-.656 0-.937-.317-.937-1.061v-3.574h1.406v-.844h-1.406v-1.635h-1.008zm6.439 8.063c1.799 0 2.912-1.242 2.912-3.27 0-2.033-1.113-3.269-2.912-3.269-1.798 0-2.912 1.236-2.912 3.27 0 2.027 1.114 3.269 2.912 3.269zm0-.908c-1.195 0-1.869-.867-1.869-2.361 0-1.5.674-2.362 1.869-2.362 1.196 0 1.869.862 1.869 2.362 0 1.494-.673 2.361-1.869 2.361zm-46.242 14.908c.873 0 1.623-.416 2.022-1.119h.093v1.008h.961v-8.825h-1.007v3.504h-.088c-.358-.691-1.102-1.107-1.981-1.107-1.605 0-2.654 1.289-2.654 3.269 0 1.987 1.037 3.27 2.654 3.27zm.235-5.631c1.142 0 1.857.914 1.857 2.361 0 1.459-.709 2.362-1.857 2.362-1.155 0-1.846-.885-1.846-2.362 0-1.47.697-2.361 1.846-2.361zm6.556 5.631c.844 0 1.535-.369 1.945-1.043h.094v.932h.961v-4.325c0-1.312-.861-2.103-2.402-2.103-1.348 0-2.344.668-2.479 1.682h1.02c.14-.498.668-.786 1.424-.786.943 0 1.429.428 1.429 1.207v.575l-1.822.111c-1.471.088-2.303.738-2.303 1.869 0 1.154.909 1.881 2.133 1.881zm.188-.885c-.733 0-1.278-.375-1.278-1.019 0-.633.422-.967 1.383-1.032l1.699-.111v.58c0 .903-.767 1.582-1.804 1.582zm5.097-7.177v1.634h-1.019v.844h1.019v3.832c0 1.207.522 1.688 1.823 1.688.199 0 .392-.024.591-.059v-.85a4.146 4.146 0 01-.468.024c-.657 0-.938-.317-.938-1.061v-3.574h1.406v-.844h-1.406v-1.634h-1.008zm8.028 6.316c-.264.557-.815.855-1.629.855-1.072 0-1.77-.791-1.822-2.039v-.047h4.541v-.386c0-1.963-1.038-3.176-2.743-3.176-1.734 0-2.847 1.289-2.847 3.275 0 1.998 1.095 3.264 2.847 3.264 1.383 0 2.368-.668 2.66-1.746h-1.007zm-1.664-3.902c1.002 0 1.67.738 1.693 1.857h-3.48c.076-1.119.779-1.857 1.787-1.857zm9.48 5.648c.844 0 1.535-.369 1.945-1.043h.094v.932h.961v-4.325c0-1.312-.861-2.103-2.402-2.103-1.348 0-2.344.668-2.479 1.682h1.02c.14-.498.668-.786 1.424-.786.943 0 1.429.428 1.429 1.207v.575l-1.822.111c-1.471.088-2.303.738-2.303 1.869 0 1.154.908 1.881 2.133 1.881zm.188-.885c-.733 0-1.278-.375-1.278-1.019 0-.633.422-.967 1.383-1.032l1.699-.111v.58c0 .903-.767 1.582-1.804 1.582zm7.277 3.199c1.723 0 2.812-.902 2.812-2.314v-6.428h-.961v1.002h-.093c-.364-.679-1.143-1.113-2.028-1.113-1.623 0-2.648 1.283-2.648 3.176 0 1.892 1.014 3.158 2.648 3.158.868 0 1.582-.393 1.981-1.09h.094v1.242c0 .932-.674 1.489-1.805 1.489-.908 0-1.471-.334-1.582-.85h-1.067c.153 1.043 1.125 1.728 2.649 1.728zm-.047-3.41c-1.172 0-1.828-.89-1.828-2.267 0-1.377.656-2.268 1.828-2.268 1.166 0 1.875.891 1.875 2.268 0 1.377-.703 2.267-1.875 2.267zm6.516 1.096c.843 0 1.535-.369 1.945-1.043h.094v.932h.961v-4.325c0-1.312-.862-2.103-2.403-2.103-1.347 0-2.343.668-2.478 1.682h1.019c.141-.498.668-.786 1.424-.786.944 0 1.43.428 1.43 1.207v.575l-1.822.111c-1.471.088-2.303.738-2.303 1.869 0 1.154.908 1.881 2.133 1.881zm.187-.885c-.732 0-1.277-.375-1.277-1.019 0-.633.422-.967 1.383-1.032l1.699-.111v.58c0 .903-.768 1.582-1.805 1.582zm5.203-6.761a.705.705 0 00.703-.704.705.705 0 00-.703-.703.706.706 0 00-.703.703c0 .387.317.704.703.704zm-.504 7.535h1.008v-6.317h-1.008v6.317zm2.93 0h1.008v-3.739c0-1.107.65-1.781 1.658-1.781s1.488.539 1.488 1.676v3.844h1.008v-4.09c0-1.5-.791-2.338-2.209-2.338-.967 0-1.582.41-1.898 1.107h-.094v-.996h-.961v6.317z" fill="#7D8893"/></g><g clip-path="url(#clip14)"><path d="M542.714 83.909v5" stroke="#C2CBD3"/><path d="M516.874 101.909l3.117-8.455h-1.107l-2.485 7.089h-.093l-2.485-7.09h-1.107l3.117 8.456h1.043zm8.068-1.635c-.263.557-.814.855-1.629.855-1.072 0-1.769-.791-1.822-2.039v-.047h4.541v-.386c0-1.963-1.037-3.176-2.742-3.176-1.734 0-2.848 1.289-2.848 3.275 0 1.998 1.096 3.264 2.848 3.264 1.383 0 2.367-.668 2.66-1.746h-1.008zm-1.664-3.902c1.002 0 1.67.738 1.694 1.857h-3.481c.076-1.12.78-1.857 1.787-1.857zm4.336 5.537h1.008v-3.914c0-.891.697-1.535 1.658-1.535.199 0 .563.035.645.058V95.51a4.327 4.327 0 00-.504-.029c-.838 0-1.565.434-1.752 1.049h-.094v-.938h-.961v6.317zm5.11 2.285c1.119 0 1.623-.434 2.162-1.899l2.467-6.703h-1.073l-1.728 5.198h-.094l-1.734-5.198h-1.09l2.338 6.323-.118.375c-.263.761-.58 1.037-1.16 1.037-.14 0-.298-.006-.422-.03v.862c.141.023.317.035.452.035zm9.422-2.285h1.007v-8.825h-1.007v8.825zm3.492-7.535a.706.706 0 00.703-.704.706.706 0 00-.703-.703.705.705 0 00-.703.703c0 .387.316.704.703.704zm-.504 7.535h1.008v-6.317h-1.008v6.317zm4.09-3.557h-.094v-5.267h-1.008v8.824h1.008v-2.397l.603-.562 2.368 2.959h1.283l-2.901-3.61 2.719-2.707h-1.236l-2.742 2.76zm9.246 1.922c-.264.557-.815.855-1.629.855-1.072 0-1.77-.791-1.822-2.039v-.047h4.541v-.386c0-1.963-1.038-3.176-2.743-3.176-1.734 0-2.847 1.289-2.847 3.275 0 1.998 1.095 3.264 2.847 3.264 1.383 0 2.368-.668 2.661-1.746h-1.008zm-1.664-3.902c1.002 0 1.67.738 1.693 1.857h-3.48c.076-1.12.779-1.857 1.787-1.857zm4.394 5.537h1.008v-8.825H561.2v8.825zm3.504 2.285c1.119 0 1.623-.434 2.162-1.899l2.467-6.703h-1.072l-1.729 5.198h-.094l-1.734-5.198h-1.09l2.338 6.323-.117.375c-.264.761-.58 1.037-1.16 1.037-.141 0-.299-.006-.422-.03v.862c.141.023.316.035.451.035zm-57.498 3.764v1.634h-1.019v.844h1.019v3.832c0 1.207.522 1.688 1.822 1.688.2 0 .393-.024.592-.059v-.85a4.151 4.151 0 01-.469.024c-.656 0-.937-.317-.937-1.061v-3.574h1.406v-.844h-1.406v-1.634h-1.008zm6.44 8.062c1.798 0 2.912-1.242 2.912-3.27 0-2.033-1.114-3.269-2.912-3.269-1.799 0-2.913 1.236-2.913 3.269 0 2.028 1.114 3.27 2.913 3.27zm0-.908c-1.196 0-1.87-.867-1.87-2.362 0-1.5.674-2.361 1.87-2.361 1.195 0 1.869.861 1.869 2.361 0 1.495-.674 2.362-1.869 2.362zm10.218.908c.873 0 1.623-.416 2.022-1.119h.093v1.008h.961v-8.825h-1.007v3.504h-.088c-.358-.691-1.102-1.107-1.981-1.107-1.605 0-2.654 1.289-2.654 3.269 0 1.987 1.037 3.27 2.654 3.27zm.235-5.631c1.142 0 1.857.914 1.857 2.361 0 1.459-.709 2.362-1.857 2.362-1.155 0-1.846-.885-1.846-2.362 0-1.47.697-2.361 1.846-2.361zm6.556 5.631c.844 0 1.535-.369 1.946-1.043h.093v.932h.961v-4.325c0-1.312-.861-2.103-2.402-2.103-1.348 0-2.344.668-2.479 1.682h1.02c.141-.498.668-.786 1.424-.786.943 0 1.429.428 1.429 1.207v.575l-1.822.111c-1.471.088-2.303.738-2.303 1.869 0 1.154.909 1.881 2.133 1.881zm.188-.885c-.733 0-1.278-.375-1.278-1.019 0-.633.422-.967 1.383-1.032l1.699-.111v.58c0 .903-.767 1.582-1.804 1.582zm5.097-7.177v1.634h-1.019v.844h1.019v3.832c0 1.207.522 1.688 1.823 1.688.199 0 .392-.024.591-.059v-.85a4.146 4.146 0 01-.468.024c-.657 0-.938-.317-.938-1.061v-3.574h1.406v-.844h-1.406v-1.634h-1.008zm8.028 6.316c-.264.557-.815.855-1.629.855-1.072 0-1.77-.791-1.822-2.039v-.047h4.541v-.386c0-1.963-1.037-3.176-2.743-3.176-1.734 0-2.847 1.289-2.847 3.275 0 1.998 1.095 3.264 2.847 3.264 1.383 0 2.368-.668 2.661-1.746h-1.008zm-1.664-3.902c1.002 0 1.67.738 1.693 1.857h-3.48c.076-1.119.779-1.857 1.787-1.857zm9.48 5.648c.844 0 1.535-.369 1.945-1.043h.094v.932h.961v-4.325c0-1.312-.861-2.103-2.402-2.103-1.348 0-2.344.668-2.479 1.682h1.02c.14-.498.668-.786 1.424-.786.943 0 1.429.428 1.429 1.207v.575l-1.822.111c-1.471.088-2.303.738-2.303 1.869 0 1.154.909 1.881 2.133 1.881zm.188-.885c-.733 0-1.278-.375-1.278-1.019 0-.633.422-.967 1.383-1.032l1.699-.111v.58c0 .903-.767 1.582-1.804 1.582zm7.277 3.199c1.723 0 2.813-.902 2.813-2.314v-6.428h-.961v1.002h-.094c-.363-.679-1.143-1.113-2.028-1.113-1.623 0-2.648 1.283-2.648 3.176 0 1.892 1.014 3.158 2.648 3.158.868 0 1.583-.393 1.981-1.09h.094v1.242c0 .932-.674 1.489-1.805 1.489-.908 0-1.471-.334-1.582-.85h-1.066c.152 1.043 1.125 1.728 2.648 1.728zm-.047-3.41c-1.172 0-1.828-.89-1.828-2.267 0-1.377.656-2.268 1.828-2.268 1.166 0 1.875.891 1.875 2.268 0 1.377-.703 2.267-1.875 2.267zm6.516 1.096c.844 0 1.535-.369 1.945-1.043h.094v.932h.961v-4.325c0-1.312-.862-2.103-2.403-2.103-1.347 0-2.343.668-2.478 1.682h1.019c.141-.498.668-.786 1.424-.786.944 0 1.43.428 1.43 1.207v.575l-1.822.111c-1.471.088-2.303.738-2.303 1.869 0 1.154.908 1.881 2.133 1.881zm.187-.885c-.732 0-1.277-.375-1.277-1.019 0-.633.422-.967 1.383-1.032l1.699-.111v.58c0 .903-.768 1.582-1.805 1.582zm5.203-6.761a.706.706 0 00.704-.704.706.706 0 00-.704-.703.706.706 0 00-.703.703c0 .387.317.704.703.704zm-.504 7.535h1.008v-6.317h-1.008v6.317zm2.93 0h1.008v-3.739c0-1.107.65-1.781 1.658-1.781s1.488.539 1.488 1.676v3.844h1.008v-4.09c0-1.5-.791-2.338-2.209-2.338-.966 0-1.582.41-1.898 1.107h-.094v-.996h-.961v6.317z" fill="#7D8893"/></g></g><path stroke="#CED0D7" d="M339.214 78v75"/><rect x="257.84" y="131" width="163" height="22" rx="4.977" fill="#EFF0F3"/><path d="M268.285 146v-3.622l2.986-4.795h-1.195l-2.269 3.739h-.094l-2.269-3.739h-1.195l2.986 4.795V146h1.05zm5.932.111c1.79 0 2.899-1.237 2.899-3.255 0-2.024-1.109-3.254-2.899-3.254-1.791 0-2.899 1.23-2.899 3.254 0 2.018 1.108 3.255 2.899 3.255zm0-.904c-1.19 0-1.861-.863-1.861-2.351 0-1.493.671-2.35 1.861-2.35s1.86.857 1.86 2.35c0 1.488-.67 2.351-1.86 2.351zm9.559-5.495h-1.003v3.722c0 1.102-.606 1.761-1.715 1.761-1.003 0-1.423-.525-1.423-1.656v-3.827h-1.003v4.072c0 1.487.735 2.327 2.146 2.327.963 0 1.634-.397 1.949-1.097h.093V146h.956v-6.288zm1.89 6.288h1.003v-3.896c0-.887.695-1.528 1.651-1.528.198 0 .56.035.642.058v-1.003a4.222 4.222 0 00-.502-.029c-.834 0-1.557.431-1.744 1.044h-.093v-.934h-.957V146zm8.341 0h1.003v-5.448h1.441v-.84h-1.441v-.67c0-.689.303-1.039 1.027-1.039.18 0 .35.006.472.03v-.817a3.504 3.504 0 00-.676-.058c-1.196 0-1.826.6-1.826 1.854v.7h-1.044v.84h1.044V146zm4.433-7.501c.385 0 .7-.315.7-.7 0-.385-.315-.7-.7-.7-.385 0-.7.315-.7.7 0 .385.315.7.7.7zm-.502 7.501h1.003v-6.288h-1.003V146zm2.916 0h1.004v-3.721c0-1.103.647-1.773 1.65-1.773 1.004 0 1.482.536 1.482 1.668V146h1.003v-4.071c0-1.493-.787-2.327-2.199-2.327-.962 0-1.575.408-1.89 1.102h-.093v-.992h-.957V146zm8.726.111c.84 0 1.528-.368 1.937-1.038h.093V146h.956v-4.304c0-1.307-.857-2.094-2.391-2.094-1.341 0-2.333.665-2.467 1.674h1.015c.14-.496.665-.782 1.417-.782.939 0 1.423.426 1.423 1.202v.571l-1.814.111c-1.464.087-2.292.735-2.292 1.861 0 1.149.904 1.872 2.123 1.872zm.187-.881c-.729 0-1.272-.373-1.272-1.015 0-.63.42-.962 1.377-1.026l1.691-.111v.577c0 .899-.764 1.575-1.796 1.575zm4.713.77h1.003v-8.784h-1.003V146zm9.384-6.398c-.857 0-1.61.437-2.012 1.16h-.093v-1.05h-.957v8.388h1.003v-3.045h.094c.344.665 1.067 1.056 1.965 1.056 1.598 0 2.642-1.289 2.642-3.255 0-1.977-1.038-3.254-2.642-3.254zm-.239 5.605c-1.131 0-1.849-.91-1.849-2.351 0-1.446.718-2.35 1.855-2.35 1.149 0 1.837.88 1.837 2.35 0 1.47-.688 2.351-1.843 2.351zm4.456.793h1.003v-3.896c0-.887.695-1.528 1.651-1.528.198 0 .56.035.642.058v-1.003a4.222 4.222 0 00-.502-.029c-.834 0-1.557.431-1.744 1.044h-.093v-.934h-.957V146zm8.539-1.627c-.262.554-.81.851-1.621.851-1.068 0-1.762-.787-1.814-2.03v-.046h4.52v-.385c0-1.954-1.032-3.161-2.73-3.161-1.726 0-2.834 1.283-2.834 3.26 0 1.989 1.09 3.249 2.834 3.249 1.377 0 2.357-.665 2.648-1.738h-1.003zm-1.656-3.885c.997 0 1.662.735 1.685 1.849h-3.464c.076-1.114.776-1.849 1.779-1.849zm6.643 5.623c.869 0 1.616-.414 2.012-1.114h.094V146h.956v-8.784h-1.003v3.488h-.087c-.356-.688-1.097-1.102-1.972-1.102-1.598 0-2.642 1.283-2.642 3.254 0 1.977 1.032 3.255 2.642 3.255zm.233-5.605c1.138 0 1.849.91 1.849 2.35 0 1.453-.705 2.351-1.849 2.351-1.149 0-1.837-.881-1.837-2.351 0-1.464.694-2.35 1.837-2.35zm5.302-2.007c.385 0 .7-.315.7-.7 0-.385-.315-.7-.7-.7-.385 0-.7.315-.7.7 0 .385.315.7.7.7zm-.501 7.501h1.003v-6.288h-1.003V146zm8.119-4.363c-.175-1.12-1.108-2.035-2.637-2.035-1.761 0-2.881 1.271-2.881 3.231 0 2 1.126 3.278 2.887 3.278 1.511 0 2.45-.852 2.631-2.007h-1.015c-.187.712-.776 1.103-1.622 1.103-1.119 0-1.843-.922-1.843-2.374 0-1.423.712-2.327 1.843-2.327.905 0 1.459.507 1.622 1.131h1.015zm2.018-3.552v1.627h-1.015v.84h1.015v3.815c0 1.201.519 1.68 1.814 1.68.198 0 .391-.024.589-.059v-.845a4.37 4.37 0 01-.467.023c-.653 0-.933-.315-.933-1.056v-3.558h1.4v-.84h-1.4v-1.627h-1.003zm4.444.414c.385 0 .7-.315.7-.7 0-.385-.315-.7-.7-.7-.385 0-.7.315-.7.7 0 .385.315.7.7.7zm-.501 7.501h1.003v-6.288h-1.003V146zm5.5.111c1.791 0 2.899-1.237 2.899-3.255 0-2.024-1.108-3.254-2.899-3.254s-2.899 1.23-2.899 3.254c0 2.018 1.108 3.255 2.899 3.255zm0-.904c-1.19 0-1.861-.863-1.861-2.351 0-1.493.671-2.35 1.861-2.35s1.861.857 1.861 2.35c0 1.488-.671 2.351-1.861 2.351zm4.474.793h1.003v-3.721c0-1.103.647-1.773 1.65-1.773 1.004 0 1.482.536 1.482 1.668V146h1.003v-4.071c0-1.493-.787-2.327-2.199-2.327-.962 0-1.575.408-1.89 1.102h-.093v-.992h-.956V146zm15.374-2.91v-.951h-5.972v.951h5.972zm7.11 3.108c1.721 0 2.893-1.19 2.893-2.922 0-1.668-1.166-2.776-2.578-2.776-.839 0-1.464.256-1.872.764h-.093l.262-2.741h3.85v-.94h-4.672l-.484 4.812h.986c.332-.624.962-.991 1.761-.991 1.062 0 1.791.764 1.791 1.901 0 1.179-.729 1.972-1.832 1.972-.991 0-1.715-.601-1.808-1.499h-1.032c.093 1.44 1.236 2.42 2.828 2.42zm7.472 0c1.785 0 3.033-1.009 3.033-2.449 0-1.097-.694-1.949-1.75-2.147v-.093c.869-.239 1.406-.957 1.406-1.878 0-1.313-1.114-2.246-2.689-2.246s-2.689.933-2.689 2.246c0 .915.549 1.645 1.406 1.878v.093c-1.056.198-1.75 1.05-1.75 2.147 0 1.44 1.248 2.449 3.033 2.449zm0-5.039c-.991 0-1.656-.572-1.656-1.429 0-.869.659-1.447 1.656-1.447.997 0 1.657.578 1.657 1.447 0 .857-.665 1.429-1.657 1.429zm0 4.141c-1.166 0-1.971-.665-1.971-1.627 0-.963.805-1.628 1.971-1.628 1.167 0 1.972.665 1.972 1.628 0 .962-.805 1.627-1.972 1.627zm6.019-3.908c1.138 0 1.826-.741 1.826-1.983 0-1.225-.694-1.977-1.826-1.977-1.131 0-1.831.752-1.831 1.977 0 1.237.688 1.983 1.831 1.983zm.38 4.608l5.815-8.417h-.951L406.099 146h.951zm-.38-5.372c-.589 0-.927-.443-.927-1.213 0-.764.338-1.213.927-1.213.584 0 .922.449.922 1.213s-.333 1.213-.922 1.213zm5.629 5.454c1.137 0 1.826-.741 1.826-1.983 0-1.225-.695-1.978-1.826-1.978-1.132 0-1.832.753-1.832 1.978 0 1.236.695 1.983 1.832 1.983zm0-.764c-.589 0-.922-.444-.922-1.214 0-.764.333-1.213.922-1.213s.921.449.921 1.213-.332 1.214-.921 1.214z" fill="#505962"/><circle cx="338.714" cy="75" r="4" fill="#A7B0BA"/><path stroke="#A9DBFF" d="M203.214 74v100"/><circle cx="203.34" cy="74.5" r="5.5" fill="#A9DBFF"/><rect x="142.34" y="156" width="122" height="20" rx="4.977" fill="#A9DBFF"/><path d="M154.885 170h1.102l-3.103-8.417h-1.038L148.743 170h1.102l.846-2.409h3.348l.846 2.409zm-2.567-7.058h.094l1.318 3.757H151l1.318-3.757zm6.195 7.058v-8.417h-1.05V170h1.05zm5.517-8.417V170h1.05v-3.004h2.117c1.581 0 2.707-1.114 2.707-2.689 0-1.604-1.103-2.724-2.695-2.724h-3.179zm1.05.934h1.855c1.219 0 1.89.635 1.89 1.79 0 1.114-.694 1.756-1.89 1.756h-1.855v-3.546zm6.416 7.483h1.003v-3.896c0-.887.694-1.528 1.651-1.528.198 0 .56.035.642.058v-1.003a4.222 4.222 0 00-.502-.029c-.834 0-1.557.431-1.744 1.044h-.093v-.934h-.957V170zm8.539-1.627c-.262.554-.811.851-1.621.851-1.068 0-1.762-.787-1.814-2.03v-.046h4.52v-.385c0-1.954-1.032-3.161-2.73-3.161-1.726 0-2.834 1.283-2.834 3.26 0 1.989 1.09 3.249 2.834 3.249 1.377 0 2.357-.665 2.648-1.738h-1.003zm-1.656-3.885c.997 0 1.662.735 1.685 1.849H176.6c.075-1.114.775-1.849 1.779-1.849zm6.643 5.623c.869 0 1.616-.414 2.012-1.114h.094V170h.956v-8.784h-1.003v3.488h-.088c-.355-.688-1.096-1.102-1.971-1.102-1.598 0-2.642 1.283-2.642 3.254 0 1.977 1.032 3.255 2.642 3.255zm.233-5.605c1.138 0 1.849.91 1.849 2.35 0 1.453-.706 2.351-1.849 2.351-1.149 0-1.837-.881-1.837-2.351 0-1.464.694-2.35 1.837-2.35zm5.302-2.007c.385 0 .7-.315.7-.7 0-.385-.315-.7-.7-.7-.385 0-.7.315-.7.7 0 .385.315.7.7.7zm-.501 7.501h1.003v-6.288h-1.003V170zm8.119-4.363c-.175-1.12-1.109-2.035-2.637-2.035-1.761 0-2.881 1.271-2.881 3.231 0 2 1.126 3.278 2.887 3.278 1.511 0 2.45-.852 2.631-2.007h-1.015c-.187.712-.776 1.103-1.622 1.103-1.12 0-1.843-.922-1.843-2.374 0-1.423.712-2.327 1.843-2.327.904 0 1.458.507 1.622 1.131h1.015zm2.018-3.552v1.627h-1.015v.84h1.015v3.815c0 1.201.519 1.68 1.814 1.68.198 0 .39-.024.589-.059v-.845a4.37 4.37 0 01-.467.023c-.653 0-.933-.315-.933-1.056v-3.558h1.4v-.84h-1.4v-1.627h-1.003zm4.444.414c.385 0 .7-.315.7-.7 0-.385-.315-.7-.7-.7-.385 0-.7.315-.7.7 0 .385.315.7.7.7zm-.501 7.501h1.003v-6.288h-1.003V170zm5.5.111c1.79 0 2.899-1.237 2.899-3.255 0-2.024-1.109-3.254-2.899-3.254-1.791 0-2.899 1.23-2.899 3.254 0 2.018 1.108 3.255 2.899 3.255zm0-.904c-1.19 0-1.861-.863-1.861-2.351 0-1.493.671-2.35 1.861-2.35s1.86.857 1.86 2.35c0 1.488-.67 2.351-1.86 2.351zm4.473.793h1.004v-3.721c0-1.103.647-1.773 1.65-1.773s1.482.536 1.482 1.668V170h1.003v-4.071c0-1.493-.787-2.327-2.199-2.327-.962 0-1.575.408-1.89 1.102h-.093v-.992h-.957V170zm15.375-2.91v-.951h-5.972v.951h5.972zm4.258-3.133h1.015c0-.997.671-1.656 1.68-1.656.991 0 1.592.665 1.592 1.557 0 .741-.315 1.178-1.388 2.339l-2.846 3.08V170h5.447v-.945h-3.989v-.093l1.913-1.977c1.516-1.569 1.936-2.269 1.936-3.238 0-1.364-1.125-2.362-2.595-2.362-1.61 0-2.765 1.073-2.765 2.572zm10.073 6.241c1.721 0 2.893-1.19 2.893-2.922 0-1.668-1.166-2.776-2.578-2.776-.84 0-1.464.256-1.872.764h-.094l.263-2.741h3.849v-.94h-4.671l-.485 4.812h.986c.333-.624.963-.991 1.762-.991 1.061 0 1.79.764 1.79 1.901 0 1.179-.729 1.972-1.831 1.972-.992 0-1.715-.601-1.808-1.499h-1.033c.094 1.44 1.237 2.42 2.829 2.42zm5.862-4.806c1.137 0 1.826-.741 1.826-1.983 0-1.225-.695-1.977-1.826-1.977-1.132 0-1.832.752-1.832 1.977 0 1.237.689 1.983 1.832 1.983zm.379 4.608l5.815-8.417h-.951L249.105 170h.951zm-.379-5.372c-.589 0-.927-.443-.927-1.213 0-.764.338-1.213.927-1.213.583 0 .921.449.921 1.213s-.332 1.213-.921 1.213zm5.628 5.454c1.138 0 1.826-.741 1.826-1.983 0-1.225-.694-1.978-1.826-1.978-1.131 0-1.831.753-1.831 1.978 0 1.236.694 1.983 1.831 1.983zm0-.764c-.589 0-.921-.444-.921-1.214 0-.764.332-1.213.921-1.213.59 0 .922.449.922 1.213s-.332 1.214-.922 1.214z" fill="#2E5882"/></g></g><rect x="1.714" y="221.5" width="582" height="59" rx="3.5" fill="#E0FCE6"/><path d="M119.242 244.771c-3.512 0-5.743 2.396-5.743 6.263 0 3.859 2.198 6.272 5.743 6.272 3.52 0 5.735-2.413 5.735-6.272 0-3.859-2.223-6.263-5.735-6.263zm0 2.115c1.934 0 3.181 1.611 3.181 4.148 0 2.529-1.239 4.156-3.181 4.156-1.966 0-3.189-1.627-3.189-4.156 0-2.537 1.247-4.148 3.189-4.148zm16.113 1.017h-2.405v5.255c0 1.247-.644 2.016-1.842 2.016-1.108 0-1.678-.653-1.678-1.942v-5.329h-2.404v5.924c0 2.115 1.223 3.363 3.189 3.363 1.38 0 2.231-.595 2.661-1.653h.149V257h2.33v-9.097zm3.098-2.174v2.256h-1.421v1.826h1.421v4.735c0 1.768.876 2.487 3.091 2.487.462 0 .909-.05 1.206-.107v-1.777a5.65 5.65 0 01-.711.041c-.818 0-1.181-.38-1.181-1.198v-4.181h1.892v-1.826h-1.892v-2.256h-2.405zm14.304 5.346c-.199-2.032-1.645-3.371-4.058-3.371-2.85 0-4.453 1.727-4.453 4.727 0 3.032 1.611 4.759 4.453 4.759 2.372 0 3.859-1.305 4.058-3.305h-2.248c-.182.909-.826 1.396-1.81 1.396-1.289 0-2.024-1.016-2.024-2.85 0-1.81.727-2.81 2.024-2.81 1.025 0 1.645.579 1.81 1.454h2.248zm5.924 6.115c2.801 0 4.487-1.768 4.487-4.743 0-2.95-1.711-4.743-4.487-4.743s-4.487 1.802-4.487 4.743c0 2.967 1.686 4.743 4.487 4.743zm0-1.9c-1.289 0-2.016-1.042-2.016-2.843 0-1.785.735-2.834 2.016-2.834 1.273 0 2.016 1.049 2.016 2.834 0 1.801-.735 2.843-2.016 2.843zm6.453 1.71h2.405v-5.487c0-1.041.669-1.801 1.611-1.801s1.504.562 1.504 1.537V257h2.314v-5.594c0-.983.628-1.694 1.603-1.694 1.016 0 1.52.545 1.52 1.644V257h2.405v-6.247c0-1.875-1.133-3.049-2.95-3.049-1.273 0-2.322.67-2.744 1.678h-.148c-.364-1.042-1.24-1.678-2.521-1.678-1.198 0-2.148.636-2.52 1.678h-.148v-1.479h-2.331V257zm21.591-2.57c-.256.62-.909.967-1.859.967-1.256 0-2.049-.868-2.082-2.256v-.124h6.255v-.719c0-2.875-1.586-4.594-4.272-4.594-2.71 0-4.379 1.835-4.379 4.793 0 2.941 1.636 4.693 4.412 4.693 2.231 0 3.809-1.066 4.165-2.76h-2.24zm-1.95-4.933c1.124 0 1.851.777 1.901 2.025h-3.884c.083-1.223.868-2.025 1.983-2.025zM200.69 257v-10.585h3.842v-1.338h-9.172v1.338h3.842V257h1.488zm6.04 0h1.421v-5.272c0-1.504.876-2.512 2.471-2.512 1.347 0 2.057.785 2.057 2.364V257h1.421v-5.768c0-2.09-1.189-3.296-3.073-3.296-1.364 0-2.297.578-2.744 1.561h-.132v-4.941h-1.421V257zm15.865-2.305c-.372.785-1.149 1.206-2.297 1.206-1.512 0-2.496-1.115-2.57-2.875v-.067h6.404v-.545c0-2.768-1.463-4.478-3.867-4.478-2.446 0-4.016 1.817-4.016 4.619 0 2.817 1.545 4.602 4.016 4.602 1.95 0 3.338-.942 3.751-2.462h-1.421zm-2.347-5.503c1.413 0 2.355 1.041 2.388 2.619h-4.908c.107-1.578 1.099-2.619 2.52-2.619zm18.261 1.627c-.248-1.586-1.57-2.883-3.735-2.883-2.495 0-4.082 1.801-4.082 4.577 0 2.834 1.595 4.644 4.091 4.644 2.14 0 3.47-1.206 3.726-2.842h-1.438c-.264 1.008-1.099 1.561-2.297 1.561-1.586 0-2.611-1.305-2.611-3.363 0-2.016 1.008-3.297 2.611-3.297 1.281 0 2.066.719 2.297 1.603h1.438zm5.759 6.338c2.537 0 4.107-1.752 4.107-4.611 0-2.867-1.57-4.61-4.107-4.61-2.536 0-4.106 1.743-4.106 4.61 0 2.859 1.57 4.611 4.106 4.611zm0-1.281c-1.685 0-2.636-1.223-2.636-3.33 0-2.115.951-3.33 2.636-3.33 1.686 0 2.636 1.215 2.636 3.33 0 2.107-.95 3.33-2.636 3.33zm13.543-7.783h-1.421v5.271c0 1.562-.859 2.496-2.429 2.496-1.421 0-2.016-.744-2.016-2.347v-5.42h-1.422v5.767c0 2.107 1.042 3.297 3.041 3.297 1.364 0 2.314-.562 2.76-1.553h.132V257h1.355v-8.907zm7.015-.157c-1.214 0-2.28.619-2.85 1.644h-.132v-1.487h-1.356v11.882h1.422v-4.314h.132c.487.942 1.512 1.496 2.784 1.496 2.265 0 3.744-1.826 3.744-4.611 0-2.801-1.471-4.61-3.744-4.61zm-.338 7.94c-1.603 0-2.62-1.289-2.62-3.33 0-2.049 1.017-3.33 2.628-3.33 1.628 0 2.603 1.248 2.603 3.33 0 2.083-.975 3.33-2.611 3.33zm6.395 1.124h1.421v-12.444h-1.421V257zm10.081-2.305c-.372.785-1.149 1.206-2.297 1.206-1.512 0-2.495-1.115-2.57-2.875v-.067h6.404v-.545c0-2.768-1.463-4.478-3.867-4.478-2.446 0-4.016 1.817-4.016 4.619 0 2.817 1.545 4.602 4.016 4.602 1.95 0 3.338-.942 3.751-2.462h-1.421zm-2.347-5.503c1.413 0 2.355 1.041 2.388 2.619h-4.908c.108-1.578 1.099-2.619 2.52-2.619zm14.56 11.229c2.429 0 3.966-1.273 3.966-3.264v-9.064h-1.355v1.413h-.133c-.512-.959-1.611-1.57-2.859-1.57-2.288 0-3.734 1.809-3.734 4.478 0 2.669 1.429 4.454 3.734 4.454 1.223 0 2.231-.554 2.793-1.537h.133v1.752c0 1.313-.951 2.098-2.545 2.098-1.281 0-2.074-.471-2.231-1.198h-1.504c.215 1.471 1.586 2.438 3.735 2.438zm-.067-4.809c-1.652 0-2.578-1.256-2.578-3.198s.926-3.198 2.578-3.198c1.645 0 2.645 1.256 2.645 3.198s-.992 3.198-2.645 3.198zm10.37 1.545c2.537 0 4.107-1.752 4.107-4.611 0-2.867-1.57-4.61-4.107-4.61-2.536 0-4.106 1.743-4.106 4.61 0 2.859 1.57 4.611 4.106 4.611zm0-1.281c-1.685 0-2.635-1.223-2.635-3.33 0-2.115.95-3.33 2.635-3.33 1.686 0 2.636 1.215 2.636 3.33 0 2.107-.95 3.33-2.636 3.33zm12.238-1.181c-.372.785-1.149 1.206-2.297 1.206-1.512 0-2.496-1.115-2.57-2.875v-.067h6.404v-.545c0-2.768-1.463-4.478-3.867-4.478-2.446 0-4.016 1.817-4.016 4.619 0 2.817 1.545 4.602 4.016 4.602 1.95 0 3.338-.942 3.751-2.462h-1.421zm-2.347-5.503c1.413 0 2.355 1.041 2.388 2.619h-4.908c.107-1.578 1.099-2.619 2.52-2.619zm5.908 1.338c0 1.289.76 2.008 2.429 2.413l1.529.372c.95.231 1.413.644 1.413 1.256 0 .818-.859 1.388-2.057 1.388-1.141 0-1.851-.479-2.091-1.231h-1.462c.157 1.479 1.52 2.429 3.503 2.429 2.024 0 3.57-1.099 3.57-2.694 0-1.28-.81-2.008-2.488-2.412l-1.371-.331c-1.05-.256-1.545-.636-1.545-1.248 0-.793.826-1.33 1.884-1.33 1.074 0 1.768.471 1.958 1.182h1.405c-.19-1.463-1.488-2.388-3.355-2.388-1.892 0-3.322 1.115-3.322 2.594zm17.501 6.627c2.537 0 4.107-1.752 4.107-4.611 0-2.867-1.57-4.61-4.107-4.61s-4.107 1.743-4.107 4.61c0 2.859 1.57 4.611 4.107 4.611zm0-1.281c-1.686 0-2.636-1.223-2.636-3.33 0-2.115.95-3.33 2.636-3.33 1.686 0 2.636 1.215 2.636 3.33 0 2.107-.95 3.33-2.636 3.33zm6.338 1.124h1.421v-5.272c0-1.561.917-2.512 2.338-2.512 1.422 0 2.099.761 2.099 2.364V257h1.421v-5.768c0-2.115-1.115-3.296-3.115-3.296-1.363 0-2.231.578-2.677 1.561h-.132v-1.404h-1.355V257zm17.137.157c1.19 0 2.165-.521 2.743-1.471h.132V257h1.356v-6.098c0-1.851-1.215-2.966-3.388-2.966-1.901 0-3.305.942-3.495 2.371h1.437c.199-.702.942-1.107 2.008-1.107 1.331 0 2.016.603 2.016 1.702v.81l-2.569.157c-2.074.124-3.248 1.041-3.248 2.636 0 1.627 1.281 2.652 3.008 2.652zm.264-1.248c-1.032 0-1.801-.529-1.801-1.437 0-.893.595-1.364 1.95-1.455l2.396-.157v.818c0 1.273-1.082 2.231-2.545 2.231zm10.982-2.024c.157 2.057 1.9 3.396 4.429 3.396 2.726 0 4.453-1.396 4.453-3.586 0-1.752-.991-2.71-3.462-3.33l-1.247-.331c-1.645-.421-2.298-.958-2.298-1.892 0-1.206 1.05-1.999 2.636-1.999 1.488 0 2.496.727 2.702 1.95h1.496c-.124-1.926-1.843-3.297-4.148-3.297-2.52 0-4.214 1.371-4.214 3.396 0 1.694.934 2.669 3.09 3.214l1.529.397c1.644.413 2.388 1.057 2.388 2.074 0 1.181-1.182 2.049-2.785 2.049-1.694 0-2.884-.793-3.065-2.041h-1.504zm17.079.81c-.372.785-1.148 1.206-2.297 1.206-1.512 0-2.495-1.115-2.57-2.875v-.067h6.404v-.545c0-2.768-1.462-4.478-3.867-4.478-2.446 0-4.016 1.817-4.016 4.619 0 2.817 1.546 4.602 4.016 4.602 1.95 0 3.338-.942 3.751-2.462h-1.421zm-2.346-5.503c1.413 0 2.355 1.041 2.388 2.619h-4.909c.108-1.578 1.099-2.619 2.521-2.619zm13.485 1.627c-.248-1.586-1.57-2.883-3.735-2.883-2.496 0-4.082 1.801-4.082 4.577 0 2.834 1.595 4.644 4.09 4.644 2.14 0 3.471-1.206 3.727-2.842h-1.438c-.264 1.008-1.099 1.561-2.297 1.561-1.587 0-2.611-1.305-2.611-3.363 0-2.016 1.008-3.297 2.611-3.297 1.281 0 2.066.719 2.297 1.603h1.438zm5.759 6.338c2.537 0 4.107-1.752 4.107-4.611 0-2.867-1.57-4.61-4.107-4.61s-4.107 1.743-4.107 4.61c0 2.859 1.57 4.611 4.107 4.611zm0-1.281c-1.686 0-2.636-1.223-2.636-3.33 0-2.115.95-3.33 2.636-3.33 1.686 0 2.636 1.215 2.636 3.33 0 2.107-.95 3.33-2.636 3.33zm6.338 1.124h1.421v-5.272c0-1.561.917-2.512 2.338-2.512s2.099.761 2.099 2.364V257h1.421v-5.768c0-2.115-1.115-3.296-3.115-3.296-1.363 0-2.231.578-2.677 1.561h-.132v-1.404h-1.355V257zm13.179.157c1.231 0 2.289-.587 2.851-1.578h.132V257h1.355v-12.444h-1.421v4.941h-.124c-.504-.975-1.554-1.561-2.793-1.561-2.264 0-3.743 1.817-3.743 4.61 0 2.801 1.462 4.611 3.743 4.611zm.33-7.941c1.612 0 2.62 1.289 2.62 3.33 0 2.058-1 3.33-2.62 3.33-1.627 0-2.602-1.247-2.602-3.33 0-2.074.983-3.33 2.602-3.33zm11.726-4.139V257h4.09c3.544 0 5.627-2.206 5.627-5.966 0-3.751-2.091-5.957-5.627-5.957h-4.09zm1.487 1.338h2.504c2.644 0 4.205 1.719 4.205 4.636 0 2.908-1.545 4.61-4.205 4.61h-2.504v-9.246zm13.105 10.742c1.19 0 2.165-.521 2.743-1.471h.132V257h1.355v-6.098c0-1.851-1.214-2.966-3.387-2.966-1.901 0-3.305.942-3.496 2.371h1.438c.199-.702.942-1.107 2.008-1.107 1.33 0 2.016.603 2.016 1.702v.81l-2.569.157c-2.074.124-3.248 1.041-3.248 2.636 0 1.627 1.281 2.652 3.008 2.652zm.264-1.248c-1.033 0-1.801-.529-1.801-1.437 0-.893.595-1.364 1.95-1.455l2.396-.157v.818c0 1.273-1.082 2.231-2.545 2.231zm7.189-10.122v2.306h-1.438v1.189h1.438v5.404c0 1.703.735 2.38 2.57 2.38.281 0 .553-.033.834-.083v-1.198a5.934 5.934 0 01-.661.033c-.925 0-1.322-.446-1.322-1.495v-5.041h1.983v-1.189h-1.983v-2.306h-1.421zm11.32 8.908c-.372.785-1.148 1.206-2.297 1.206-1.512 0-2.495-1.115-2.57-2.875v-.067h6.404v-.545c0-2.768-1.462-4.478-3.867-4.478-2.446 0-4.016 1.817-4.016 4.619 0 2.817 1.545 4.602 4.016 4.602 1.95 0 3.338-.942 3.751-2.462h-1.421zm-2.346-5.503c1.413 0 2.354 1.041 2.388 2.619h-4.909c.108-1.578 1.099-2.619 2.521-2.619z" fill="#00B125"/><rect x="1.714" y="221.5" width="582" height="59" rx="3.5" stroke="#00B125"/><rect x="1.214" y="311.5" width="583" height="84" rx="9.5" fill="#fff"/><path d="M80.16 337.623h-4.29v-2.622h4.056V333.7h-4.057v-2.482h4.291v-1.378h-5.928V339h5.928v-1.377zm4.32-2.07h1.815L88.09 339h1.873l-2-3.694c1.092-.394 1.727-1.403 1.727-2.616 0-1.752-1.206-2.85-3.13-2.85h-3.72V339h1.638v-3.447zm0-4.386h1.853c1.04 0 1.676.59 1.676 1.555 0 .984-.597 1.549-1.638 1.549h-1.892v-3.104zm9.485 4.386h1.816L97.577 339h1.873l-2-3.694c1.092-.394 1.727-1.403 1.727-2.616 0-1.752-1.206-2.85-3.13-2.85h-3.72V339h1.638v-3.447zm0-4.386h1.854c1.04 0 1.676.59 1.676 1.555 0 .984-.597 1.549-1.638 1.549h-1.892v-3.104zm11.797-1.555c-2.66 0-4.336 1.847-4.336 4.805 0 2.952 1.651 4.812 4.336 4.812 2.672 0 4.329-1.86 4.329-4.812 0-2.958-1.663-4.805-4.329-4.805zm0 1.415c1.625 0 2.659 1.314 2.659 3.39 0 2.063-1.028 3.396-2.659 3.396-1.651 0-2.66-1.333-2.66-3.396 0-2.076 1.035-3.39 2.66-3.39zm8.496 4.526h1.815l1.796 3.447h1.873l-2-3.694c1.092-.394 1.727-1.403 1.727-2.616 0-1.752-1.206-2.85-3.129-2.85h-3.72V339h1.638v-3.447zm0-4.386h1.853c1.041 0 1.676.59 1.676 1.555 0 .984-.597 1.549-1.638 1.549h-1.891v-3.104z" fill="#A7B0BA"/><path d="M72.538 363.094h2.836c0-1.782 1.172-3 3.012-3 1.77 0 2.824 1.183 2.824 2.718 0 1.29-.516 2.098-2.648 4.254l-5.86 5.895V375h11.742v-2.508h-7.64v-.199l3.632-3.574c2.907-2.848 3.762-4.219 3.762-6.188 0-2.812-2.285-4.863-5.648-4.863-3.528 0-6.012 2.227-6.012 5.426zm21.422 12.328c3.691 0 6.164-2.426 6.164-5.965 0-3.398-2.344-5.566-5.238-5.566-1.723 0-2.965.586-3.715 1.629h-.2l.47-4.946h7.78v-2.484H89.086l-.926 9.832h2.742c.575-1.113 1.688-1.781 3.13-1.781 1.863 0 3.175 1.347 3.175 3.363 0 2.074-1.312 3.457-3.258 3.457-1.722 0-3.023-1.043-3.21-2.625h-2.825c.129 2.965 2.555 5.086 6.047 5.086zm12.199-9.527c2.449 0 3.891-1.512 3.891-4.067 0-2.519-1.477-4.055-3.891-4.055-2.402 0-3.89 1.547-3.89 4.055 0 2.555 1.453 4.067 3.89 4.067zm1.395 9.105l11.39-16.91h-2.414L105.128 375h2.426zm-1.395-10.969c-.961 0-1.535-.797-1.535-2.191 0-1.371.574-2.203 1.535-2.203s1.535.832 1.535 2.203c0 1.383-.55 2.191-1.535 2.191zm11.754 11.157c2.449 0 3.891-1.512 3.891-4.079 0-2.507-1.477-4.043-3.891-4.043-2.402 0-3.891 1.536-3.891 4.043 0 2.555 1.454 4.079 3.891 4.079zm0-1.864c-.973 0-1.523-.797-1.523-2.203 0-1.371.562-2.191 1.523-2.191.973 0 1.535.82 1.535 2.191 0 1.395-.562 2.203-1.535 2.203z" fill="#000"/><path d="M192.714 311v85" stroke="#A7B0BA"/><path d="M264.161 329.84V339h1.638v-3.028h1.987c1.853 0 3.148-1.238 3.148-3.047 0-1.841-1.25-3.085-3.078-3.085h-3.695zm1.638 1.34h1.625c1.181 0 1.847.609 1.847 1.745 0 1.105-.685 1.727-1.853 1.727h-1.619v-3.472zm13.523 6.443h-4.291v-2.622h4.056V333.7h-4.056v-2.482h4.291v-1.378h-5.929V339h5.929v-1.377zm4.262 1.377v-6.31h.108l4.494 6.31h1.415v-9.16h-1.574v6.31h-.108l-4.494-6.31h-1.422V339h1.581zm14.843 0h1.759l-3.257-9.16h-1.841l-3.25 9.16h1.657l.787-2.368h3.371l.774 2.368zm-2.507-7.439h.108l1.244 3.808h-2.609l1.257-3.808zm12.33 6.036h-4.203v-7.757h-1.637V339h5.84v-1.403zm5.125 1.403v-7.782h2.824v-1.378h-7.28v1.378h2.818V339h1.638zm9.359 0v-3.612l3.212-5.548h-1.797l-2.177 3.93h-.108l-2.184-3.93h-1.796l3.212 5.548V339h1.638z" fill="#A7B0BA"/><path d="M284.519 369.516v-2.661h-7.7v2.661h7.7zm7.769 5.484h3.024v-16.91H292.3l-4.418 3.105v2.848l4.207-2.977h.199V375zm14.133.422c3.902 0 6.574-2.016 6.574-4.957 0-2.18-1.453-3.891-3.656-4.301v-.199c1.816-.457 2.965-1.899 2.965-3.727 0-2.66-2.438-4.57-5.871-4.57-3.434 0-5.883 1.91-5.883 4.57 0 1.817 1.172 3.282 2.976 3.727v.199c-2.214.457-3.656 2.168-3.656 4.313 0 2.929 2.672 4.945 6.551 4.945zm.012-10.348c-1.723 0-2.907-1.031-2.907-2.554 0-1.524 1.172-2.579 2.907-2.579 1.722 0 2.894 1.055 2.894 2.579 0 1.511-1.183 2.554-2.894 2.554zm0 8.039c-2.039 0-3.446-1.183-3.446-2.883 0-1.71 1.407-2.894 3.446-2.894 2.027 0 3.433 1.184 3.433 2.894 0 1.7-1.394 2.883-3.433 2.883z" fill="#000"/><path d="M396.714 311v85" stroke="#A7B0BA"/><path d="M467.591 336.518c.082 1.657 1.472 2.711 3.573 2.711 2.222 0 3.599-1.105 3.599-2.882 0-1.39-.78-2.165-2.64-2.59l-1.054-.241c-1.136-.267-1.599-.629-1.599-1.257 0-.794.698-1.314 1.751-1.314 1.003 0 1.714.514 1.829 1.333h1.567c-.076-1.568-1.466-2.666-3.389-2.666-2.05 0-3.409 1.104-3.409 2.755 0 1.358.781 2.177 2.444 2.558l1.187.273c1.174.273 1.676.679 1.676 1.345 0 .781-.781 1.346-1.86 1.346-1.162 0-1.974-.533-2.076-1.371h-1.599zm13.485 2.711c2.113 0 3.662-1.251 3.878-3.104h-1.612c-.222 1.028-1.105 1.682-2.266 1.682-1.562 0-2.533-1.302-2.533-3.39 0-2.082.971-3.383 2.526-3.383 1.156 0 2.038.717 2.266 1.821h1.613c-.191-1.897-1.797-3.243-3.879-3.243-2.596 0-4.202 1.834-4.202 4.811 0 2.965 1.612 4.806 4.209 4.806zm10.298-9.617c-2.66 0-4.335 1.847-4.335 4.805 0 2.952 1.65 4.812 4.335 4.812 2.672 0 4.329-1.86 4.329-4.812 0-2.958-1.663-4.805-4.329-4.805zm0 1.415c1.625 0 2.66 1.314 2.66 3.39 0 2.063-1.029 3.396-2.66 3.396-1.65 0-2.66-1.333-2.66-3.396 0-2.076 1.035-3.39 2.66-3.39zm8.496 4.526h1.815l1.797 3.447h1.872l-1.999-3.694c1.091-.394 1.726-1.403 1.726-2.616 0-1.752-1.206-2.85-3.129-2.85h-3.72V339h1.638v-3.447zm0-4.386h1.853c1.041 0 1.676.59 1.676 1.555 0 .984-.597 1.549-1.638 1.549h-1.891v-3.104zm13.777 6.456h-4.291v-2.622h4.056V333.7h-4.056v-2.482h4.291v-1.378h-5.929V339h5.929v-1.377z" fill="#A7B0BA"/><path d="M483.144 375.422c3.902 0 6.574-2.016 6.574-4.957 0-2.18-1.453-3.891-3.656-4.301v-.199c1.816-.457 2.964-1.899 2.964-3.727 0-2.66-2.437-4.57-5.871-4.57-3.433 0-5.883 1.91-5.883 4.57 0 1.817 1.172 3.282 2.977 3.727v.199c-2.215.457-3.656 2.168-3.656 4.313 0 2.929 2.672 4.945 6.551 4.945zm.011-10.348c-1.722 0-2.906-1.031-2.906-2.554 0-1.524 1.172-2.579 2.906-2.579 1.723 0 2.895 1.055 2.895 2.579 0 1.511-1.184 2.554-2.895 2.554zm0 8.039c-2.039 0-3.445-1.183-3.445-2.883 0-1.71 1.406-2.894 3.445-2.894 2.028 0 3.434 1.184 3.434 2.894 0 1.7-1.395 2.883-3.434 2.883zm9.692-10.019h2.836c0-1.782 1.171-3 3.011-3 1.77 0 2.825 1.183 2.825 2.718 0 1.29-.516 2.098-2.649 4.254l-5.859 5.895V375h11.742v-2.508h-7.641v-.199l3.633-3.574c2.906-2.848 3.762-4.219 3.762-6.188 0-2.812-2.285-4.863-5.649-4.863-3.527 0-6.011 2.227-6.011 5.426z" fill="#000"/><rect x="1.214" y="311.5" width="583" height="84" rx="9.5" stroke="#A7B0BA"/><defs><clipPath id="clip0"><path fill="#fff" transform="translate(1.714)" d="M0 0h582v191H0z"/></clipPath><clipPath id="clip1"><path fill="#fff" transform="translate(1.714)" d="M0 0h582v191H0z"/></clipPath><clipPath id="clip2"><rect x="-7.286" y="46.909" width="600" height="19" rx="5" fill="#fff"/></clipPath><clipPath id="clip3"><path fill="#fff" transform="translate(-7.286 46.909)" d="M0 0h100v19H0z"/></clipPath><clipPath id="clip4"><path fill="#fff" transform="translate(117.714 46.909)" d="M0 0h100v19H0z"/></clipPath><clipPath id="clip5"><path fill="#fff" transform="translate(242.714 46.909)" d="M0 0h100v19H0z"/></clipPath><clipPath id="clip6"><path fill="#fff" transform="translate(367.714 46.909)" d="M0 0h100v19H0z"/></clipPath><clipPath id="clip7"><path fill="#fff" transform="translate(492.714 46.909)" d="M0 0h100v19H0z"/></clipPath><clipPath id="clip8"><path fill="#fff" transform="translate(42.714 72)" d="M0 0h500v5H0z"/></clipPath><clipPath id="clip9"><rect x="-7.286" y="83.909" width="600" height="43" rx="5" fill="#fff"/></clipPath><clipPath id="clip10"><path fill="#fff" transform="translate(-7.286 83.909)" d="M0 0h100v35H0z"/></clipPath><clipPath id="clip11"><path fill="#fff" transform="translate(117.714 83.909)" d="M0 0h100v35H0z"/></clipPath><clipPath id="clip12"><path fill="#fff" transform="translate(242.714 83.909)" d="M0 0h100v35H0z"/></clipPath><clipPath id="clip13"><path fill="#fff" transform="translate(367.714 83.909)" d="M0 0h100v35H0z"/></clipPath><clipPath id="clip14"><path fill="#fff" transform="translate(492.714 83.909)" d="M0 0h100v35H0z"/></clipPath></defs></svg>